<?xml version="1.0" encoding="utf-8"?>
<!-- Generator: Adobe Illustrator 22.1.0, SVG Export Plug-In . SVG Version: 6.00 Build 0)  -->
<svg version="1.1" id="Capa_1" xmlns="http://www.w3.org/2000/svg" xmlns:xlink="http://www.w3.org/1999/xlink" x="0px" y="0px"
	 viewBox="0 0 43 49.7" style="enable-background:new 0 0 43 49.7;" xml:space="preserve">
<style type="text/css">
	.st0{display:none;}
	.st1{display:inline;fill:#75574A;}
	.st2{display:inline;fill:#84685A;}
	.st3{display:inline;fill:#AA8979;}
	.st4{display:inline;fill:#AF9485;}
	.st5{display:inline;fill:#EDB894;}
	.st6{display:inline;fill:#F4C6A6;}
	.st7{display:inline;fill:#B59278;}
	.st8{display:inline;fill:#C1A185;}
	.st9{display:inline;fill:#F9D3B9;}
	.st10{display:inline;fill:#FFFFFF;}
	.st11{display:inline;}
	.st12{fill:#00509F;}
	.st13{fill:#E79D33;}
	.st14{display:inline;fill:#06477C;}
	.st15{display:inline;fill:#E79D33;}
	.st16{display:inline;fill:#EAB60F;}
	.st17{display:inline;fill:#CE9B0D;}
	.st18{display:inline;fill:#F5BFD8;}
	.st19{display:inline;fill:#E8A7C5;}
	.st20{display:inline;fill:#960028;}
	.st21{display:inline;fill:#531D00;}
	.st22{display:inline;fill:#232326;}
	.st23{display:inline;fill:#39053A;}
	.st24{fill:#444042;}
	.st25{fill:#C8374C;}
	.st26{fill:none;stroke:#1E1E1E;stroke-linecap:round;stroke-miterlimit:10;}
	.st27{fill:#FFFFFF;}
	.st28{fill:#702E01;}
	.st29{display:inline;fill:#6B4803;}
	.st30{fill:#332C22;}
	.st31{display:inline;fill:#EAAF39;}
	.st32{display:inline;fill:#232222;}
	.st33{display:inline;fill:#412612;}
	.st34{display:none;fill:#FCDA15;}
	.st35{display:none;fill:#A0041E;}
	.st36{display:none;fill:#412612;}
	.st37{fill:#602904;}
	.st38{display:inline;fill:#602904;}
	.st39{display:none;fill:#2E2B33;}
	.st40{display:inline;fill:#2B2626;}
	.st41{display:inline;fill:#352714;}
	.st42{display:inline;fill:#211B13;}
	.st43{display:inline;fill:#CE8C06;}
	.st44{display:inline;fill:#EDA70C;}
	.st45{fill:#EDA70C;}
	.st46{fill:#E2E2E2;}
	.st47{fill:#8E5107;}
	.st48{fill:#AD7F5C;}
	.st49{fill:#159B4B;}
	.st50{fill:#3A3633;}
	.st51{fill:#211703;}
	.st52{fill:#1F8BC1;}
	.st53{fill:#CFA37C;}
	.st54{fill:#A7DD52;}
	.st55{fill:#2D2824;}
	.st56{fill:#6B4803;}
	.st57{fill:#895B12;}
	.st58{fill:#684609;}
	.st59{display:inline;fill:#692327;}
	.st60{fill:#D388C2;}
	.st61{fill:#C979BA;}
	.st62{fill:#74259E;}
	.st63{fill:#5C1A87;}
	.st64{fill:#AF412C;}
	.st65{fill:#A34228;}
	.st66{fill:#BA8888;}
	.st67{fill:#B27D7D;}
	.st68{fill:#692327;}
	.st69{fill:#A52B31;}
	.st70{fill:#BA3339;}
</style>
<g id="piel5" class="st0">
	<path class="st1" d="M95.5,99.5C71,82.1,40.6,59.8,40.6,59.8c0-13.1,0-26.2,0-26.2l-20,0.1l-20-0.1c0,0,0,13.1,0,26.2
		c0,0-30.4,22.3-54.9,39.7l-3.4,60.7c0,0,29.8,6.8,77.3,12.6c0.3,0,1.4,0.1,1.6,0.1c47.8-5.8,77.7-12.6,77.7-12.6L95.5,99.5z"/>
	<path class="st2" d="M80.3-28.4c0.5-36.3-9-80.5-58.5-80.6l0,0h-0.1h-0.1l0,0c-49.7,0.1-59.1,44.9-58.5,81.3
		c-6.3-7.2-17.7-2.5-14.9,11.2c2.5,12.1,10.1,18.4,17,16.6c1.3,9.8,2.8,16.6,3.1,18.1c1.2,6.8,33.6,37.7,53,38.3l0,0
		c0.1,0,0.2,0,0.3,0c0.1,0,0.2,0,0.3,0l0,0c19.4-0.6,51.8-31.5,53-38.3c0.3-1.5,1.7-8.3,3.1-18c6.8,1.3,14.1-5,16.5-16.7
		C97.2-29.8,86.7-34.6,80.3-28.4z"/>
</g>
<g id="piel4" class="st0">
	<path class="st3" d="M95.5,99.5C71,82.1,40.6,59.8,40.6,59.8c0-13.1,0-26.2,0-26.2l-20,0.1l-20-0.1c0,0,0,13.1,0,26.2
		c0,0-30.4,22.3-54.9,39.7l-3.4,60.7c0,0,29.8,6.8,77.3,12.6c0.3,0,1.4,0.1,1.6,0.1c47.8-5.8,77.7-12.6,77.7-12.6L95.5,99.5z"/>
	<path class="st4" d="M80.3-28.4c0.5-36.3-9-80.5-58.5-80.6l0,0h-0.1h-0.1l0,0c-49.7,0.1-59.1,44.9-58.5,81.3
		c-6.3-7.2-17.7-2.5-14.9,11.2c2.5,12.1,10.1,18.4,17,16.6c1.3,9.8,2.8,16.6,3.1,18.1c1.2,6.8,33.6,37.7,53,38.3l0,0
		c0.1,0,0.2,0,0.3,0c0.1,0,0.2,0,0.3,0l0,0c19.4-0.6,51.8-31.5,53-38.3c0.3-1.5,1.7-8.3,3.1-18c6.8,1.3,14.1-5,16.5-16.7
		C97.2-29.8,86.7-34.6,80.3-28.4z"/>
</g>
<g id="piel3" class="st0">
	<path class="st5" d="M95.5,99.5C71,82.1,40.6,59.8,40.6,59.8c0-13.1,0-26.2,0-26.2l-20,0.1l-20-0.1c0,0,0,13.1,0,26.2
		c0,0-30.4,22.3-54.9,39.7l-3.4,60.7c0,0,29.8,6.8,77.3,12.6c0.3,0,1.4,0.1,1.6,0.1c47.8-5.8,77.7-12.6,77.7-12.6L95.5,99.5z"/>
	<path class="st6" d="M80.3-28.4c0.5-36.3-9-80.5-58.5-80.6l0,0h-0.1h-0.1l0,0c-49.7,0.1-59.1,44.9-58.5,81.3
		c-6.3-7.2-17.7-2.5-14.9,11.2c2.5,12.1,10.1,18.4,17,16.6c1.3,9.8,2.8,16.6,3.1,18.1c1.2,6.8,33.6,37.7,53,38.3l0,0
		c0.1,0,0.2,0,0.3,0c0.1,0,0.2,0,0.3,0l0,0c19.4-0.6,51.8-31.5,53-38.3c0.3-1.5,1.7-8.3,3.1-18c6.8,1.3,14.1-5,16.5-16.7
		C97.2-29.8,86.7-34.6,80.3-28.4z"/>
</g>
<g id="piel2" class="st0">
	<path class="st7" d="M95.5,99.5C71,82.1,40.6,59.8,40.6,59.8c0-13.1,0-26.2,0-26.2l-20,0.1l-20-0.1c0,0,0,13.1,0,26.2
		c0,0-30.4,22.3-54.9,39.7l-3.4,60.7c0,0,29.8,6.8,77.3,12.6c0.3,0,1.4,0.1,1.6,0.1c47.8-5.8,77.7-12.6,77.7-12.6L95.5,99.5z"/>
	<path class="st8" d="M80.3-28.4c0.5-36.3-9-80.5-58.5-80.6l0,0h-0.1h-0.1l0,0c-49.7,0.1-59.1,44.9-58.5,81.3
		c-6.3-7.2-17.7-2.5-14.9,11.2c2.5,12.1,10.1,18.4,17,16.6c1.3,9.8,2.8,16.6,3.1,18.1c1.2,6.8,33.6,37.7,53,38.3l0,0
		c0.1,0,0.2,0,0.3,0c0.1,0,0.2,0,0.3,0l0,0c19.4-0.6,51.8-31.5,53-38.3c0.3-1.5,1.7-8.3,3.1-18c6.8,1.3,14.1-5,16.5-16.7
		C97.2-29.8,86.7-34.6,80.3-28.4z"/>
</g>
<g id="piel1" class="st0">
	<path class="st6" d="M95.3,99.5C70.8,82.1,40.4,59.8,40.4,59.8c0-13.1,0-26.2,0-26.2l-20,0.1l-20-0.1c0,0,0,13.1,0,26.2
		c0,0-30.4,22.3-54.9,39.7l-3.5,60.7c0,0,29.8,6.8,77.3,12.6c0.3,0,1.4,0.1,1.6,0.1c47.8-5.8,77.7-12.6,77.7-12.6L95.3,99.5z"/>
	<path class="st9" d="M80-28.4c0.5-36.3-9-80.5-58.5-80.6l0,0h-0.1h-0.1l0,0c-49.7,0.1-59.1,44.9-58.5,81.3
		c-6.3-7.2-17.7-2.5-14.9,11.2C-49.6-4.4-42,1.9-35.1,0.1c1.3,9.8,2.8,16.6,3.1,18.1c1.2,6.8,33.6,37.7,53,38.3l0,0
		c0.1,0,0.2,0,0.3,0c0.1,0,0.2,0,0.3,0l0,0C41,55.9,73.4,25,74.6,18.2c0.3-1.5,1.7-8.3,3.1-18c6.8,1.3,14.1-5,16.5-16.7
		C97-29.8,86.4-34.6,80-28.4z"/>
</g>
<g id="ropa5" class="st0">
	<path class="st10" d="M96,99.1L66.3,77.8c0,0-9.8,19.7-45.9,24.7c-36-5-45.9-24.7-45.9-24.7L-55,99.1l-3.4,60.6
		c27.1,6.8,78.9,12.7,78.9,12.7s51.8-5.9,78.9-12.7L96,99.1z"/>
	<g class="st11">
		<path class="st12" d="M20.5,151.3l-30.9-83.8c0,0-27.5,17.5-44.7,31.6v61.4c0,0,31.9,8.3,75.5,11.9v-21.1H20.5z"/>
		<path class="st13" d="M14.2,134.2c0,0-17.4-47-19.9-57.3s6.3-17.5,6.3-17.5v-5.1c0,0-9,2.2-11.1,3.3S-33,75.2-36,79
			s-2.5,7.5-2.5,7.5l37.5,34v49.7c1.4,0.2,2.8,0.3,4.2,0.5v-46.4L14.2,134.2z"/>
	</g>
	<g class="st11">
		<path class="st12" d="M20.5,151.3l30.9-83.8c0,0,27.5,17.5,44.7,31.6v61.4c0,0-31.9,8.3-75.5,11.9l-0.8-3.3L20.5,151.3z"/>
		<path class="st13" d="M77,79c-3-3.8-23.4-20.2-25.5-21.3s-11.1-3.3-11.1-3.3v5.1c0,0,8.8,7.2,6.3,17.5s-19.9,57.3-19.9,57.3
			l11.1-10v46.4c1.4-0.2,2.8-0.3,4.2-0.5v-49.7l37.5-33.9C79.5,86.5,80,82.9,77,79z"/>
	</g>
	<path class="st14" d="M96,99.1l-3.4,62.1c0,0,9.4-1.3,20.6-6.4C113.2,154.8,106.6,125.1,96,99.1z"/>
	<path class="st14" d="M-55,99.1l3.3,62.1c0,0-9-1.3-20.2-6.4C-71.9,154.8-65.6,125.1-55,99.1z"/>
	<path class="st15" d="M23.1,161c0.1,1-0.3,1.8-1,1.8h-3.2c-0.6,0-1.1-0.8-1-1.8l0.9-9.2c0-0.4,0.4-0.7,0.7-0.7h1.9
		c0.4,0,0.7,0.3,0.8,0.7L23.1,161z"/>
</g>
<g id="ropa6" class="st0">
	<path class="st16" d="M96.2,99.6l-50.7-36c0,0,0,23.3-24,24.7C-0.1,89.5-4.4,63.6-4.4,63.6l-50.9,36l-3.4,60.7
		c27.2,6.8,79.1,12.7,79.1,12.7s51.9-5.9,79.1-12.7L96.2,99.6z"/>
	<path class="st17" d="M96.2,99.6l-3.5,62.3c0,0,9.4-1.3,20.6-6.5C113.4,155.4,106.8,125.7,96.2,99.6z"/>
	<path class="st17" d="M-55.2,99.6l3.3,62.3c0,0-9-1.3-20.3-6.4C-72.2,155.4-65.8,125.7-55.2,99.6z"/>
</g>
<g id="ropa4" class="st0">
	<path class="st18" d="M96,99.6l-50.7-36c0,0,0,23.3-24,24.7C-0.3,89.5-4.6,63.6-4.6,63.6l-50.9,36l-3.4,60.7
		c27.2,6.8,79.1,12.7,79.1,12.7s51.9-5.9,79.1-12.7L96,99.6z"/>
	<path class="st19" d="M96,99.6l-3.5,62.3c0,0,9.4-1.3,20.6-6.5C113.1,155.4,106.5,125.7,96,99.6z"/>
	<path class="st19" d="M-55.5,99.6l3.3,62.3c0,0-9-1.3-20.3-6.4C-72.4,155.4-66,125.7-55.5,99.6z"/>
</g>
<g id="ropa3" class="st0">
	<path class="st20" d="M96,99.6l-50.7-36c0,0,0,23.3-24,24.7C-0.3,89.5-4.6,63.6-4.6,63.6l-50.9,36l-3.4,60.7
		c27.2,6.8,79.1,12.7,79.1,12.7s51.9-5.9,79.1-12.7L96,99.6z"/>
	<path class="st21" d="M96,99.6l-3.5,62.3c0,0,9.4-1.3,20.6-6.5C113.1,155.4,106.5,125.7,96,99.6z"/>
	<path class="st21" d="M-55.5,99.6l3.3,62.3c0,0-9-1.3-20.3-6.4C-72.4,155.4-66,125.7-55.5,99.6z"/>
</g>
<g id="ropa2" class="st0">
	<path class="st22" d="M96.2,99.3l-50.7-36c0,0,0,23.3-24,24.7C-0.1,89.2-4.4,63.3-4.4,63.3l-50.9,36l-3.3,60.7
		c27.2,6.8,79.1,12.7,79.1,12.7s51.9-5.9,79.1-12.7L96.2,99.3z"/>
	<path class="st23" d="M96.2,99.3l-3.5,62.3c0,0,9.4-1.3,20.6-6.5C113.4,155.2,106.8,125.4,96.2,99.3z"/>
	<path class="st23" d="M-55.2,99.3l3.3,62.3c0,0-9-1.3-20.3-6.4C-72.2,155.2-65.8,125.4-55.2,99.3z"/>
</g>
<g id="ropa1_1_" class="st0">
	<g class="st11">
		<path class="st24" d="M96.2,100.3L66.5,78.9c0,0-9.8,19.7-46,24.7c-36.1-5-46-24.7-46-24.7l-29.7,21.4l-3.4,60.7
			c27.2,6.8,79.1,12.7,79.1,12.7s51.9-5.9,79.1-12.7L96.2,100.3z"/>
		<path class="st25" d="M96.2,100.3l-3.5,62.3c0,0,9.4-1.3,20.6-6.5C113.4,156.1,106.8,126.4,96.2,100.3z"/>
		<path class="st25" d="M-55.5,100.3l3.5,62.3c0,0-9.4-1.3-20.6-6.5C-72.7,156.1-66,126.4-55.5,100.3z"/>
	</g>
	<g class="st11">
		<g>
			<path class="st26" d="M-0.3,56.5c0,0-3.8,64.9,20.7,85.2"/>
			<path class="st26" d="M41,56.5c0,0,3.8,64.9-20.7,85.2"/>
		</g>
		<g id="LDSmnm.tif_1_">
			<g>
				<path class="st27" d="M23.1,158.2c-0.4-3.1-0.9-4.5-1.3-7.6c0,0,0,0-0.1,0c-0.4,3.1-0.8,4.5-1.3,7.6c0,0,0,0-0.1,0
					c-0.4-3.1-0.9-4.5-1.3-7.6l0,0c-0.4,3.1-0.8,4.5-1.3,7.6l0,0c0-0.3-0.1-0.6-0.1-0.9c-0.4-2.9-0.8-4-1.2-6.9
					c-0.1-0.5-0.1-0.9-0.2-1.4c0-0.1-0.1-0.3-0.2-0.3c-2-1.9-2.5-4.8-1.4-7.3c1.3-2.8,4.3-4.1,7.2-3.4c2.6,0.6,4.6,2.9,4.8,5.6
					c0.1,2-0.5,3.7-2,5.1c-0.1,0.1-0.1,0.2-0.1,0.3c-0.2,1.2-0.3,2.4-0.5,3.5C23.8,155,23.4,155.7,23.1,158.2
					C23.1,158.1,23.1,158.2,23.1,158.2L23.1,158.2z M23.4,144.3c1.1,0,1.9-0.8,2-1.9c0-1.1-0.8-2-1.9-2s-1.9,0.8-2,1.9
					C21.5,143.4,22.3,144.2,23.4,144.3z M17.3,140.4c-1.1,0-1.9,0.9-1.9,2c0,1,0.9,1.9,1.9,1.9c1.1,0,1.9-0.9,1.9-1.9
					C19.2,141.3,18.3,140.4,17.3,140.4z M20.4,143.9c-0.8,0-1.5,0.6-1.5,1.4s0.6,1.5,1.5,1.5c0.8,0,1.5-0.6,1.5-1.4
					C21.8,144.6,21.2,144,20.4,143.9z"/>
				<path d="M23.4,144.3c-1.1,0-1.9-0.9-1.9-2s0.9-1.9,2-1.9s1.9,0.9,1.9,2C25.3,143.4,24.5,144.3,23.4,144.3z"/>
				<path d="M17.3,140.4c1.1,0,1.9,0.9,1.9,1.9c0,1.1-0.9,1.9-1.9,1.9s-1.9-0.9-1.9-1.9S16.2,140.4,17.3,140.4z"/>
				<path d="M20.4,143.9c0.8,0,1.5,0.7,1.4,1.5c0,0.8-0.7,1.4-1.5,1.4s-1.5-0.7-1.5-1.5C18.9,144.6,19.6,143.9,20.4,143.9z"/>
			</g>
		</g>
	</g>
</g>
<g id="cejas6" class="st0">
	<g class="st11">
		<path class="st28" d="M-23-34.3c0,0,16.3-6.8,30.9,1.5c0,0,0.1-5.6-7.9-7.5C-17.1-44.3-23-34.3-23-34.3z"/>
	</g>
	<g class="st11">
		<path class="st28" d="M65.8-34.3c0,0-16.3-6.8-30.9,1.5c0,0-0.1-5.6,7.9-7.5C59.8-44.3,65.8-34.3,65.8-34.3z"/>
	</g>
</g>
<g id="cejas5" class="st0">
	<path class="st29" d="M58.6-35.1c0,0-11.7-7.3-20.9-1.5C37.7-36.6,46.5-53.2,58.6-35.1z"/>
	<path class="st29" d="M-15.9-36.3c0,0,11.7-7.3,20.9-1.5C5-37.8-3.8-54.4-15.9-36.3z"/>
</g>
<g id="cejas4" class="st0">
	<g class="st11">
		<path class="st30" d="M-23-34.3c0,0,16.3-6.8,30.9,1.5c0,0,0.1-5.6-7.9-7.5C-17.1-44.3-23-34.3-23-34.3z"/>
	</g>
	<g class="st11">
		<path class="st30" d="M65.8-34.3c0,0-16.3-6.8-30.9,1.5c0,0-0.1-5.6,7.9-7.5C59.8-44.3,65.8-34.3,65.8-34.3z"/>
	</g>
</g>
<g id="cejas3" class="st0">
	<path class="st31" d="M-20.6-36.5c0,0,16.3-6.8,30.9,1.5c0,0-0.1-5-7.9-7.5S-20.6-36.5-20.6-36.5z"/>
	<path class="st31" d="M63.6-36.5c0,0-16.3-6.8-30.9,1.5c0,0,0.1-5,7.9-7.5C48.5-45,63.6-36.5,63.6-36.5z"/>
</g>
<g id="cejas2" class="st0">
	<path class="st32" d="M-20.6-36.5c0,0,16.3-6.8,30.9,1.5c0,0-0.1-5-7.9-7.5S-20.6-36.5-20.6-36.5z"/>
	<path class="st32" d="M63.6-36.5c0,0-16.3-6.8-30.9,1.5c0,0,0.1-5,7.9-7.5C48.5-45,63.6-36.5,63.6-36.5z"/>
</g>
<g id="cejas1" class="st0">
	<path class="st33" d="M-20.6-36.5c0,0,16.3-6.8,30.9,1.5c0,0-0.1-5-7.9-7.5S-20.6-36.5-20.6-36.5z"/>
	<path class="st33" d="M63.6-36.5c0,0-16.3-6.8-30.9,1.5c0,0,0.1-5,7.9-7.5C48.5-45,63.6-36.5,63.6-36.5z"/>
</g>
<path id="cabello9" class="st0" d="M11-110.7c0,0-46.7-6-60.7,23.8c0.8-1.1,4.9-9.3,16.7-13.4c0,0-11.8,6.8-16.1,17.5
	c0,0-21.9,14.2-10.9,36.1c0,0-2.7-7.1,0.3-16.7c0,0-1.9,8.7,1.4,18.6c0,0-12,19.1,9.8,27.9c0,0-0.5,8.2,5.7,16.9
	c6.3,8.7,13.1,29.5,5.7,38.8c0,0,10.2-11.5,3.7-30.8c0,0,5.3,8.4,3.4,16.3c0,0,5.5-8.5-6-25.1c-11.5-16.7,1.4-31.2,8.7-33.3
	c0,0-6-3-9.8-9.3c0,0,22.4,18,44.5,23.5c0,0-20.5-7.1-28.7-18.3c0,0,13.7,14.5,36.3,15.8c0,0-26.2-16.4-30.6-39.1
	c0,0,16.9,22.4,42.1,26.5c0,0-17.2-6.3-26.5-16.9c0,0,23,17.8,46.4,17.1c0,0-14.4-8.6-20.7-16.3c0,0,21.2,18.9,41.8,21.2
	c0,0,0.1-20.9-12-41.1c0,0,12,16.1,13.9,37.2c0,0,20.2,9.3,13.4,25.1s-13.9,27.3-9,40.2c0,0-2-11.5,4.2-22.1c0,0-7.2,18.6,1.8,28.7
	c0,0-4.6-15.8,3.2-29.9c7.7-14.1,8.6-22,7.2-27.1c0,0,15.9-18,6.7-37.6c0,0,7.2,9.4,3.6,20.6c0,0,6.1-12.2-4.7-24.5
	c0,0-5.4-14.3-12.7-21.6c0,0,8.5,5.2,11.7,13.7c0,0-2.7-10.7-9.6-15c0,0,13.9-6,4.9-17.2c0,0,4.9,7.1-1.1,12c0,0,5.2-5.2-1.9-14.8
	c-7.1-9.6-15-0.3-15-0.3s-0.5-12.3-10.7-16.7c0,0,6.6,4.6,7.6,10.7c0,0-5.5-9.7-17.2-9c0,0-4.1-10.4-23.2-9.6c0,0,8.5-2.7,16.7,0.5
	c0,0-14.8-7.4-29.2,1.1C1.7-118.3,11-110.7,11-110.7z"/>
<path id="cabello8" class="st34" d="M11-110.7c0,0-46.7-6-60.7,23.8c0.8-1.1,4.9-9.3,16.7-13.4c0,0-11.8,6.8-16.1,17.5
	c0,0-21.9,14.2-10.9,36.1c0,0-2.7-7.1,0.3-16.7c0,0-1.9,8.7,1.4,18.6c0,0-12,19.1,9.8,27.9c0,0-0.5,8.2,5.7,16.9
	c6.3,8.7,13.1,29.5,5.7,38.8c0,0,10.2-11.5,3.7-30.8c0,0,5.3,8.4,3.4,16.3c0,0,5.5-8.5-6-25.1c-11.5-16.7,1.4-31.2,8.7-33.3
	c0,0-6-3-9.8-9.3c0,0,22.4,18,44.5,23.5c0,0-20.5-7.1-28.7-18.3c0,0,13.7,14.5,36.3,15.8c0,0-26.2-16.4-30.6-39.1
	c0,0,16.9,22.4,42.1,26.5c0,0-17.2-6.3-26.5-16.9c0,0,23,17.8,46.4,17.1c0,0-14.4-8.6-20.7-16.3c0,0,21.2,18.9,41.8,21.2
	c0,0,0.1-20.9-12-41.1c0,0,12,16.1,13.9,37.2c0,0,20.2,9.3,13.4,25.1s-13.9,27.3-9,40.2c0,0-2-11.5,4.2-22.1c0,0-7.2,18.6,1.8,28.7
	c0,0-4.6-15.8,3.2-29.9c7.7-14.1,8.6-22,7.2-27.1c0,0,15.9-18,6.7-37.6c0,0,7.2,9.4,3.6,20.6c0,0,6.1-12.2-4.7-24.5
	c0,0-5.4-14.3-12.7-21.6c0,0,8.5,5.2,11.7,13.7c0,0-2.7-10.7-9.6-15c0,0,13.9-6,4.9-17.2c0,0,4.9,7.1-1.1,12c0,0,5.2-5.2-1.9-14.8
	c-7.1-9.6-15-0.3-15-0.3s-0.5-12.3-10.7-16.7c0,0,6.6,4.6,7.6,10.7c0,0-5.5-9.7-17.2-9c0,0-4.1-10.4-23.2-9.6c0,0,8.5-2.7,16.7,0.5
	c0,0-14.8-7.4-29.2,1.1C1.7-118.3,11-110.7,11-110.7z"/>
<path id="cabello7" class="st35" d="M104.8-111.8c-25-28.6-46.2-8.8-45.4,15.3c-11.1-8.6-24.3-12.8-36.9-12.9l0,0H22h-0.1h-0.2h-0.1
	h-0.9l0,0c-12.7,0.2-25.9,4.5-37,13.3c1-24.2-20.2-44.4-45.4-15.6C-85.8-84.2-65-57.1-38.5-62.3c-3.6,11.9-5.1,26.1-3.4,42.9
	c0.5,4.4,2.3,7.7,3.2,9.1c-2.4,25.2-5.6,42,2.1,55.7c-0.7-12.5,3.8-33.9,7.2-54.1s1.7-24.5,1.7-24.5c8.4-6.7,21.3-0.8,26.9,2.7
	C4.7-27,17.7-24,30.6-29.3c-0.5-2.5,1-21.7,1-21.7s2.6,18.5,2.4,21.2c13.2-0.8,31.7-7,34.8-3c4.6,17.2,4.8,37.9,4.8,37.9
	c0.2,8.2,1,31.7,4.6,35.7c1-13.5,1.7-35.7,2.2-53.9c0.5,1.5,1,2.7,1.8,3.5c0,0,3-3.8,3.7-9.8c1.6-16.8,0.2-31-3.4-42.8
	C108.4-57.4,128.8-84.4,104.8-111.8z"/>
<path id="cabello6" class="st36" d="M104.8-111.8c-25-28.6-46.2-8.8-45.4,15.3c-11.1-8.6-24.3-12.8-36.9-12.9l0,0H22h-0.1h-0.2h-0.1
	h-0.9l0,0c-12.7,0.2-25.9,4.5-37,13.3c1-24.2-20.2-44.4-45.4-15.6C-85.8-84.2-65-57.1-38.5-62.3c-3.6,11.9-5.1,26.1-3.4,42.9
	c0.5,4.4,2.3,7.7,3.2,9.1c-2.4,25.2-5.6,42,2.1,55.7c-0.7-12.5,3.8-33.9,7.2-54.1s1.7-24.5,1.7-24.5c8.4-6.7,21.3-0.8,26.9,2.7
	C4.7-27,17.7-24,30.6-29.3c-0.5-2.5,1-21.7,1-21.7s2.6,18.5,2.4,21.2c13.2-0.8,31.7-7,34.8-3c4.6,17.2,4.8,37.9,4.8,37.9
	c0.2,8.2,1,31.7,4.6,35.7c1-13.5,1.7-35.7,2.2-53.9c0.5,1.5,1,2.7,1.8,3.5c0,0,3-3.8,3.7-9.8c1.6-16.8,0.2-31-3.4-42.8
	C108.4-57.4,128.8-84.4,104.8-111.8z"/>
<g id="cabello5" class="st0">
	<g class="st11">
		<g>
			<g>
				<path class="st28" d="M17.7-87.4c0,0,5.6,19.8-12.9,23c0,0,8.4-2.4,10.1-10.8c0,0-7.4,7.2-20.8,7.6c-13.3,0.4-24,10.1-19.5,17.4
					c4.4,7.3,8.3,16.4-4.3,22.7c0,0,6.3-4.5,5.9-8.4c0,0-1.4,3-8.7,8.4c-5.2,3.8-3.8,13.6-1.4,15.3c9.4,6.7,24.7,17.4,9.4,33.4
					c0,0,5.6-7.7,3.5-13.6c0,0-2.8,8.4-12.2,13.2c-9.4,4.9-7,18.8,8,22.3c0,0-5.6,1-12.2-3.8c0,0,2.6,6.5,15,9.7
					c12.5,3.2,10,15.1,0.8,18.5c-9.2,3.5-0.5,19.7,15,21.3c0,0-7.1,2.3-16.5-5.3c0,0,4.2,8,15.7,8.4c0,0,5.2,11.5-9.4,15.3
					S-40.9,103-39.5,92c1.4-10.9-9.2-4.5-16.7-5.7c-7.5-1.3-22-5-15.2-16.9c0,0-7.8,7.2,0.5,15.6c0,0-14.6-8.7-2.1-21.2
					s6.6-18.7-2.6-22.1c-9.2-3.3-10.3-14.1-0.9-21.5c9.4-7.3,4.9-18.8-5.6-24.7c-10.4-5.9-13.2-31.2,3-38.2c0,0-11.4,1.3-13.1,13.9
					c0,0-1.4-14.3,16-18.5s19.2-16.4,16-26.5c-3.1-10.1-6.2-28.8,19.9-31.1s19.8-8.3,24.7-14.5c4.9-6.3,29.2-16.6,36.2,7
					c0,0-3.1-23.4-30.3-14.3c0,0,21.2-11.1,33.1,8c0,0,12.2-12.4,31-1.2c18.8,11.3,10.8,14.4,31,14.4S108-87,102.8-75.9
					c0,0,4.2-15.7-4.2-20.9c0,0,6.6,7,0.4,21.6c-6.3,14.6,12.1,29.8,19.8,30.8c7.7,0.9,16.7,25.3,3.8,38.2c0,0,9.1-15.7,2.1-23.3
					c0,0,2.1,18.1-9.8,27.9c-11.8,9.7-2.4,17.1,1.8,21.1s14.6,14.4,1,23.8c0,0,8-7.3,2.8-13.6c0,0,3.5,9.3-9.4,11.9
					c-12.9,2.7-17.6,14.4-3.3,20.6c0,0-10.3-0.5-11.4-11.6c0,0-3.8,11.1,13.9,14.3c17.8,3.1,6.6,28.5-11.5,20.9
					c-18.1-7.7-15.3,3.1-14.6,7c0.7,3.8-3.1,13.6-16.4,11.5c0,0,11.7-0.3,13.2-8.4c0,0-10.3,10.2-23.3,4.2c-13-6-16.4-15.7-7-22.6
					c0,0-9.2,4.3-7.7,10.4c0,0-1.7-11.5,12.9-15.7C70.5,68,77.8,57.5,66.8,48.8c-10.9-8.7-8.2-16.4-3-19.5c0,0-10.4,3.5-3.8,15
					c0,0-10.8-14.3,7.7-19.5S91,4.7,82.3,0.1c-8.7-4.6-14.6-10.4-6.6-21.9c0,0-9.4,6.6-4.2,18.1c0,0-9.3-9.3,5.2-23
					c6.3-5.9-1.3-34-18.8-39s-34.5-3.5-35.2-13.9c0,0-5.9,10.8,33.1,15.3C56.3-64.4,14.5-63.3,17.7-87.4z"/>
			</g>
		</g>
		<path class="st37" d="M-24,77.7c-2.2-4.3-1.7-8.5,2.5-10.1c9.2-3.5,11.7-15.3-0.8-18.5s-15-9.7-15-9.7c6.6,4.9,12.2,3.8,12.2,3.8
			c-15-3.5-17.4-17.4-8-22.3c0.8-0.4,1.5-0.8,2.1-1.2c3.1,6,17.2,20,31.7,28.9c0,3.5,0,7.4,0,11.2C0.6,59.8-10.1,67.7-24,77.7z"/>
		<path class="st37" d="M40.6,59.8c0-3.4,0-6.8,0-9.9c5.9-3.4,11.8-7.7,17-12.1c0.7,3.7,2.9,6.5,2.9,6.5c-1.6-2.8-2.2-5.2-2.2-7.1
			c0.5-0.4,1-0.9,1.5-1.3c-0.4,3.6,1.4,8.1,7.5,12.9c10.7,8.5,4,18.8-10.1,23.1C47.4,64.8,40.6,59.8,40.6,59.8z"/>
	</g>
	<path class="st38" d="M71.8,23.5c1.8-2.3,3-4.2,3.2-5.4c0.3-1.5,1.7-8.3,3.1-18c1.5,0.3,3,0.2,4.5-0.3c0.1,0,0.1,0.1,0.2,0.1
		C90.8,4.3,87.2,17.5,71.8,23.5z"/>
</g>
<path id="cabello4" class="st39" d="M107.7-65.1c0-3.9-3.2-7.1-7.1-7.1c-0.3,0-0.6,0.1-0.9,0.1c4.7-2,7.9-6.7,7.9-12.2
	c0-3.8-1.6-7.1-4-9.5c-1-1-1.7-2.4-1.4-3.8c0.1-0.7,0.2-1.5,0.2-2.3c0-6.4-4.3-11.5-9.5-11.5c-0.8,0-1.6,0.2-2.3,0.4
	c-0.4-0.7-0.8-1.3-1.2-1.8c0.4-1.4,0.6-3,0.6-4.6c0-8.5-5.3-15.4-11.8-15.4c-0.3,0-0.6,0-1,0.1c-2.1,0.2-4.1-0.9-4.9-2.9
	c-2.2-5.6-7-9.4-12.7-9.4c-2.2,0-4.2,0.6-6,1.6c-1.2,0.6-2.5,0.7-3.7,0.1c-2-1-4.5-1.6-7.1-1.6c-2.1,0-4,0.4-5.8,1.1
	c-1.7,0.7-3.6,0.2-4.8-1.1c-1.7-1.8-3.9-3.3-6.3-4.2c-1-0.4-2.1-0.4-3.1,0c-2.5,0.9-4.6,2.4-6.3,4.2c-1.2,1.3-3.1,1.7-4.7,1.1
	c-1.8-0.7-3.7-1.1-5.9-1.1c-2.6,0-5,0.6-7,1.6c-1.2,0.6-2.6,0.6-3.8-0.1c-1.8-1-3.8-1.6-6-1.6c-5.6,0-10.5,3.8-12.6,9.3
	c-0.8,2-2.8,3.3-4.9,3c-0.3,0-0.6-0.1-0.9-0.1c-6.6,0-11.8,6.9-11.8,15.4c0,1.6,0.2,3.1,0.6,4.5c0,0,0,0,0,0.1
	c-0.4,0.5-0.8,1.1-1.2,1.8c-0.7-0.2-1.5-0.4-2.3-0.4c-5.3,0-9.5,5.2-9.5,11.5c0,0.8,0.1,1.6,0.2,2.3c0.2,1.4-0.4,2.7-1.4,3.7
	c-2.5,2.4-4.1,5.8-4.1,9.6c0,5.5,3.3,10.1,7.9,12.2c-0.3,0-0.6-0.1-0.9-0.1c-3.9,0-7.1,3.2-7.1,7.1c0,1.6,0.5,3,1.4,4.2
	c1.1,1.5,1.2,3.5,0.2,5c-1,1.4-1.5,3-1.5,4.7c0,2,0.7,3.8,2,5.3c1.1,1.4,1.7,3.3,0.9,4.9c-0.3,0.7-0.5,1.5-0.5,2.4
	c0,3.5,3.2,6.4,7.1,6.4c0.3,0,0.6-0.1,0.9-0.1c-0.5,1.1-0.9,2.3-0.9,3.6c0,5,4.7,9,10.5,9c0.3,0,0.6,0,0.8,0
	c0.2,1.8,0.3,3.5,0.8,4.7c2.1,5.3,3.1-2.9,3.1-2.9s0,0,0-0.1c0.2-1.5,2.6-16,5.7-20.7l0,0c18.1-23.9,46.2-35.9,70.6-41.8
	C52.4-83,63-77.7,67.1-68c5.5,12.9,9.7,27.5,9.7,30.7c0,5.8-2.7,22.9-2.7,22.9s0.1,0.1,0.2,0.1c0.7,0.5,3.4,1.9,5.3-1.2
	c1.4-0.6,2.7-1.5,3.6-2.6c0.9-1,2.1-1.6,3.4-1.4c0.4,0,0.8,0.1,1.1,0.1c5.8,0,10.5-4,10.5-9c0-1.3-0.3-2.5-0.9-3.6
	c0.3,0,0.6,0.1,0.9,0.1c3.9,0,7.1-2.8,7.1-6.4c0-0.8-0.2-1.6-0.5-2.4c-0.7-1.5-0.6-3.3,0.6-4.4c1.5-1.5,2.4-3.5,2.4-5.7
	c0-1.7-0.5-3.3-1.5-4.6c-1.1-1.6-1-3.6,0.1-5.2C107.2-62.2,107.7-63.6,107.7-65.1z"/>
<g id="cabello3" class="st0">
	<path class="st40" d="M100.6-81.9c-7.3-12.6-1-19.6-18.1-18.1s-23.7-9.6-23.7-9.6C42.1-138.8,6-132.5,6-132.5
		c12,0.4,25.3,9.3,25.3,9.3c-66-11.4-64.2,24.3-64.2,24.3c3.2-16.2,18.3-18.8,18.3-18.8c-10.1,3-30.2,27-43.6,32.5
		C-75.7-78-79.6-39.8-79.5-29.8c0.1,16.4,16.6,58.8,43.6,54.6c0,0-14,1.3-18.2-8.6c0,0,16.2,8,22.7,3.9c-2.9-6.2-14.6-24.6-5.9-38
		C-25-36.8,28.5-75.5,28.5-75.5c-9.8,12.8,4.2-1.8,22.9-0.2C81.6-50.5,89.8,2.7,85.1,7.5c0,0-8.4,8.8-14,16.7c1.9-0.1,3.2-0.6,5.3,0
		c10.1,2.8,22.5,0.1,26.4-11.1c0,0-1.3,8.8-11.8,10.7c5.8-0.9,12.8-4.1,15-13.8C118.3-44.7,100.6-81.9,100.6-81.9z"/>
	<path class="st11" d="M-35.1,0.3h-4.5c0,0,2.4,15.9,8.2,19.7L-35.1,0.3z"/>
	<path class="st11" d="M86.3-2c0,0-4.8,3.6-8.6,2.4L74,20.3l11.2-13C85.2,7.4,88.5,4.7,86.3-2z"/>
</g>
<g id="cabello2" class="st0">
	<path class="st41" d="M107.6-45.5c-2.5-51-40.9-82.8-86.3-82.6c-44.7,0.2-80.1,31-83.3,80.7c-0.7,6.8-0.8,11.5-0.8,11.5
		c-0.1,0-0.2,0.6-0.2,1.8c0.4,9.9-0.2,33.1-4,45.8c-3.8,12.7,14.7,53.6,20.1,61.7c4.8,7-4.6,18.3-4.6,18.3s7.6-0.4,10.6-11.6
		c0,0,0-0.1,0.1-0.1c2.3,6.1,8.4,13,2.2,35.4c-2,7.1,8,23.4,8,23.4c1.9-2.6,4-13.3,6-25.3c2.9-2.8,9-9.4,8.7-15.7
		c6.2,18.7-8.7,27-8.7,27s7.2,0,12.9-6c5.7-6.1,16.2-16.4,6-40.3C-7.9,73.3-12.5,68-19,60.3s-15.3-32.7-16.4-44.2
		c-0.2-2-0.4-8.1-0.7-15.6l0,0c-0.1-3.8-0.3-7.9-0.4-12c1.3-3.9,2.9-10.6,4.4-22.5c5.1-39,7.8-45.3,16.8-53.1c9.7-8.5,12,0,23.5,7.5
		c13,8.5,19.3,4.3,33.4-6.8c21.6-17,25.6,35,35.6,61.9c0.3,0.8,0.5,1.5,0.8,2.2c0.4,4.7,0.7,9.8,0.7,13.3l0,0
		c-0.2,11.4,0.1,22-0.2,25.8c-1.1,11.5-9.7,35.3-16.2,43.1c-6.5,7.7-11.8,14.5-14.5,19.4c-6.1,11.2-4.7,17-4.5,20
		c1.5,20.9,11.4,23.6,11.4,23.6s-11.5-9.8,3.7-25c3.2-3.2,5.1-5.7,6.1-7.7c0.1,0.8,0.3,1.6,0.6,2.5c1.3,3.3,5.2,8,5.2,11.6
		c0,7.4-1.6,10.8-1.6,10.8s2.1-2.4,4.6-5.9c0,1,0,1.9,0,2.7c1.3,17.3,6.3,39.7,6.3,39.7s15.4-25.9,13-36.4
		c-1.2-5.2-1.9-9.7-2.1-13.6c9.6,4.2,20.7-3,20.7-3c-10.9,1.4-15.5-6.2-17.4-15.3c5.2-10.2,15-14.5,18.2-27.6
		C115.6,40.1,116-4.8,107.6-45.5z"/>
	<path class="st42" d="M77.6,0.4l-3.1,17.9c0,0-6.7,14.7-34.4,31.7v9.9L53.9,70c0,0,34.1-26.7,24.7-69.5C78.6,0.2,77.9,0.5,77.6,0.4
		z"/>
	<path class="st42" d="M-36.1,0.5l0.9-0.1l3,17.6c0,0,2.8,7.5,13.7,16.8c0,0,11.8,10.4,18.6,14.2v11l-12,8.8
		C-11.9,68.8-38.1,52.7-36.1,0.5z"/>
</g>
<g id="cabello1" class="st0">
	<path class="st43" d="M-34.8,0.1c0,0,2.4,15.1,2.9,17s0.7,3,2.4,5.1s5.4,8.6,30.1,26.4v11.2l-50.4,36.5l6.3-66.6
		c0,0,3.4,4,11.4,6.7c0,0,2.2,0.7,5,1.1c0,0-17-4.2-13.2-30.8l1.1-6.6C-39.3,0.1-37.2,0.7-34.8,0.1z"/>
	<path class="st44" d="M-25.1-109.6c0,0,24.8,27.7,3.6,47.7c-10.9,10.3-17.1,31.9-12.2,41s-5.1,8.2-7.1,31.3s13.6,27.1,13.6,27.1
		s-25.5-2.2-25-32s-3.1-30.4-5.5-41.5C-60.1-47.2-58.8-101.9-25.1-109.6z"/>
	<g class="st11">
		<path class="st45" d="M105.4,0.4c-10.9-16.9-3.2-39.3-5.7-54.9C94.6-86.1,60-163.8-25.1-109.6c0,0,6.3,45.1,51,55.1
			s44,18.7,47.3,48c1.5,13.4,12.2,22.5,7.1,31c-11.1,18.6-25,27.4-18.4,41.4C69.1,81.1,76,91.5,70,102.3c-5.3,9.7,5.7,15.3,6.8,21.7
			c0.2-4,1.1-12.3,5.4-15.5c5.8-4.4,21-15.9,10.3-38.1c-3.4-7,14.5-20.9,17.4-25.8C116,34.5,115.6,16,105.4,0.4z"/>
		<path class="st45" d="M76.7,126.3c0.2-0.8,0.2-1.5,0-2.3C76.7,125.4,76.7,126.3,76.7,126.3z"/>
	</g>
	<path class="st44" d="M-9.3,41.4c0,0-14.3,18.1-5.5,33.4s3,19.6-4.1,29.8s4,12.3,4.1,16.8s-3.2,10.9-5.2,11.2c0,0,1.2-7.2,0.2-10.2
		s-15.2-10-6.2-22.9s-10-7.1-9.7-27.4s0.2-29.8,12.5-42.5L-9.3,41.4z"/>
	<path class="st43" d="M40.6,49.9v9.9l28.1,20.4c0,0-4.6-8.3-7.3-22.3c-1.8-9.5,12.3-22.2,12.3-22.2s16.6-15.5,3.4-29.5l-2.2,11.9
		C75,18.2,73,27.6,40.6,49.9z"/>
</g>
<g id="ojos8" class="st0">
	<g id="ojos6_1_" class="st11">
		<path d="M-21.2-29.6"/>
		<g>
			<g>
				<path class="st27" d="M35.1-22.9c0,0-1.1,13.6,15,13.4c13.7-0.2,12.9-18,12.9-18S48.1-33.8,35.1-22.9z"/>
				<path class="st46" d="M62.8-23.9c0,0-12.7-5.4-27.5,3.9l-0.4-3c0,0,14.9-9.3,28.7-4.1L62.8-23.9z"/>
				
					<ellipse transform="matrix(1 -3.877448e-03 3.877448e-03 1 7.248285e-02 0.1887)" class="st47" cx="48.7" cy="-18.6" rx="8.3" ry="9.4"/>
				
					<ellipse transform="matrix(0.9968 -8.049493e-02 8.049493e-02 0.9968 2.0402 4.0222)" class="st27" cx="50.9" cy="-23.3" rx="1.7" ry="2.1"/>
				<path d="M63.8-28.1c0.3-0.1,0.7,0,1.2-0.1s0.9-0.2,1.4-0.4c0.5-0.1,1-0.3,1.5-0.5H68c0,0,0.1,0.1,0,0.1c-0.3,0.4-0.7,0.7-1,1
					c-0.2,0.2-0.4,0.3-0.6,0.5c0.1,0,0.1,0,0.2,0l1.5-0.1l0,0h0.1c0.1,0,0.2,0.1,0.2,0.3c-0.2,0.5-0.4,0.8-0.7,1.2
					c-0.3,0.4-0.6,0.7-1,1.1l-0.1,0.1c0.2,0.4,0.3,0.9,0,1.4c-0.6,1.2-1.3,2.3-1.9,3.4c-0.7,1.1-1.4,2.2-2.2,3.3s-1.6,2.1-2.6,3.1
					c-0.5,0.5-1,0.9-1.6,1.3c-0.6,0.4-1.4,0.7-2.1,0.5c0.7,0,1.3-0.4,1.8-0.8c0.5-0.4,0.8-1,1.2-1.5c0.7-1.1,1.2-2.2,1.6-3.3
					c0.4-1.2,0.8-2.3,1.2-3.5c0.3-1.2,0.7-2.4,0.9-3.5c0-0.1,0.1-0.3,0.1-0.4s0.1-0.1,0.1-0.2c-2.4-1-13.9-4.9-27.9,2.7L35-23.7
					C34.8-23.6,46.7-33.6,63.8-28.1z"/>
				<path class="st48" d="M36-26.3c0.1-0.2,0.4-0.4,0.6-0.5c0.2-0.1,0.5-0.3,0.7-0.4c0.5-0.3,1-0.5,1.5-0.7c0.9-0.6,1.9-1,2.9-1.5
					c2-0.9,4.1-1.5,6.2-1.9c2.1-0.4,4.3-0.5,6.5-0.4c1.1,0.1,2.2,0.2,3.2,0.4c1.1,0,2.2,0.2,3.3,0.3c-1-0.5-2.1-0.9-3.1-1.3
					c-1.1-0.2-2.2-0.3-3.3-0.4c-2.2-0.1-4.5,0-6.7,0.4s-4.4,1.1-6.4,2c-1,0.4-2,1-3,1.5c-0.4,0.4-0.9,0.7-1.3,1.1
					C36.7-27.2,36.2-26.8,36-26.3z"/>
			</g>
		</g>
		<g>
			<g>
				<path class="st27" d="M8.9-22.9c0,0,1.1,13.6-15,13.4c-13.7-0.2-12.9-18-12.9-18S-4.1-33.8,8.9-22.9z"/>
				<path class="st46" d="M-18.9-23.6c0,0,12.7-5.4,27.5,3.9l0.4-3c0,0-14.9-9.3-28.7-4.1L-18.9-23.6z"/>
				
					<ellipse transform="matrix(3.877448e-03 -1 1 3.877448e-03 14.0108 -23.2288)" class="st47" cx="-4.7" cy="-18.6" rx="9.4" ry="8.3"/>
				
					<ellipse transform="matrix(8.049493e-02 -0.9968 0.9968 8.049493e-02 16.9047 -28.3275)" class="st27" cx="-6.9" cy="-23.3" rx="2.1" ry="1.7"/>
				<path d="M-19.8-28.1c-0.3-0.1-0.7,0-1.2-0.1s-0.9-0.2-1.4-0.4c-0.5-0.1-1-0.3-1.5-0.5H-24c0,0-0.1,0.1,0,0.1
					c0.3,0.4,0.7,0.7,1,1c0.2,0.2,0.4,0.3,0.6,0.5c-0.1,0-0.1,0-0.2,0l-1.5-0.1l0,0h-0.1c-0.1,0-0.2,0.1-0.2,0.3
					c0.2,0.5,0.4,0.8,0.7,1.2c0.3,0.4,0.6,0.7,1,1.1l0.1,0.1c-0.2,0.4-0.3,0.9,0,1.4c0.6,1.2,1.3,2.3,1.9,3.4
					c0.7,1.1,1.4,2.2,2.2,3.3c0.8,1.1,1.6,2.1,2.6,3.1c0.5,0.5,1,0.9,1.6,1.3c0.6,0.4,1.4,0.7,2.1,0.5c-0.7,0-1.3-0.4-1.8-0.8
					c-0.5-0.4-0.8-1-1.2-1.5c-0.7-1.1-1.2-2.2-1.6-3.3c-0.4-1.2-0.8-2.3-1.2-3.5c-0.3-1.2-0.7-2.4-0.9-3.5c0-0.1-0.1-0.3-0.1-0.4
					s-0.1-0.1-0.1-0.2c2.4-1,13.9-4.9,27.9,2.7L9-23.7C9.2-23.6-2.7-33.6-19.8-28.1z"/>
				<path class="st48" d="M8-26.3c-0.1-0.2-0.4-0.4-0.6-0.5s-0.5-0.3-0.7-0.4c-0.5-0.3-1-0.5-1.5-0.7c-0.9-0.6-1.9-1-2.9-1.5
					c-2-0.9-4.1-1.5-6.2-1.9s-4.3-0.5-6.5-0.4c-1.1,0.1-2.2,0.2-3.2,0.4c-1.1,0-2.2,0.2-3.3,0.3c1-0.5,2.1-0.9,3.1-1.3
					c1.1-0.2,2.2-0.3,3.3-0.4c2.2-0.1,4.5,0,6.7,0.4s4.4,1.1,6.4,2c1,0.4,2,1,3,1.5c0.4,0.4,0.9,0.7,1.3,1.1
					C7.3-27.2,7.8-26.8,8-26.3z"/>
			</g>
		</g>
		<g>
			<path d="M63.4-13.7c-0.5-0.1-0.9-0.2-1.4-0.2s-0.9,0.1-1.4,0.2c-0.4,0.1-0.8,0.4-1.3,0.5c-0.4,0.1-0.9,0.3-1.4,0.3h-0.1l0,0
				c0.2-0.5,0.6-0.9,1.1-1.2c0.4-0.3,1-0.3,1.5-0.4C61.5-14.6,62.5-14.4,63.4-13.7C63.4-13.8,63.4-13.8,63.4-13.7L63.4-13.7z"/>
		</g>
		<g>
			<path d="M59.4-13.8c-0.6,0.8-1.2,1.4-2,2.1c-0.8,0.5-1.6,1-2.5,1.4c-1.7,0.8-3.6,1.4-5.5,1.6c-1.9,0.2-3.9,0-5.7-0.7
				c-0.4-0.2-0.9-0.3-1.3-0.5l-1.3-0.7c-0.4-0.3-0.7-0.7-1-1s-0.6-0.7-0.9-1.1c0.9,0.4,1.6,0.9,2.5,1.2l1.2,0.7
				c0.4,0.2,0.8,0.3,1.2,0.5c1.7,0.6,3.5,0.8,5.3,0.6s3.5-0.7,5.2-1.5c0.8-0.4,1.6-0.8,2.4-1.3C57.7-12.9,58.6-13.3,59.4-13.8z"/>
		</g>
	</g>
	<g class="st11">
		<g>
			<path d="M54,1C40.9,1,30.3-5.1,30.3-17.1c0-13.5,13.5-15,23.7-15s23.7,1.6,23.7,15C77.7-5.1,67.1,1,54,1z M54-29.4
				c-14.8,0-21.1,3.7-21.1,12.4C32.9-6.5,42.4-1.5,54-1.5S75.1-6.4,75.1-17C75.1-25.7,68.8-29.4,54-29.4z"/>
		</g>
		<path d="M67.3-30.5c3.3,0.8,9.3,1,11,1s2.6,0.2,2.6,1s0,3.3,0,3.8s-0.1,1-1,1c-0.9,0.1-1.4,0.5-1.4,2.5s-0.3,6.8-1.8,10.2
			c0,0,0.4-10.1-2.2-13.5C71.2-28.8,67.3-30.5,67.3-30.5z"/>
		<g>
			<path d="M-34.1-17c0-13.5,13.5-15,23.7-15s23.7,1.6,23.7,15C13.3-5.1,2.7,1.1-10.4,1.1C-23.5,1-34.1-5.1-34.1-17z M-31.5-17
				c0,10.5,9.4,15.5,21.1,15.5C1.2-1.5,10.7-6.4,10.7-17c0-8.7-6.3-12.4-21.1-12.4S-31.5-25.7-31.5-17z"/>
		</g>
		<path d="M-23.8-30.5c-3.3,0.8-9.3,1-11,1s-2.6,0.2-2.6,1s0,3.3,0,3.8s0.1,1,1,1c0.9,0.1,1.4,0.5,1.4,2.5s0.3,6.8,1.8,10.2
			c0,0-0.4-10.1,2.2-13.5C-27.7-28.8-23.8-30.5-23.8-30.5z"/>
		<path d="M27.5-22.9c-0.8,0-3.9,0-5.7,0c-1.9,0-5,0-5.7,0c-0.8,0-4-0.6-4.9-1.8l2,9.5c1.5-3.1,6.2-4,8.7-4s7.1,0.9,8.6,4l2-9.5
			C31.5-23.5,28.3-22.9,27.5-22.9z"/>
	</g>
</g>
<g id="ojos7" class="st0">
	<path class="st11" d="M-21.2-29.6"/>
	<g class="st11">
		<g>
			<path class="st27" d="M35.1-22.9c0,0-1.1,13.6,15,13.4c13.7-0.2,12.9-18,12.9-18S48.1-33.8,35.1-22.9z"/>
			<path class="st46" d="M62.8-23.9c0,0-12.7-5.4-27.5,3.9l-0.4-3c0,0,14.9-9.3,28.7-4.1L62.8-23.9z"/>
			
				<ellipse transform="matrix(1 -3.877448e-03 3.877448e-03 1 7.248285e-02 0.1887)" class="st49" cx="48.7" cy="-18.6" rx="8.3" ry="9.4"/>
			
				<ellipse transform="matrix(0.9968 -8.049493e-02 8.049493e-02 0.9968 2.0402 4.0222)" class="st27" cx="50.9" cy="-23.3" rx="1.7" ry="2.1"/>
			<path d="M63.8-28.1c0.3-0.1,0.7,0,1.2-0.1s0.9-0.2,1.4-0.4c0.5-0.1,1-0.3,1.5-0.5H68c0,0,0.1,0.1,0,0.1c-0.3,0.4-0.7,0.7-1,1
				c-0.2,0.2-0.4,0.3-0.6,0.5c0.1,0,0.1,0,0.2,0l1.5-0.1l0,0h0.1c0.1,0,0.2,0.1,0.2,0.3c-0.2,0.5-0.4,0.8-0.7,1.2
				c-0.3,0.4-0.6,0.7-1,1.1l-0.1,0.1c0.2,0.4,0.3,0.9,0,1.4c-0.6,1.2-1.3,2.3-1.9,3.4c-0.7,1.1-1.4,2.2-2.2,3.3s-1.6,2.1-2.6,3.1
				c-0.5,0.5-1,0.9-1.6,1.3c-0.6,0.4-1.4,0.7-2.1,0.5c0.7,0,1.3-0.4,1.8-0.8c0.5-0.4,0.8-1,1.2-1.5c0.7-1.1,1.2-2.2,1.6-3.3
				c0.4-1.2,0.8-2.3,1.2-3.5c0.3-1.2,0.7-2.4,0.9-3.5c0-0.1,0.1-0.3,0.1-0.4s0.1-0.1,0.1-0.2c-2.4-1-13.9-4.9-27.9,2.7L35-23.7
				C34.8-23.6,46.7-33.6,63.8-28.1z"/>
			<path class="st48" d="M36-26.3c0.1-0.2,0.4-0.4,0.6-0.5c0.2-0.1,0.5-0.3,0.7-0.4c0.5-0.3,1-0.5,1.5-0.7c0.9-0.6,1.9-1,2.9-1.5
				c2-0.9,4.1-1.5,6.2-1.9c2.1-0.4,4.3-0.5,6.5-0.4c1.1,0.1,2.2,0.2,3.2,0.4c1.1,0,2.2,0.2,3.3,0.3c-1-0.5-2.1-0.9-3.1-1.3
				c-1.1-0.2-2.2-0.3-3.3-0.4c-2.2-0.1-4.5,0-6.7,0.4s-4.4,1.1-6.4,2c-1,0.4-2,1-3,1.5c-0.4,0.4-0.9,0.7-1.3,1.1
				C36.7-27.2,36.2-26.8,36-26.3z"/>
		</g>
	</g>
	<g class="st11">
		<g>
			<path class="st27" d="M8.9-22.9c0,0,1.1,13.6-15,13.4c-13.7-0.2-12.9-18-12.9-18S-4.1-33.8,8.9-22.9z"/>
			<path class="st46" d="M-18.9-23.6c0,0,12.7-5.4,27.5,3.9l0.4-3c0,0-14.9-9.3-28.7-4.1L-18.9-23.6z"/>
			
				<ellipse transform="matrix(3.877448e-03 -1 1 3.877448e-03 14.0108 -23.2288)" class="st49" cx="-4.7" cy="-18.6" rx="9.4" ry="8.3"/>
			
				<ellipse transform="matrix(8.049493e-02 -0.9968 0.9968 8.049493e-02 16.9047 -28.3275)" class="st27" cx="-6.9" cy="-23.3" rx="2.1" ry="1.7"/>
			<path d="M-19.8-28.1c-0.3-0.1-0.7,0-1.2-0.1s-0.9-0.2-1.4-0.4c-0.5-0.1-1-0.3-1.5-0.5H-24c0,0-0.1,0.1,0,0.1c0.3,0.4,0.7,0.7,1,1
				c0.2,0.2,0.4,0.3,0.6,0.5c-0.1,0-0.1,0-0.2,0l-1.5-0.1l0,0h-0.1c-0.1,0-0.2,0.1-0.2,0.3c0.2,0.5,0.4,0.8,0.7,1.2
				c0.3,0.4,0.6,0.7,1,1.1l0.1,0.1c-0.2,0.4-0.3,0.9,0,1.4c0.6,1.2,1.3,2.3,1.9,3.4c0.7,1.1,1.4,2.2,2.2,3.3
				c0.8,1.1,1.6,2.1,2.6,3.1c0.5,0.5,1,0.9,1.6,1.3c0.6,0.4,1.4,0.7,2.1,0.5c-0.7,0-1.3-0.4-1.8-0.8c-0.5-0.4-0.8-1-1.2-1.5
				c-0.7-1.1-1.2-2.2-1.6-3.3c-0.4-1.2-0.8-2.3-1.2-3.5c-0.3-1.2-0.7-2.4-0.9-3.5c0-0.1-0.1-0.3-0.1-0.4s-0.1-0.1-0.1-0.2
				c2.4-1,13.9-4.9,27.9,2.7L9-23.7C9.2-23.6-2.7-33.6-19.8-28.1z"/>
			<path class="st48" d="M8-26.3c-0.1-0.2-0.4-0.4-0.6-0.5s-0.5-0.3-0.7-0.4c-0.5-0.3-1-0.5-1.5-0.7c-0.9-0.6-1.9-1-2.9-1.5
				c-2-0.9-4.1-1.5-6.2-1.9s-4.3-0.5-6.5-0.4c-1.1,0.1-2.2,0.2-3.2,0.4c-1.1,0-2.2,0.2-3.3,0.3c1-0.5,2.1-0.9,3.1-1.3
				c1.1-0.2,2.2-0.3,3.3-0.4c2.2-0.1,4.5,0,6.7,0.4s4.4,1.1,6.4,2c1,0.4,2,1,3,1.5c0.4,0.4,0.9,0.7,1.3,1.1
				C7.3-27.2,7.8-26.8,8-26.3z"/>
		</g>
	</g>
	<g class="st11">
		<path d="M63.4-13.7c-0.5-0.1-0.9-0.2-1.4-0.2s-0.9,0.1-1.4,0.2c-0.4,0.1-0.8,0.4-1.3,0.5c-0.4,0.1-0.9,0.3-1.4,0.3h-0.1l0,0
			c0.2-0.5,0.6-0.9,1.1-1.2c0.4-0.3,1-0.3,1.5-0.4C61.5-14.6,62.5-14.4,63.4-13.7C63.4-13.8,63.4-13.8,63.4-13.7L63.4-13.7z"/>
	</g>
	<g class="st11">
		<path d="M59.4-13.8c-0.6,0.8-1.2,1.4-2,2.1c-0.8,0.5-1.6,1-2.5,1.4c-1.7,0.8-3.6,1.4-5.5,1.6c-1.9,0.2-3.9,0-5.7-0.7
			c-0.4-0.2-0.9-0.3-1.3-0.5l-1.3-0.7c-0.4-0.3-0.7-0.7-1-1s-0.6-0.7-0.9-1.1c0.9,0.4,1.6,0.9,2.5,1.2l1.2,0.7
			c0.4,0.2,0.8,0.3,1.2,0.5c1.7,0.6,3.5,0.8,5.3,0.6s3.5-0.7,5.2-1.5c0.8-0.4,1.6-0.8,2.4-1.3C57.7-12.9,58.6-13.3,59.4-13.8z"/>
	</g>
</g>
<g id="ojos6" class="st0">
	<path class="st11" d="M-21.2-29.6"/>
	<g class="st11">
		<g>
			<path class="st27" d="M35.1-22.9c0,0-1.1,13.6,15,13.4c13.7-0.2,12.9-18,12.9-18S48.1-33.8,35.1-22.9z"/>
			<path class="st46" d="M62.8-23.9c0,0-12.7-5.4-27.5,3.9l-0.4-3c0,0,14.9-9.3,28.7-4.1L62.8-23.9z"/>
			
				<ellipse transform="matrix(1 -3.877448e-03 3.877448e-03 1 7.248285e-02 0.1887)" class="st47" cx="48.7" cy="-18.6" rx="8.3" ry="9.4"/>
			
				<ellipse transform="matrix(0.9968 -8.049493e-02 8.049493e-02 0.9968 2.0402 4.0222)" class="st27" cx="50.9" cy="-23.3" rx="1.7" ry="2.1"/>
			<path d="M63.8-28.1c0.3-0.1,0.7,0,1.2-0.1s0.9-0.2,1.4-0.4c0.5-0.1,1-0.3,1.5-0.5H68c0,0,0.1,0.1,0,0.1c-0.3,0.4-0.7,0.7-1,1
				c-0.2,0.2-0.4,0.3-0.6,0.5c0.1,0,0.1,0,0.2,0l1.5-0.1l0,0h0.1c0.1,0,0.2,0.1,0.2,0.3c-0.2,0.5-0.4,0.8-0.7,1.2
				c-0.3,0.4-0.6,0.7-1,1.1l-0.1,0.1c0.2,0.4,0.3,0.9,0,1.4c-0.6,1.2-1.3,2.3-1.9,3.4c-0.7,1.1-1.4,2.2-2.2,3.3s-1.6,2.1-2.6,3.1
				c-0.5,0.5-1,0.9-1.6,1.3c-0.6,0.4-1.4,0.7-2.1,0.5c0.7,0,1.3-0.4,1.8-0.8c0.5-0.4,0.8-1,1.2-1.5c0.7-1.1,1.2-2.2,1.6-3.3
				c0.4-1.2,0.8-2.3,1.2-3.5c0.3-1.2,0.7-2.4,0.9-3.5c0-0.1,0.1-0.3,0.1-0.4s0.1-0.1,0.1-0.2c-2.4-1-13.9-4.9-27.9,2.7L35-23.7
				C34.8-23.6,46.7-33.6,63.8-28.1z"/>
			<path class="st50" d="M36-26.3c0.1-0.2,0.4-0.4,0.6-0.5c0.2-0.1,0.5-0.3,0.7-0.4c0.5-0.3,1-0.5,1.5-0.7c0.9-0.6,1.9-1,2.9-1.5
				c2-0.9,4.1-1.5,6.2-1.9c2.1-0.4,4.3-0.5,6.5-0.4c1.1,0.1,2.2,0.2,3.2,0.4c1.1,0,2.2,0.2,3.3,0.3c-1-0.5-2.1-0.9-3.1-1.3
				c-1.1-0.2-2.2-0.3-3.3-0.4c-2.2-0.1-4.5,0-6.7,0.4s-4.4,1.1-6.4,2c-1,0.4-2,1-3,1.5c-0.4,0.4-0.9,0.7-1.3,1.1
				C36.7-27.2,36.2-26.8,36-26.3z"/>
		</g>
	</g>
	<g class="st11">
		<g>
			<path class="st27" d="M8.9-22.9c0,0,1.1,13.6-15,13.4c-13.7-0.2-12.9-18-12.9-18S-4.1-33.8,8.9-22.9z"/>
			<path class="st46" d="M-18.9-23.6c0,0,12.7-5.4,27.5,3.9l0.4-3c0,0-14.9-9.3-28.7-4.1L-18.9-23.6z"/>
			
				<ellipse transform="matrix(3.877448e-03 -1 1 3.877448e-03 14.0108 -23.2288)" class="st47" cx="-4.7" cy="-18.6" rx="9.4" ry="8.3"/>
			
				<ellipse transform="matrix(8.049493e-02 -0.9968 0.9968 8.049493e-02 16.9047 -28.3275)" class="st27" cx="-6.9" cy="-23.3" rx="2.1" ry="1.7"/>
			<path d="M-19.8-28.1c-0.3-0.1-0.7,0-1.2-0.1s-0.9-0.2-1.4-0.4c-0.5-0.1-1-0.3-1.5-0.5H-24c0,0-0.1,0.1,0,0.1c0.3,0.4,0.7,0.7,1,1
				c0.2,0.2,0.4,0.3,0.6,0.5c-0.1,0-0.1,0-0.2,0l-1.5-0.1l0,0h-0.1c-0.1,0-0.2,0.1-0.2,0.3c0.2,0.5,0.4,0.8,0.7,1.2
				c0.3,0.4,0.6,0.7,1,1.1l0.1,0.1c-0.2,0.4-0.3,0.9,0,1.4c0.6,1.2,1.3,2.3,1.9,3.4c0.7,1.1,1.4,2.2,2.2,3.3
				c0.8,1.1,1.6,2.1,2.6,3.1c0.5,0.5,1,0.9,1.6,1.3c0.6,0.4,1.4,0.7,2.1,0.5c-0.7,0-1.3-0.4-1.8-0.8c-0.5-0.4-0.8-1-1.2-1.5
				c-0.7-1.1-1.2-2.2-1.6-3.3c-0.4-1.2-0.8-2.3-1.2-3.5c-0.3-1.2-0.7-2.4-0.9-3.5c0-0.1-0.1-0.3-0.1-0.4s-0.1-0.1-0.1-0.2
				c2.4-1,13.9-4.9,27.9,2.7L9-23.7C9.2-23.6-2.7-33.6-19.8-28.1z"/>
			<path class="st50" d="M8-26.3c-0.1-0.2-0.4-0.4-0.6-0.5s-0.5-0.3-0.7-0.4c-0.5-0.3-1-0.5-1.5-0.7c-0.9-0.6-1.9-1-2.9-1.5
				c-2-0.9-4.1-1.5-6.2-1.9s-4.3-0.5-6.5-0.4c-1.1,0.1-2.2,0.2-3.2,0.4c-1.1,0-2.2,0.2-3.3,0.3c1-0.5,2.1-0.9,3.1-1.3
				c1.1-0.2,2.2-0.3,3.3-0.4c2.2-0.1,4.5,0,6.7,0.4s4.4,1.1,6.4,2c1,0.4,2,1,3,1.5c0.4,0.4,0.9,0.7,1.3,1.1
				C7.3-27.2,7.8-26.8,8-26.3z"/>
		</g>
	</g>
	<g class="st11">
		<path d="M63.4-13.7c-0.5-0.1-0.9-0.2-1.4-0.2s-0.9,0.1-1.4,0.2c-0.4,0.1-0.8,0.4-1.3,0.5c-0.4,0.1-0.9,0.3-1.4,0.3h-0.1l0,0
			c0.2-0.5,0.6-0.9,1.1-1.2c0.4-0.3,1-0.3,1.5-0.4C61.5-14.6,62.5-14.4,63.4-13.7C63.4-13.8,63.4-13.8,63.4-13.7L63.4-13.7z"/>
	</g>
	<g class="st11">
		<path d="M59.4-13.8c-0.6,0.8-1.2,1.4-2,2.1c-0.8,0.5-1.6,1-2.5,1.4c-1.7,0.8-3.6,1.4-5.5,1.6c-1.9,0.2-3.9,0-5.7-0.7
			c-0.4-0.2-0.9-0.3-1.3-0.5l-1.3-0.7c-0.4-0.3-0.7-0.7-1-1s-0.6-0.7-0.9-1.1c0.9,0.4,1.6,0.9,2.5,1.2l1.2,0.7
			c0.4,0.2,0.8,0.3,1.2,0.5c1.7,0.6,3.5,0.8,5.3,0.6s3.5-0.7,5.2-1.5c0.8-0.4,1.6-0.8,2.4-1.3C57.7-12.9,58.6-13.3,59.4-13.8z"/>
	</g>
</g>
<g id="ojos5" class="st0">
	<path class="st11" d="M-21.2-29.6"/>
	<g class="st11">
		<g>
			<path class="st27" d="M35.1-22.9c0,0-1.1,13.6,15,13.4c13.7-0.2,12.9-18,12.9-18S48.1-33.8,35.1-22.9z"/>
			<path class="st46" d="M62.8-23.9c0,0-12.7-5.4-27.5,3.9l-0.4-3c0,0,14.9-9.3,28.7-4.1L62.8-23.9z"/>
			<ellipse transform="matrix(1 -3.877448e-03 3.877448e-03 1 7.248285e-02 0.1887)" cx="48.7" cy="-18.6" rx="8.3" ry="9.4"/>
			
				<ellipse transform="matrix(0.9968 -8.049493e-02 8.049493e-02 0.9968 2.0402 4.0222)" class="st27" cx="50.9" cy="-23.3" rx="1.7" ry="2.1"/>
			<path d="M63.8-28.1c0.3-0.1,0.7,0,1.2-0.1s0.9-0.2,1.4-0.4c0.5-0.1,1-0.3,1.5-0.5H68c0,0,0.1,0.1,0,0.1c-0.3,0.4-0.7,0.7-1,1
				c-0.2,0.2-0.4,0.3-0.6,0.5c0.1,0,0.1,0,0.2,0l1.5-0.1l0,0h0.1c0.1,0,0.2,0.1,0.2,0.3c-0.2,0.5-0.4,0.8-0.7,1.2
				c-0.3,0.4-0.6,0.7-1,1.1l-0.1,0.1c0.2,0.4,0.3,0.9,0,1.4c-0.6,1.2-1.3,2.3-1.9,3.4c-0.7,1.1-1.4,2.2-2.2,3.3s-1.6,2.1-2.6,3.1
				c-0.5,0.5-1,0.9-1.6,1.3c-0.6,0.4-1.4,0.7-2.1,0.5c0.7,0,1.3-0.4,1.8-0.8c0.5-0.4,0.8-1,1.2-1.5c0.7-1.1,1.2-2.2,1.6-3.3
				c0.4-1.2,0.8-2.3,1.2-3.5c0.3-1.2,0.7-2.4,0.9-3.5c0-0.1,0.1-0.3,0.1-0.4s0.1-0.1,0.1-0.2c-2.4-1-13.9-4.9-27.9,2.7L35-23.7
				C34.8-23.6,46.7-33.6,63.8-28.1z"/>
			<path class="st51" d="M36-26.3c0.1-0.2,0.4-0.4,0.6-0.5c0.2-0.1,0.5-0.3,0.7-0.4c0.5-0.3,1-0.5,1.5-0.7c0.9-0.6,1.9-1,2.9-1.5
				c2-0.9,4.1-1.5,6.2-1.9c2.1-0.4,4.3-0.5,6.5-0.4c1.1,0.1,2.2,0.2,3.2,0.4c1.1,0,2.2,0.2,3.3,0.3c-1-0.5-2.1-0.9-3.1-1.3
				c-1.1-0.2-2.2-0.3-3.3-0.4c-2.2-0.1-4.5,0-6.7,0.4s-4.4,1.1-6.4,2c-1,0.4-2,1-3,1.5c-0.4,0.4-0.9,0.7-1.3,1.1
				C36.7-27.2,36.2-26.8,36-26.3z"/>
		</g>
	</g>
	<g class="st11">
		<g>
			<path class="st27" d="M8.9-22.9c0,0,1.1,13.6-15,13.4c-13.7-0.2-12.9-18-12.9-18S-4.1-33.8,8.9-22.9z"/>
			<path class="st46" d="M-18.9-23.6c0,0,12.7-5.4,27.5,3.9l0.4-3c0,0-14.9-9.3-28.7-4.1L-18.9-23.6z"/>
			<ellipse transform="matrix(3.877448e-03 -1 1 3.877448e-03 14.0108 -23.2288)" cx="-4.7" cy="-18.6" rx="9.4" ry="8.3"/>
			
				<ellipse transform="matrix(8.049493e-02 -0.9968 0.9968 8.049493e-02 16.9047 -28.3275)" class="st27" cx="-6.9" cy="-23.3" rx="2.1" ry="1.7"/>
			<path d="M-19.8-28.1c-0.3-0.1-0.7,0-1.2-0.1s-0.9-0.2-1.4-0.4c-0.5-0.1-1-0.3-1.5-0.5H-24c0,0-0.1,0.1,0,0.1c0.3,0.4,0.7,0.7,1,1
				c0.2,0.2,0.4,0.3,0.6,0.5c-0.1,0-0.1,0-0.2,0l-1.5-0.1l0,0h-0.1c-0.1,0-0.2,0.1-0.2,0.3c0.2,0.5,0.4,0.8,0.7,1.2
				c0.3,0.4,0.6,0.7,1,1.1l0.1,0.1c-0.2,0.4-0.3,0.9,0,1.4c0.6,1.2,1.3,2.3,1.9,3.4c0.7,1.1,1.4,2.2,2.2,3.3
				c0.8,1.1,1.6,2.1,2.6,3.1c0.5,0.5,1,0.9,1.6,1.3c0.6,0.4,1.4,0.7,2.1,0.5c-0.7,0-1.3-0.4-1.8-0.8c-0.5-0.4-0.8-1-1.2-1.5
				c-0.7-1.1-1.2-2.2-1.6-3.3c-0.4-1.2-0.8-2.3-1.2-3.5c-0.3-1.2-0.7-2.4-0.9-3.5c0-0.1-0.1-0.3-0.1-0.4s-0.1-0.1-0.1-0.2
				c2.4-1,13.9-4.9,27.9,2.7L9-23.7C9.2-23.6-2.7-33.6-19.8-28.1z"/>
			<path class="st51" d="M8-26.3c-0.1-0.2-0.4-0.4-0.6-0.5s-0.5-0.3-0.7-0.4c-0.5-0.3-1-0.5-1.5-0.7c-0.9-0.6-1.9-1-2.9-1.5
				c-2-0.9-4.1-1.5-6.2-1.9s-4.3-0.5-6.5-0.4c-1.1,0.1-2.2,0.2-3.2,0.4c-1.1,0-2.2,0.2-3.3,0.3c1-0.5,2.1-0.9,3.1-1.3
				c1.1-0.2,2.2-0.3,3.3-0.4c2.2-0.1,4.5,0,6.7,0.4s4.4,1.1,6.4,2c1,0.4,2,1,3,1.5c0.4,0.4,0.9,0.7,1.3,1.1
				C7.3-27.2,7.8-26.8,8-26.3z"/>
		</g>
	</g>
	<g class="st11">
		<path d="M63.4-13.7c-0.5-0.1-0.9-0.2-1.4-0.2s-0.9,0.1-1.4,0.2c-0.4,0.1-0.8,0.4-1.3,0.5c-0.4,0.1-0.9,0.3-1.4,0.3h-0.1l0,0
			c0.2-0.5,0.6-0.9,1.1-1.2c0.4-0.3,1-0.3,1.5-0.4C61.5-14.6,62.5-14.4,63.4-13.7C63.4-13.8,63.4-13.8,63.4-13.7L63.4-13.7z"/>
	</g>
	<g class="st11">
		<path d="M59.4-13.8c-0.6,0.8-1.2,1.4-2,2.1c-0.8,0.5-1.6,1-2.5,1.4c-1.7,0.8-3.6,1.4-5.5,1.6c-1.9,0.2-3.9,0-5.7-0.7
			c-0.4-0.2-0.9-0.3-1.3-0.5l-1.3-0.7c-0.4-0.3-0.7-0.7-1-1s-0.6-0.7-0.9-1.1c0.9,0.4,1.6,0.9,2.5,1.2l1.2,0.7
			c0.4,0.2,0.8,0.3,1.2,0.5c1.7,0.6,3.5,0.8,5.3,0.6s3.5-0.7,5.2-1.5c0.8-0.4,1.6-0.8,2.4-1.3C57.7-12.9,58.6-13.3,59.4-13.8z"/>
	</g>
</g>
<g id="ojos4" class="st0">
	<g class="st11">
		<g>
			<path class="st27" d="M35.5-22.5c0,0-1.1,15.2,15,14.9c13.7-0.2,12.9-20.1,12.9-20.1S48.5-34.7,35.5-22.5z"/>
			<path class="st46" d="M62.6-23.2c0,0-12.5-5.4-26.9,3.9l-0.4-3c0,0,14.6-9.3,28.1-4.1L62.6-23.2z"/>
			
				<ellipse transform="matrix(1 -3.877393e-03 3.877393e-03 1 6.938305e-02 0.1903)" class="st52" cx="49.1" cy="-17.8" rx="8.3" ry="10.5"/>
			
				<ellipse transform="matrix(0.9968 -8.049493e-02 8.049493e-02 0.9968 1.8886 4.0602)" class="st27" cx="51.3" cy="-21.4" rx="1.7" ry="2.1"/>
			<path d="M63.9-29.9c0.3-0.2,0.7-0.1,1.2-0.2c0.4-0.1,0.9-0.3,1.4-0.5s0.9-0.4,1.4-0.6H68c0,0,0.1,0.1,0,0.1
				c-0.3,0.5-0.6,0.9-1,1.3c-0.2,0.2-0.4,0.4-0.6,0.6c0.1,0,0.1,0,0.2,0l1.5-0.2l0,0h0.1c0.1,0,0.2,0.2,0.2,0.3
				c-0.1,0.5-0.4,1-0.6,1.5c-0.3,0.5-0.6,0.9-0.9,1.3l-0.1,0.1c0.3,0.5,0.3,1.1,0.1,1.7c-0.5,1.5-1.1,2.8-1.7,4.2
				c-0.6,1.4-1.3,2.7-2,4s-1.5,2.6-2.4,3.8c-0.5,0.6-1,1.2-1.6,1.7s-1.3,0.9-2.1,0.8c0.7-0.1,1.3-0.6,1.7-1.1
				c0.4-0.6,0.8-1.2,1.1-1.8c0.6-1.3,1-2.7,1.4-4.1c0.4-1.4,0.7-2.8,1-4.2s0.5-2.9,0.7-4.2c0-0.1,0.1-0.3,0.1-0.4s0.1-0.2,0.1-0.2
				c-2.5-1-14.2-4.8-27.7,5.2l-0.3-1.5C35.2-22.5,46.4-35.2,63.9-29.9z"/>
			<path class="st53" d="M36.3-27.2c0.1-0.3,0.4-0.4,0.6-0.6c0.2-0.2,0.5-0.3,0.7-0.4c0.5-0.3,1-0.5,1.4-0.8
				c0.9-0.6,1.8-1.1,2.8-1.6c1.9-1,4-1.7,6.1-2.2s4.3-0.7,6.5-0.7c1.1,0,2.2,0.1,3.2,0.2c1.1,0,2.2,0.1,3.3,0.1
				c-1-0.5-2.1-0.8-3.2-1.1c-1.1-0.2-2.2-0.2-3.4-0.2c-2.3,0-4.5,0.2-6.7,0.7s-4.3,1.3-6.3,2.3c-1,0.5-2,1.1-2.9,1.7
				c-0.4,0.4-0.8,0.8-1.2,1.2C36.9-28.2,36.4-27.8,36.3-27.2z"/>
		</g>
		<g>
			<path class="st27" d="M7.3-22c0,0,1.1,15.2-15,14.9c-13.7-0.2-12.9-20.1-12.9-20.1S-5.8-34.2,7.3-22z"/>
			<path class="st46" d="M-19.9-22.7c0,0,12.5-5.4,26.9,3.9l0.4-3c0,0-14.6-9.3-28.1-4.1L-19.9-22.7z"/>
			
				<ellipse transform="matrix(3.877393e-03 -1 1 3.877393e-03 10.8582 -23.5737)" class="st52" cx="-6.4" cy="-17.2" rx="10.5" ry="8.3"/>
			
				<ellipse transform="matrix(8.049493e-02 -0.9968 0.9968 8.049493e-02 12.8672 -27.6738)" class="st27" cx="-8.6" cy="-20.8" rx="2.1" ry="1.7"/>
			<path d="M-21.2-29.4c-0.3-0.2-0.7-0.1-1.2-0.2c-0.4-0.1-0.9-0.3-1.4-0.5s-0.9-0.4-1.4-0.6h-0.1c0,0-0.1,0.1,0,0.1
				c0.3,0.5,0.6,0.9,1,1.3c0.2,0.2,0.4,0.4,0.6,0.6c-0.1,0-0.1,0-0.2,0l-1.5-0.2l0,0h-0.1c-0.1,0-0.2,0.2-0.2,0.3
				c0.1,0.5,0.4,1,0.6,1.5c0.3,0.5,0.6,0.9,0.9,1.3l0.1,0.1c-0.3,0.5-0.3,1.1-0.1,1.7c0.5,1.5,1.1,2.8,1.7,4.2c0.6,1.4,1.3,2.7,2,4
				s1.5,2.6,2.4,3.8c0.5,0.6,1,1.2,1.6,1.7s1.3,0.9,2.1,0.8c-0.7-0.1-1.3-0.6-1.7-1.1c-0.4-0.6-0.8-1.2-1.1-1.8
				c-0.6-1.3-1-2.7-1.4-4.1c-0.4-1.4-0.7-2.8-1-4.2s-0.5-2.9-0.7-4.2c0-0.1-0.1-0.3-0.1-0.4s-0.1-0.2-0.1-0.2
				c2.5-1,14.2-4.8,27.7,5.2l0.3-1.5C7.5-22-3.7-34.6-21.2-29.4z"/>
			<path class="st53" d="M6.4-26.7C6.3-27,6-27.1,5.8-27.3s-0.5-0.3-0.7-0.4c-0.5-0.3-1-0.5-1.4-0.8c-0.9-0.6-1.8-1.1-2.8-1.6
				c-1.9-1-4-1.7-6.1-2.2S-9.5-33-11.7-33c-1.1,0-2.2,0.1-3.2,0.2c-1.1,0-2.2,0.1-3.3,0.1c1-0.5,2.1-0.8,3.2-1.1
				c1.1-0.2,2.2-0.2,3.4-0.2c2.3,0,4.5,0.2,6.7,0.7S-0.6-32,1.4-31c1,0.5,2,1.1,2.9,1.7c0.4,0.4,0.8,0.8,1.2,1.2
				C5.9-27.6,6.3-27.2,6.4-26.7z"/>
		</g>
	</g>
	<g class="st11">
		<path d="M63.8-11.8c-0.5-0.1-0.9-0.2-1.4-0.2s-0.9,0.1-1.4,0.2c-0.4,0.1-0.8,0.4-1.3,0.5c-0.4,0.1-0.9,0.3-1.4,0.3h-0.1l0,0
			c0.2-0.5,0.6-0.9,1.1-1.2c0.4-0.3,1-0.3,1.5-0.4C61.9-12.6,62.9-12.4,63.8-11.8C63.8-11.9,63.8-11.8,63.8-11.8L63.8-11.8z"/>
	</g>
	<g class="st11">
		<path d="M59.8-11.9c-0.6,0.8-1.2,1.4-2,2.1c-0.8,0.5-1.6,1-2.5,1.4c-1.7,0.8-3.6,1.4-5.5,1.6c-1.9,0.2-3.9,0-5.7-0.7
			c-0.4-0.2-0.9-0.3-1.3-0.5l-1.3-0.7c-0.4-0.3-0.7-0.7-1-1s-0.6-0.7-0.9-1.1c0.9,0.4,1.6,0.9,2.5,1.2l1.2,0.7
			c0.4,0.2,0.8,0.3,1.2,0.5c1.7,0.6,3.5,0.8,5.3,0.6s3.5-0.7,5.2-1.5c0.8-0.4,1.6-0.8,2.4-1.3C58.1-11,59-11.4,59.8-11.9z"/>
	</g>
	<g class="st11">
		<path d="M-17.2-11.7c0.8,0.5,1.7,0.9,2.5,1.2c0.8,0.5,1.6,0.9,2.4,1.3c1.6,0.8,3.4,1.3,5.2,1.5c1.8,0.2,3.6,0,5.3-0.6
			C-1.4-8.5-1-8.6-0.6-8.8l1.2-0.7c0.9-0.3,1.6-0.8,2.5-1.2C2.8-10.3,2.5-10,2.2-9.6c-0.3,0.3-0.6,0.7-1,1l-1.3,0.7
			C-0.5-7.7-1-7.5-1.4-7.4c-1.8,0.6-3.8,0.9-5.7,0.7c-1.9-0.2-3.8-0.8-5.5-1.6c-0.9-0.4-1.7-0.9-2.5-1.4
			C-15.9-10.2-16.6-10.9-17.2-11.7z"/>
	</g>
</g>
<g id="ojos3" class="st0">
	<g class="st11">
		<g>
			<path class="st27" d="M35.5-22.5c0,0-1.1,15.2,15,14.9c13.7-0.2,12.9-20.1,12.9-20.1S48.5-34.7,35.5-22.5z"/>
			<path class="st46" d="M62.6-23.2c0,0-12.5-5.4-26.9,3.9l-0.4-3c0,0,14.6-9.3,28.1-4.1L62.6-23.2z"/>
			
				<ellipse transform="matrix(1 -3.877393e-03 3.877393e-03 1 6.938305e-02 0.1903)" class="st54" cx="49.1" cy="-17.8" rx="8.3" ry="10.5"/>
			
				<ellipse transform="matrix(0.9968 -8.049493e-02 8.049493e-02 0.9968 1.8886 4.0602)" class="st27" cx="51.3" cy="-21.4" rx="1.7" ry="2.1"/>
			<path d="M63.9-29.9c0.3-0.2,0.7-0.1,1.2-0.2c0.4-0.1,0.9-0.3,1.4-0.5s0.9-0.4,1.4-0.6H68c0,0,0.1,0.1,0,0.1
				c-0.3,0.5-0.6,0.9-1,1.3c-0.2,0.2-0.4,0.4-0.6,0.6c0.1,0,0.1,0,0.2,0l1.5-0.2l0,0h0.1c0.1,0,0.2,0.2,0.2,0.3
				c-0.1,0.5-0.4,1-0.6,1.5c-0.3,0.5-0.6,0.9-0.9,1.3l-0.1,0.1c0.3,0.5,0.3,1.1,0.1,1.7c-0.5,1.5-1.1,2.8-1.7,4.2
				c-0.6,1.4-1.3,2.7-2,4s-1.5,2.6-2.4,3.8c-0.5,0.6-1,1.2-1.6,1.7s-1.3,0.9-2.1,0.8c0.7-0.1,1.3-0.6,1.7-1.1
				c0.4-0.6,0.8-1.2,1.1-1.8c0.6-1.3,1-2.7,1.4-4.1c0.4-1.4,0.7-2.8,1-4.2s0.5-2.9,0.7-4.2c0-0.1,0.1-0.3,0.1-0.4s0.1-0.2,0.1-0.2
				c-2.5-1-14.2-4.8-27.7,5.2l-0.3-1.5C35.2-22.5,46.4-35.2,63.9-29.9z"/>
			<path class="st55" d="M36.3-27.2c0.1-0.3,0.4-0.4,0.6-0.6c0.2-0.2,0.5-0.3,0.7-0.4c0.5-0.3,1-0.5,1.4-0.8
				c0.9-0.6,1.8-1.1,2.8-1.6c1.9-1,4-1.7,6.1-2.2s4.3-0.7,6.5-0.7c1.1,0,2.2,0.1,3.2,0.2c1.1,0,2.2,0.1,3.3,0.1
				c-1-0.5-2.1-0.8-3.2-1.1c-1.1-0.2-2.2-0.2-3.4-0.2c-2.3,0-4.5,0.2-6.7,0.7s-4.3,1.3-6.3,2.3c-1,0.5-2,1.1-2.9,1.7
				c-0.4,0.4-0.8,0.8-1.2,1.2C36.9-28.2,36.4-27.8,36.3-27.2z"/>
		</g>
		<g>
			<path class="st27" d="M7.3-22c0,0,1.1,15.2-15,14.9c-13.7-0.2-12.9-20.1-12.9-20.1S-5.8-34.2,7.3-22z"/>
			<path class="st46" d="M-19.9-22.7c0,0,12.5-5.4,26.9,3.9l0.4-3c0,0-14.6-9.3-28.1-4.1L-19.9-22.7z"/>
			
				<ellipse transform="matrix(3.877393e-03 -1 1 3.877393e-03 10.8582 -23.5737)" class="st54" cx="-6.4" cy="-17.2" rx="10.5" ry="8.3"/>
			
				<ellipse transform="matrix(8.049493e-02 -0.9968 0.9968 8.049493e-02 12.8672 -27.6738)" class="st27" cx="-8.6" cy="-20.8" rx="2.1" ry="1.7"/>
			<path d="M-21.2-29.4c-0.3-0.2-0.7-0.1-1.2-0.2c-0.4-0.1-0.9-0.3-1.4-0.5s-0.9-0.4-1.4-0.6h-0.1c0,0-0.1,0.1,0,0.1
				c0.3,0.5,0.6,0.9,1,1.3c0.2,0.2,0.4,0.4,0.6,0.6c-0.1,0-0.1,0-0.2,0l-1.5-0.2l0,0h-0.1c-0.1,0-0.2,0.2-0.2,0.3
				c0.1,0.5,0.4,1,0.6,1.5c0.3,0.5,0.6,0.9,0.9,1.3l0.1,0.1c-0.3,0.5-0.3,1.1-0.1,1.7c0.5,1.5,1.1,2.8,1.7,4.2c0.6,1.4,1.3,2.7,2,4
				s1.5,2.6,2.4,3.8c0.5,0.6,1,1.2,1.6,1.7s1.3,0.9,2.1,0.8c-0.7-0.1-1.3-0.6-1.7-1.1c-0.4-0.6-0.8-1.2-1.1-1.8
				c-0.6-1.3-1-2.7-1.4-4.1c-0.4-1.4-0.7-2.8-1-4.2s-0.5-2.9-0.7-4.2c0-0.1-0.1-0.3-0.1-0.4s-0.1-0.2-0.1-0.2
				c2.5-1,14.2-4.8,27.7,5.2l0.3-1.5C7.5-22-3.7-34.6-21.2-29.4z"/>
			<path class="st55" d="M6.4-26.7C6.3-27,6-27.1,5.8-27.3s-0.5-0.3-0.7-0.4c-0.5-0.3-1-0.5-1.4-0.8c-0.9-0.6-1.8-1.1-2.8-1.6
				c-1.9-1-4-1.7-6.1-2.2S-9.5-33-11.7-33c-1.1,0-2.2,0.1-3.2,0.2c-1.1,0-2.2,0.1-3.3,0.1c1-0.5,2.1-0.8,3.2-1.1
				c1.1-0.2,2.2-0.2,3.4-0.2c2.3,0,4.5,0.2,6.7,0.7S-0.6-32,1.4-31c1,0.5,2,1.1,2.9,1.7c0.4,0.4,0.8,0.8,1.2,1.2
				C5.9-27.6,6.3-27.2,6.4-26.7z"/>
		</g>
	</g>
	<g class="st11">
		<path d="M63.8-11.8c-0.5-0.1-0.9-0.2-1.4-0.2s-0.9,0.1-1.4,0.2c-0.4,0.1-0.8,0.4-1.3,0.5c-0.4,0.1-0.9,0.3-1.4,0.3h-0.1l0,0
			c0.2-0.5,0.6-0.9,1.1-1.2c0.4-0.3,1-0.3,1.5-0.4C61.9-12.6,62.9-12.4,63.8-11.8C63.8-11.9,63.8-11.8,63.8-11.8L63.8-11.8z"/>
	</g>
	<g class="st11">
		<path d="M59.8-11.9c-0.6,0.8-1.2,1.4-2,2.1c-0.8,0.5-1.6,1-2.5,1.4c-1.7,0.8-3.6,1.4-5.5,1.6c-1.9,0.2-3.9,0-5.7-0.7
			c-0.4-0.2-0.9-0.3-1.3-0.5l-1.3-0.7c-0.4-0.3-0.7-0.7-1-1s-0.6-0.7-0.9-1.1c0.9,0.4,1.6,0.9,2.5,1.2l1.2,0.7
			c0.4,0.2,0.8,0.3,1.2,0.5c1.7,0.6,3.5,0.8,5.3,0.6s3.5-0.7,5.2-1.5c0.8-0.4,1.6-0.8,2.4-1.3C58.1-11,59-11.4,59.8-11.9z"/>
	</g>
	<g class="st11">
		<path d="M-17.2-11.7c0.8,0.5,1.7,0.9,2.5,1.2c0.8,0.5,1.6,0.9,2.4,1.3c1.6,0.8,3.4,1.3,5.2,1.5c1.8,0.2,3.6,0,5.3-0.6
			C-1.4-8.5-1-8.6-0.6-8.8l1.2-0.7c0.9-0.3,1.6-0.8,2.5-1.2C2.8-10.3,2.5-10,2.2-9.6c-0.3,0.3-0.6,0.7-1,1l-1.3,0.7
			C-0.5-7.7-1-7.5-1.4-7.4c-1.8,0.6-3.8,0.9-5.7,0.7c-1.9-0.2-3.8-0.8-5.5-1.6c-0.9-0.4-1.7-0.9-2.5-1.4
			C-15.9-10.2-16.6-10.9-17.2-11.7z"/>
	</g>
</g>
<g id="ojos2" class="st0">
	<g id="ojos1_1_" class="st11">
		<g>
			<g>
				<path class="st27" d="M35.5-22.5c0,0-1.1,15.2,15,14.9c13.7-0.2,12.9-20.1,12.9-20.1S48.5-34.7,35.5-22.5z"/>
				<path class="st46" d="M62.6-23.2c0,0-12.5-5.4-26.9,3.9l-0.4-3c0,0,14.6-9.3,28.1-4.1L62.6-23.2z"/>
				
					<ellipse transform="matrix(1 -3.877393e-03 3.877393e-03 1 6.938305e-02 0.1903)" class="st54" cx="49.1" cy="-17.8" rx="8.3" ry="10.5"/>
				
					<ellipse transform="matrix(0.9968 -8.049493e-02 8.049493e-02 0.9968 1.8886 4.0602)" class="st27" cx="51.3" cy="-21.4" rx="1.7" ry="2.1"/>
				<path d="M63.9-29.9c0.3-0.2,0.7-0.1,1.2-0.2c0.4-0.1,0.9-0.3,1.4-0.5s0.9-0.4,1.4-0.6H68c0,0,0.1,0.1,0,0.1
					c-0.3,0.5-0.6,0.9-1,1.3c-0.2,0.2-0.4,0.4-0.6,0.6c0.1,0,0.1,0,0.2,0l1.5-0.2l0,0h0.1c0.1,0,0.2,0.2,0.2,0.3
					c-0.1,0.5-0.4,1-0.6,1.5c-0.3,0.5-0.6,0.9-0.9,1.3l-0.1,0.1c0.3,0.5,0.3,1.1,0.1,1.7c-0.5,1.5-1.1,2.8-1.7,4.2
					c-0.6,1.4-1.3,2.7-2,4s-1.5,2.6-2.4,3.8c-0.5,0.6-1,1.2-1.6,1.7s-1.3,0.9-2.1,0.8c0.7-0.1,1.3-0.6,1.7-1.1
					c0.4-0.6,0.8-1.2,1.1-1.8c0.6-1.3,1-2.7,1.4-4.1c0.4-1.4,0.7-2.8,1-4.2s0.5-2.9,0.7-4.2c0-0.1,0.1-0.3,0.1-0.4s0.1-0.2,0.1-0.2
					c-2.5-1-14.2-4.8-27.7,5.2l-0.3-1.5C35.2-22.5,46.4-35.2,63.9-29.9z"/>
			</g>
			<g>
				<path class="st27" d="M7.3-22c0,0,1.1,15.2-15,14.9c-13.7-0.2-12.9-20.1-12.9-20.1S-5.8-34.2,7.3-22z"/>
				<path class="st46" d="M-19.9-22.7c0,0,12.5-5.4,26.9,3.9l0.4-3c0,0-14.6-9.3-28.1-4.1L-19.9-22.7z"/>
				
					<ellipse transform="matrix(3.877393e-03 -1 1 3.877393e-03 10.8582 -23.5737)" class="st54" cx="-6.4" cy="-17.2" rx="10.5" ry="8.3"/>
				
					<ellipse transform="matrix(8.049493e-02 -0.9968 0.9968 8.049493e-02 12.8672 -27.6738)" class="st27" cx="-8.6" cy="-20.8" rx="2.1" ry="1.7"/>
				<path d="M-21.2-29.4c-0.3-0.2-0.7-0.1-1.2-0.2c-0.4-0.1-0.9-0.3-1.4-0.5s-0.9-0.4-1.4-0.6h-0.1c0,0-0.1,0.1,0,0.1
					c0.3,0.5,0.6,0.9,1,1.3c0.2,0.2,0.4,0.4,0.6,0.6c-0.1,0-0.1,0-0.2,0l-1.5-0.2l0,0h-0.1c-0.1,0-0.2,0.2-0.2,0.3
					c0.1,0.5,0.4,1,0.6,1.5c0.3,0.5,0.6,0.9,0.9,1.3l0.1,0.1c-0.3,0.5-0.3,1.1-0.1,1.7c0.5,1.5,1.1,2.8,1.7,4.2c0.6,1.4,1.3,2.7,2,4
					s1.5,2.6,2.4,3.8c0.5,0.6,1,1.2,1.6,1.7s1.3,0.9,2.1,0.8c-0.7-0.1-1.3-0.6-1.7-1.1c-0.4-0.6-0.8-1.2-1.1-1.8
					c-0.6-1.3-1-2.7-1.4-4.1c-0.4-1.4-0.7-2.8-1-4.2s-0.5-2.9-0.7-4.2c0-0.1-0.1-0.3-0.1-0.4s-0.1-0.2-0.1-0.2
					c2.5-1,14.2-4.8,27.7,5.2l0.3-1.5C7.5-22-3.7-34.6-21.2-29.4z"/>
			</g>
		</g>
		<g>
			<path d="M63.8-11.8c-0.5-0.1-0.9-0.2-1.4-0.2s-0.9,0.1-1.4,0.2c-0.4,0.1-0.8,0.4-1.3,0.5c-0.4,0.1-0.9,0.3-1.4,0.3h-0.1l0,0
				c0.2-0.5,0.6-0.9,1.1-1.2c0.4-0.3,1-0.3,1.5-0.4C61.9-12.6,62.9-12.4,63.8-11.8C63.8-11.9,63.8-11.8,63.8-11.8L63.8-11.8z"/>
		</g>
		<g>
			<path d="M59.8-11.9c-0.6,0.8-1.2,1.4-2,2.1c-0.8,0.5-1.6,1-2.5,1.4c-1.7,0.8-3.6,1.4-5.5,1.6c-1.9,0.2-3.9,0-5.7-0.7
				c-0.4-0.2-0.9-0.3-1.3-0.5l-1.3-0.7c-0.4-0.3-0.7-0.7-1-1s-0.6-0.7-0.9-1.1c0.9,0.4,1.6,0.9,2.5,1.2l1.2,0.7
				c0.4,0.2,0.8,0.3,1.2,0.5c1.7,0.6,3.5,0.8,5.3,0.6s3.5-0.7,5.2-1.5c0.8-0.4,1.6-0.8,2.4-1.3C58.1-11,59-11.4,59.8-11.9z"/>
		</g>
		<g>
			<path d="M-17.2-11.7c0.8,0.5,1.7,0.9,2.5,1.2c0.8,0.5,1.6,0.9,2.4,1.3c1.6,0.8,3.4,1.3,5.2,1.5c1.8,0.2,3.6,0,5.3-0.6
				C-1.4-8.5-1-8.6-0.6-8.8l1.2-0.7c0.9-0.3,1.6-0.8,2.5-1.2C2.8-10.3,2.5-10,2.2-9.6c-0.3,0.3-0.6,0.7-1,1l-1.3,0.7
				C-0.5-7.7-1-7.5-1.4-7.4c-1.8,0.6-3.8,0.9-5.7,0.7c-1.9-0.2-3.8-0.8-5.5-1.6c-0.9-0.4-1.7-0.9-2.5-1.4
				C-15.9-10.2-16.6-10.9-17.2-11.7z"/>
		</g>
	</g>
	<g class="st11">
		<g>
			<path d="M51.6,2.8c-13.1,0-23.7-6.1-23.7-18.1c0-13.5,13.5-15,23.7-15s23.7,1.6,23.7,15C75.3-3.3,64.6,2.8,51.6,2.8z M51.6-27.7
				c-14.8,0-21.1,3.7-21.1,12.4C30.5-4.8,40,0.2,51.6,0.2s21.1-4.9,21.1-15.5C72.7-24,66.4-27.7,51.6-27.7z"/>
		</g>
		<path d="M64.9-28.7c3.3,0.8,9.3,1,11,1s2.6,0.2,2.6,1s0,3.3,0,3.8s-0.1,1-1,1c-0.9,0.1-1.4,0.5-1.4,2.5s-0.3,6.8-1.8,10.2
			c0,0,0.4-10.1-2.2-13.5C68.8-27,64.9-28.7,64.9-28.7z"/>
		<g>
			<path d="M-36.5-15.3c0-13.5,13.5-15,23.7-15s23.7,1.6,23.7,15C10.9-3.4,0.3,2.8-12.8,2.8S-36.5-3.3-36.5-15.3z M-33.9-15.3
				c0,10.5,9.4,15.5,21.1,15.5c11.6,0,21.1-4.9,21.1-15.5C8.3-24,2-27.7-12.8-27.7C-27.6-27.7-33.9-24-33.9-15.3z"/>
		</g>
		<path d="M-26.2-28.7c-3.3,0.8-9.3,1-11,1s-2.6,0.2-2.6,1s0,3.3,0,3.8s0.1,1,1,1c0.9,0.1,1.4,0.5,1.4,2.5s0.3,6.8,1.8,10.2
			c0,0-0.4-10.1,2.2-13.5C-30.1-27-26.2-28.7-26.2-28.7z"/>
		<path d="M25.1-21.1c-0.8,0-3.9,0-5.7,0c-1.9,0-5,0-5.7,0c-0.8,0-4-0.6-4.9-1.8l2,9.5c1.5-3.1,6.2-4,8.7-4s7.1,0.9,8.6,4l2-9.5
			C29.1-21.8,25.9-21.1,25.1-21.1z"/>
	</g>
</g>
<g id="ojos1" class="st0">
	<g class="st11">
		<g>
			<path class="st27" d="M35.5-22.5c0,0-1.1,15.2,15,14.9c13.7-0.2,12.9-20.1,12.9-20.1S48.5-34.7,35.5-22.5z"/>
			<path class="st46" d="M62.6-23.2c0,0-12.5-5.4-26.9,3.9l-0.4-3c0,0,14.6-9.3,28.1-4.1L62.6-23.2z"/>
			
				<ellipse transform="matrix(1 -3.877393e-03 3.877393e-03 1 6.938305e-02 0.1903)" class="st56" cx="49.1" cy="-17.8" rx="8.3" ry="10.5"/>
			
				<ellipse transform="matrix(0.9968 -8.049493e-02 8.049493e-02 0.9968 1.8886 4.0602)" class="st27" cx="51.3" cy="-21.4" rx="1.7" ry="2.1"/>
			<path d="M63.9-29.9c0.3-0.2,0.7-0.1,1.2-0.2c0.4-0.1,0.9-0.3,1.4-0.5s0.9-0.4,1.4-0.6H68c0,0,0.1,0.1,0,0.1
				c-0.3,0.5-0.6,0.9-1,1.3c-0.2,0.2-0.4,0.4-0.6,0.6c0.1,0,0.1,0,0.2,0l1.5-0.2l0,0h0.1c0.1,0,0.2,0.2,0.2,0.3
				c-0.1,0.5-0.4,1-0.6,1.5c-0.3,0.5-0.6,0.9-0.9,1.3l-0.1,0.1c0.3,0.5,0.3,1.1,0.1,1.7c-0.5,1.5-1.1,2.8-1.7,4.2
				c-0.6,1.4-1.3,2.7-2,4s-1.5,2.6-2.4,3.8c-0.5,0.6-1,1.2-1.6,1.7s-1.3,0.9-2.1,0.8c0.7-0.1,1.3-0.6,1.7-1.1
				c0.4-0.6,0.8-1.2,1.1-1.8c0.6-1.3,1-2.7,1.4-4.1c0.4-1.4,0.7-2.8,1-4.2s0.5-2.9,0.7-4.2c0-0.1,0.1-0.3,0.1-0.4s0.1-0.2,0.1-0.2
				c-2.5-1-14.2-4.8-27.7,5.2l-0.3-1.5C35.2-22.5,46.4-35.2,63.9-29.9z"/>
			<path class="st53" d="M36.3-27.2c0.1-0.3,0.4-0.4,0.6-0.6c0.2-0.2,0.5-0.3,0.7-0.4c0.5-0.3,1-0.5,1.4-0.8
				c0.9-0.6,1.8-1.1,2.8-1.6c1.9-1,4-1.7,6.1-2.2s4.3-0.7,6.5-0.7c1.1,0,2.2,0.1,3.2,0.2c1.1,0,2.2,0.1,3.3,0.1
				c-1-0.5-2.1-0.8-3.2-1.1c-1.1-0.2-2.2-0.2-3.4-0.2c-2.3,0-4.5,0.2-6.7,0.7s-4.3,1.3-6.3,2.3c-1,0.5-2,1.1-2.9,1.7
				c-0.4,0.4-0.8,0.8-1.2,1.2C36.9-28.2,36.4-27.8,36.3-27.2z"/>
		</g>
		<g>
			<path class="st27" d="M7.3-22c0,0,1.1,15.2-15,14.9c-13.7-0.2-12.9-20.1-12.9-20.1S-5.8-34.2,7.3-22z"/>
			<path class="st46" d="M-19.9-22.7c0,0,12.5-5.4,26.9,3.9l0.4-3c0,0-14.6-9.3-28.1-4.1L-19.9-22.7z"/>
			
				<ellipse transform="matrix(3.877393e-03 -1 1 3.877393e-03 10.8582 -23.5737)" class="st56" cx="-6.4" cy="-17.2" rx="10.5" ry="8.3"/>
			
				<ellipse transform="matrix(8.049493e-02 -0.9968 0.9968 8.049493e-02 12.8672 -27.6738)" class="st27" cx="-8.6" cy="-20.8" rx="2.1" ry="1.7"/>
			<path d="M-21.2-29.4c-0.3-0.2-0.7-0.1-1.2-0.2c-0.4-0.1-0.9-0.3-1.4-0.5s-0.9-0.4-1.4-0.6h-0.1c0,0-0.1,0.1,0,0.1
				c0.3,0.5,0.6,0.9,1,1.3c0.2,0.2,0.4,0.4,0.6,0.6c-0.1,0-0.1,0-0.2,0l-1.5-0.2l0,0h-0.1c-0.1,0-0.2,0.2-0.2,0.3
				c0.1,0.5,0.4,1,0.6,1.5c0.3,0.5,0.6,0.9,0.9,1.3l0.1,0.1c-0.3,0.5-0.3,1.1-0.1,1.7c0.5,1.5,1.1,2.8,1.7,4.2c0.6,1.4,1.3,2.7,2,4
				s1.5,2.6,2.4,3.8c0.5,0.6,1,1.2,1.6,1.7s1.3,0.9,2.1,0.8c-0.7-0.1-1.3-0.6-1.7-1.1c-0.4-0.6-0.8-1.2-1.1-1.8
				c-0.6-1.3-1-2.7-1.4-4.1c-0.4-1.4-0.7-2.8-1-4.2s-0.5-2.9-0.7-4.2c0-0.1-0.1-0.3-0.1-0.4s-0.1-0.2-0.1-0.2
				c2.5-1,14.2-4.8,27.7,5.2l0.3-1.5C7.5-22-3.7-34.6-21.2-29.4z"/>
			<path class="st53" d="M6.4-26.7C6.3-27,6-27.1,5.8-27.3s-0.5-0.3-0.7-0.4c-0.5-0.3-1-0.5-1.4-0.8c-0.9-0.6-1.8-1.1-2.8-1.6
				c-1.9-1-4-1.7-6.1-2.2S-9.5-33-11.7-33c-1.1,0-2.2,0.1-3.2,0.2c-1.1,0-2.2,0.1-3.3,0.1c1-0.5,2.1-0.8,3.2-1.1
				c1.1-0.2,2.2-0.2,3.4-0.2c2.3,0,4.5,0.2,6.7,0.7S-0.6-32,1.4-31c1,0.5,2,1.1,2.9,1.7c0.4,0.4,0.8,0.8,1.2,1.2
				C5.9-27.6,6.3-27.2,6.4-26.7z"/>
		</g>
	</g>
	<g class="st11">
		<path d="M63.8-11.8c-0.5-0.1-0.9-0.2-1.4-0.2s-0.9,0.1-1.4,0.2c-0.4,0.1-0.8,0.4-1.3,0.5c-0.4,0.1-0.9,0.3-1.4,0.3h-0.1l0,0
			c0.2-0.5,0.6-0.9,1.1-1.2c0.4-0.3,1-0.3,1.5-0.4C61.9-12.6,62.9-12.4,63.8-11.8C63.8-11.9,63.8-11.8,63.8-11.8L63.8-11.8z"/>
	</g>
	<g class="st11">
		<path d="M59.8-11.9c-0.6,0.8-1.2,1.4-2,2.1c-0.8,0.5-1.6,1-2.5,1.4c-1.7,0.8-3.6,1.4-5.5,1.6c-1.9,0.2-3.9,0-5.7-0.7
			c-0.4-0.2-0.9-0.3-1.3-0.5l-1.3-0.7c-0.4-0.3-0.7-0.7-1-1s-0.6-0.7-0.9-1.1c0.9,0.4,1.6,0.9,2.5,1.2l1.2,0.7
			c0.4,0.2,0.8,0.3,1.2,0.5c1.7,0.6,3.5,0.8,5.3,0.6s3.5-0.7,5.2-1.5c0.8-0.4,1.6-0.8,2.4-1.3C58.1-11,59-11.4,59.8-11.9z"/>
	</g>
	<g class="st11">
		<path d="M-17.2-11.7c0.8,0.5,1.7,0.9,2.5,1.2c0.8,0.5,1.6,0.9,2.4,1.3c1.6,0.8,3.4,1.3,5.2,1.5c1.8,0.2,3.6,0,5.3-0.6
			C-1.4-8.5-1-8.6-0.6-8.8l1.2-0.7c0.9-0.3,1.6-0.8,2.5-1.2C2.8-10.3,2.5-10,2.2-9.6c-0.3,0.3-0.6,0.7-1,1l-1.3,0.7
			C-0.5-7.7-1-7.5-1.4-7.4c-1.8,0.6-3.8,0.9-5.7,0.7c-1.9-0.2-3.8-0.8-5.5-1.6c-0.9-0.4-1.7-0.9-2.5-1.4
			C-15.9-10.2-16.6-10.9-17.2-11.7z"/>
	</g>
</g>
<g id="boca6" class="st0">
	<g class="st11">
		<path class="st57" d="M21.3,32.6c1.2,0,10.5-0.3,14.4-2.7c-2.5,0.8-11.4-7.2-14.4-1.8c-3-5.4-11.9,2.5-14.4,1.8
			C10.8,32.2,20.1,32.5,21.3,32.6L21.3,32.6C21.2,32.6,21.3,32.6,21.3,32.6L21.3,32.6L21.3,32.6z"/>
		<path class="st58" d="M21.3,32.1c-4.9,0-12.2-1-16.5-3.3c9.4,9.7,12.5,10.4,16.5,10.4s7.1-0.8,16.5-10.4
			C33.5,31.1,26.2,32.1,21.3,32.1z"/>
	</g>
	<g class="st11">
		<g>
			<g>
				<g>
					<path class="st48" d="M11.8,11.6c0.1-0.2,1.2,0.2,3.1,0.8s4.5,1.4,7.4,1.4c2.9-0.1,5.5-0.9,7.4-1.4c1.9-0.6,3-1,3.1-0.8
						s-0.9,0.9-2.8,1.7c-1.8,0.8-4.5,1.8-7.7,1.9c-3.2-0.1-5.9-1.1-7.7-1.9C12.8,12.4,11.8,11.7,11.8,11.6z"/>
				</g>
			</g>
		</g>
	</g>
	<path class="st59" d="M0,49.7"/>
</g>
<g id="boca5" class="st0">
	<g class="st11">
		<g>
			<g>
				<g>
					<path class="st48" d="M11.4,11.6c0.1-0.2,1.2,0.2,3.1,0.8s4.5,1.4,7.4,1.4c2.9-0.1,5.5-0.9,7.4-1.4c1.9-0.6,3-1,3.1-0.8
						s-0.9,0.9-2.8,1.7c-1.8,0.8-4.5,1.8-7.7,1.9c-3.2-0.1-5.9-1.1-7.7-1.9C12.3,12.4,11.3,11.7,11.4,11.6z"/>
				</g>
			</g>
		</g>
	</g>
	<g class="st11">
		<path class="st60" d="M21.9,32.6c1.2,0,10.5-0.3,14.4-2.7c-3.9-2.8-11.4-7.2-14.4-1.8c-8.6-6.8-11.9,2.5-14.4,1.8
			C11.4,32.2,20.7,32.5,21.9,32.6L21.9,32.6C21.8,32.6,21.8,32.6,21.9,32.6C21.8,32.6,21.9,32.6,21.9,32.6L21.9,32.6z"/>
		<path class="st61" d="M21.8,32.1c-4.9,0-12.2-1-16.5-3.3c9.4,9.7,12.5,10.4,16.5,10.4s7.1-0.8,16.5-10.4
			C34,31.1,26.8,32.1,21.8,32.1z"/>
	</g>
	<path class="st59" d="M-0.5,49.7"/>
</g>
<g id="boca4" class="st0">
	<g class="st11">
		<g>
			<g>
				<g>
					<path class="st48" d="M11.4,11.6c0.1-0.2,1.2,0.2,3.1,0.8s4.5,1.4,7.4,1.4c2.9-0.1,5.5-0.9,7.4-1.4c1.9-0.6,3-1,3.1-0.8
						s-0.9,0.9-2.8,1.7c-1.8,0.8-4.5,1.8-7.7,1.9c-3.2-0.1-5.9-1.1-7.7-1.9C12.3,12.4,11.3,11.7,11.4,11.6z"/>
				</g>
			</g>
		</g>
	</g>
	<g class="st11">
		<path class="st62" d="M21.9,32.6c1.2,0,10.5-0.3,14.4-2.7c-3.9-2.8-11.4-7.2-14.4-1.8c-8.6-6.8-11.9,2.5-14.4,1.8
			C11.4,32.2,20.7,32.5,21.9,32.6L21.9,32.6C21.8,32.6,21.8,32.6,21.9,32.6C21.8,32.6,21.9,32.6,21.9,32.6L21.9,32.6z"/>
		<path class="st63" d="M21.8,32.1c-4.9,0-12.2-1-16.5-3.3c9.4,9.7,12.5,10.4,16.5,10.4s7.1-0.8,16.5-10.4
			C34,31.1,26.8,32.1,21.8,32.1z"/>
	</g>
	<path class="st59" d="M-0.5,49.7"/>
</g>
<g id="boca3" class="st0">
	<g class="st11">
		<g>
			<g>
				<g>
					<path class="st48" d="M11.4,11.6c0.1-0.2,1.2,0.2,3.1,0.8s4.5,1.4,7.4,1.4c2.9-0.1,5.5-0.9,7.4-1.4c1.9-0.6,3-1,3.1-0.8
						s-0.9,0.9-2.8,1.7c-1.8,0.8-4.5,1.8-7.7,1.9c-3.2-0.1-5.9-1.1-7.7-1.9C12.3,12.4,11.3,11.7,11.4,11.6z"/>
				</g>
			</g>
		</g>
	</g>
	<g class="st11">
		<path class="st64" d="M21.9,32.6c1.2,0,10.5-0.3,14.4-2.7c-3.9-2.8-11.4-7.2-14.4-1.8c-8.6-6.8-11.9,2.5-14.4,1.8
			C11.4,32.2,20.7,32.5,21.9,32.6L21.9,32.6C21.8,32.6,21.8,32.6,21.9,32.6C21.8,32.6,21.9,32.6,21.9,32.6L21.9,32.6z"/>
		<path class="st65" d="M21.8,32.1c-4.9,0-12.2-1-16.5-3.3c9.4,9.7,12.5,10.4,16.5,10.4s7.1-0.8,16.5-10.4
			C34,31.1,26.8,32.1,21.8,32.1z"/>
	</g>
	<path class="st59" d="M-0.5,49.7"/>
</g>
<g id="boca2">
	<g>
		<g>
			<g>
				<g>
					<path class="st48" d="M11.4,11.6c0.1-0.2,1.2,0.2,3.1,0.8s4.5,1.4,7.4,1.4c2.9-0.1,5.5-0.9,7.4-1.4c1.9-0.6,3-1,3.1-0.8
						s-0.9,0.9-2.8,1.7c-1.8,0.8-4.5,1.8-7.7,1.9c-3.2-0.1-5.9-1.1-7.7-1.9C12.3,12.4,11.3,11.7,11.4,11.6z"/>
				</g>
			</g>
		</g>
	</g>
	<g>
		<path class="st66" d="M21.9,32.6c1.2,0,10.5-0.3,14.4-2.7c-3.9-2.8-11.4-7.2-14.4-1.8c-8.6-6.8-11.9,2.5-14.4,1.8
			C11.4,32.2,20.7,32.5,21.9,32.6L21.9,32.6C21.8,32.6,21.8,32.6,21.9,32.6C21.8,32.6,21.9,32.6,21.9,32.6L21.9,32.6z"/>
		<path class="st67" d="M21.8,32.1c-4.9,0-12.2-1-16.5-3.3c9.4,9.7,12.5,10.4,16.5,10.4s7.1-0.8,16.5-10.4
			C34,31.1,26.8,32.1,21.8,32.1z"/>
	</g>
	<path class="st68" d="M-0.5,49.7"/>
</g>
<g id="boca1">
	<g>
		<path class="st69" d="M21.3,32.6c1.2,0,10.5-0.3,14.4-2.7c-2.5,0.8-11.4-7.2-14.4-1.8c-3-5.4-11.9,2.5-14.4,1.8
			C10.8,32.2,20.1,32.5,21.3,32.6L21.3,32.6C21.2,32.6,21.3,32.6,21.3,32.6L21.3,32.6L21.3,32.6z"/>
		<path class="st70" d="M21.3,32.1c-4.9,0-12.2-1-16.5-3.3c9.4,9.7,12.5,10.4,16.5,10.4s7.1-0.8,16.5-10.4
			C33.5,31.1,26.2,32.1,21.3,32.1z"/>
	</g>
	<g>
		<g>
			<g>
				<g>
					<path class="st48" d="M11.8,11.6c0.1-0.2,1.2,0.2,3.1,0.8s4.5,1.4,7.4,1.4c2.9-0.1,5.5-0.9,7.4-1.4c1.9-0.6,3-1,3.1-0.8
						s-0.9,0.9-2.8,1.7c-1.8,0.8-4.5,1.8-7.7,1.9c-3.2-0.1-5.9-1.1-7.7-1.9C12.8,12.4,11.8,11.7,11.8,11.6z"/>
				</g>
			</g>
		</g>
	</g>
	<path class="st68" d="M0,49.7"/>
</g>
</svg>
