<?xml version="1.0" encoding="utf-8"?>
<!-- Generator: Adobe Illustrator 22.1.0, SVG Export Plug-In . SVG Version: 6.00 Build 0)  -->
<svg version="1.1" id="Capa_1" xmlns="http://www.w3.org/2000/svg" xmlns:xlink="http://www.w3.org/1999/xlink" x="0px" y="0px"
	 viewBox="0 0 182 184" style="enable-background:new 0 0 182 184;" xml:space="preserve">
<style type="text/css">
	.st0{display:none;}
	.st1{display:inline;}
	.st2{fill:#EDB894;}
	.st3{fill:#F4C6A6;}
	.st4{opacity:0.52;fill:#6B4803;enable-background:new    ;}
	.st5{display:inline;fill:#75574A;}
	.st6{display:inline;fill:#84685A;}
	.st7{display:inline;fill:#AA8979;}
	.st8{display:inline;fill:#AF9485;}
	.st9{display:inline;fill:#EDB894;}
	.st10{display:inline;fill:#F4C6A6;}
	.st11{display:inline;fill:#B59278;}
	.st12{display:inline;fill:#C1A185;}
	.st13{display:inline;fill:#F9D3B9;}
	.st14{display:inline;fill:#FFFFFF;}
	.st15{fill:#00509F;}
	.st16{fill:#E79D33;}
	.st17{display:inline;fill:#06477C;}
	.st18{display:inline;fill:#E79D33;}
	.st19{display:inline;fill:#EAB60F;}
	.st20{display:inline;fill:#CE9B0D;}
	.st21{display:inline;fill:#F5BFD8;}
	.st22{display:inline;fill:#E8A7C5;}
	.st23{display:inline;fill:#960028;}
	.st24{display:inline;fill:#531D00;}
	.st25{display:inline;fill:#232326;}
	.st26{display:inline;fill:#39053A;}
	.st27{fill:#444042;}
	.st28{fill:#C8374C;}
	.st29{fill:none;stroke:#1E1E1E;stroke-linecap:round;stroke-miterlimit:10;}
	.st30{fill:#FFFFFF;}
	.st31{fill:#702E01;}
	.st32{display:inline;fill:#6B4803;}
	.st33{fill:#332C22;}
	.st34{display:inline;fill:#EAAF39;}
	.st35{display:inline;fill:#232222;}
	.st36{display:inline;fill:#412612;}
	.st37{fill:#FCDA15;}
	.st38{display:none;fill:#A0041E;}
	.st39{display:none;fill:#412612;}
	.st40{fill:#602904;}
	.st41{display:inline;fill:#602904;}
	.st42{display:none;fill:#2E2B33;}
	.st43{display:inline;fill:#2B2626;}
	.st44{display:inline;fill:#352714;}
	.st45{display:inline;fill:#211B13;}
	.st46{display:inline;fill:#CE8C06;}
	.st47{display:inline;fill:#EDA70C;}
	.st48{fill:#EDA70C;}
	.st49{fill:#E2E2E2;}
	.st50{fill:#8E5107;}
	.st51{fill:#AD7F5C;}
	.st52{fill:#159B4B;}
	.st53{fill:#3A3633;}
	.st54{fill:#211703;}
	.st55{fill:#1F8BC1;}
	.st56{fill:#CFA37C;}
	.st57{fill:#A7DD52;}
	.st58{fill:#2D2824;}
	.st59{fill:#6B4803;}
	.st60{fill:#895B12;}
	.st61{fill:#684609;}
	.st62{display:inline;fill:#692327;}
	.st63{fill:#D388C2;}
	.st64{fill:#C979BA;}
	.st65{fill:#74259E;}
	.st66{fill:#5C1A87;}
	.st67{fill:#AF412C;}
	.st68{fill:#A34228;}
	.st69{fill:#BA8888;}
	.st70{fill:#B27D7D;}
	.st71{fill:#A52B31;}
	.st72{fill:#BA3339;}
</style>
<g id="piel6_1_" class="st0">
	<g id="piel6" class="st1">
		<path class="st2" d="M168.5,234.5c-24.5-17.4-54.9-39.7-54.9-39.7c0-13.1,0-26.2,0-26.2l-20,0.1l-20-0.1c0,0,0,13.1,0,26.2
			c0,0-30.4,22.3-54.9,39.7l-3.4,60.7c0,0,29.8,6.8,77.3,12.6c0.3,0,1.4,0.1,1.6,0.1c47.8-5.8,77.7-12.6,77.7-12.6L168.5,234.5z"/>
		<path class="st3" d="M153.3,106.6c0.5-36.3-9-80.5-58.5-80.6l0,0h-0.1h-0.1l0,0c-49.7,0.1-59.1,44.9-58.5,81.3
			c-6.3-7.2-17.7-2.5-14.9,11.2c2.5,12.1,10.1,18.4,17,16.6c1.3,9.8,2.8,16.6,3.1,18.1c1.2,6.8,33.6,37.7,53,38.3l0,0
			c0.1,0,0.2,0,0.3,0c0.1,0,0.2,0,0.3,0l0,0c19.4-0.6,51.8-31.5,53-38.3c0.3-1.5,1.7-8.3,3.1-18c6.8,1.3,14.1-5,16.5-16.7
			C170.2,105.2,159.7,100.4,153.3,106.6z"/>
	</g>
	<g class="st1">
		<g>
			<ellipse class="st4" cx="55.6" cy="135.2" rx="1.7" ry="0.7"/>
			<ellipse class="st4" cx="62.3" cy="134.5" rx="1.7" ry="0.7"/>
			<ellipse class="st4" cx="68" cy="137.4" rx="1.7" ry="0.7"/>
			<ellipse class="st4" cx="60.6" cy="138.2" rx="1.7" ry="0.7"/>
		</g>
		<g>
			<ellipse class="st4" cx="121.7" cy="136" rx="1.7" ry="0.7"/>
			<ellipse transform="matrix(0.9931 -0.1175 0.1175 0.9931 -14.847 16.1562)" class="st4" cx="129.6" cy="134" rx="1.7" ry="0.7"/>
			<ellipse class="st4" cx="135.5" cy="133.8" rx="1.7" ry="0.7"/>
			<ellipse class="st4" cx="130.3" cy="137.7" rx="1.7" ry="0.7"/>
		</g>
	</g>
</g>
<g id="piel5" class="st0">
	<path class="st5" d="M168.5,234.5c-24.5-17.4-54.9-39.7-54.9-39.7c0-13.1,0-26.2,0-26.2l-20,0.1l-20-0.1c0,0,0,13.1,0,26.2
		c0,0-30.4,22.3-54.9,39.7l-3.4,60.7c0,0,29.8,6.8,77.3,12.6c0.3,0,1.4,0.1,1.6,0.1c47.8-5.8,77.7-12.6,77.7-12.6L168.5,234.5z"/>
	<path class="st6" d="M153.3,106.6c0.5-36.3-9-80.5-58.5-80.6l0,0h-0.1h-0.1l0,0c-49.7,0.1-59.1,44.9-58.5,81.3
		c-6.3-7.2-17.7-2.5-14.9,11.2c2.5,12.1,10.1,18.4,17,16.6c1.3,9.8,2.8,16.6,3.1,18.1c1.2,6.8,33.6,37.7,53,38.3l0,0
		c0.1,0,0.2,0,0.3,0c0.1,0,0.2,0,0.3,0l0,0c19.4-0.6,51.8-31.5,53-38.3c0.3-1.5,1.7-8.3,3.1-18c6.8,1.3,14.1-5,16.5-16.7
		C170.2,105.2,159.7,100.4,153.3,106.6z"/>
</g>
<g id="piel4" class="st0">
	<path class="st7" d="M168.5,234.5c-24.5-17.4-54.9-39.7-54.9-39.7c0-13.1,0-26.2,0-26.2l-20,0.1l-20-0.1c0,0,0,13.1,0,26.2
		c0,0-30.4,22.3-54.9,39.7l-3.4,60.7c0,0,29.8,6.8,77.3,12.6c0.3,0,1.4,0.1,1.6,0.1c47.8-5.8,77.7-12.6,77.7-12.6L168.5,234.5z"/>
	<path class="st8" d="M153.3,106.6c0.5-36.3-9-80.5-58.5-80.6l0,0h-0.1h-0.1l0,0c-49.7,0.1-59.1,44.9-58.5,81.3
		c-6.3-7.2-17.7-2.5-14.9,11.2c2.5,12.1,10.1,18.4,17,16.6c1.3,9.8,2.8,16.6,3.1,18.1c1.2,6.8,33.6,37.7,53,38.3l0,0
		c0.1,0,0.2,0,0.3,0c0.1,0,0.2,0,0.3,0l0,0c19.4-0.6,51.8-31.5,53-38.3c0.3-1.5,1.7-8.3,3.1-18c6.8,1.3,14.1-5,16.5-16.7
		C170.2,105.2,159.7,100.4,153.3,106.6z"/>
</g>
<g id="piel3" class="st0">
	<path class="st9" d="M168.5,234.5c-24.5-17.4-54.9-39.7-54.9-39.7c0-13.1,0-26.2,0-26.2l-20,0.1l-20-0.1c0,0,0,13.1,0,26.2
		c0,0-30.4,22.3-54.9,39.7l-3.4,60.7c0,0,29.8,6.8,77.3,12.6c0.3,0,1.4,0.1,1.6,0.1c47.8-5.8,77.7-12.6,77.7-12.6L168.5,234.5z"/>
	<path class="st10" d="M153.3,106.6c0.5-36.3-9-80.5-58.5-80.6l0,0h-0.1h-0.1l0,0c-49.7,0.1-59.1,44.9-58.5,81.3
		c-6.3-7.2-17.7-2.5-14.9,11.2c2.5,12.1,10.1,18.4,17,16.6c1.3,9.8,2.8,16.6,3.1,18.1c1.2,6.8,33.6,37.7,53,38.3l0,0
		c0.1,0,0.2,0,0.3,0c0.1,0,0.2,0,0.3,0l0,0c19.4-0.6,51.8-31.5,53-38.3c0.3-1.5,1.7-8.3,3.1-18c6.8,1.3,14.1-5,16.5-16.7
		C170.2,105.2,159.7,100.4,153.3,106.6z"/>
</g>
<g id="piel2" class="st0">
	<path class="st11" d="M168.5,234.5c-24.5-17.4-54.9-39.7-54.9-39.7c0-13.1,0-26.2,0-26.2l-20,0.1l-20-0.1c0,0,0,13.1,0,26.2
		c0,0-30.4,22.3-54.9,39.7l-3.4,60.7c0,0,29.8,6.8,77.3,12.6c0.3,0,1.4,0.1,1.6,0.1c47.8-5.8,77.7-12.6,77.7-12.6L168.5,234.5z"/>
	<path class="st12" d="M153.3,106.6c0.5-36.3-9-80.5-58.5-80.6l0,0h-0.1h-0.1l0,0c-49.7,0.1-59.1,44.9-58.5,81.3
		c-6.3-7.2-17.7-2.5-14.9,11.2c2.5,12.1,10.1,18.4,17,16.6c1.3,9.8,2.8,16.6,3.1,18.1c1.2,6.8,33.6,37.7,53,38.3l0,0
		c0.1,0,0.2,0,0.3,0c0.1,0,0.2,0,0.3,0l0,0c19.4-0.6,51.8-31.5,53-38.3c0.3-1.5,1.7-8.3,3.1-18c6.8,1.3,14.1-5,16.5-16.7
		C170.2,105.2,159.7,100.4,153.3,106.6z"/>
</g>
<g id="piel1" class="st0">
	<path class="st10" d="M168.3,234.5c-24.5-17.4-54.9-39.7-54.9-39.7c0-13.1,0-26.2,0-26.2l-20,0.1l-20-0.1c0,0,0,13.1,0,26.2
		c0,0-30.4,22.3-54.9,39.7L15,295.2c0,0,29.8,6.8,77.3,12.6c0.3,0,1.4,0.1,1.6,0.1c47.8-5.8,77.7-12.6,77.7-12.6L168.3,234.5z"/>
	<path class="st13" d="M153,106.6c0.5-36.3-9-80.5-58.5-80.6l0,0h-0.1h-0.1l0,0c-49.7,0.1-59.1,44.9-58.5,81.3
		c-6.3-7.2-17.7-2.5-14.9,11.2c2.5,12.1,10.1,18.4,17,16.6c1.3,9.8,2.8,16.6,3.1,18.1c1.2,6.8,33.6,37.7,53,38.3l0,0
		c0.1,0,0.2,0,0.3,0c0.1,0,0.2,0,0.3,0l0,0c19.4-0.6,51.8-31.5,53-38.3c0.3-1.5,1.7-8.3,3.1-18c6.8,1.3,14.1-5,16.5-16.7
		C170,105.2,159.4,100.4,153,106.6z"/>
</g>
<g id="ropa5" class="st0">
	<path class="st14" d="M169,234.1l-29.7-21.3c0,0-9.8,19.7-45.9,24.7c-36-5-45.9-24.7-45.9-24.7L18,234.1l-3.4,60.6
		c27.1,6.8,78.9,12.7,78.9,12.7s51.8-5.9,78.9-12.7L169,234.1z"/>
	<g class="st1">
		<path class="st15" d="M93.5,286.3l-30.9-83.8c0,0-27.5,17.5-44.7,31.6v61.4c0,0,31.9,8.3,75.5,11.9v-21.1H93.5z"/>
		<path class="st16" d="M87.2,269.2c0,0-17.4-47-19.9-57.3s6.3-17.5,6.3-17.5v-5.1c0,0-9,2.2-11.1,3.3S40,210.2,37,214
			s-2.5,7.5-2.5,7.5l37.5,34v49.7c1.4,0.2,2.8,0.3,4.2,0.5v-46.4L87.2,269.2z"/>
	</g>
	<g class="st1">
		<path class="st15" d="M93.5,286.3l30.9-83.8c0,0,27.5,17.5,44.7,31.6v61.4c0,0-31.9,8.3-75.5,11.9l-0.8-3.3L93.5,286.3z"/>
		<path class="st16" d="M150,214c-3-3.8-23.4-20.2-25.5-21.3s-11.1-3.3-11.1-3.3v5.1c0,0,8.8,7.2,6.3,17.5s-19.9,57.3-19.9,57.3
			l11.1-10v46.4c1.4-0.2,2.8-0.3,4.2-0.5v-49.7l37.5-33.9C152.5,221.5,153,217.9,150,214z"/>
	</g>
	<path class="st17" d="M169,234.1l-3.4,62.1c0,0,9.4-1.3,20.6-6.4C186.2,289.8,179.6,260.1,169,234.1z"/>
	<path class="st17" d="M18,234.1l3.3,62.1c0,0-9-1.3-20.2-6.4C1.1,289.8,7.4,260.1,18,234.1z"/>
	<path class="st18" d="M96.1,296c0.1,1-0.3,1.8-1,1.8h-3.2c-0.6,0-1.1-0.8-1-1.8l0.9-9.2c0-0.4,0.4-0.7,0.7-0.7h1.9
		c0.4,0,0.7,0.3,0.8,0.7L96.1,296z"/>
</g>
<g id="ropa6" class="st0">
	<path class="st19" d="M169.2,234.6l-50.7-36c0,0,0,23.3-24,24.7c-21.6,1.2-25.9-24.7-25.9-24.7l-50.9,36l-3.4,60.7
		c27.2,6.8,79.1,12.7,79.1,12.7s51.9-5.9,79.1-12.7L169.2,234.6z"/>
	<path class="st20" d="M169.2,234.6l-3.5,62.3c0,0,9.4-1.3,20.6-6.5C186.4,290.4,179.8,260.7,169.2,234.6z"/>
	<path class="st20" d="M17.8,234.6l3.3,62.3c0,0-9-1.3-20.3-6.4C0.8,290.4,7.2,260.7,17.8,234.6z"/>
</g>
<g id="ropa4" class="st0">
	<path class="st21" d="M169,234.6l-50.7-36c0,0,0,23.3-24,24.7c-21.6,1.2-25.9-24.7-25.9-24.7l-50.9,36l-3.4,60.7
		c27.2,6.8,79.1,12.7,79.1,12.7s51.9-5.9,79.1-12.7L169,234.6z"/>
	<path class="st22" d="M169,234.6l-3.5,62.3c0,0,9.4-1.3,20.6-6.5C186.1,290.4,179.5,260.7,169,234.6z"/>
	<path class="st22" d="M17.5,234.6l3.3,62.3c0,0-9-1.3-20.3-6.4C0.6,290.4,7,260.7,17.5,234.6z"/>
</g>
<g id="ropa3" class="st0">
	<path class="st23" d="M169,234.6l-50.7-36c0,0,0,23.3-24,24.7c-21.6,1.2-25.9-24.7-25.9-24.7l-50.9,36l-3.4,60.7
		c27.2,6.8,79.1,12.7,79.1,12.7s51.9-5.9,79.1-12.7L169,234.6z"/>
	<path class="st24" d="M169,234.6l-3.5,62.3c0,0,9.4-1.3,20.6-6.5C186.1,290.4,179.5,260.7,169,234.6z"/>
	<path class="st24" d="M17.5,234.6l3.3,62.3c0,0-9-1.3-20.3-6.4C0.6,290.4,7,260.7,17.5,234.6z"/>
</g>
<g id="ropa2" class="st0">
	<path class="st25" d="M169.2,234.3l-50.7-36c0,0,0,23.3-24,24.7c-21.6,1.2-25.9-24.7-25.9-24.7l-50.9,36L14.4,295
		c27.2,6.8,79.1,12.7,79.1,12.7s51.9-5.9,79.1-12.7L169.2,234.3z"/>
	<path class="st26" d="M169.2,234.3l-3.5,62.3c0,0,9.4-1.3,20.6-6.5C186.4,290.2,179.8,260.4,169.2,234.3z"/>
	<path class="st26" d="M17.8,234.3l3.3,62.3c0,0-9-1.3-20.3-6.4C0.8,290.2,7.2,260.4,17.8,234.3z"/>
</g>
<g id="ropa1_1_" class="st0">
	<g class="st1">
		<path class="st27" d="M169.2,235.3l-29.7-21.4c0,0-9.8,19.7-46,24.7c-36.1-5-46-24.7-46-24.7l-29.7,21.4L14.4,296
			c27.2,6.8,79.1,12.7,79.1,12.7s51.9-5.9,79.1-12.7L169.2,235.3z"/>
		<path class="st28" d="M169.2,235.3l-3.5,62.3c0,0,9.4-1.3,20.6-6.5C186.4,291.1,179.8,261.4,169.2,235.3z"/>
		<path class="st28" d="M17.5,235.3l3.5,62.3c0,0-9.4-1.3-20.6-6.5C0.3,291.1,7,261.4,17.5,235.3z"/>
	</g>
	<g class="st1">
		<g>
			<path class="st29" d="M72.7,191.5c0,0-3.8,64.9,20.7,85.2"/>
			<path class="st29" d="M114,191.5c0,0,3.8,64.9-20.7,85.2"/>
		</g>
		<g id="LDSmnm.tif_1_">
			<g>
				<path class="st30" d="M96.1,293.2c-0.4-3.1-0.9-4.5-1.3-7.6c0,0,0,0-0.1,0c-0.4,3.1-0.8,4.5-1.3,7.6c0,0,0,0-0.1,0
					c-0.4-3.1-0.9-4.5-1.3-7.6l0,0c-0.4,3.1-0.8,4.5-1.3,7.6l0,0c0-0.3-0.1-0.6-0.1-0.9c-0.4-2.9-0.8-4-1.2-6.9
					c-0.1-0.5-0.1-0.9-0.2-1.4c0-0.1-0.1-0.3-0.2-0.3c-2-1.9-2.5-4.8-1.4-7.3c1.3-2.8,4.3-4.1,7.2-3.4c2.6,0.6,4.6,2.9,4.8,5.6
					c0.1,2-0.5,3.7-2,5.1c-0.1,0.1-0.1,0.2-0.1,0.3c-0.2,1.2-0.3,2.4-0.5,3.5C96.8,290,96.4,290.7,96.1,293.2
					C96.1,293.1,96.1,293.2,96.1,293.2L96.1,293.2z M96.4,279.3c1.1,0,1.9-0.8,2-1.9c0-1.1-0.8-2-1.9-2s-1.9,0.8-2,1.9
					C94.5,278.4,95.3,279.2,96.4,279.3z M90.3,275.4c-1.1,0-1.9,0.9-1.9,2c0,1,0.9,1.9,1.9,1.9c1.1,0,1.9-0.9,1.9-1.9
					C92.2,276.3,91.3,275.4,90.3,275.4z M93.4,278.9c-0.8,0-1.5,0.6-1.5,1.4s0.6,1.5,1.5,1.5c0.8,0,1.5-0.6,1.5-1.4
					C94.8,279.6,94.2,279,93.4,278.9z"/>
				<path d="M96.4,279.3c-1.1,0-1.9-0.9-1.9-2s0.9-1.9,2-1.9s1.9,0.9,1.9,2C98.3,278.4,97.5,279.3,96.4,279.3z"/>
				<path d="M90.3,275.4c1.1,0,1.9,0.9,1.9,1.9c0,1.1-0.9,1.9-1.9,1.9s-1.9-0.9-1.9-1.9S89.2,275.4,90.3,275.4z"/>
				<path d="M93.4,278.9c0.8,0,1.5,0.7,1.4,1.5c0,0.8-0.7,1.4-1.5,1.4s-1.5-0.7-1.5-1.5C91.9,279.6,92.6,278.9,93.4,278.9z"/>
			</g>
		</g>
	</g>
</g>
<g id="cejas6" class="st0">
	<g class="st1">
		<path class="st31" d="M50,100.7c0,0,16.3-6.8,30.9,1.5c0,0,0.1-5.6-7.9-7.5C55.9,90.7,50,100.7,50,100.7z"/>
	</g>
	<g class="st1">
		<path class="st31" d="M138.8,100.7c0,0-16.3-6.8-30.9,1.5c0,0-0.1-5.6,7.9-7.5C132.8,90.7,138.8,100.7,138.8,100.7z"/>
	</g>
</g>
<g id="cejas5" class="st0">
	<path class="st32" d="M131.6,99.9c0,0-11.7-7.3-20.9-1.5C110.7,98.4,119.5,81.8,131.6,99.9z"/>
	<path class="st32" d="M57.1,98.7c0,0,11.7-7.3,20.9-1.5C78,97.2,69.2,80.6,57.1,98.7z"/>
</g>
<g id="cejas4" class="st0">
	<g class="st1">
		<path class="st33" d="M50,100.7c0,0,16.3-6.8,30.9,1.5c0,0,0.1-5.6-7.9-7.5C55.9,90.7,50,100.7,50,100.7z"/>
	</g>
	<g class="st1">
		<path class="st33" d="M138.8,100.7c0,0-16.3-6.8-30.9,1.5c0,0-0.1-5.6,7.9-7.5C132.8,90.7,138.8,100.7,138.8,100.7z"/>
	</g>
</g>
<g id="cejas3" class="st0">
	<path class="st34" d="M52.4,98.5c0,0,16.3-6.8,30.9,1.5c0,0-0.1-5-7.9-7.5S52.4,98.5,52.4,98.5z"/>
	<path class="st34" d="M136.6,98.5c0,0-16.3-6.8-30.9,1.5c0,0,0.1-5,7.9-7.5C121.5,90,136.6,98.5,136.6,98.5z"/>
</g>
<g id="cejas2" class="st0">
	<path class="st35" d="M52.4,98.5c0,0,16.3-6.8,30.9,1.5c0,0-0.1-5-7.9-7.5S52.4,98.5,52.4,98.5z"/>
	<path class="st35" d="M136.6,98.5c0,0-16.3-6.8-30.9,1.5c0,0,0.1-5,7.9-7.5C121.5,90,136.6,98.5,136.6,98.5z"/>
</g>
<g id="cejas1" class="st0">
	<path class="st36" d="M52.4,98.5c0,0,16.3-6.8,30.9,1.5c0,0-0.1-5-7.9-7.5S52.4,98.5,52.4,98.5z"/>
	<path class="st36" d="M136.6,98.5c0,0-16.3-6.8-30.9,1.5c0,0,0.1-5,7.9-7.5C121.5,90,136.6,98.5,136.6,98.5z"/>
</g>
<path id="cabello9" class="st0" d="M84,24.3c0,0-46.7-6-60.7,23.8c0.8-1.1,4.9-9.3,16.7-13.4c0,0-11.8,6.8-16.1,17.5
	c0,0-21.9,14.2-10.9,36.1c0,0-2.7-7.1,0.3-16.7c0,0-1.9,8.7,1.4,18.6c0,0-12,19.1,9.8,27.9c0,0-0.5,8.2,5.7,16.9
	c6.3,8.7,13.1,29.5,5.7,38.8c0,0,10.2-11.5,3.7-30.8c0,0,5.3,8.4,3.4,16.3c0,0,5.5-8.5-6-25.1c-11.5-16.7,1.4-31.2,8.7-33.3
	c0,0-6-3-9.8-9.3c0,0,22.4,18,44.5,23.5c0,0-20.5-7.1-28.7-18.3c0,0,13.7,14.5,36.3,15.8c0,0-26.2-16.4-30.6-39.1
	c0,0,16.9,22.4,42.1,26.5c0,0-17.2-6.3-26.5-16.9c0,0,23,17.8,46.4,17.1c0,0-14.4-8.6-20.7-16.3c0,0,21.2,18.9,41.8,21.2
	c0,0,0.1-20.9-12-41.1c0,0,12,16.1,13.9,37.2c0,0,20.2,9.3,13.4,25.1s-13.9,27.3-9,40.2c0,0-2-11.5,4.2-22.1c0,0-7.2,18.6,1.8,28.7
	c0,0-4.6-15.8,3.2-29.9c7.7-14.1,8.6-22,7.2-27.1c0,0,15.9-18,6.7-37.6c0,0,7.2,9.4,3.6,20.6c0,0,6.1-12.2-4.7-24.5
	c0,0-5.4-14.3-12.7-21.6c0,0,8.5,5.2,11.7,13.7c0,0-2.7-10.7-9.6-15c0,0,13.9-6,4.9-17.2c0,0,4.9,7.1-1.1,12c0,0,5.2-5.2-1.9-14.8
	c-7.1-9.6-15-0.3-15-0.3s-0.5-12.3-10.7-16.7c0,0,6.6,4.6,7.6,10.7c0,0-5.5-9.7-17.2-9c0,0-4.1-10.4-23.2-9.6c0,0,8.5-2.7,16.7,0.5
	c0,0-14.8-7.4-29.2,1.1C74.7,16.7,84,24.3,84,24.3z"/>
<path id="cabello8" class="st37" d="M84,24.3c0,0-46.7-6-60.7,23.8c0.8-1.1,4.9-9.3,16.7-13.4c0,0-11.8,6.8-16.1,17.5
	c0,0-21.9,14.2-10.9,36.1c0,0-2.7-7.1,0.3-16.7c0,0-1.9,8.7,1.4,18.6c0,0-12,19.1,9.8,27.9c0,0-0.5,8.2,5.7,16.9
	c6.3,8.7,13.1,29.5,5.7,38.8c0,0,10.2-11.5,3.7-30.8c0,0,5.3,8.4,3.4,16.3c0,0,5.5-8.5-6-25.1c-11.5-16.7,1.4-31.2,8.7-33.3
	c0,0-6-3-9.8-9.3c0,0,22.4,18,44.5,23.5c0,0-20.5-7.1-28.7-18.3c0,0,13.7,14.5,36.3,15.8c0,0-26.2-16.4-30.6-39.1
	c0,0,16.9,22.4,42.1,26.5c0,0-17.2-6.3-26.5-16.9c0,0,23,17.8,46.4,17.1c0,0-14.4-8.6-20.7-16.3c0,0,21.2,18.9,41.8,21.2
	c0,0,0.1-20.9-12-41.1c0,0,12,16.1,13.9,37.2c0,0,20.2,9.3,13.4,25.1s-13.9,27.3-9,40.2c0,0-2-11.5,4.2-22.1c0,0-7.2,18.6,1.8,28.7
	c0,0-4.6-15.8,3.2-29.9c7.7-14.1,8.6-22,7.2-27.1c0,0,15.9-18,6.7-37.6c0,0,7.2,9.4,3.6,20.6c0,0,6.1-12.2-4.7-24.5
	c0,0-5.4-14.3-12.7-21.6c0,0,8.5,5.2,11.7,13.7c0,0-2.7-10.7-9.6-15c0,0,13.9-6,4.9-17.2c0,0,4.9,7.1-1.1,12c0,0,5.2-5.2-1.9-14.8
	c-7.1-9.6-15-0.3-15-0.3s-0.5-12.3-10.7-16.7c0,0,6.6,4.6,7.6,10.7c0,0-5.5-9.7-17.2-9c0,0-4.1-10.4-23.2-9.6c0,0,8.5-2.7,16.7,0.5
	c0,0-14.8-7.4-29.2,1.1C74.7,16.7,84,24.3,84,24.3z"/>
<path id="cabello7" class="st38" d="M177.8,23.2c-25-28.6-46.2-8.8-45.4,15.3c-11.1-8.6-24.3-12.8-36.9-12.9l0,0H95h-0.1h-0.2h-0.1
	h-0.9l0,0c-12.7,0.2-25.9,4.5-37,13.3c1-24.2-20.2-44.4-45.4-15.6C-12.8,50.8,8,77.9,34.5,72.7c-3.6,11.9-5.1,26.1-3.4,42.9
	c0.5,4.4,2.3,7.7,3.2,9.1c-2.4,25.2-5.6,42,2.1,55.7c-0.7-12.5,3.8-33.9,7.2-54.1s1.7-24.5,1.7-24.5c8.4-6.7,21.3-0.8,26.9,2.7
	c5.5,3.5,18.5,6.5,31.4,1.2c-0.5-2.5,1-21.7,1-21.7s2.6,18.5,2.4,21.2c13.2-0.8,31.7-7,34.8-3c4.6,17.2,4.8,37.9,4.8,37.9
	c0.2,8.2,1,31.7,4.6,35.7c1-13.5,1.7-35.7,2.2-53.9c0.5,1.5,1,2.7,1.8,3.5c0,0,3-3.8,3.7-9.8c1.6-16.8,0.2-31-3.4-42.8
	C181.4,77.6,201.8,50.6,177.8,23.2z"/>
<path id="cabello6" class="st39" d="M177.8,23.2c-25-28.6-46.2-8.8-45.4,15.3c-11.1-8.6-24.3-12.8-36.9-12.9l0,0H95h-0.1h-0.2h-0.1
	h-0.9l0,0c-12.7,0.2-25.9,4.5-37,13.3c1-24.2-20.2-44.4-45.4-15.6C-12.8,50.8,8,77.9,34.5,72.7c-3.6,11.9-5.1,26.1-3.4,42.9
	c0.5,4.4,2.3,7.7,3.2,9.1c-2.4,25.2-5.6,42,2.1,55.7c-0.7-12.5,3.8-33.9,7.2-54.1s1.7-24.5,1.7-24.5c8.4-6.7,21.3-0.8,26.9,2.7
	c5.5,3.5,18.5,6.5,31.4,1.2c-0.5-2.5,1-21.7,1-21.7s2.6,18.5,2.4,21.2c13.2-0.8,31.7-7,34.8-3c4.6,17.2,4.8,37.9,4.8,37.9
	c0.2,8.2,1,31.7,4.6,35.7c1-13.5,1.7-35.7,2.2-53.9c0.5,1.5,1,2.7,1.8,3.5c0,0,3-3.8,3.7-9.8c1.6-16.8,0.2-31-3.4-42.8
	C181.4,77.6,201.8,50.6,177.8,23.2z"/>
<g id="cabello5" class="st0">
	<g class="st1">
		<g>
			<g>
				<path class="st31" d="M90.7,47.6c0,0,5.6,19.8-12.9,23c0,0,8.4-2.4,10.1-10.8c0,0-7.4,7.2-20.8,7.6c-13.3,0.4-24,10.1-19.5,17.4
					c4.4,7.3,8.3,16.4-4.3,22.7c0,0,6.3-4.5,5.9-8.4c0,0-1.4,3-8.7,8.4c-5.2,3.8-3.8,13.6-1.4,15.3c9.4,6.7,24.7,17.4,9.4,33.4
					c0,0,5.6-7.7,3.5-13.6c0,0-2.8,8.4-12.2,13.2c-9.4,4.9-7,18.8,8,22.3c0,0-5.6,1-12.2-3.8c0,0,2.6,6.5,15,9.7
					c12.5,3.2,10,15.1,0.8,18.5c-9.2,3.5-0.5,19.7,15,21.3c0,0-7.1,2.3-16.5-5.3c0,0,4.2,8,15.7,8.4c0,0,5.2,11.5-9.4,15.3
					S32.1,238,33.5,227c1.4-10.9-9.2-4.5-16.7-5.7c-7.5-1.3-22-5-15.2-16.9c0,0-7.8,7.2,0.5,15.6c0,0-14.6-8.7-2.1-21.2
					s6.6-18.7-2.6-22.1c-9.2-3.3-10.3-14.1-0.9-21.5c9.4-7.3,4.9-18.8-5.6-24.7c-10.4-5.9-13.2-31.2,3-38.2c0,0-11.4,1.3-13.1,13.9
					c0,0-1.4-14.3,16-18.5s19.2-16.4,16-26.5C9.7,51.1,6.6,32.4,32.7,30.1s19.8-8.3,24.7-14.5c4.9-6.3,29.2-16.6,36.2,7
					c0,0-3.1-23.4-30.3-14.3c0,0,21.2-11.1,33.1,8c0,0,12.2-12.4,31-1.2c18.8,11.3,10.8,14.4,31,14.4S181,48,175.8,59.1
					c0,0,4.2-15.7-4.2-20.9c0,0,6.6,7,0.4,21.6c-6.3,14.6,12.1,29.8,19.8,30.8c7.7,0.9,16.7,25.3,3.8,38.2c0,0,9.1-15.7,2.1-23.3
					c0,0,2.1,18.1-9.8,27.9c-11.8,9.7-2.4,17.1,1.8,21.1s14.6,14.4,1,23.8c0,0,8-7.3,2.8-13.6c0,0,3.5,9.3-9.4,11.9
					c-12.9,2.7-17.6,14.4-3.3,20.6c0,0-10.3-0.5-11.4-11.6c0,0-3.8,11.1,13.9,14.3c17.8,3.1,6.6,28.5-11.5,20.9
					c-18.1-7.7-15.3,3.1-14.6,7c0.7,3.8-3.1,13.6-16.4,11.5c0,0,11.7-0.3,13.2-8.4c0,0-10.3,10.2-23.3,4.2c-13-6-16.4-15.7-7-22.6
					c0,0-9.2,4.3-7.7,10.4c0,0-1.7-11.5,12.9-15.7c14.6-4.2,21.9-14.7,10.9-23.4c-10.9-8.7-8.2-16.4-3-19.5c0,0-10.4,3.5-3.8,15
					c0,0-10.8-14.3,7.7-19.5s23.3-20.1,14.6-24.7c-8.7-4.6-14.6-10.4-6.6-21.9c0,0-9.4,6.6-4.2,18.1c0,0-9.3-9.3,5.2-23
					c6.3-5.9-1.3-34-18.8-39s-34.5-3.5-35.2-13.9c0,0-5.9,10.8,33.1,15.3C129.3,70.6,87.5,71.7,90.7,47.6z"/>
			</g>
		</g>
		<path class="st40" d="M49,212.7c-2.2-4.3-1.7-8.5,2.5-10.1c9.2-3.5,11.7-15.3-0.8-18.5s-15-9.7-15-9.7c6.6,4.9,12.2,3.8,12.2,3.8
			c-15-3.5-17.4-17.4-8-22.3c0.8-0.4,1.5-0.8,2.1-1.2c3.1,6,17.2,20,31.7,28.9c0,3.5,0,7.4,0,11.2C73.6,194.8,62.9,202.7,49,212.7z"
			/>
		<path class="st40" d="M113.6,194.8c0-3.4,0-6.8,0-9.9c5.9-3.4,11.8-7.7,17-12.1c0.7,3.7,2.9,6.5,2.9,6.5c-1.6-2.8-2.2-5.2-2.2-7.1
			c0.5-0.4,1-0.9,1.5-1.3c-0.4,3.6,1.4,8.1,7.5,12.9c10.7,8.5,4,18.8-10.1,23.1C120.4,199.8,113.6,194.8,113.6,194.8z"/>
	</g>
	<path class="st41" d="M144.8,158.5c1.8-2.3,3-4.2,3.2-5.4c0.3-1.5,1.7-8.3,3.1-18c1.5,0.3,3,0.2,4.5-0.3c0.1,0,0.1,0.1,0.2,0.1
		C163.8,139.3,160.2,152.5,144.8,158.5z"/>
</g>
<path id="cabello4" class="st42" d="M180.7,69.9c0-3.9-3.2-7.1-7.1-7.1c-0.3,0-0.6,0.1-0.9,0.1c4.7-2,7.9-6.7,7.9-12.2
	c0-3.8-1.6-7.1-4-9.5c-1-1-1.7-2.4-1.4-3.8c0.1-0.7,0.2-1.5,0.2-2.3c0-6.4-4.3-11.5-9.5-11.5c-0.8,0-1.6,0.2-2.3,0.4
	c-0.4-0.7-0.8-1.3-1.2-1.8c0.4-1.4,0.6-3,0.6-4.6c0-8.5-5.3-15.4-11.8-15.4c-0.3,0-0.6,0-1,0.1c-2.1,0.2-4.1-0.9-4.9-2.9
	c-2.2-5.6-7-9.4-12.7-9.4c-2.2,0-4.2,0.6-6,1.6c-1.2,0.6-2.5,0.7-3.7,0.1c-2-1-4.5-1.6-7.1-1.6c-2.1,0-4,0.4-5.8,1.1
	c-1.7,0.7-3.6,0.2-4.8-1.1c-1.7-1.8-3.9-3.3-6.3-4.2c-1-0.4-2.1-0.4-3.1,0c-2.5,0.9-4.6,2.4-6.3,4.2c-1.2,1.3-3.1,1.7-4.7,1.1
	c-1.8-0.7-3.7-1.1-5.9-1.1c-2.6,0-5,0.6-7,1.6c-1.2,0.6-2.6,0.6-3.8-0.1c-1.8-1-3.8-1.6-6-1.6c-5.6,0-10.5,3.8-12.6,9.3
	c-0.8,2-2.8,3.3-4.9,3c-0.3,0-0.6-0.1-0.9-0.1c-6.6,0-11.8,6.9-11.8,15.4c0,1.6,0.2,3.1,0.6,4.5c0,0,0,0,0,0.1
	c-0.4,0.5-0.8,1.1-1.2,1.8c-0.7-0.2-1.5-0.4-2.3-0.4c-5.3,0-9.5,5.2-9.5,11.5c0,0.8,0.1,1.6,0.2,2.3c0.2,1.4-0.4,2.7-1.4,3.7
	c-2.5,2.4-4.1,5.8-4.1,9.6c0,5.5,3.3,10.1,7.9,12.2c-0.3,0-0.6-0.1-0.9-0.1c-3.9,0-7.1,3.2-7.1,7.1c0,1.6,0.5,3,1.4,4.2
	c1.1,1.5,1.2,3.5,0.2,5c-1,1.4-1.5,3-1.5,4.7c0,2,0.7,3.8,2,5.3c1.1,1.4,1.7,3.3,0.9,4.9c-0.3,0.7-0.5,1.5-0.5,2.4
	c0,3.5,3.2,6.4,7.1,6.4c0.3,0,0.6-0.1,0.9-0.1c-0.5,1.1-0.9,2.3-0.9,3.6c0,5,4.7,9,10.5,9c0.3,0,0.6,0,0.8,0
	c0.2,1.8,0.3,3.5,0.8,4.7c2.1,5.3,3.1-2.9,3.1-2.9s0,0,0-0.1c0.2-1.5,2.6-16,5.7-20.7l0,0c18.1-23.9,46.2-35.9,70.6-41.8
	C125.4,52,136,57.3,140.1,67c5.5,12.9,9.7,27.5,9.7,30.7c0,5.8-2.7,22.9-2.7,22.9s0.1,0.1,0.2,0.1c0.7,0.5,3.4,1.9,5.3-1.2
	c1.4-0.6,2.7-1.5,3.6-2.6c0.9-1,2.1-1.6,3.4-1.4c0.4,0,0.8,0.1,1.1,0.1c5.8,0,10.5-4,10.5-9c0-1.3-0.3-2.5-0.9-3.6
	c0.3,0,0.6,0.1,0.9,0.1c3.9,0,7.1-2.8,7.1-6.4c0-0.8-0.2-1.6-0.5-2.4c-0.7-1.5-0.6-3.3,0.6-4.4c1.5-1.5,2.4-3.5,2.4-5.7
	c0-1.7-0.5-3.3-1.5-4.6c-1.1-1.6-1-3.6,0.1-5.2C180.2,72.8,180.7,71.4,180.7,69.9z"/>
<g id="cabello3" class="st0">
	<path class="st43" d="M173.6,53.1c-7.3-12.6-1-19.6-18.1-18.1s-23.7-9.6-23.7-9.6C115.1-3.8,79,2.5,79,2.5
		c12,0.4,25.3,9.3,25.3,9.3c-66-11.4-64.2,24.3-64.2,24.3c3.2-16.2,18.3-18.8,18.3-18.8c-10.1,3-30.2,27-43.6,32.5
		C-2.7,57-6.6,95.2-6.5,105.2c0.1,16.4,16.6,58.8,43.6,54.6c0,0-14,1.3-18.2-8.6c0,0,16.2,8,22.7,3.9c-2.9-6.2-14.6-24.6-5.9-38
		c12.3-18.9,65.8-57.6,65.8-57.6c-9.8,12.8,4.2-1.8,22.9-0.2c30.2,25.2,38.4,78.4,33.7,83.2c0,0-8.4,8.8-14,16.7
		c1.9-0.1,3.2-0.6,5.3,0c10.1,2.8,22.5,0.1,26.4-11.1c0,0-1.3,8.8-11.8,10.7c5.8-0.9,12.8-4.1,15-13.8
		C191.3,90.3,173.6,53.1,173.6,53.1z"/>
	<path class="st1" d="M37.9,135.3h-4.5c0,0,2.4,15.9,8.2,19.7L37.9,135.3z"/>
	<path class="st1" d="M159.3,133c0,0-4.8,3.6-8.6,2.4l-3.7,19.9l11.2-13C158.2,142.4,161.5,139.7,159.3,133z"/>
</g>
<g id="cabello2" class="st0">
	<path class="st44" d="M180.6,89.5c-2.5-51-40.9-82.8-86.3-82.6C49.6,7.1,14.2,37.9,11,87.6c-0.7,6.8-0.8,11.5-0.8,11.5
		c-0.1,0-0.2,0.6-0.2,1.8c0.4,9.9-0.2,33.1-4,45.8s14.7,53.6,20.1,61.7c4.8,7-4.6,18.3-4.6,18.3s7.6-0.4,10.6-11.6
		c0,0,0-0.1,0.1-0.1c2.3,6.1,8.4,13,2.2,35.4c-2,7.1,8,23.4,8,23.4c1.9-2.6,4-13.3,6-25.3c2.9-2.8,9-9.4,8.7-15.7
		c6.2,18.7-8.7,27-8.7,27s7.2,0,12.9-6c5.7-6.1,16.2-16.4,6-40.3c-2.2-5.2-6.8-10.5-13.3-18.2s-15.3-32.7-16.4-44.2
		c-0.2-2-0.4-8.1-0.7-15.6l0,0c-0.1-3.8-0.3-7.9-0.4-12c1.3-3.9,2.9-10.6,4.4-22.5c5.1-39,7.8-45.3,16.8-53.1c9.7-8.5,12,0,23.5,7.5
		c13,8.5,19.3,4.3,33.4-6.8c21.6-17,25.6,35,35.6,61.9c0.3,0.8,0.5,1.5,0.8,2.2c0.4,4.7,0.7,9.8,0.7,13.3l0,0
		c-0.2,11.4,0.1,22-0.2,25.8c-1.1,11.5-9.7,35.3-16.2,43.1c-6.5,7.7-11.8,14.5-14.5,19.4c-6.1,11.2-4.7,17-4.5,20
		c1.5,20.9,11.4,23.6,11.4,23.6s-11.5-9.8,3.7-25c3.2-3.2,5.1-5.7,6.1-7.7c0.1,0.8,0.3,1.6,0.6,2.5c1.3,3.3,5.2,8,5.2,11.6
		c0,7.4-1.6,10.8-1.6,10.8s2.1-2.4,4.6-5.9c0,1,0,1.9,0,2.7c1.3,17.3,6.3,39.7,6.3,39.7s15.4-25.9,13-36.4
		c-1.2-5.2-1.9-9.7-2.1-13.6c9.6,4.2,20.7-3,20.7-3c-10.9,1.4-15.5-6.2-17.4-15.3c5.2-10.2,15-14.5,18.2-27.6
		C188.6,175.1,189,130.2,180.6,89.5z"/>
	<path class="st45" d="M150.6,135.4l-3.1,17.9c0,0-6.7,14.7-34.4,31.7v9.9l13.8,10.1c0,0,34.1-26.7,24.7-69.5
		C151.6,135.2,150.9,135.5,150.6,135.4z"/>
	<path class="st45" d="M36.9,135.5l0.9-0.1l3,17.6c0,0,2.8,7.5,13.7,16.8c0,0,11.8,10.4,18.6,14.2v11l-12,8.8
		C61.1,203.8,34.9,187.7,36.9,135.5z"/>
</g>
<g id="cabello1" class="st0">
	<path class="st46" d="M38.2,135.1c0,0,2.4,15.1,2.9,17s0.7,3,2.4,5.1s5.4,8.6,30.1,26.4v11.2l-50.4,36.5l6.3-66.6
		c0,0,3.4,4,11.4,6.7c0,0,2.2,0.7,5,1.1c0,0-17-4.2-13.2-30.8l1.1-6.6C33.7,135.1,35.8,135.7,38.2,135.1z"/>
	<path class="st47" d="M47.9,25.4c0,0,24.8,27.7,3.6,47.7c-10.9,10.3-17.1,31.9-12.2,41s-5.1,8.2-7.1,31.3s13.6,27.1,13.6,27.1
		s-25.5-2.2-25-32s-3.1-30.4-5.5-41.5C12.9,87.8,14.2,33.1,47.9,25.4z"/>
	<g class="st1">
		<path class="st48" d="M178.4,135.4c-10.9-16.9-3.2-39.3-5.7-54.9C167.6,48.9,133-28.8,47.9,25.4c0,0,6.3,45.1,51,55.1
			s44,18.7,47.3,48c1.5,13.4,12.2,22.5,7.1,31c-11.1,18.6-25,27.4-18.4,41.4c7.2,15.2,14.1,25.6,8.1,36.4
			c-5.3,9.7,5.7,15.3,6.8,21.7c0.2-4,1.1-12.3,5.4-15.5c5.8-4.4,21-15.9,10.3-38.1c-3.4-7,14.5-20.9,17.4-25.8
			C189,169.5,188.6,151,178.4,135.4z"/>
		<path class="st48" d="M149.7,261.3c0.2-0.8,0.2-1.5,0-2.3C149.7,260.4,149.7,261.3,149.7,261.3z"/>
	</g>
	<path class="st47" d="M63.7,176.4c0,0-14.3,18.1-5.5,33.4s3,19.6-4.1,29.8s4,12.3,4.1,16.8S55,267.3,53,267.6c0,0,1.2-7.2,0.2-10.2
		s-15.2-10-6.2-22.9s-10-7.1-9.7-27.4s0.2-29.8,12.5-42.5L63.7,176.4z"/>
	<path class="st46" d="M113.6,184.9v9.9l28.1,20.4c0,0-4.6-8.3-7.3-22.3c-1.8-9.5,12.3-22.2,12.3-22.2s16.6-15.5,3.4-29.5l-2.2,11.9
		C148,153.2,146,162.6,113.6,184.9z"/>
</g>
<g id="ojos8" class="st0">
	<g id="ojos6_1_" class="st1">
		<path d="M51.8,105.4"/>
		<g>
			<g>
				<path class="st30" d="M108.1,112.1c0,0-1.1,13.6,15,13.4c13.7-0.2,12.9-18,12.9-18S121.1,101.2,108.1,112.1z"/>
				<path class="st49" d="M135.8,111.1c0,0-12.7-5.4-27.5,3.9l-0.4-3c0,0,14.9-9.3,28.7-4.1L135.8,111.1z"/>
				
					<ellipse transform="matrix(1 -3.877448e-03 3.877448e-03 1 -0.4504 0.4728)" class="st50" cx="121.7" cy="116.4" rx="8.3" ry="9.4"/>
				
					<ellipse transform="matrix(0.9968 -8.049493e-02 8.049493e-02 0.9968 -8.5897 10.3364)" class="st30" cx="123.9" cy="111.7" rx="1.7" ry="2.1"/>
				<path d="M136.8,106.9c0.3-0.1,0.7,0,1.2-0.1s0.9-0.2,1.4-0.4c0.5-0.1,1-0.3,1.5-0.5h0.1c0,0,0.1,0.1,0,0.1c-0.3,0.4-0.7,0.7-1,1
					c-0.2,0.2-0.4,0.3-0.6,0.5c0.1,0,0.1,0,0.2,0l1.5-0.1l0,0h0.1c0.1,0,0.2,0.1,0.2,0.3c-0.2,0.5-0.4,0.8-0.7,1.2
					c-0.3,0.4-0.6,0.7-1,1.1l-0.1,0.1c0.2,0.4,0.3,0.9,0,1.4c-0.6,1.2-1.3,2.3-1.9,3.4c-0.7,1.1-1.4,2.2-2.2,3.3s-1.6,2.1-2.6,3.1
					c-0.5,0.5-1,0.9-1.6,1.3c-0.6,0.4-1.4,0.7-2.1,0.5c0.7,0,1.3-0.4,1.8-0.8c0.5-0.4,0.8-1,1.2-1.5c0.7-1.1,1.2-2.2,1.6-3.3
					c0.4-1.2,0.8-2.3,1.2-3.5c0.3-1.2,0.7-2.4,0.9-3.5c0-0.1,0.1-0.3,0.1-0.4s0.1-0.1,0.1-0.2c-2.4-1-13.9-4.9-27.9,2.7l-0.2-1.3
					C107.8,111.4,119.7,101.4,136.8,106.9z"/>
				<path class="st51" d="M109,108.7c0.1-0.2,0.4-0.4,0.6-0.5c0.2-0.1,0.5-0.3,0.7-0.4c0.5-0.3,1-0.5,1.5-0.7c0.9-0.6,1.9-1,2.9-1.5
					c2-0.9,4.1-1.5,6.2-1.9c2.1-0.4,4.3-0.5,6.5-0.4c1.1,0.1,2.2,0.2,3.2,0.4c1.1,0,2.2,0.2,3.3,0.3c-1-0.5-2.1-0.9-3.1-1.3
					c-1.1-0.2-2.2-0.3-3.3-0.4c-2.2-0.1-4.5,0-6.7,0.4s-4.4,1.1-6.4,2c-1,0.4-2,1-3,1.5c-0.4,0.4-0.9,0.7-1.3,1.1
					C109.7,107.8,109.2,108.2,109,108.7z"/>
			</g>
		</g>
		<g>
			<g>
				<path class="st30" d="M81.9,112.1c0,0,1.1,13.6-15,13.4c-13.7-0.2-12.9-18-12.9-18S68.9,101.2,81.9,112.1z"/>
				<path class="st49" d="M54.1,111.4c0,0,12.7-5.4,27.5,3.9l0.4-3c0,0-14.9-9.3-28.7-4.1L54.1,111.4z"/>
				
					<ellipse transform="matrix(3.877448e-03 -1 1 3.877448e-03 -48.2713 184.2472)" class="st50" cx="68.3" cy="116.4" rx="9.4" ry="8.3"/>
				
					<ellipse transform="matrix(8.049493e-02 -0.9968 0.9968 8.049493e-02 -50.5333 168.5688)" class="st30" cx="66.1" cy="111.7" rx="2.1" ry="1.7"/>
				<path d="M53.2,106.9c-0.3-0.1-0.7,0-1.2-0.1s-0.9-0.2-1.4-0.4c-0.5-0.1-1-0.3-1.5-0.5H49c0,0-0.1,0.1,0,0.1c0.3,0.4,0.7,0.7,1,1
					c0.2,0.2,0.4,0.3,0.6,0.5c-0.1,0-0.1,0-0.2,0l-1.5-0.1l0,0h-0.1c-0.1,0-0.2,0.1-0.2,0.3c0.2,0.5,0.4,0.8,0.7,1.2
					c0.3,0.4,0.6,0.7,1,1.1l0.1,0.1c-0.2,0.4-0.3,0.9,0,1.4c0.6,1.2,1.3,2.3,1.9,3.4c0.7,1.1,1.4,2.2,2.2,3.3
					c0.8,1.1,1.6,2.1,2.6,3.1c0.5,0.5,1,0.9,1.6,1.3c0.6,0.4,1.4,0.7,2.1,0.5c-0.7,0-1.3-0.4-1.8-0.8c-0.5-0.4-0.8-1-1.2-1.5
					c-0.7-1.1-1.2-2.2-1.6-3.3c-0.4-1.2-0.8-2.3-1.2-3.5c-0.3-1.2-0.7-2.4-0.9-3.5c0-0.1-0.1-0.3-0.1-0.4s-0.1-0.1-0.1-0.2
					c2.4-1,13.9-4.9,27.9,2.7l0.2-1.3C82.2,111.4,70.3,101.4,53.2,106.9z"/>
				<path class="st51" d="M81,108.7c-0.1-0.2-0.4-0.4-0.6-0.5s-0.5-0.3-0.7-0.4c-0.5-0.3-1-0.5-1.5-0.7c-0.9-0.6-1.9-1-2.9-1.5
					c-2-0.9-4.1-1.5-6.2-1.9s-4.3-0.5-6.5-0.4c-1.1,0.1-2.2,0.2-3.2,0.4c-1.1,0-2.2,0.2-3.3,0.3c1-0.5,2.1-0.9,3.1-1.3
					c1.1-0.2,2.2-0.3,3.3-0.4c2.2-0.1,4.5,0,6.7,0.4s4.4,1.1,6.4,2c1,0.4,2,1,3,1.5c0.4,0.4,0.9,0.7,1.3,1.1
					C80.3,107.8,80.8,108.2,81,108.7z"/>
			</g>
		</g>
		<g>
			<path d="M136.4,121.3c-0.5-0.1-0.9-0.2-1.4-0.2s-0.9,0.1-1.4,0.2c-0.4,0.1-0.8,0.4-1.3,0.5c-0.4,0.1-0.9,0.3-1.4,0.3h-0.1l0,0
				c0.2-0.5,0.6-0.9,1.1-1.2c0.4-0.3,1-0.3,1.5-0.4C134.5,120.4,135.5,120.6,136.4,121.3C136.4,121.2,136.4,121.2,136.4,121.3
				L136.4,121.3z"/>
		</g>
		<g>
			<path d="M132.4,121.2c-0.6,0.8-1.2,1.4-2,2.1c-0.8,0.5-1.6,1-2.5,1.4c-1.7,0.8-3.6,1.4-5.5,1.6c-1.9,0.2-3.9,0-5.7-0.7
				c-0.4-0.2-0.9-0.3-1.3-0.5l-1.3-0.7c-0.4-0.3-0.7-0.7-1-1s-0.6-0.7-0.9-1.1c0.9,0.4,1.6,0.9,2.5,1.2l1.2,0.7
				c0.4,0.2,0.8,0.3,1.2,0.5c1.7,0.6,3.5,0.8,5.3,0.6s3.5-0.7,5.2-1.5c0.8-0.4,1.6-0.8,2.4-1.3C130.7,122.1,131.6,121.7,132.4,121.2
				z"/>
		</g>
	</g>
	<g class="st1">
		<g>
			<path d="M127,136c-13.1,0-23.7-6.1-23.7-18.1c0-13.5,13.5-15,23.7-15s23.7,1.6,23.7,15C150.7,129.9,140.1,136,127,136z
				 M127,105.6c-14.8,0-21.1,3.7-21.1,12.4c0,10.5,9.5,15.5,21.1,15.5s21.1-4.9,21.1-15.5C148.1,109.3,141.8,105.6,127,105.6z"/>
		</g>
		<path d="M140.3,104.5c3.3,0.8,9.3,1,11,1s2.6,0.2,2.6,1s0,3.3,0,3.8s-0.1,1-1,1c-0.9,0.1-1.4,0.5-1.4,2.5s-0.3,6.8-1.8,10.2
			c0,0,0.4-10.1-2.2-13.5C144.2,106.2,140.3,104.5,140.3,104.5z"/>
		<g>
			<path d="M38.9,118c0-13.5,13.5-15,23.7-15s23.7,1.6,23.7,15c0,11.9-10.6,18.1-23.7,18.1C49.5,136,38.9,129.9,38.9,118z M41.5,118
				c0,10.5,9.4,15.5,21.1,15.5c11.6,0,21.1-4.9,21.1-15.5c0-8.7-6.3-12.4-21.1-12.4S41.5,109.3,41.5,118z"/>
		</g>
		<path d="M49.2,104.5c-3.3,0.8-9.3,1-11,1s-2.6,0.2-2.6,1s0,3.3,0,3.8s0.1,1,1,1c0.9,0.1,1.4,0.5,1.4,2.5s0.3,6.8,1.8,10.2
			c0,0-0.4-10.1,2.2-13.5C45.3,106.2,49.2,104.5,49.2,104.5z"/>
		<path d="M100.5,112.1c-0.8,0-3.9,0-5.7,0c-1.9,0-5,0-5.7,0c-0.8,0-4-0.6-4.9-1.8l2,9.5c1.5-3.1,6.2-4,8.7-4s7.1,0.9,8.6,4l2-9.5
			C104.5,111.5,101.3,112.1,100.5,112.1z"/>
	</g>
</g>
<g id="ojos7" class="st0">
	<path class="st1" d="M51.8,105.4"/>
	<g class="st1">
		<g>
			<path class="st30" d="M108.1,112.1c0,0-1.1,13.6,15,13.4c13.7-0.2,12.9-18,12.9-18S121.1,101.2,108.1,112.1z"/>
			<path class="st49" d="M135.8,111.1c0,0-12.7-5.4-27.5,3.9l-0.4-3c0,0,14.9-9.3,28.7-4.1L135.8,111.1z"/>
			
				<ellipse transform="matrix(1 -3.877448e-03 3.877448e-03 1 -0.4504 0.4728)" class="st52" cx="121.7" cy="116.4" rx="8.3" ry="9.4"/>
			
				<ellipse transform="matrix(0.9968 -8.049493e-02 8.049493e-02 0.9968 -8.5897 10.3364)" class="st30" cx="123.9" cy="111.7" rx="1.7" ry="2.1"/>
			<path d="M136.8,106.9c0.3-0.1,0.7,0,1.2-0.1s0.9-0.2,1.4-0.4c0.5-0.1,1-0.3,1.5-0.5h0.1c0,0,0.1,0.1,0,0.1c-0.3,0.4-0.7,0.7-1,1
				c-0.2,0.2-0.4,0.3-0.6,0.5c0.1,0,0.1,0,0.2,0l1.5-0.1l0,0h0.1c0.1,0,0.2,0.1,0.2,0.3c-0.2,0.5-0.4,0.8-0.7,1.2
				c-0.3,0.4-0.6,0.7-1,1.1l-0.1,0.1c0.2,0.4,0.3,0.9,0,1.4c-0.6,1.2-1.3,2.3-1.9,3.4c-0.7,1.1-1.4,2.2-2.2,3.3s-1.6,2.1-2.6,3.1
				c-0.5,0.5-1,0.9-1.6,1.3c-0.6,0.4-1.4,0.7-2.1,0.5c0.7,0,1.3-0.4,1.8-0.8c0.5-0.4,0.8-1,1.2-1.5c0.7-1.1,1.2-2.2,1.6-3.3
				c0.4-1.2,0.8-2.3,1.2-3.5c0.3-1.2,0.7-2.4,0.9-3.5c0-0.1,0.1-0.3,0.1-0.4s0.1-0.1,0.1-0.2c-2.4-1-13.9-4.9-27.9,2.7l-0.2-1.3
				C107.8,111.4,119.7,101.4,136.8,106.9z"/>
			<path class="st51" d="M109,108.7c0.1-0.2,0.4-0.4,0.6-0.5c0.2-0.1,0.5-0.3,0.7-0.4c0.5-0.3,1-0.5,1.5-0.7c0.9-0.6,1.9-1,2.9-1.5
				c2-0.9,4.1-1.5,6.2-1.9c2.1-0.4,4.3-0.5,6.5-0.4c1.1,0.1,2.2,0.2,3.2,0.4c1.1,0,2.2,0.2,3.3,0.3c-1-0.5-2.1-0.9-3.1-1.3
				c-1.1-0.2-2.2-0.3-3.3-0.4c-2.2-0.1-4.5,0-6.7,0.4s-4.4,1.1-6.4,2c-1,0.4-2,1-3,1.5c-0.4,0.4-0.9,0.7-1.3,1.1
				C109.7,107.8,109.2,108.2,109,108.7z"/>
		</g>
	</g>
	<g class="st1">
		<g>
			<path class="st30" d="M81.9,112.1c0,0,1.1,13.6-15,13.4c-13.7-0.2-12.9-18-12.9-18S68.9,101.2,81.9,112.1z"/>
			<path class="st49" d="M54.1,111.4c0,0,12.7-5.4,27.5,3.9l0.4-3c0,0-14.9-9.3-28.7-4.1L54.1,111.4z"/>
			
				<ellipse transform="matrix(3.877448e-03 -1 1 3.877448e-03 -48.2713 184.2472)" class="st52" cx="68.3" cy="116.4" rx="9.4" ry="8.3"/>
			
				<ellipse transform="matrix(8.049493e-02 -0.9968 0.9968 8.049493e-02 -50.5333 168.5688)" class="st30" cx="66.1" cy="111.7" rx="2.1" ry="1.7"/>
			<path d="M53.2,106.9c-0.3-0.1-0.7,0-1.2-0.1s-0.9-0.2-1.4-0.4c-0.5-0.1-1-0.3-1.5-0.5H49c0,0-0.1,0.1,0,0.1c0.3,0.4,0.7,0.7,1,1
				c0.2,0.2,0.4,0.3,0.6,0.5c-0.1,0-0.1,0-0.2,0l-1.5-0.1l0,0h-0.1c-0.1,0-0.2,0.1-0.2,0.3c0.2,0.5,0.4,0.8,0.7,1.2
				c0.3,0.4,0.6,0.7,1,1.1l0.1,0.1c-0.2,0.4-0.3,0.9,0,1.4c0.6,1.2,1.3,2.3,1.9,3.4c0.7,1.1,1.4,2.2,2.2,3.3
				c0.8,1.1,1.6,2.1,2.6,3.1c0.5,0.5,1,0.9,1.6,1.3c0.6,0.4,1.4,0.7,2.1,0.5c-0.7,0-1.3-0.4-1.8-0.8c-0.5-0.4-0.8-1-1.2-1.5
				c-0.7-1.1-1.2-2.2-1.6-3.3c-0.4-1.2-0.8-2.3-1.2-3.5c-0.3-1.2-0.7-2.4-0.9-3.5c0-0.1-0.1-0.3-0.1-0.4s-0.1-0.1-0.1-0.2
				c2.4-1,13.9-4.9,27.9,2.7l0.2-1.3C82.2,111.4,70.3,101.4,53.2,106.9z"/>
			<path class="st51" d="M81,108.7c-0.1-0.2-0.4-0.4-0.6-0.5s-0.5-0.3-0.7-0.4c-0.5-0.3-1-0.5-1.5-0.7c-0.9-0.6-1.9-1-2.9-1.5
				c-2-0.9-4.1-1.5-6.2-1.9s-4.3-0.5-6.5-0.4c-1.1,0.1-2.2,0.2-3.2,0.4c-1.1,0-2.2,0.2-3.3,0.3c1-0.5,2.1-0.9,3.1-1.3
				c1.1-0.2,2.2-0.3,3.3-0.4c2.2-0.1,4.5,0,6.7,0.4s4.4,1.1,6.4,2c1,0.4,2,1,3,1.5c0.4,0.4,0.9,0.7,1.3,1.1
				C80.3,107.8,80.8,108.2,81,108.7z"/>
		</g>
	</g>
	<g class="st1">
		<path d="M136.4,121.3c-0.5-0.1-0.9-0.2-1.4-0.2s-0.9,0.1-1.4,0.2c-0.4,0.1-0.8,0.4-1.3,0.5c-0.4,0.1-0.9,0.3-1.4,0.3h-0.1l0,0
			c0.2-0.5,0.6-0.9,1.1-1.2c0.4-0.3,1-0.3,1.5-0.4C134.5,120.4,135.5,120.6,136.4,121.3C136.4,121.2,136.4,121.2,136.4,121.3
			L136.4,121.3z"/>
	</g>
	<g class="st1">
		<path d="M132.4,121.2c-0.6,0.8-1.2,1.4-2,2.1c-0.8,0.5-1.6,1-2.5,1.4c-1.7,0.8-3.6,1.4-5.5,1.6c-1.9,0.2-3.9,0-5.7-0.7
			c-0.4-0.2-0.9-0.3-1.3-0.5l-1.3-0.7c-0.4-0.3-0.7-0.7-1-1s-0.6-0.7-0.9-1.1c0.9,0.4,1.6,0.9,2.5,1.2l1.2,0.7
			c0.4,0.2,0.8,0.3,1.2,0.5c1.7,0.6,3.5,0.8,5.3,0.6s3.5-0.7,5.2-1.5c0.8-0.4,1.6-0.8,2.4-1.3C130.7,122.1,131.6,121.7,132.4,121.2z
			"/>
	</g>
</g>
<g id="ojos6" class="st0">
	<path class="st1" d="M51.8,105.4"/>
	<g class="st1">
		<g>
			<path class="st30" d="M108.1,112.1c0,0-1.1,13.6,15,13.4c13.7-0.2,12.9-18,12.9-18S121.1,101.2,108.1,112.1z"/>
			<path class="st49" d="M135.8,111.1c0,0-12.7-5.4-27.5,3.9l-0.4-3c0,0,14.9-9.3,28.7-4.1L135.8,111.1z"/>
			
				<ellipse transform="matrix(1 -3.877448e-03 3.877448e-03 1 -0.4504 0.4728)" class="st50" cx="121.7" cy="116.4" rx="8.3" ry="9.4"/>
			
				<ellipse transform="matrix(0.9968 -8.049493e-02 8.049493e-02 0.9968 -8.5897 10.3364)" class="st30" cx="123.9" cy="111.7" rx="1.7" ry="2.1"/>
			<path d="M136.8,106.9c0.3-0.1,0.7,0,1.2-0.1s0.9-0.2,1.4-0.4c0.5-0.1,1-0.3,1.5-0.5h0.1c0,0,0.1,0.1,0,0.1c-0.3,0.4-0.7,0.7-1,1
				c-0.2,0.2-0.4,0.3-0.6,0.5c0.1,0,0.1,0,0.2,0l1.5-0.1l0,0h0.1c0.1,0,0.2,0.1,0.2,0.3c-0.2,0.5-0.4,0.8-0.7,1.2
				c-0.3,0.4-0.6,0.7-1,1.1l-0.1,0.1c0.2,0.4,0.3,0.9,0,1.4c-0.6,1.2-1.3,2.3-1.9,3.4c-0.7,1.1-1.4,2.2-2.2,3.3s-1.6,2.1-2.6,3.1
				c-0.5,0.5-1,0.9-1.6,1.3c-0.6,0.4-1.4,0.7-2.1,0.5c0.7,0,1.3-0.4,1.8-0.8c0.5-0.4,0.8-1,1.2-1.5c0.7-1.1,1.2-2.2,1.6-3.3
				c0.4-1.2,0.8-2.3,1.2-3.5c0.3-1.2,0.7-2.4,0.9-3.5c0-0.1,0.1-0.3,0.1-0.4s0.1-0.1,0.1-0.2c-2.4-1-13.9-4.9-27.9,2.7l-0.2-1.3
				C107.8,111.4,119.7,101.4,136.8,106.9z"/>
			<path class="st53" d="M109,108.7c0.1-0.2,0.4-0.4,0.6-0.5c0.2-0.1,0.5-0.3,0.7-0.4c0.5-0.3,1-0.5,1.5-0.7c0.9-0.6,1.9-1,2.9-1.5
				c2-0.9,4.1-1.5,6.2-1.9c2.1-0.4,4.3-0.5,6.5-0.4c1.1,0.1,2.2,0.2,3.2,0.4c1.1,0,2.2,0.2,3.3,0.3c-1-0.5-2.1-0.9-3.1-1.3
				c-1.1-0.2-2.2-0.3-3.3-0.4c-2.2-0.1-4.5,0-6.7,0.4s-4.4,1.1-6.4,2c-1,0.4-2,1-3,1.5c-0.4,0.4-0.9,0.7-1.3,1.1
				C109.7,107.8,109.2,108.2,109,108.7z"/>
		</g>
	</g>
	<g class="st1">
		<g>
			<path class="st30" d="M81.9,112.1c0,0,1.1,13.6-15,13.4c-13.7-0.2-12.9-18-12.9-18S68.9,101.2,81.9,112.1z"/>
			<path class="st49" d="M54.1,111.4c0,0,12.7-5.4,27.5,3.9l0.4-3c0,0-14.9-9.3-28.7-4.1L54.1,111.4z"/>
			
				<ellipse transform="matrix(3.877448e-03 -1 1 3.877448e-03 -48.2713 184.2472)" class="st50" cx="68.3" cy="116.4" rx="9.4" ry="8.3"/>
			
				<ellipse transform="matrix(8.049493e-02 -0.9968 0.9968 8.049493e-02 -50.5333 168.5688)" class="st30" cx="66.1" cy="111.7" rx="2.1" ry="1.7"/>
			<path d="M53.2,106.9c-0.3-0.1-0.7,0-1.2-0.1s-0.9-0.2-1.4-0.4c-0.5-0.1-1-0.3-1.5-0.5H49c0,0-0.1,0.1,0,0.1c0.3,0.4,0.7,0.7,1,1
				c0.2,0.2,0.4,0.3,0.6,0.5c-0.1,0-0.1,0-0.2,0l-1.5-0.1l0,0h-0.1c-0.1,0-0.2,0.1-0.2,0.3c0.2,0.5,0.4,0.8,0.7,1.2
				c0.3,0.4,0.6,0.7,1,1.1l0.1,0.1c-0.2,0.4-0.3,0.9,0,1.4c0.6,1.2,1.3,2.3,1.9,3.4c0.7,1.1,1.4,2.2,2.2,3.3
				c0.8,1.1,1.6,2.1,2.6,3.1c0.5,0.5,1,0.9,1.6,1.3c0.6,0.4,1.4,0.7,2.1,0.5c-0.7,0-1.3-0.4-1.8-0.8c-0.5-0.4-0.8-1-1.2-1.5
				c-0.7-1.1-1.2-2.2-1.6-3.3c-0.4-1.2-0.8-2.3-1.2-3.5c-0.3-1.2-0.7-2.4-0.9-3.5c0-0.1-0.1-0.3-0.1-0.4s-0.1-0.1-0.1-0.2
				c2.4-1,13.9-4.9,27.9,2.7l0.2-1.3C82.2,111.4,70.3,101.4,53.2,106.9z"/>
			<path class="st53" d="M81,108.7c-0.1-0.2-0.4-0.4-0.6-0.5s-0.5-0.3-0.7-0.4c-0.5-0.3-1-0.5-1.5-0.7c-0.9-0.6-1.9-1-2.9-1.5
				c-2-0.9-4.1-1.5-6.2-1.9s-4.3-0.5-6.5-0.4c-1.1,0.1-2.2,0.2-3.2,0.4c-1.1,0-2.2,0.2-3.3,0.3c1-0.5,2.1-0.9,3.1-1.3
				c1.1-0.2,2.2-0.3,3.3-0.4c2.2-0.1,4.5,0,6.7,0.4s4.4,1.1,6.4,2c1,0.4,2,1,3,1.5c0.4,0.4,0.9,0.7,1.3,1.1
				C80.3,107.8,80.8,108.2,81,108.7z"/>
		</g>
	</g>
	<g class="st1">
		<path d="M136.4,121.3c-0.5-0.1-0.9-0.2-1.4-0.2s-0.9,0.1-1.4,0.2c-0.4,0.1-0.8,0.4-1.3,0.5c-0.4,0.1-0.9,0.3-1.4,0.3h-0.1l0,0
			c0.2-0.5,0.6-0.9,1.1-1.2c0.4-0.3,1-0.3,1.5-0.4C134.5,120.4,135.5,120.6,136.4,121.3C136.4,121.2,136.4,121.2,136.4,121.3
			L136.4,121.3z"/>
	</g>
	<g class="st1">
		<path d="M132.4,121.2c-0.6,0.8-1.2,1.4-2,2.1c-0.8,0.5-1.6,1-2.5,1.4c-1.7,0.8-3.6,1.4-5.5,1.6c-1.9,0.2-3.9,0-5.7-0.7
			c-0.4-0.2-0.9-0.3-1.3-0.5l-1.3-0.7c-0.4-0.3-0.7-0.7-1-1s-0.6-0.7-0.9-1.1c0.9,0.4,1.6,0.9,2.5,1.2l1.2,0.7
			c0.4,0.2,0.8,0.3,1.2,0.5c1.7,0.6,3.5,0.8,5.3,0.6s3.5-0.7,5.2-1.5c0.8-0.4,1.6-0.8,2.4-1.3C130.7,122.1,131.6,121.7,132.4,121.2z
			"/>
	</g>
</g>
<g id="ojos5" class="st0">
	<path class="st1" d="M51.8,105.4"/>
	<g class="st1">
		<g>
			<path class="st30" d="M108.1,112.1c0,0-1.1,13.6,15,13.4c13.7-0.2,12.9-18,12.9-18S121.1,101.2,108.1,112.1z"/>
			<path class="st49" d="M135.8,111.1c0,0-12.7-5.4-27.5,3.9l-0.4-3c0,0,14.9-9.3,28.7-4.1L135.8,111.1z"/>
			<ellipse transform="matrix(1 -3.877448e-03 3.877448e-03 1 -0.4504 0.4728)" cx="121.7" cy="116.4" rx="8.3" ry="9.4"/>
			
				<ellipse transform="matrix(0.9968 -8.049493e-02 8.049493e-02 0.9968 -8.5897 10.3364)" class="st30" cx="123.9" cy="111.7" rx="1.7" ry="2.1"/>
			<path d="M136.8,106.9c0.3-0.1,0.7,0,1.2-0.1s0.9-0.2,1.4-0.4c0.5-0.1,1-0.3,1.5-0.5h0.1c0,0,0.1,0.1,0,0.1c-0.3,0.4-0.7,0.7-1,1
				c-0.2,0.2-0.4,0.3-0.6,0.5c0.1,0,0.1,0,0.2,0l1.5-0.1l0,0h0.1c0.1,0,0.2,0.1,0.2,0.3c-0.2,0.5-0.4,0.8-0.7,1.2
				c-0.3,0.4-0.6,0.7-1,1.1l-0.1,0.1c0.2,0.4,0.3,0.9,0,1.4c-0.6,1.2-1.3,2.3-1.9,3.4c-0.7,1.1-1.4,2.2-2.2,3.3s-1.6,2.1-2.6,3.1
				c-0.5,0.5-1,0.9-1.6,1.3c-0.6,0.4-1.4,0.7-2.1,0.5c0.7,0,1.3-0.4,1.8-0.8c0.5-0.4,0.8-1,1.2-1.5c0.7-1.1,1.2-2.2,1.6-3.3
				c0.4-1.2,0.8-2.3,1.2-3.5c0.3-1.2,0.7-2.4,0.9-3.5c0-0.1,0.1-0.3,0.1-0.4s0.1-0.1,0.1-0.2c-2.4-1-13.9-4.9-27.9,2.7l-0.2-1.3
				C107.8,111.4,119.7,101.4,136.8,106.9z"/>
			<path class="st54" d="M109,108.7c0.1-0.2,0.4-0.4,0.6-0.5c0.2-0.1,0.5-0.3,0.7-0.4c0.5-0.3,1-0.5,1.5-0.7c0.9-0.6,1.9-1,2.9-1.5
				c2-0.9,4.1-1.5,6.2-1.9c2.1-0.4,4.3-0.5,6.5-0.4c1.1,0.1,2.2,0.2,3.2,0.4c1.1,0,2.2,0.2,3.3,0.3c-1-0.5-2.1-0.9-3.1-1.3
				c-1.1-0.2-2.2-0.3-3.3-0.4c-2.2-0.1-4.5,0-6.7,0.4s-4.4,1.1-6.4,2c-1,0.4-2,1-3,1.5c-0.4,0.4-0.9,0.7-1.3,1.1
				C109.7,107.8,109.2,108.2,109,108.7z"/>
		</g>
	</g>
	<g class="st1">
		<g>
			<path class="st30" d="M81.9,112.1c0,0,1.1,13.6-15,13.4c-13.7-0.2-12.9-18-12.9-18S68.9,101.2,81.9,112.1z"/>
			<path class="st49" d="M54.1,111.4c0,0,12.7-5.4,27.5,3.9l0.4-3c0,0-14.9-9.3-28.7-4.1L54.1,111.4z"/>
			<ellipse transform="matrix(3.877448e-03 -1 1 3.877448e-03 -48.2713 184.2472)" cx="68.3" cy="116.4" rx="9.4" ry="8.3"/>
			
				<ellipse transform="matrix(8.049493e-02 -0.9968 0.9968 8.049493e-02 -50.5333 168.5688)" class="st30" cx="66.1" cy="111.7" rx="2.1" ry="1.7"/>
			<path d="M53.2,106.9c-0.3-0.1-0.7,0-1.2-0.1s-0.9-0.2-1.4-0.4c-0.5-0.1-1-0.3-1.5-0.5H49c0,0-0.1,0.1,0,0.1c0.3,0.4,0.7,0.7,1,1
				c0.2,0.2,0.4,0.3,0.6,0.5c-0.1,0-0.1,0-0.2,0l-1.5-0.1l0,0h-0.1c-0.1,0-0.2,0.1-0.2,0.3c0.2,0.5,0.4,0.8,0.7,1.2
				c0.3,0.4,0.6,0.7,1,1.1l0.1,0.1c-0.2,0.4-0.3,0.9,0,1.4c0.6,1.2,1.3,2.3,1.9,3.4c0.7,1.1,1.4,2.2,2.2,3.3
				c0.8,1.1,1.6,2.1,2.6,3.1c0.5,0.5,1,0.9,1.6,1.3c0.6,0.4,1.4,0.7,2.1,0.5c-0.7,0-1.3-0.4-1.8-0.8c-0.5-0.4-0.8-1-1.2-1.5
				c-0.7-1.1-1.2-2.2-1.6-3.3c-0.4-1.2-0.8-2.3-1.2-3.5c-0.3-1.2-0.7-2.4-0.9-3.5c0-0.1-0.1-0.3-0.1-0.4s-0.1-0.1-0.1-0.2
				c2.4-1,13.9-4.9,27.9,2.7l0.2-1.3C82.2,111.4,70.3,101.4,53.2,106.9z"/>
			<path class="st54" d="M81,108.7c-0.1-0.2-0.4-0.4-0.6-0.5s-0.5-0.3-0.7-0.4c-0.5-0.3-1-0.5-1.5-0.7c-0.9-0.6-1.9-1-2.9-1.5
				c-2-0.9-4.1-1.5-6.2-1.9s-4.3-0.5-6.5-0.4c-1.1,0.1-2.2,0.2-3.2,0.4c-1.1,0-2.2,0.2-3.3,0.3c1-0.5,2.1-0.9,3.1-1.3
				c1.1-0.2,2.2-0.3,3.3-0.4c2.2-0.1,4.5,0,6.7,0.4s4.4,1.1,6.4,2c1,0.4,2,1,3,1.5c0.4,0.4,0.9,0.7,1.3,1.1
				C80.3,107.8,80.8,108.2,81,108.7z"/>
		</g>
	</g>
	<g class="st1">
		<path d="M136.4,121.3c-0.5-0.1-0.9-0.2-1.4-0.2s-0.9,0.1-1.4,0.2c-0.4,0.1-0.8,0.4-1.3,0.5c-0.4,0.1-0.9,0.3-1.4,0.3h-0.1l0,0
			c0.2-0.5,0.6-0.9,1.1-1.2c0.4-0.3,1-0.3,1.5-0.4C134.5,120.4,135.5,120.6,136.4,121.3C136.4,121.2,136.4,121.2,136.4,121.3
			L136.4,121.3z"/>
	</g>
	<g class="st1">
		<path d="M132.4,121.2c-0.6,0.8-1.2,1.4-2,2.1c-0.8,0.5-1.6,1-2.5,1.4c-1.7,0.8-3.6,1.4-5.5,1.6c-1.9,0.2-3.9,0-5.7-0.7
			c-0.4-0.2-0.9-0.3-1.3-0.5l-1.3-0.7c-0.4-0.3-0.7-0.7-1-1s-0.6-0.7-0.9-1.1c0.9,0.4,1.6,0.9,2.5,1.2l1.2,0.7
			c0.4,0.2,0.8,0.3,1.2,0.5c1.7,0.6,3.5,0.8,5.3,0.6s3.5-0.7,5.2-1.5c0.8-0.4,1.6-0.8,2.4-1.3C130.7,122.1,131.6,121.7,132.4,121.2z
			"/>
	</g>
</g>
<g id="ojos4" class="st0">
	<g class="st1">
		<g>
			<path class="st30" d="M108.5,112.5c0,0-1.1,15.2,15,14.9c13.7-0.2,12.9-20.1,12.9-20.1S121.5,100.3,108.5,112.5z"/>
			<path class="st49" d="M135.6,111.8c0,0-12.5-5.4-26.9,3.9l-0.4-3c0,0,14.6-9.3,28.1-4.1L135.6,111.8z"/>
			
				<ellipse transform="matrix(1 -3.877393e-03 3.877393e-03 1 -0.4535 0.4743)" class="st55" cx="122.1" cy="117.2" rx="8.3" ry="10.5"/>
			
				<ellipse transform="matrix(0.9968 -8.049493e-02 8.049493e-02 0.9968 -8.7414 10.3744)" class="st30" cx="124.3" cy="113.6" rx="1.7" ry="2.1"/>
			<path d="M136.9,105.1c0.3-0.2,0.7-0.1,1.2-0.2c0.4-0.1,0.9-0.3,1.4-0.5s0.9-0.4,1.4-0.6h0.1c0,0,0.1,0.1,0,0.1
				c-0.3,0.5-0.6,0.9-1,1.3c-0.2,0.2-0.4,0.4-0.6,0.6c0.1,0,0.1,0,0.2,0l1.5-0.2l0,0h0.1c0.1,0,0.2,0.2,0.2,0.3
				c-0.1,0.5-0.4,1-0.6,1.5c-0.3,0.5-0.6,0.9-0.9,1.3l-0.1,0.1c0.3,0.5,0.3,1.1,0.1,1.7c-0.5,1.5-1.1,2.8-1.7,4.2
				c-0.6,1.4-1.3,2.7-2,4s-1.5,2.6-2.4,3.8c-0.5,0.6-1,1.2-1.6,1.7s-1.3,0.9-2.1,0.8c0.7-0.1,1.3-0.6,1.7-1.1
				c0.4-0.6,0.8-1.2,1.1-1.8c0.6-1.3,1-2.7,1.4-4.1c0.4-1.4,0.7-2.8,1-4.2s0.5-2.9,0.7-4.2c0-0.1,0.1-0.3,0.1-0.4s0.1-0.2,0.1-0.2
				c-2.5-1-14.2-4.8-27.7,5.2l-0.3-1.5C108.2,112.5,119.4,99.8,136.9,105.1z"/>
			<path class="st56" d="M109.3,107.8c0.1-0.3,0.4-0.4,0.6-0.6c0.2-0.2,0.5-0.3,0.7-0.4c0.5-0.3,1-0.5,1.4-0.8
				c0.9-0.6,1.8-1.1,2.8-1.6c1.9-1,4-1.7,6.1-2.2s4.3-0.7,6.5-0.7c1.1,0,2.2,0.1,3.2,0.2c1.1,0,2.2,0.1,3.3,0.1
				c-1-0.5-2.1-0.8-3.2-1.1c-1.1-0.2-2.2-0.2-3.4-0.2c-2.3,0-4.5,0.2-6.7,0.7s-4.3,1.3-6.3,2.3c-1,0.5-2,1.1-2.9,1.7
				c-0.4,0.4-0.8,0.8-1.2,1.2C109.9,106.8,109.4,107.2,109.3,107.8z"/>
		</g>
		<g>
			<path class="st30" d="M80.3,113c0,0,1.1,15.2-15,14.9c-13.7-0.2-12.9-20.1-12.9-20.1S67.2,100.8,80.3,113z"/>
			<path class="st49" d="M53.1,112.3c0,0,12.5-5.4,26.9,3.9l0.4-3c0,0-14.6-9.3-28.1-4.1L53.1,112.3z"/>
			
				<ellipse transform="matrix(3.877393e-03 -1 1 3.877393e-03 -51.4238 183.9023)" class="st55" cx="66.6" cy="117.8" rx="10.5" ry="8.3"/>
			
				<ellipse transform="matrix(8.049493e-02 -0.9968 0.9968 8.049493e-02 -54.5708 169.2225)" class="st30" cx="64.4" cy="114.2" rx="2.1" ry="1.7"/>
			<path d="M51.8,105.6c-0.3-0.2-0.7-0.1-1.2-0.2c-0.4-0.1-0.9-0.3-1.4-0.5s-0.9-0.4-1.4-0.6h-0.1c0,0-0.1,0.1,0,0.1
				c0.3,0.5,0.6,0.9,1,1.3c0.2,0.2,0.4,0.4,0.6,0.6c-0.1,0-0.1,0-0.2,0l-1.5-0.2l0,0h-0.1c-0.1,0-0.2,0.2-0.2,0.3
				c0.1,0.5,0.4,1,0.6,1.5c0.3,0.5,0.6,0.9,0.9,1.3l0.1,0.1c-0.3,0.5-0.3,1.1-0.1,1.7c0.5,1.5,1.1,2.8,1.7,4.2c0.6,1.4,1.3,2.7,2,4
				s1.5,2.6,2.4,3.8c0.5,0.6,1,1.2,1.6,1.7s1.3,0.9,2.1,0.8c-0.7-0.1-1.3-0.6-1.7-1.1c-0.4-0.6-0.8-1.2-1.1-1.8
				c-0.6-1.3-1-2.7-1.4-4.1c-0.4-1.4-0.7-2.8-1-4.2s-0.5-2.9-0.7-4.2c0-0.1-0.1-0.3-0.1-0.4s-0.1-0.2-0.1-0.2
				c2.5-1,14.2-4.8,27.7,5.2l0.3-1.5C80.5,113,69.3,100.4,51.8,105.6z"/>
			<path class="st56" d="M79.4,108.3c-0.1-0.3-0.4-0.4-0.6-0.6s-0.5-0.3-0.7-0.4c-0.5-0.3-1-0.5-1.4-0.8c-0.9-0.6-1.8-1.1-2.8-1.6
				c-1.9-1-4-1.7-6.1-2.2s-4.3-0.7-6.5-0.7c-1.1,0-2.2,0.1-3.2,0.2c-1.1,0-2.2,0.1-3.3,0.1c1-0.5,2.1-0.8,3.2-1.1
				c1.1-0.2,2.2-0.2,3.4-0.2c2.3,0,4.5,0.2,6.7,0.7s4.3,1.3,6.3,2.3c1,0.5,2,1.1,2.9,1.7c0.4,0.4,0.8,0.8,1.2,1.2
				C78.9,107.4,79.3,107.8,79.4,108.3z"/>
		</g>
	</g>
	<g class="st1">
		<path d="M136.8,123.2c-0.5-0.1-0.9-0.2-1.4-0.2s-0.9,0.1-1.4,0.2c-0.4,0.1-0.8,0.4-1.3,0.5c-0.4,0.1-0.9,0.3-1.4,0.3h-0.1l0,0
			c0.2-0.5,0.6-0.9,1.1-1.2c0.4-0.3,1-0.3,1.5-0.4C134.9,122.4,135.9,122.6,136.8,123.2C136.8,123.1,136.8,123.2,136.8,123.2
			L136.8,123.2z"/>
	</g>
	<g class="st1">
		<path d="M132.8,123.1c-0.6,0.8-1.2,1.4-2,2.1c-0.8,0.5-1.6,1-2.5,1.4c-1.7,0.8-3.6,1.4-5.5,1.6c-1.9,0.2-3.9,0-5.7-0.7
			c-0.4-0.2-0.9-0.3-1.3-0.5l-1.3-0.7c-0.4-0.3-0.7-0.7-1-1s-0.6-0.7-0.9-1.1c0.9,0.4,1.6,0.9,2.5,1.2l1.2,0.7
			c0.4,0.2,0.8,0.3,1.2,0.5c1.7,0.6,3.5,0.8,5.3,0.6s3.5-0.7,5.2-1.5c0.8-0.4,1.6-0.8,2.4-1.3C131.1,124,132,123.6,132.8,123.1z"/>
	</g>
	<g class="st1">
		<path d="M55.8,123.3c0.8,0.5,1.7,0.9,2.5,1.2c0.8,0.5,1.6,0.9,2.4,1.3c1.6,0.8,3.4,1.3,5.2,1.5c1.8,0.2,3.6,0,5.3-0.6
			c0.4-0.2,0.8-0.3,1.2-0.5l1.2-0.7c0.9-0.3,1.6-0.8,2.5-1.2c-0.3,0.4-0.6,0.7-0.9,1.1c-0.3,0.3-0.6,0.7-1,1l-1.3,0.7
			c-0.4,0.2-0.9,0.4-1.3,0.5c-1.8,0.6-3.8,0.9-5.7,0.7c-1.9-0.2-3.8-0.8-5.5-1.6c-0.9-0.4-1.7-0.9-2.5-1.4
			C57.1,124.8,56.4,124.1,55.8,123.3z"/>
	</g>
</g>
<g id="ojos3" class="st0">
	<g class="st1">
		<g>
			<path class="st30" d="M108.5,112.5c0,0-1.1,15.2,15,14.9c13.7-0.2,12.9-20.1,12.9-20.1S121.5,100.3,108.5,112.5z"/>
			<path class="st49" d="M135.6,111.8c0,0-12.5-5.4-26.9,3.9l-0.4-3c0,0,14.6-9.3,28.1-4.1L135.6,111.8z"/>
			
				<ellipse transform="matrix(1 -3.877393e-03 3.877393e-03 1 -0.4535 0.4743)" class="st57" cx="122.1" cy="117.2" rx="8.3" ry="10.5"/>
			
				<ellipse transform="matrix(0.9968 -8.049493e-02 8.049493e-02 0.9968 -8.7414 10.3744)" class="st30" cx="124.3" cy="113.6" rx="1.7" ry="2.1"/>
			<path d="M136.9,105.1c0.3-0.2,0.7-0.1,1.2-0.2c0.4-0.1,0.9-0.3,1.4-0.5s0.9-0.4,1.4-0.6h0.1c0,0,0.1,0.1,0,0.1
				c-0.3,0.5-0.6,0.9-1,1.3c-0.2,0.2-0.4,0.4-0.6,0.6c0.1,0,0.1,0,0.2,0l1.5-0.2l0,0h0.1c0.1,0,0.2,0.2,0.2,0.3
				c-0.1,0.5-0.4,1-0.6,1.5c-0.3,0.5-0.6,0.9-0.9,1.3l-0.1,0.1c0.3,0.5,0.3,1.1,0.1,1.7c-0.5,1.5-1.1,2.8-1.7,4.2
				c-0.6,1.4-1.3,2.7-2,4s-1.5,2.6-2.4,3.8c-0.5,0.6-1,1.2-1.6,1.7s-1.3,0.9-2.1,0.8c0.7-0.1,1.3-0.6,1.7-1.1
				c0.4-0.6,0.8-1.2,1.1-1.8c0.6-1.3,1-2.7,1.4-4.1c0.4-1.4,0.7-2.8,1-4.2s0.5-2.9,0.7-4.2c0-0.1,0.1-0.3,0.1-0.4s0.1-0.2,0.1-0.2
				c-2.5-1-14.2-4.8-27.7,5.2l-0.3-1.5C108.2,112.5,119.4,99.8,136.9,105.1z"/>
			<path class="st58" d="M109.3,107.8c0.1-0.3,0.4-0.4,0.6-0.6c0.2-0.2,0.5-0.3,0.7-0.4c0.5-0.3,1-0.5,1.4-0.8
				c0.9-0.6,1.8-1.1,2.8-1.6c1.9-1,4-1.7,6.1-2.2s4.3-0.7,6.5-0.7c1.1,0,2.2,0.1,3.2,0.2c1.1,0,2.2,0.1,3.3,0.1
				c-1-0.5-2.1-0.8-3.2-1.1c-1.1-0.2-2.2-0.2-3.4-0.2c-2.3,0-4.5,0.2-6.7,0.7s-4.3,1.3-6.3,2.3c-1,0.5-2,1.1-2.9,1.7
				c-0.4,0.4-0.8,0.8-1.2,1.2C109.9,106.8,109.4,107.2,109.3,107.8z"/>
		</g>
		<g>
			<path class="st30" d="M80.3,113c0,0,1.1,15.2-15,14.9c-13.7-0.2-12.9-20.1-12.9-20.1S67.2,100.8,80.3,113z"/>
			<path class="st49" d="M53.1,112.3c0,0,12.5-5.4,26.9,3.9l0.4-3c0,0-14.6-9.3-28.1-4.1L53.1,112.3z"/>
			
				<ellipse transform="matrix(3.877393e-03 -1 1 3.877393e-03 -51.4238 183.9023)" class="st57" cx="66.6" cy="117.8" rx="10.5" ry="8.3"/>
			
				<ellipse transform="matrix(8.049493e-02 -0.9968 0.9968 8.049493e-02 -54.5708 169.2225)" class="st30" cx="64.4" cy="114.2" rx="2.1" ry="1.7"/>
			<path d="M51.8,105.6c-0.3-0.2-0.7-0.1-1.2-0.2c-0.4-0.1-0.9-0.3-1.4-0.5s-0.9-0.4-1.4-0.6h-0.1c0,0-0.1,0.1,0,0.1
				c0.3,0.5,0.6,0.9,1,1.3c0.2,0.2,0.4,0.4,0.6,0.6c-0.1,0-0.1,0-0.2,0l-1.5-0.2l0,0h-0.1c-0.1,0-0.2,0.2-0.2,0.3
				c0.1,0.5,0.4,1,0.6,1.5c0.3,0.5,0.6,0.9,0.9,1.3l0.1,0.1c-0.3,0.5-0.3,1.1-0.1,1.7c0.5,1.5,1.1,2.8,1.7,4.2c0.6,1.4,1.3,2.7,2,4
				s1.5,2.6,2.4,3.8c0.5,0.6,1,1.2,1.6,1.7s1.3,0.9,2.1,0.8c-0.7-0.1-1.3-0.6-1.7-1.1c-0.4-0.6-0.8-1.2-1.1-1.8
				c-0.6-1.3-1-2.7-1.4-4.1c-0.4-1.4-0.7-2.8-1-4.2s-0.5-2.9-0.7-4.2c0-0.1-0.1-0.3-0.1-0.4s-0.1-0.2-0.1-0.2
				c2.5-1,14.2-4.8,27.7,5.2l0.3-1.5C80.5,113,69.3,100.4,51.8,105.6z"/>
			<path class="st58" d="M79.4,108.3c-0.1-0.3-0.4-0.4-0.6-0.6s-0.5-0.3-0.7-0.4c-0.5-0.3-1-0.5-1.4-0.8c-0.9-0.6-1.8-1.1-2.8-1.6
				c-1.9-1-4-1.7-6.1-2.2s-4.3-0.7-6.5-0.7c-1.1,0-2.2,0.1-3.2,0.2c-1.1,0-2.2,0.1-3.3,0.1c1-0.5,2.1-0.8,3.2-1.1
				c1.1-0.2,2.2-0.2,3.4-0.2c2.3,0,4.5,0.2,6.7,0.7s4.3,1.3,6.3,2.3c1,0.5,2,1.1,2.9,1.7c0.4,0.4,0.8,0.8,1.2,1.2
				C78.9,107.4,79.3,107.8,79.4,108.3z"/>
		</g>
	</g>
	<g class="st1">
		<path d="M136.8,123.2c-0.5-0.1-0.9-0.2-1.4-0.2s-0.9,0.1-1.4,0.2c-0.4,0.1-0.8,0.4-1.3,0.5c-0.4,0.1-0.9,0.3-1.4,0.3h-0.1l0,0
			c0.2-0.5,0.6-0.9,1.1-1.2c0.4-0.3,1-0.3,1.5-0.4C134.9,122.4,135.9,122.6,136.8,123.2C136.8,123.1,136.8,123.2,136.8,123.2
			L136.8,123.2z"/>
	</g>
	<g class="st1">
		<path d="M132.8,123.1c-0.6,0.8-1.2,1.4-2,2.1c-0.8,0.5-1.6,1-2.5,1.4c-1.7,0.8-3.6,1.4-5.5,1.6c-1.9,0.2-3.9,0-5.7-0.7
			c-0.4-0.2-0.9-0.3-1.3-0.5l-1.3-0.7c-0.4-0.3-0.7-0.7-1-1s-0.6-0.7-0.9-1.1c0.9,0.4,1.6,0.9,2.5,1.2l1.2,0.7
			c0.4,0.2,0.8,0.3,1.2,0.5c1.7,0.6,3.5,0.8,5.3,0.6s3.5-0.7,5.2-1.5c0.8-0.4,1.6-0.8,2.4-1.3C131.1,124,132,123.6,132.8,123.1z"/>
	</g>
	<g class="st1">
		<path d="M55.8,123.3c0.8,0.5,1.7,0.9,2.5,1.2c0.8,0.5,1.6,0.9,2.4,1.3c1.6,0.8,3.4,1.3,5.2,1.5c1.8,0.2,3.6,0,5.3-0.6
			c0.4-0.2,0.8-0.3,1.2-0.5l1.2-0.7c0.9-0.3,1.6-0.8,2.5-1.2c-0.3,0.4-0.6,0.7-0.9,1.1c-0.3,0.3-0.6,0.7-1,1l-1.3,0.7
			c-0.4,0.2-0.9,0.4-1.3,0.5c-1.8,0.6-3.8,0.9-5.7,0.7c-1.9-0.2-3.8-0.8-5.5-1.6c-0.9-0.4-1.7-0.9-2.5-1.4
			C57.1,124.8,56.4,124.1,55.8,123.3z"/>
	</g>
</g>
<g id="ojos2" class="st0">
	<g id="ojos1_1_" class="st1">
		<g>
			<g>
				<path class="st30" d="M108.5,112.5c0,0-1.1,15.2,15,14.9c13.7-0.2,12.9-20.1,12.9-20.1S121.5,100.3,108.5,112.5z"/>
				<path class="st49" d="M135.6,111.8c0,0-12.5-5.4-26.9,3.9l-0.4-3c0,0,14.6-9.3,28.1-4.1L135.6,111.8z"/>
				
					<ellipse transform="matrix(1 -3.877393e-03 3.877393e-03 1 -0.4535 0.4743)" class="st57" cx="122.1" cy="117.2" rx="8.3" ry="10.5"/>
				
					<ellipse transform="matrix(0.9968 -8.049493e-02 8.049493e-02 0.9968 -8.7414 10.3744)" class="st30" cx="124.3" cy="113.6" rx="1.7" ry="2.1"/>
				<path d="M136.9,105.1c0.3-0.2,0.7-0.1,1.2-0.2c0.4-0.1,0.9-0.3,1.4-0.5s0.9-0.4,1.4-0.6h0.1c0,0,0.1,0.1,0,0.1
					c-0.3,0.5-0.6,0.9-1,1.3c-0.2,0.2-0.4,0.4-0.6,0.6c0.1,0,0.1,0,0.2,0l1.5-0.2l0,0h0.1c0.1,0,0.2,0.2,0.2,0.3
					c-0.1,0.5-0.4,1-0.6,1.5c-0.3,0.5-0.6,0.9-0.9,1.3l-0.1,0.1c0.3,0.5,0.3,1.1,0.1,1.7c-0.5,1.5-1.1,2.8-1.7,4.2
					c-0.6,1.4-1.3,2.7-2,4s-1.5,2.6-2.4,3.8c-0.5,0.6-1,1.2-1.6,1.7s-1.3,0.9-2.1,0.8c0.7-0.1,1.3-0.6,1.7-1.1
					c0.4-0.6,0.8-1.2,1.1-1.8c0.6-1.3,1-2.7,1.4-4.1c0.4-1.4,0.7-2.8,1-4.2s0.5-2.9,0.7-4.2c0-0.1,0.1-0.3,0.1-0.4s0.1-0.2,0.1-0.2
					c-2.5-1-14.2-4.8-27.7,5.2l-0.3-1.5C108.2,112.5,119.4,99.8,136.9,105.1z"/>
			</g>
			<g>
				<path class="st30" d="M80.3,113c0,0,1.1,15.2-15,14.9c-13.7-0.2-12.9-20.1-12.9-20.1S67.2,100.8,80.3,113z"/>
				<path class="st49" d="M53.1,112.3c0,0,12.5-5.4,26.9,3.9l0.4-3c0,0-14.6-9.3-28.1-4.1L53.1,112.3z"/>
				
					<ellipse transform="matrix(3.877393e-03 -1 1 3.877393e-03 -51.4238 183.9023)" class="st57" cx="66.6" cy="117.8" rx="10.5" ry="8.3"/>
				
					<ellipse transform="matrix(8.049493e-02 -0.9968 0.9968 8.049493e-02 -54.5708 169.2225)" class="st30" cx="64.4" cy="114.2" rx="2.1" ry="1.7"/>
				<path d="M51.8,105.6c-0.3-0.2-0.7-0.1-1.2-0.2c-0.4-0.1-0.9-0.3-1.4-0.5s-0.9-0.4-1.4-0.6h-0.1c0,0-0.1,0.1,0,0.1
					c0.3,0.5,0.6,0.9,1,1.3c0.2,0.2,0.4,0.4,0.6,0.6c-0.1,0-0.1,0-0.2,0l-1.5-0.2l0,0h-0.1c-0.1,0-0.2,0.2-0.2,0.3
					c0.1,0.5,0.4,1,0.6,1.5c0.3,0.5,0.6,0.9,0.9,1.3l0.1,0.1c-0.3,0.5-0.3,1.1-0.1,1.7c0.5,1.5,1.1,2.8,1.7,4.2c0.6,1.4,1.3,2.7,2,4
					s1.5,2.6,2.4,3.8c0.5,0.6,1,1.2,1.6,1.7s1.3,0.9,2.1,0.8c-0.7-0.1-1.3-0.6-1.7-1.1c-0.4-0.6-0.8-1.2-1.1-1.8
					c-0.6-1.3-1-2.7-1.4-4.1c-0.4-1.4-0.7-2.8-1-4.2s-0.5-2.9-0.7-4.2c0-0.1-0.1-0.3-0.1-0.4s-0.1-0.2-0.1-0.2
					c2.5-1,14.2-4.8,27.7,5.2l0.3-1.5C80.5,113,69.3,100.4,51.8,105.6z"/>
			</g>
		</g>
		<g>
			<path d="M136.8,123.2c-0.5-0.1-0.9-0.2-1.4-0.2s-0.9,0.1-1.4,0.2c-0.4,0.1-0.8,0.4-1.3,0.5c-0.4,0.1-0.9,0.3-1.4,0.3h-0.1l0,0
				c0.2-0.5,0.6-0.9,1.1-1.2c0.4-0.3,1-0.3,1.5-0.4C134.9,122.4,135.9,122.6,136.8,123.2C136.8,123.1,136.8,123.2,136.8,123.2
				L136.8,123.2z"/>
		</g>
		<g>
			<path d="M132.8,123.1c-0.6,0.8-1.2,1.4-2,2.1c-0.8,0.5-1.6,1-2.5,1.4c-1.7,0.8-3.6,1.4-5.5,1.6c-1.9,0.2-3.9,0-5.7-0.7
				c-0.4-0.2-0.9-0.3-1.3-0.5l-1.3-0.7c-0.4-0.3-0.7-0.7-1-1s-0.6-0.7-0.9-1.1c0.9,0.4,1.6,0.9,2.5,1.2l1.2,0.7
				c0.4,0.2,0.8,0.3,1.2,0.5c1.7,0.6,3.5,0.8,5.3,0.6s3.5-0.7,5.2-1.5c0.8-0.4,1.6-0.8,2.4-1.3C131.1,124,132,123.6,132.8,123.1z"/>
		</g>
		<g>
			<path d="M55.8,123.3c0.8,0.5,1.7,0.9,2.5,1.2c0.8,0.5,1.6,0.9,2.4,1.3c1.6,0.8,3.4,1.3,5.2,1.5c1.8,0.2,3.6,0,5.3-0.6
				c0.4-0.2,0.8-0.3,1.2-0.5l1.2-0.7c0.9-0.3,1.6-0.8,2.5-1.2c-0.3,0.4-0.6,0.7-0.9,1.1c-0.3,0.3-0.6,0.7-1,1l-1.3,0.7
				c-0.4,0.2-0.9,0.4-1.3,0.5c-1.8,0.6-3.8,0.9-5.7,0.7c-1.9-0.2-3.8-0.8-5.5-1.6c-0.9-0.4-1.7-0.9-2.5-1.4
				C57.1,124.8,56.4,124.1,55.8,123.3z"/>
		</g>
	</g>
	<g class="st1">
		<g>
			<path d="M124.6,137.8c-13.1,0-23.7-6.1-23.7-18.1c0-13.5,13.5-15,23.7-15s23.7,1.6,23.7,15C148.3,131.7,137.6,137.8,124.6,137.8z
				 M124.6,107.3c-14.8,0-21.1,3.7-21.1,12.4c0,10.5,9.5,15.5,21.1,15.5s21.1-4.9,21.1-15.5C145.7,111,139.4,107.3,124.6,107.3z"/>
		</g>
		<path d="M137.9,106.3c3.3,0.8,9.3,1,11,1s2.6,0.2,2.6,1s0,3.3,0,3.8s-0.1,1-1,1c-0.9,0.1-1.4,0.5-1.4,2.5s-0.3,6.8-1.8,10.2
			c0,0,0.4-10.1-2.2-13.5C141.8,108,137.9,106.3,137.9,106.3z"/>
		<g>
			<path d="M36.5,119.7c0-13.5,13.5-15,23.7-15s23.7,1.6,23.7,15c0,11.9-10.6,18.1-23.7,18.1S36.5,131.7,36.5,119.7z M39.1,119.7
				c0,10.5,9.4,15.5,21.1,15.5c11.6,0,21.1-4.9,21.1-15.5c0-8.7-6.3-12.4-21.1-12.4C45.4,107.3,39.1,111,39.1,119.7z"/>
		</g>
		<path d="M46.8,106.3c-3.3,0.8-9.3,1-11,1s-2.6,0.2-2.6,1s0,3.3,0,3.8s0.1,1,1,1c0.9,0.1,1.4,0.5,1.4,2.5s0.3,6.8,1.8,10.2
			c0,0-0.4-10.1,2.2-13.5C42.9,108,46.8,106.3,46.8,106.3z"/>
		<path d="M98.1,113.9c-0.8,0-3.9,0-5.7,0c-1.9,0-5,0-5.7,0c-0.8,0-4-0.6-4.9-1.8l2,9.5c1.5-3.1,6.2-4,8.7-4s7.1,0.9,8.6,4l2-9.5
			C102.1,113.2,98.9,113.9,98.1,113.9z"/>
	</g>
</g>
<g id="ojos1" class="st0">
	<g class="st1">
		<g>
			<path class="st30" d="M108.5,112.5c0,0-1.1,15.2,15,14.9c13.7-0.2,12.9-20.1,12.9-20.1S121.5,100.3,108.5,112.5z"/>
			<path class="st49" d="M135.6,111.8c0,0-12.5-5.4-26.9,3.9l-0.4-3c0,0,14.6-9.3,28.1-4.1L135.6,111.8z"/>
			
				<ellipse transform="matrix(1 -3.877393e-03 3.877393e-03 1 -0.4535 0.4743)" class="st59" cx="122.1" cy="117.2" rx="8.3" ry="10.5"/>
			
				<ellipse transform="matrix(0.9968 -8.049493e-02 8.049493e-02 0.9968 -8.7414 10.3744)" class="st30" cx="124.3" cy="113.6" rx="1.7" ry="2.1"/>
			<path d="M136.9,105.1c0.3-0.2,0.7-0.1,1.2-0.2c0.4-0.1,0.9-0.3,1.4-0.5s0.9-0.4,1.4-0.6h0.1c0,0,0.1,0.1,0,0.1
				c-0.3,0.5-0.6,0.9-1,1.3c-0.2,0.2-0.4,0.4-0.6,0.6c0.1,0,0.1,0,0.2,0l1.5-0.2l0,0h0.1c0.1,0,0.2,0.2,0.2,0.3
				c-0.1,0.5-0.4,1-0.6,1.5c-0.3,0.5-0.6,0.9-0.9,1.3l-0.1,0.1c0.3,0.5,0.3,1.1,0.1,1.7c-0.5,1.5-1.1,2.8-1.7,4.2
				c-0.6,1.4-1.3,2.7-2,4s-1.5,2.6-2.4,3.8c-0.5,0.6-1,1.2-1.6,1.7s-1.3,0.9-2.1,0.8c0.7-0.1,1.3-0.6,1.7-1.1
				c0.4-0.6,0.8-1.2,1.1-1.8c0.6-1.3,1-2.7,1.4-4.1c0.4-1.4,0.7-2.8,1-4.2s0.5-2.9,0.7-4.2c0-0.1,0.1-0.3,0.1-0.4s0.1-0.2,0.1-0.2
				c-2.5-1-14.2-4.8-27.7,5.2l-0.3-1.5C108.2,112.5,119.4,99.8,136.9,105.1z"/>
			<path class="st56" d="M109.3,107.8c0.1-0.3,0.4-0.4,0.6-0.6c0.2-0.2,0.5-0.3,0.7-0.4c0.5-0.3,1-0.5,1.4-0.8
				c0.9-0.6,1.8-1.1,2.8-1.6c1.9-1,4-1.7,6.1-2.2s4.3-0.7,6.5-0.7c1.1,0,2.2,0.1,3.2,0.2c1.1,0,2.2,0.1,3.3,0.1
				c-1-0.5-2.1-0.8-3.2-1.1c-1.1-0.2-2.2-0.2-3.4-0.2c-2.3,0-4.5,0.2-6.7,0.7s-4.3,1.3-6.3,2.3c-1,0.5-2,1.1-2.9,1.7
				c-0.4,0.4-0.8,0.8-1.2,1.2C109.9,106.8,109.4,107.2,109.3,107.8z"/>
		</g>
		<g>
			<path class="st30" d="M80.3,113c0,0,1.1,15.2-15,14.9c-13.7-0.2-12.9-20.1-12.9-20.1S67.2,100.8,80.3,113z"/>
			<path class="st49" d="M53.1,112.3c0,0,12.5-5.4,26.9,3.9l0.4-3c0,0-14.6-9.3-28.1-4.1L53.1,112.3z"/>
			
				<ellipse transform="matrix(3.877393e-03 -1 1 3.877393e-03 -51.4238 183.9023)" class="st59" cx="66.6" cy="117.8" rx="10.5" ry="8.3"/>
			
				<ellipse transform="matrix(8.049493e-02 -0.9968 0.9968 8.049493e-02 -54.5708 169.2225)" class="st30" cx="64.4" cy="114.2" rx="2.1" ry="1.7"/>
			<path d="M51.8,105.6c-0.3-0.2-0.7-0.1-1.2-0.2c-0.4-0.1-0.9-0.3-1.4-0.5s-0.9-0.4-1.4-0.6h-0.1c0,0-0.1,0.1,0,0.1
				c0.3,0.5,0.6,0.9,1,1.3c0.2,0.2,0.4,0.4,0.6,0.6c-0.1,0-0.1,0-0.2,0l-1.5-0.2l0,0h-0.1c-0.1,0-0.2,0.2-0.2,0.3
				c0.1,0.5,0.4,1,0.6,1.5c0.3,0.5,0.6,0.9,0.9,1.3l0.1,0.1c-0.3,0.5-0.3,1.1-0.1,1.7c0.5,1.5,1.1,2.8,1.7,4.2c0.6,1.4,1.3,2.7,2,4
				s1.5,2.6,2.4,3.8c0.5,0.6,1,1.2,1.6,1.7s1.3,0.9,2.1,0.8c-0.7-0.1-1.3-0.6-1.7-1.1c-0.4-0.6-0.8-1.2-1.1-1.8
				c-0.6-1.3-1-2.7-1.4-4.1c-0.4-1.4-0.7-2.8-1-4.2s-0.5-2.9-0.7-4.2c0-0.1-0.1-0.3-0.1-0.4s-0.1-0.2-0.1-0.2
				c2.5-1,14.2-4.8,27.7,5.2l0.3-1.5C80.5,113,69.3,100.4,51.8,105.6z"/>
			<path class="st56" d="M79.4,108.3c-0.1-0.3-0.4-0.4-0.6-0.6s-0.5-0.3-0.7-0.4c-0.5-0.3-1-0.5-1.4-0.8c-0.9-0.6-1.8-1.1-2.8-1.6
				c-1.9-1-4-1.7-6.1-2.2s-4.3-0.7-6.5-0.7c-1.1,0-2.2,0.1-3.2,0.2c-1.1,0-2.2,0.1-3.3,0.1c1-0.5,2.1-0.8,3.2-1.1
				c1.1-0.2,2.2-0.2,3.4-0.2c2.3,0,4.5,0.2,6.7,0.7s4.3,1.3,6.3,2.3c1,0.5,2,1.1,2.9,1.7c0.4,0.4,0.8,0.8,1.2,1.2
				C78.9,107.4,79.3,107.8,79.4,108.3z"/>
		</g>
	</g>
	<g class="st1">
		<path d="M136.8,123.2c-0.5-0.1-0.9-0.2-1.4-0.2s-0.9,0.1-1.4,0.2c-0.4,0.1-0.8,0.4-1.3,0.5c-0.4,0.1-0.9,0.3-1.4,0.3h-0.1l0,0
			c0.2-0.5,0.6-0.9,1.1-1.2c0.4-0.3,1-0.3,1.5-0.4C134.9,122.4,135.9,122.6,136.8,123.2C136.8,123.1,136.8,123.2,136.8,123.2
			L136.8,123.2z"/>
	</g>
	<g class="st1">
		<path d="M132.8,123.1c-0.6,0.8-1.2,1.4-2,2.1c-0.8,0.5-1.6,1-2.5,1.4c-1.7,0.8-3.6,1.4-5.5,1.6c-1.9,0.2-3.9,0-5.7-0.7
			c-0.4-0.2-0.9-0.3-1.3-0.5l-1.3-0.7c-0.4-0.3-0.7-0.7-1-1s-0.6-0.7-0.9-1.1c0.9,0.4,1.6,0.9,2.5,1.2l1.2,0.7
			c0.4,0.2,0.8,0.3,1.2,0.5c1.7,0.6,3.5,0.8,5.3,0.6s3.5-0.7,5.2-1.5c0.8-0.4,1.6-0.8,2.4-1.3C131.1,124,132,123.6,132.8,123.1z"/>
	</g>
	<g class="st1">
		<path d="M55.8,123.3c0.8,0.5,1.7,0.9,2.5,1.2c0.8,0.5,1.6,0.9,2.4,1.3c1.6,0.8,3.4,1.3,5.2,1.5c1.8,0.2,3.6,0,5.3-0.6
			c0.4-0.2,0.8-0.3,1.2-0.5l1.2-0.7c0.9-0.3,1.6-0.8,2.5-1.2c-0.3,0.4-0.6,0.7-0.9,1.1c-0.3,0.3-0.6,0.7-1,1l-1.3,0.7
			c-0.4,0.2-0.9,0.4-1.3,0.5c-1.8,0.6-3.8,0.9-5.7,0.7c-1.9-0.2-3.8-0.8-5.5-1.6c-0.9-0.4-1.7-0.9-2.5-1.4
			C57.1,124.8,56.4,124.1,55.8,123.3z"/>
	</g>
</g>
<g id="boca6" class="st0">
	<g class="st1">
		<path class="st60" d="M94.3,167.6c1.2,0,10.5-0.3,14.4-2.7c-2.5,0.8-11.4-7.2-14.4-1.8c-3-5.4-11.9,2.5-14.4,1.8
			C83.8,167.2,93.1,167.5,94.3,167.6L94.3,167.6C94.2,167.6,94.3,167.6,94.3,167.6L94.3,167.6L94.3,167.6z"/>
		<path class="st61" d="M94.3,167.1c-4.9,0-12.2-1-16.5-3.3c9.4,9.7,12.5,10.4,16.5,10.4s7.1-0.8,16.5-10.4
			C106.5,166.1,99.2,167.1,94.3,167.1z"/>
	</g>
	<g class="st1">
		<g>
			<g>
				<g>
					<path class="st51" d="M84.8,146.6c0.1-0.2,1.2,0.2,3.1,0.8s4.5,1.4,7.4,1.4c2.9-0.1,5.5-0.9,7.4-1.4c1.9-0.6,3-1,3.1-0.8
						s-0.9,0.9-2.8,1.7c-1.8,0.8-4.5,1.8-7.7,1.9c-3.2-0.1-5.9-1.1-7.7-1.9C85.8,147.4,84.8,146.7,84.8,146.6z"/>
				</g>
			</g>
		</g>
	</g>
	<path class="st62" d="M73,184.7"/>
</g>
<g id="boca5" class="st0">
	<g class="st1">
		<g>
			<g>
				<g>
					<path class="st51" d="M84.4,146.6c0.1-0.2,1.2,0.2,3.1,0.8s4.5,1.4,7.4,1.4c2.9-0.1,5.5-0.9,7.4-1.4c1.9-0.6,3-1,3.1-0.8
						s-0.9,0.9-2.8,1.7c-1.8,0.8-4.5,1.8-7.7,1.9c-3.2-0.1-5.9-1.1-7.7-1.9C85.3,147.4,84.3,146.7,84.4,146.6z"/>
				</g>
			</g>
		</g>
	</g>
	<g class="st1">
		<path class="st63" d="M94.9,167.6c1.2,0,10.5-0.3,14.4-2.7c-3.9-2.8-11.4-7.2-14.4-1.8c-8.6-6.8-11.9,2.5-14.4,1.8
			C84.4,167.2,93.7,167.5,94.9,167.6L94.9,167.6C94.8,167.6,94.8,167.6,94.9,167.6C94.8,167.6,94.9,167.6,94.9,167.6L94.9,167.6z"/>
		<path class="st64" d="M94.8,167.1c-4.9,0-12.2-1-16.5-3.3c9.4,9.7,12.5,10.4,16.5,10.4s7.1-0.8,16.5-10.4
			C107,166.1,99.8,167.1,94.8,167.1z"/>
	</g>
	<path class="st62" d="M72.5,184.7"/>
</g>
<g id="boca4" class="st0">
	<g class="st1">
		<g>
			<g>
				<g>
					<path class="st51" d="M84.4,146.6c0.1-0.2,1.2,0.2,3.1,0.8s4.5,1.4,7.4,1.4c2.9-0.1,5.5-0.9,7.4-1.4c1.9-0.6,3-1,3.1-0.8
						s-0.9,0.9-2.8,1.7c-1.8,0.8-4.5,1.8-7.7,1.9c-3.2-0.1-5.9-1.1-7.7-1.9C85.3,147.4,84.3,146.7,84.4,146.6z"/>
				</g>
			</g>
		</g>
	</g>
	<g class="st1">
		<path class="st65" d="M94.9,167.6c1.2,0,10.5-0.3,14.4-2.7c-3.9-2.8-11.4-7.2-14.4-1.8c-8.6-6.8-11.9,2.5-14.4,1.8
			C84.4,167.2,93.7,167.5,94.9,167.6L94.9,167.6C94.8,167.6,94.8,167.6,94.9,167.6C94.8,167.6,94.9,167.6,94.9,167.6L94.9,167.6z"/>
		<path class="st66" d="M94.8,167.1c-4.9,0-12.2-1-16.5-3.3c9.4,9.7,12.5,10.4,16.5,10.4s7.1-0.8,16.5-10.4
			C107,166.1,99.8,167.1,94.8,167.1z"/>
	</g>
	<path class="st62" d="M72.5,184.7"/>
</g>
<g id="boca3" class="st0">
	<g class="st1">
		<g>
			<g>
				<g>
					<path class="st51" d="M84.4,146.6c0.1-0.2,1.2,0.2,3.1,0.8s4.5,1.4,7.4,1.4c2.9-0.1,5.5-0.9,7.4-1.4c1.9-0.6,3-1,3.1-0.8
						s-0.9,0.9-2.8,1.7c-1.8,0.8-4.5,1.8-7.7,1.9c-3.2-0.1-5.9-1.1-7.7-1.9C85.3,147.4,84.3,146.7,84.4,146.6z"/>
				</g>
			</g>
		</g>
	</g>
	<g class="st1">
		<path class="st67" d="M94.9,167.6c1.2,0,10.5-0.3,14.4-2.7c-3.9-2.8-11.4-7.2-14.4-1.8c-8.6-6.8-11.9,2.5-14.4,1.8
			C84.4,167.2,93.7,167.5,94.9,167.6L94.9,167.6C94.8,167.6,94.8,167.6,94.9,167.6C94.8,167.6,94.9,167.6,94.9,167.6L94.9,167.6z"/>
		<path class="st68" d="M94.8,167.1c-4.9,0-12.2-1-16.5-3.3c9.4,9.7,12.5,10.4,16.5,10.4s7.1-0.8,16.5-10.4
			C107,166.1,99.8,167.1,94.8,167.1z"/>
	</g>
	<path class="st62" d="M72.5,184.7"/>
</g>
<g id="boca2" class="st0">
	<g class="st1">
		<g>
			<g>
				<g>
					<path class="st51" d="M84.4,146.6c0.1-0.2,1.2,0.2,3.1,0.8s4.5,1.4,7.4,1.4c2.9-0.1,5.5-0.9,7.4-1.4c1.9-0.6,3-1,3.1-0.8
						s-0.9,0.9-2.8,1.7c-1.8,0.8-4.5,1.8-7.7,1.9c-3.2-0.1-5.9-1.1-7.7-1.9C85.3,147.4,84.3,146.7,84.4,146.6z"/>
				</g>
			</g>
		</g>
	</g>
	<g class="st1">
		<path class="st69" d="M94.9,167.6c1.2,0,10.5-0.3,14.4-2.7c-3.9-2.8-11.4-7.2-14.4-1.8c-8.6-6.8-11.9,2.5-14.4,1.8
			C84.4,167.2,93.7,167.5,94.9,167.6L94.9,167.6C94.8,167.6,94.8,167.6,94.9,167.6C94.8,167.6,94.9,167.6,94.9,167.6L94.9,167.6z"/>
		<path class="st70" d="M94.8,167.1c-4.9,0-12.2-1-16.5-3.3c9.4,9.7,12.5,10.4,16.5,10.4s7.1-0.8,16.5-10.4
			C107,166.1,99.8,167.1,94.8,167.1z"/>
	</g>
	<path class="st62" d="M72.5,184.7"/>
</g>
<g id="boca1" class="st0">
	<g class="st1">
		<path class="st71" d="M94.3,167.6c1.2,0,10.5-0.3,14.4-2.7c-2.5,0.8-11.4-7.2-14.4-1.8c-3-5.4-11.9,2.5-14.4,1.8
			C83.8,167.2,93.1,167.5,94.3,167.6L94.3,167.6C94.2,167.6,94.3,167.6,94.3,167.6L94.3,167.6L94.3,167.6z"/>
		<path class="st72" d="M94.3,167.1c-4.9,0-12.2-1-16.5-3.3c9.4,9.7,12.5,10.4,16.5,10.4s7.1-0.8,16.5-10.4
			C106.5,166.1,99.2,167.1,94.3,167.1z"/>
	</g>
	<g class="st1">
		<g>
			<g>
				<g>
					<path class="st51" d="M84.8,146.6c0.1-0.2,1.2,0.2,3.1,0.8s4.5,1.4,7.4,1.4c2.9-0.1,5.5-0.9,7.4-1.4c1.9-0.6,3-1,3.1-0.8
						s-0.9,0.9-2.8,1.7c-1.8,0.8-4.5,1.8-7.7,1.9c-3.2-0.1-5.9-1.1-7.7-1.9C85.8,147.4,84.8,146.7,84.8,146.6z"/>
				</g>
			</g>
		</g>
	</g>
	<path class="st62" d="M73,184.7"/>
</g>
</svg>
