<?xml version="1.0" encoding="utf-8"?>
<!-- Generator: Adobe Illustrator 22.1.0, SVG Export Plug-In . SVG Version: 6.00 Build 0)  -->
<svg version="1.1" id="Capa_1" xmlns="http://www.w3.org/2000/svg" xmlns:xlink="http://www.w3.org/1999/xlink" x="0px" y="0px"
	 viewBox="0 0 61.2 61.8" style="enable-background:new 0 0 61.2 61.8;" xml:space="preserve">
<style type="text/css">
	.st0{fill:#FFF7E9;}
	.st1{clip-path:url(#SVGID_2_);}
	.st2{clip-path:url(#SVGID_4_);}
	.st3{fill:#AEDCC6;}
	.st4{fill:#F59086;}
	.st5{fill:#FE8CAB;}
	.st6{fill:#FFFFFF;}
</style>
<g>
	<g>
		<g>
			
				<rect x="122.2" y="2.8" transform="matrix(1 -1.848055e-03 1.848055e-03 1 -6.158279e-02 0.3014)" class="st0" width="81.7" height="61.3"/>
			<g>
				<defs>
					<path id="SVGID_1_" d="M122.2,2.9l0.1,61.3L204,64l-0.1-61.3L122.2,2.9z M201.4,61.5l-76.6,0.1l-0.1-56.2l76.6-0.1L201.4,61.5z
						"/>
				</defs>
				<clipPath id="SVGID_2_">
					<use xlink:href="#SVGID_1_"  style="overflow:visible;"/>
				</clipPath>
				<g class="st1">
					<defs>
						
							<rect id="SVGID_3_" x="122.2" y="2.8" transform="matrix(1 -1.848055e-03 1.848055e-03 1 -6.158279e-02 0.3014)" width="81.7" height="61.3"/>
					</defs>
					<clipPath id="SVGID_4_">
						<use xlink:href="#SVGID_3_"  style="overflow:visible;"/>
					</clipPath>
					<g class="st2">
						
							<rect x="79.2" y="-1.2" transform="matrix(0.7058 -0.7085 0.7085 0.7058 38.2963 91.8998)" class="st3" width="101.2" height="2"/>
						
							<rect x="82.2" y="1.8" transform="matrix(0.7058 -0.7084 0.7084 0.7058 37.0678 94.8637)" class="st4" width="101.2" height="2"/>
						
							<rect x="85.2" y="4.8" transform="matrix(0.7058 -0.7084 0.7084 0.7058 35.8332 97.872)" class="st3" width="101.2" height="2"/>
						
							<rect x="88.1" y="7.7" transform="matrix(0.7058 -0.7085 0.7085 0.7058 34.6192 100.8514)" class="st4" width="101.2" height="2"/>
						
							<rect x="91.1" y="10.7" transform="matrix(0.7058 -0.7084 0.7084 0.7058 33.3774 103.8518)" class="st3" width="101.2" height="2"/>
						
							<rect x="94.1" y="13.7" transform="matrix(0.7058 -0.7084 0.7084 0.7058 32.1538 106.8201)" class="st4" width="101.2" height="2"/>
						
							<rect x="97.1" y="16.7" transform="matrix(0.7058 -0.7084 0.7084 0.7058 30.918 109.8271)" class="st3" width="101.2" height="2"/>
						
							<rect x="100.1" y="19.6" transform="matrix(0.7058 -0.7084 0.7084 0.7058 29.6969 112.7984)" class="st4" width="101.2" height="2"/>
						
							<rect x="103.1" y="22.6" transform="matrix(0.7058 -0.7084 0.7084 0.7058 28.4648 115.8105)" class="st3" width="101.2" height="2"/>
						
							<rect x="106" y="25.6" transform="matrix(0.7058 -0.7084 0.7084 0.7058 27.2436 118.7818)" class="st4" width="101.2" height="2"/>
						
							<rect x="109" y="28.6" transform="matrix(0.7058 -0.7084 0.7084 0.7058 26.0078 121.7889)" class="st3" width="101.2" height="2"/>
						
							<rect x="112" y="31.5" transform="matrix(0.7058 -0.7084 0.7084 0.7058 24.7867 124.7603)" class="st4" width="101.2" height="2"/>
						
							<rect x="115" y="34.5" transform="matrix(0.7058 -0.7084 0.7084 0.7058 23.5496 127.7656)" class="st3" width="101.2" height="2"/>
						
							<rect x="118" y="37.5" transform="matrix(0.7058 -0.7084 0.7084 0.7058 22.3272 130.735)" class="st4" width="101.2" height="2"/>
						
							<rect x="121" y="40.5" transform="matrix(0.7058 -0.7084 0.7084 0.7058 21.0902 133.7399)" class="st3" width="101.2" height="2"/>
						
							<rect x="123.9" y="43.4" transform="matrix(0.7058 -0.7084 0.7084 0.7058 19.8668 136.7075)" class="st4" width="101.2" height="2"/>
						
							<rect x="126.9" y="46.4" transform="matrix(0.7058 -0.7084 0.7084 0.7058 18.6381 139.7267)" class="st3" width="101.2" height="2"/>
						
							<rect x="129.9" y="49.4" transform="matrix(0.7058 -0.7084 0.7084 0.7058 17.4096 142.6851)" class="st4" width="101.2" height="2"/>
						
							<rect x="132.9" y="52.4" transform="matrix(0.7058 -0.7085 0.7085 0.7058 16.1837 145.7099)" class="st3" width="101.2" height="2"/>
						
							<rect x="135.9" y="55.3" transform="matrix(0.7058 -0.7085 0.7085 0.7058 14.9628 148.6819)" class="st4" width="101.2" height="2"/>
						
							<rect x="138.9" y="58.3" transform="matrix(0.7058 -0.7084 0.7084 0.7058 13.7193 151.6746)" class="st3" width="101.2" height="2"/>
						
							<rect x="141.8" y="61.3" transform="matrix(0.7058 -0.7084 0.7084 0.7058 12.5029 154.655)" class="st4" width="101.2" height="2"/>
						
							<rect x="144.8" y="64.3" transform="matrix(0.7058 -0.7084 0.7084 0.7058 11.267 157.6622)" class="st3" width="101.2" height="2"/>
						
							<rect x="147.8" y="67.2" transform="matrix(0.7058 -0.7084 0.7084 0.7058 10.0437 160.6291)" class="st4" width="101.2" height="2"/>
					</g>
				</g>
			</g>
		</g>
	</g>
	<polyline class="st4" points="124.7,5.5 163.1,41.8 201.3,5.3 	"/>
</g>
<g>
	<ellipse class="st5" cx="30.7" cy="30.7" rx="30.2" ry="30.5"/>
	<g>
		<path class="st6" d="M17.7,38.6l7.9-9.4l-7.2-8.4c-1-1.2-1.4-2.2-1.4-3.4c0-2.5,1.8-4.1,4-4.1c1.7,0,2.9,0.8,4.1,2.3l5.7,7.7
			l5.8-7.7c1-1.3,2.2-2.3,3.8-2.3c2.3,0,4.1,1.6,4.1,3.8c0,1.2-0.5,2.2-1.2,3l-7.5,8.8l7.7,8.9c1,1.2,1.4,2.2,1.4,3.4
			c0,2.5-1.8,4.1-4,4.1c-1.7,0-2.9-0.8-4.1-2.3L30.6,35l-6.2,8.3c-1,1.3-2.2,2.3-3.8,2.3c-2.3,0-4.1-1.6-4.1-3.8
			C16.5,40.4,17,39.5,17.7,38.6z"/>
	</g>
</g>
</svg>
