<?xml version="1.0" encoding="utf-8"?>
<!-- Generator: Adobe Illustrator 22.1.0, SVG Export Plug-In . SVG Version: 6.00 Build 0)  -->
<svg version="1.1" id="Capa_1" xmlns="http://www.w3.org/2000/svg" xmlns:xlink="http://www.w3.org/1999/xlink" x="0px" y="0px"
	 viewBox="0 0 82 61.8" style="enable-background:new 0 0 82 61.8;" xml:space="preserve">
<style type="text/css">
	.st0{fill:#FFF7E9;}
	.st1{clip-path:url(#SVGID_2_);}
	.st2{clip-path:url(#SVGID_4_);}
	.st3{fill:#AEDCC6;}
	.st4{fill:#F59086;}
</style>
<g>
	<g>
		<g>
			
				<rect x="0.2" y="0.3" transform="matrix(1 -1.848055e-03 1.848055e-03 1 -5.706556e-02 7.596466e-02)" class="st0" width="81.7" height="61.3"/>
			<g>
				<defs>
					<path id="SVGID_1_" d="M0.2,0.4l0.1,61.3L82,61.5L81.9,0.2L0.2,0.4z M79.4,58.9L2.8,59.1L2.7,2.9l76.6-0.1L79.4,58.9z"/>
				</defs>
				<clipPath id="SVGID_2_">
					<use xlink:href="#SVGID_1_"  style="overflow:visible;"/>
				</clipPath>
				<g class="st1">
					<defs>
						
							<rect id="SVGID_3_" x="0.2" y="0.3" transform="matrix(1 -1.848055e-03 1.848055e-03 1 -5.706556e-02 7.596462e-02)" width="81.7" height="61.3"/>
					</defs>
					<clipPath id="SVGID_4_">
						<use xlink:href="#SVGID_3_"  style="overflow:visible;"/>
					</clipPath>
					<g class="st2">
						
							<rect x="-42.8" y="-3.7" transform="matrix(0.7058 -0.7085 0.7085 0.7058 4.2106 4.7165)" class="st3" width="101.2" height="2"/>
						
							<rect x="-39.8" y="-0.8" transform="matrix(0.7058 -0.7084 0.7084 0.7058 2.9889 7.6875)" class="st4" width="101.2" height="2"/>
						
							<rect x="-36.8" y="2.2" transform="matrix(0.7058 -0.7084 0.7084 0.7058 1.7532 10.6946)" class="st3" width="101.2" height="2"/>
						
							<rect x="-33.9" y="5.2" transform="matrix(0.7058 -0.7085 0.7085 0.7058 0.5327 13.6671)" class="st4" width="101.2" height="2"/>
						
							<rect x="-30.9" y="8.2" transform="matrix(0.7058 -0.7084 0.7084 0.7058 -0.7037 16.6732)" class="st3" width="101.2" height="2"/>
						
							<rect x="-27.9" y="11.1" transform="matrix(0.7058 -0.7084 0.7084 0.7058 -1.925 19.6439)" class="st4" width="101.2" height="2"/>
						
							<rect x="-24.9" y="14.1" transform="matrix(0.7058 -0.7084 0.7084 0.7058 -3.1609 22.6509)" class="st3" width="101.2" height="2"/>
						
							<rect x="-21.9" y="17.1" transform="matrix(0.7058 -0.7084 0.7084 0.7058 -4.382 25.6221)" class="st4" width="101.2" height="2"/>
						
							<rect x="-18.9" y="20.1" transform="matrix(0.7058 -0.7084 0.7084 0.7058 -5.6175 28.6306)" class="st3" width="101.2" height="2"/>
						
							<rect x="-16" y="23" transform="matrix(0.7058 -0.7084 0.7084 0.7058 -6.8386 31.602)" class="st4" width="101.2" height="2"/>
						
							<rect x="-13" y="26" transform="matrix(0.7058 -0.7084 0.7084 0.7058 -8.0744 34.6092)" class="st3" width="101.2" height="2"/>
						
							<rect x="-10" y="29" transform="matrix(0.7058 -0.7084 0.7084 0.7058 -9.2956 37.5806)" class="st4" width="101.2" height="2"/>
						
							<rect x="-7" y="32" transform="matrix(0.7058 -0.7084 0.7084 0.7058 -10.5315 40.587)" class="st3" width="101.2" height="2"/>
						
							<rect x="-4" y="34.9" transform="matrix(0.7058 -0.7084 0.7084 0.7058 -11.7528 43.5576)" class="st4" width="101.2" height="2"/>
						
							<rect x="-1" y="37.9" transform="matrix(0.7058 -0.7084 0.7084 0.7058 -12.9886 46.5637)" class="st3" width="101.2" height="2"/>
						
							<rect x="1.9" y="40.9" transform="matrix(0.7058 -0.7084 0.7084 0.7058 -14.21 49.5334)" class="st4" width="101.2" height="2"/>
						
							<rect x="4.9" y="43.9" transform="matrix(0.7058 -0.7084 0.7084 0.7058 -15.4453 52.5457)" class="st3" width="101.2" height="2"/>
						
							<rect x="7.9" y="46.8" transform="matrix(0.7058 -0.7084 0.7084 0.7058 -16.6669 55.5112)" class="st4" width="101.2" height="2"/>
						
							<rect x="10.9" y="49.8" transform="matrix(0.7058 -0.7085 0.7085 0.7058 -17.902 58.5265)" class="st3" width="101.2" height="2"/>
						
							<rect x="13.9" y="52.8" transform="matrix(0.7058 -0.7085 0.7085 0.7058 -19.1231 61.4984)" class="st4" width="101.2" height="2"/>
						
							<rect x="16.9" y="55.8" transform="matrix(0.7058 -0.7084 0.7084 0.7058 -20.3596 64.4984)" class="st3" width="101.2" height="2"/>
						
							<rect x="19.8" y="58.7" transform="matrix(0.7058 -0.7084 0.7084 0.7058 -21.5803 67.4743)" class="st4" width="101.2" height="2"/>
						
							<rect x="22.8" y="61.7" transform="matrix(0.7058 -0.7084 0.7084 0.7058 -22.8161 70.4815)" class="st3" width="101.2" height="2"/>
						
							<rect x="25.8" y="64.7" transform="matrix(0.7058 -0.7084 0.7084 0.7058 -24.0374 73.4505)" class="st4" width="101.2" height="2"/>
					</g>
				</g>
			</g>
		</g>
	</g>
	<polyline class="st4" points="2.7,2.9 41.1,39.2 79.3,2.8 	"/>
</g>
</svg>
