<?xml version="1.0" encoding="utf-8"?>
<!-- Generator: Adobe Illustrator 22.1.0, SVG Export Plug-In . SVG Version: 6.00 Build 0)  -->
<svg version="1.1" id="Capa_1" xmlns="http://www.w3.org/2000/svg" xmlns:xlink="http://www.w3.org/1999/xlink" x="0px" y="0px"
	 viewBox="0 0 151 146" style="enable-background:new 0 0 151 146;" xml:space="preserve">
<style type="text/css">
	.st0{fill:#FFFFFF;}
</style>
<g id="og6O0M.tif">
	<g>
		<path class="st0" d="M70.7,2.7c3.1,0,6.2,0,9.3,0c0.2,0.3,0.6,0.2,0.9,0.2c2.6,0.2,5.2,0.5,7.8,1c18.6,3.7,33.4,13.3,44.4,28.7
			c6.6,9.3,10.7,19.7,12.2,31.1c0.2,1.6,0.2,3.1,0.6,4.7c0,3.2,0,6.3,0,9.5c-0.3,0.2-0.2,0.6-0.2,0.9c-0.3,4-0.9,8-2,11.9
			c-4.1,15.2-12.3,27.8-24.6,37.6c-10.1,8-21.5,12.8-34.3,14.5c-1.5,0.2-3.1,0.1-4.5,0.6c-3.2,0-6.5,0-9.7,0
			c-0.2-0.3-0.5-0.2-0.7-0.2c-1.9-0.2-3.8-0.4-5.6-0.7c-20.6-3.6-36.7-14.2-48.1-31.8c-5.6-8.6-9-18.2-10.3-28.4
			c-0.2-1.6-0.2-3.2-0.6-4.8c0-2.8,0-5.6,0-8.4c0.3-0.3,0.2-0.7,0.2-1.1c0.5-7.9,2.4-15.4,5.5-22.6C15.7,34,23,24.5,32.9,17.1
			c9.9-7.5,21-12.1,33.3-13.7C67.7,3.1,69.3,3.2,70.7,2.7z M112.4,42.5c-0.2,0.1-0.4,0.1-0.6,0.2c-2.5,1.3-5.1,2.3-7.8,3
			c-0.9,0.2-1.6,0.2-2.3-0.5c-1.7-1.7-3.8-2.8-6-3.5c-5.9-2-13.1,0-17.2,4.8C75.1,50.5,74,55,74.7,60c0.1,0.6,0.1,0.9-0.6,0.8
			c-3.8-0.4-7.6-1-11.2-2.2c-8.1-2.7-15-7.3-20.6-13.7c-0.8-1-1-1-1.5,0.3c-2.5,5.9-2,11.5,1.8,16.7c0.9,1.3,2.2,2.2,3.5,3.5
			c-2.3,0-4.2-0.5-6-1.4c-0.7-0.3-1-0.3-0.9,0.6c0,0.3,0,0.5,0,0.8c0.8,5.6,3.6,9.9,8.5,12.6c1.2,0.7,2.6,1.1,4.2,1.6
			c-2.1,0.4-3.9,0.8-5.8,0.4c-1.1-0.2-1.2,0-0.8,1c1.7,4,4.5,6.9,8.5,8.8c1.9,0.9,3.8,1.2,6.1,1.5c-1.9,1.4-3.6,2.5-5.5,3.4
			c-5.7,2.7-11.6,3.9-18.3,3.2c2.7,1.8,5.3,3,8,4.1c7.5,2.9,15.2,3.7,23.2,2.7c11.2-1.5,20.6-6.3,27.9-14.8
			c7.9-9.1,11.9-19.9,11.7-32c0-0.6,0.1-1.1,0.7-1.5c1.4-1,2.7-2.2,3.9-3.5c1.1-1.2,2.2-2.5,3-4c-2.7,0.9-5.4,1.8-8.2,1.9
			c0.2-0.3,0.4-0.5,0.7-0.6c2.6-2,4.6-4.4,5.6-7.6c0-0.1,0.2-0.2,0.1-0.2C112.5,42.2,112.5,42.4,112.4,42.5z"/>
		<path class="st0" d="M112.4,42.5c0.1-0.1,0.1-0.3,0.3-0.1c0,0-0.1,0.1-0.1,0.2C112.5,42.6,112.5,42.5,112.4,42.5z"/>
	</g>
</g>
</svg>
