<?xml version="1.0" encoding="utf-8"?>
<!-- Generator: Adobe Illustrator 22.1.0, SVG Export Plug-In . SVG Version: 6.00 Build 0)  -->
<svg version="1.1" id="Capa_1" xmlns="http://www.w3.org/2000/svg" xmlns:xlink="http://www.w3.org/1999/xlink" x="0px" y="0px"
	 viewBox="0 0 250 214" style="enable-background:new 0 0 250 214;" xml:space="preserve">
<style type="text/css">
	.st0{fill:#A989CB;}
	.st1{fill:#FFFFFF;}
</style>
<g>
	<g>
		<circle class="st0" cx="104.9" cy="37.5" r="33.2"/>
		<g>
			<path class="st1" d="M92.7,43.4L84,39.2c-1-0.5-1.6-1.2-1.6-2.2v-0.3c0-1,0.6-1.7,1.6-2.2l8.7-4.1c0.3-0.2,0.6-0.3,1-0.3
				c0.8,0,1.6,0.7,1.6,1.6c0,0.7-0.4,1.3-1.1,1.6l-7.8,3.5l7.8,3.5c0.7,0.3,1.1,0.9,1.1,1.6c0,1-0.7,1.6-1.7,1.6
				C93.2,43.6,93,43.5,92.7,43.4z"/>
			<path class="st1" d="M97.6,47.2l10.1-21c0.3-0.6,0.7-0.9,1.4-0.9c0.8,0,1.5,0.7,1.5,1.5c0,0.3-0.1,0.6-0.2,0.7l-10.1,21
				c-0.3,0.6-0.7,0.9-1.4,0.9c-0.8,0-1.5-0.7-1.5-1.5C97.4,47.7,97.5,47.4,97.6,47.2z"/>
			<path class="st1" d="M115.6,30.5l8.7,4.1c1,0.5,1.6,1.2,1.6,2.2v0.3c0,1-0.6,1.7-1.6,2.2l-8.7,4.1c-0.3,0.2-0.6,0.3-1,0.3
				c-0.8,0-1.6-0.7-1.6-1.6c0-0.7,0.4-1.3,1.1-1.6l7.8-3.5l-7.8-3.5c-0.7-0.3-1.1-0.9-1.1-1.6c0-1,0.7-1.6,1.7-1.6
				C115.1,30.3,115.3,30.4,115.6,30.5z"/>
		</g>
	</g>
	<g>
		<circle class="st0" cx="113.3" cy="176.5" r="33.2"/>
		<g>
			<path class="st1" d="M101.2,182.3l-8.7-4.1c-1-0.5-1.6-1.2-1.6-2.2v-0.3c0-1,0.6-1.7,1.6-2.2l8.7-4.1c0.3-0.2,0.6-0.3,1-0.3
				c0.8,0,1.6,0.7,1.6,1.6c0,0.7-0.4,1.3-1.1,1.6l-7.8,3.5l7.8,3.5c0.7,0.3,1.1,0.9,1.1,1.6c0,1-0.7,1.6-1.7,1.6
				C101.7,182.5,101.4,182.4,101.2,182.3z"/>
			<path class="st1" d="M106.1,186.2l10.1-21c0.3-0.6,0.7-0.9,1.4-0.9c0.8,0,1.5,0.7,1.5,1.5c0,0.3-0.1,0.6-0.2,0.7l-10.1,21
				c-0.3,0.6-0.7,0.9-1.4,0.9c-0.8,0-1.5-0.7-1.5-1.5C105.9,186.6,106,186.3,106.1,186.2z"/>
			<path class="st1" d="M124.1,169.5l8.7,4.1c1,0.5,1.6,1.2,1.6,2.2v0.3c0,1-0.6,1.7-1.6,2.2l-8.7,4.1c-0.3,0.2-0.6,0.3-1,0.3
				c-0.8,0-1.6-0.7-1.6-1.6c0-0.7,0.4-1.3,1.1-1.6l7.8-3.5l-7.8-3.5c-0.7-0.3-1.1-0.9-1.1-1.6c0-1,0.7-1.6,1.7-1.6
				C123.5,169.2,123.8,169.3,124.1,169.5z"/>
		</g>
	</g>
	<g>
		<path class="st1" d="M6.4,19.2c0-2.9,2.3-5.2,5.2-5.2l14,0c11.2,0,18,6.7,17.9,16.3l0,0.1c0,10.9-8.5,16.5-19,16.5l-7.8,0l0,9.3
			c0,2.9-2.3,5.2-5.2,5.2c-2.9,0-5.2-2.3-5.2-5.2L6.4,19.2z M24.9,37.7c5.2,0,8.2-3.1,8.2-7.1v-0.1c0-4.6-3.2-7.1-8.4-7.1l-8,0
			l0,14.4L24.9,37.7z"/>
		<path class="st1" d="M50,16.5c0-3,2.5-4.8,5.7-4.7c3.2,0,5.7,1.8,5.7,4.8l0,0.1c0,3-2.5,4.8-5.7,4.8c-3.2,0-5.7-1.9-5.7-4.8V16.5z
			 M50.6,29.8c0-2.8,2.3-5.1,5.1-5.1c2.8,0,5.1,2.3,5.1,5.1l-0.1,26.6c0,2.8-2.3,5.1-5.1,5.1c-2.8,0-5.1-2.3-5.1-5.1L50.6,29.8z"/>
	</g>
	<g>
		<path class="st1" d="M5.5,91.9c0-2.8,2.3-5.1,5.1-5.1c2.8,0,5.1,2.3,5.1,5.1l0,0.4c2.4-3,5.4-5.8,10.5-5.7
			c7.7,0,12.2,5.1,12.2,13.4l0,18.6c0,2.8-2.3,5.1-5.1,5.1c-2.8,0-5.1-2.3-5.1-5.1l0-15.4c0-4.8-2.3-7.3-6.2-7.3
			c-3.9,0-6.4,2.5-6.4,7.3l0,15.4c0,2.8-2.3,5.1-5.1,5.1c-2.8,0-5.1-2.3-5.1-5.1L5.5,91.9z"/>
		<path class="st1" d="M64.2,124.1c-10.8,0-18.8-7.6-18.7-18.6v-0.1c0-10.3,7.4-18.7,17.8-18.7c12,0,17.3,9.9,17.3,17.3
			c0,3-2.1,4.9-4.8,4.9l-20.2-0.1c1,4.6,4.2,7.1,8.8,7.1c2.8,0,5.2-0.9,7.3-2.4c0.7-0.5,1.4-0.8,2.5-0.8c2.3,0,4,1.8,3.9,4
			c0,1.3-0.6,2.3-1.3,3C73.5,122.5,69.4,124.1,64.2,124.1z M70.8,102.5c-0.6-4.6-3.3-7.7-7.6-7.7c-4.2,0-7,3-7.8,7.6L70.8,102.5z"/>
		<path class="st1" d="M88.4,92.1c0-2.8,2.3-5.1,5.1-5.1c2.8,0,5.1,2.3,5.1,5.1l0,1.6c1.5-3.5,3.9-6.7,6.9-6.7c3.2,0,5,2.1,5,5
			c0,2.7-1.8,4.3-3.8,4.8c-5.2,1.2-8.1,5.1-8.1,12.4l0,9.5c0,2.8-2.3,5.1-5.1,5.1c-2.8,0-5.1-2.3-5.1-5.1L88.4,92.1z"/>
		<path class="st1" d="M112.5,113.1l0-0.1c0-7.8,6-11.5,14.5-11.4c3.6,0,6.2,0.6,8.8,1.5l0-0.6c0-4.2-2.6-6.6-7.7-6.6
			c-2.8,0-5.1,0.4-7,1c-0.6,0.2-1,0.3-1.5,0.3c-2.3,0-4.2-1.8-4.2-4.2c0-1.8,1.1-3.4,2.8-4c3.2-1.2,6.7-1.9,11.5-1.8
			c5.6,0,9.6,1.5,12.1,4.1c2.7,2.7,3.9,6.7,3.9,11.5l0,16.4c0,2.8-2.2,4.9-5,4.9c-3,0-4.9-2.1-4.9-4.2l0-0.1
			c-2.5,2.7-5.9,4.5-10.9,4.5C118.1,124.1,112.5,120.2,112.5,113.1z M135.9,110.8l0-1.8c-1.7-0.8-4-1.4-6.5-1.4
			c-4.4,0-7,1.7-7.1,4.9l0,0.1c0,2.8,2.3,4.4,5.6,4.4C132.7,117.1,135.9,114.5,135.9,110.8z"/>
		<path class="st1" d="M153.4,120.1c-1.1-0.7-1.9-1.9-1.9-3.5c0-2.3,1.8-4,4-4c0.7,0,1.5,0.2,2,0.5c3.4,2.2,6.8,3.2,9.7,3.2
			c3,0,4.3-1.1,4.3-2.7v-0.1c0-2.2-3.5-3-7.4-4.2c-5-1.5-10.7-3.9-10.7-10.8v-0.1c0-7.3,5.9-11.4,13.2-11.4c3.8,0,7.6,1,11.1,2.8
			c1.5,0.7,2.4,2.1,2.4,3.8c0,2.3-1.8,4-4.1,4c-0.7,0-1.2-0.1-1.9-0.5c-2.9-1.4-5.6-2.3-7.8-2.3c-2.5,0-3.8,1.1-3.8,2.5v0.1
			c0,2,3.4,3,7.3,4.3c5,1.7,10.9,4.1,10.8,10.7v0.1c0,8-6,11.6-13.8,11.6C162.5,124.2,157.8,123,153.4,120.1z"/>
	</g>
	<g>
		<path class="st1" d="M7.4,161.6C7.2,161,7,160.2,7,159.6c0-2.9,2.4-5,5.3-5c2.4,0,4.4,1.6,5,3.7l9.3,28.8l9.5-28.5
			c0.8-2.4,2.6-4.1,5.2-4.1l0.8,0c2.6,0,4.4,1.6,5.2,4.1l9.3,28.5l9.4-28.8c0.7-2,2.4-3.7,5-3.7c2.8,0,5.1,2.2,5.1,5
			c0,0.6-0.2,1.4-0.4,2l-13.2,36.9c-0.9,2.6-2.9,4.2-5.4,4.2l-1.1,0c-2.5,0-4.4-1.6-5.3-4.2l-9.2-26.9l-9.3,26.9
			c-0.9,2.7-2.8,4.2-5.3,4.2l-1.1,0c-2.5,0-4.4-1.6-5.4-4.2L7.4,161.6z"/>
	</g>
	<g>
		<path class="st1" d="M160.1,163.2c0-2.8,2.3-5.1,5.1-5.1c2.8,0,5.1,2.3,5.1,5.1l0,1.6c1.5-3.5,3.9-6.7,6.9-6.7c3.2,0,5,2.1,4.9,5
			c0,2.7-1.8,4.3-3.8,4.8c-5.2,1.2-8.1,5.1-8.1,12.4l0,9.5c0,2.8-2.3,5.1-5.1,5.1c-2.8,0-5.1-2.3-5.1-5.1L160.1,163.2z"/>
		<path class="st1" d="M188.7,150.3c0-2.8,2.3-5.1,5.1-5.1c2.8,0,5.1,2.3,5.1,5.1l-0.1,39.6c0,2.8-2.3,5.1-5.1,5.1
			c-2.8,0-5.1-2.3-5.1-5.1L188.7,150.3z"/>
		<path class="st1" d="M244.5,190.1c0,2.8-2.3,5.1-5.1,5.1c-2.8,0-5.1-2.3-5.1-5.1l0-0.5c-2.5,3.3-5.9,5.8-11.2,5.8
			c-8.4,0-16.3-6.6-16.3-18.6v-0.1c0-12,7.9-18.6,16.4-18.5c5.4,0,8.8,2.5,11.2,5.4l0-13c0-2.8,2.3-5.1,5.1-5.1
			c2.8,0,5.1,2.3,5.1,5.1L244.5,190.1z M217,176.6v0.1c0,6,4,9.9,8.8,10c4.8,0,8.7-3.9,8.8-9.9v-0.1c0-6-3.9-9.9-8.7-10
			C221,166.7,217,170.6,217,176.6z"/>
	</g>
</g>
</svg>
