<?xml version="1.0" encoding="utf-8"?>
<!-- Generator: Adobe Illustrator 22.1.0, SVG Export Plug-In . SVG Version: 6.00 Build 0)  -->
<svg version="1.1" id="Capa_1" xmlns="http://www.w3.org/2000/svg" xmlns:xlink="http://www.w3.org/1999/xlink" x="0px" y="0px"
	 viewBox="0 0 372 52" style="enable-background:new 0 0 372 52;" xml:space="preserve">
<style type="text/css">
	.st0{fill:#A989CB;}
	.st1{fill:#FFFFFF;}
</style>
<g>
	<g>
		<circle class="st0" cx="67.1" cy="26.1" r="20.7"/>
		<g>
			<path class="st1" d="M59.6,29.8l-5.4-2.6c-0.6-0.3-1-0.7-1-1.4v-0.2c0-0.6,0.4-1.1,1-1.4l5.4-2.6c0.2-0.1,0.4-0.2,0.6-0.2
				c0.5,0,1,0.4,1,1c0,0.5-0.3,0.8-0.7,1l-4.8,2.2l4.8,2.2c0.4,0.2,0.7,0.6,0.7,1c0,0.6-0.5,1-1.1,1C59.9,29.9,59.7,29.9,59.6,29.8z
				"/>
			<path class="st1" d="M62.6,32.2l6.3-13.1c0.2-0.4,0.5-0.6,0.9-0.6c0.5,0,0.9,0.4,0.9,0.9c0,0.2-0.1,0.4-0.1,0.5L64.3,33
				c-0.2,0.4-0.5,0.6-0.9,0.6c-0.5,0-0.9-0.4-0.9-0.9C62.5,32.5,62.6,32.3,62.6,32.2z"/>
			<path class="st1" d="M73.8,21.8l5.4,2.6c0.6,0.3,1,0.7,1,1.4v0.2c0,0.6-0.4,1.1-1,1.4l-5.4,2.6c-0.2,0.1-0.4,0.2-0.6,0.2
				c-0.5,0-1-0.4-1-1c0-0.5,0.3-0.8,0.7-1l4.8-2.2l-4.8-2.2c-0.4-0.2-0.7-0.6-0.7-1c0-0.6,0.5-1,1.1-1
				C73.5,21.6,73.7,21.7,73.8,21.8z"/>
		</g>
	</g>
	<g>
		<circle class="st0" cx="283.9" cy="25.9" r="20.7"/>
		<g>
			<path class="st1" d="M276.3,29.5l-5.4-2.6c-0.6-0.3-1-0.7-1-1.4v-0.2c0-0.6,0.4-1.1,1-1.4l5.4-2.6c0.2-0.1,0.4-0.2,0.6-0.2
				c0.5,0,1,0.4,1,1c0,0.5-0.3,0.8-0.7,1l-4.8,2.2l4.8,2.2c0.4,0.2,0.7,0.6,0.7,1c0,0.6-0.5,1-1.1,1
				C276.6,29.6,276.5,29.6,276.3,29.5z"/>
			<path class="st1" d="M279.3,31.9l6.3-13.1c0.2-0.4,0.5-0.6,0.8-0.6c0.5,0,0.9,0.4,0.9,0.9c0,0.2-0.1,0.4-0.1,0.5L281,32.7
				c-0.2,0.4-0.5,0.6-0.9,0.6c-0.5,0-0.9-0.4-0.9-0.9C279.2,32.2,279.3,32,279.3,31.9z"/>
			<path class="st1" d="M290.6,21.5L296,24c0.6,0.3,1,0.7,1,1.4v0.2c0,0.6-0.4,1.1-1,1.4l-5.4,2.6c-0.2,0.1-0.4,0.2-0.6,0.2
				c-0.5,0-1-0.4-1-1c0-0.5,0.3-0.8,0.7-1l4.8-2.2l-4.8-2.2c-0.4-0.2-0.7-0.6-0.7-1c0-0.6,0.5-1,1.1-1
				C290.2,21.3,290.4,21.4,290.6,21.5z"/>
		</g>
	</g>
	<g>
		<path class="st1" d="M6.3,14.5c0-1.8,1.4-3.2,3.2-3.2l8.7,0c7,0,11.2,4.2,11.2,10.2v0.1c0,6.8-5.3,10.3-11.9,10.3l-4.9,0l0,5.8
			c0,1.8-1.4,3.2-3.2,3.2c-1.8,0-3.2-1.4-3.2-3.2L6.3,14.5z M17.9,26.1c3.2,0,5.1-1.9,5.1-4.4v-0.1c0-2.9-2-4.4-5.2-4.4l-5,0l0,9
			L17.9,26.1z"/>
		<path class="st1" d="M33.5,12.9c0-1.8,1.6-3,3.6-3c2,0,3.6,1.1,3.5,3V13c0,1.8-1.6,3-3.6,3C35.1,16,33.5,14.8,33.5,12.9L33.5,12.9
			z M33.9,21.2c0-1.8,1.4-3.2,3.2-3.2c1.8,0,3.2,1.4,3.2,3.2l0,16.6c0,1.8-1.4,3.2-3.2,3.2c-1.8,0-3.2-1.4-3.2-3.2L33.9,21.2z"/>
	</g>
	<g>
		<path class="st1" d="M96.8,21.5c0-1.8,1.4-3.2,3.2-3.2c1.8,0,3.2,1.4,3.2,3.2l0,0.3c1.5-1.9,3.4-3.6,6.6-3.6
			c4.8,0,7.6,3.2,7.6,8.3l0,11.6c0,1.8-1.4,3.2-3.2,3.2c-1.8,0-3.2-1.4-3.2-3.2l0-9.6c0-3-1.4-4.6-3.8-4.6c-2.4,0-4,1.5-4,4.5l0,9.6
			c0,1.8-1.4,3.2-3.2,3.2c-1.8,0-3.2-1.4-3.2-3.2L96.8,21.5z"/>
		<path class="st1" d="M133.5,41.6c-6.7,0-11.7-4.8-11.7-11.6v-0.1c0-6.4,4.6-11.7,11.1-11.6c7.5,0,10.8,6.2,10.8,10.8
			c0,1.8-1.3,3.1-3,3l-12.6,0c0.6,2.9,2.6,4.4,5.5,4.4c1.8,0,3.2-0.5,4.5-1.5c0.5-0.3,0.9-0.5,1.5-0.5c1.4,0,2.5,1.1,2.5,2.5
			c0,0.8-0.4,1.5-0.8,1.9C139.3,40.6,136.7,41.6,133.5,41.6z M137.6,28.2c-0.4-2.8-2-4.8-4.7-4.8c-2.6,0-4.4,1.9-4.9,4.8L137.6,28.2
			z"/>
		<path class="st1" d="M148.5,21.7c0-1.8,1.4-3.2,3.2-3.2c1.8,0,3.2,1.4,3.2,3.2l0,1c0.9-2.2,2.4-4.2,4.3-4.2c2,0,3.1,1.3,3.1,3.1
			c0,1.7-1.1,2.7-2.4,3c-3.2,0.7-5,3.2-5,7.7l0,5.9c0,1.8-1.4,3.2-3.2,3.2c-1.8,0-3.2-1.4-3.2-3.2L148.5,21.7z"/>
		<path class="st1" d="M163.6,34.8L163.6,34.8c0-5,3.7-7.2,9.1-7.2c2.3,0,3.9,0.4,5.5,0.9l0-0.4c0-2.6-1.6-4.1-4.8-4.1
			c-1.8,0-3.2,0.2-4.4,0.6c-0.4,0.1-0.6,0.2-0.9,0.2c-1.5,0-2.6-1.1-2.6-2.6c0-1.1,0.7-2.1,1.7-2.5c2-0.7,4.2-1.2,7.2-1.2
			c3.5,0,6,0.9,7.6,2.5c1.7,1.7,2.4,4.1,2.4,7.2l0,10.2c0,1.7-1.4,3-3.1,3c-1.8,0-3-1.3-3-2.6v0c-1.6,1.7-3.7,2.8-6.8,2.8
			C167,41.6,163.6,39.2,163.6,34.8z M178.2,33.3l0-1.1c-1.1-0.5-2.5-0.8-4.1-0.8c-2.7,0-4.4,1.1-4.4,3.1v0.1c0,1.7,1.4,2.7,3.5,2.7
			C176.2,37.3,178.2,35.6,178.2,33.3z"/>
		<path class="st1" d="M189.1,39.1c-0.7-0.4-1.2-1.2-1.2-2.2c0-1.4,1.1-2.5,2.5-2.5c0.5,0,0.9,0.1,1.3,0.3c2.1,1.3,4.3,2,6.1,2
			c1.8,0,2.7-0.7,2.7-1.7v-0.1c0-1.4-2.2-1.8-4.6-2.6c-3.1-0.9-6.7-2.4-6.7-6.8l0-0.1c0-4.6,3.7-7.1,8.2-7.1c2.3,0,4.8,0.6,6.9,1.7
			c0.9,0.5,1.5,1.3,1.5,2.4c0,1.4-1.1,2.5-2.6,2.5c-0.5,0-0.8-0.1-1.2-0.3c-1.8-0.9-3.5-1.4-4.8-1.4c-1.5,0-2.3,0.7-2.3,1.5V25
			c0,1.3,2.1,1.8,4.6,2.7c3.1,1.1,6.8,2.6,6.8,6.7l0,0.1c0,5-3.7,7.2-8.6,7.2C194.8,41.7,191.8,40.9,189.1,39.1z"/>
	</g>
	<g>
		<path class="st1" d="M217.9,17c-0.1-0.4-0.2-0.8-0.2-1.2c0-1.8,1.5-3.1,3.3-3.1c1.5,0,2.7,1,3.1,2.3l5.8,18l5.9-17.8
			c0.5-1.5,1.6-2.5,3.3-2.5l0.5,0c1.6,0,2.8,1,3.3,2.6l5.8,17.8l5.9-17.9c0.4-1.3,1.5-2.3,3.1-2.3c1.8,0,3.2,1.3,3.2,3.1
			c0,0.4-0.1,0.9-0.3,1.3l-8.3,23c-0.6,1.6-1.8,2.6-3.4,2.6l-0.7,0c-1.5,0-2.7-1-3.3-2.6l-5.7-16.8l-5.8,16.8
			c-0.6,1.7-1.8,2.6-3.3,2.6l-0.7,0c-1.5,0-2.8-1-3.3-2.6L217.9,17z"/>
	</g>
	<g>
		<path class="st1" d="M313,18c0-1.8,1.4-3.2,3.2-3.2c1.8,0,3.2,1.4,3.2,3.2l0,1c0.9-2.2,2.4-4.2,4.3-4.2c2,0,3.1,1.3,3.1,3.1
			c0,1.7-1.1,2.7-2.4,3c-3.2,0.7-5,3.2-5,7.7l0,5.9c0,1.8-1.4,3.2-3.2,3.2c-1.8,0-3.2-1.4-3.2-3.2L313,18z"/>
		<path class="st1" d="M330.8,10c0-1.8,1.4-3.2,3.2-3.2s3.2,1.4,3.2,3.2l-0.1,24.7c0,1.8-1.4,3.2-3.2,3.2c-1.8,0-3.2-1.4-3.2-3.2
			L330.8,10z"/>
		<path class="st1" d="M365.6,34.8c0,1.8-1.4,3.2-3.2,3.2c-1.8,0-3.2-1.4-3.2-3.2l0-0.3c-1.6,2.1-3.7,3.6-7,3.6
			c-5.2,0-10.2-4.1-10.2-11.6v-0.1c0-7.5,4.9-11.6,10.2-11.6c3.4,0,5.5,1.6,7,3.4l0-8.1c0-1.8,1.4-3.2,3.2-3.2
			c1.8,0,3.2,1.4,3.2,3.2L365.6,34.8z M348.5,26.4L348.5,26.4c0,3.8,2.5,6.3,5.5,6.3c3,0,5.4-2.4,5.5-6.2v-0.1
			c0-3.7-2.4-6.2-5.4-6.2C351,20.2,348.5,22.6,348.5,26.4z"/>
	</g>
</g>
</svg>
