<?xml version="1.0" encoding="utf-8"?>
<!-- Generator: Adobe Illustrator 22.1.0, SVG Export Plug-In . SVG Version: 6.00 Build 0)  -->
<svg version="1.1" id="Capa_1" xmlns="http://www.w3.org/2000/svg" xmlns:xlink="http://www.w3.org/1999/xlink" x="0px" y="0px"
	 viewBox="0 0 151 146" style="enable-background:new 0 0 151 146;" xml:space="preserve">
<style type="text/css">
	.st0{fill-rule:evenodd;clip-rule:evenodd;fill:#FFFFFF;}
	.st1{fill:#FFFFFF;}
</style>
<g>
	<path class="st0" d="M75.5,3.5C36.2,3.5,4.2,35.4,4.2,74.8c0,31.5,20.4,58.2,48.7,67.6c3.6,0.7,4.9-1.5,4.9-3.4
		c0-1.7-0.1-7.3-0.1-13.3c-19.8,4.3-24-8.4-24-8.4c-3.2-8.2-7.9-10.4-7.9-10.4c-6.5-4.4,0.5-4.3,0.5-4.3c7.2,0.5,10.9,7.3,10.9,7.3
		c6.4,10.9,16.7,7.7,20.7,5.9c0.6-4.6,2.5-7.7,4.5-9.5C46.7,104.5,30,98.3,30,71c0-7.8,2.8-14.1,7.3-19.1c-0.7-1.8-3.2-9,0.7-18.9
		c0,0,6-1.9,19.6,7.3c5.7-1.6,11.8-2.4,17.8-2.4c6.1,0,12.2,0.8,17.9,2.4c13.6-9.2,19.6-7.3,19.6-7.3c3.9,9.8,1.4,17.1,0.7,18.9
		c4.6,5,7.3,11.3,7.3,19.1c0,27.4-16.7,33.4-32.5,35.2c2.6,2.2,4.8,6.5,4.8,13.2c0,9.5-0.1,17.2-0.1,19.6c0,1.9,1.3,4.1,4.9,3.4
		c28.3-9.4,48.7-36.1,48.7-67.6C146.8,35.4,114.9,3.5,75.5,3.5z"/>
	<path class="st1" d="M31.2,105.8c-0.2,0.4-0.7,0.5-1.2,0.2c-0.5-0.2-0.8-0.7-0.6-1.1c0.2-0.4,0.7-0.5,1.2-0.2
		C31.1,105,31.4,105.5,31.2,105.8L31.2,105.8z M30.4,105.2"/>
	<path class="st1" d="M34.1,109c-0.3,0.3-1,0.2-1.5-0.3c-0.5-0.5-0.6-1.2-0.2-1.5c0.4-0.3,1-0.2,1.5,0.3
		C34.4,108.1,34.5,108.7,34.1,109L34.1,109z M33.4,108.3"/>
	<path class="st1" d="M36.9,113.1c-0.4,0.3-1.2,0-1.6-0.6c-0.4-0.6-0.4-1.4,0-1.7c0.4-0.3,1.1,0,1.6,0.6
		C37.4,112.1,37.4,112.8,36.9,113.1L36.9,113.1z M36.9,113.1"/>
	<path class="st1" d="M40.8,117.1c-0.4,0.4-1.2,0.3-1.8-0.3c-0.6-0.6-0.8-1.4-0.4-1.8c0.4-0.4,1.2-0.3,1.8,0.3
		C41,115.9,41.2,116.7,40.8,117.1L40.8,117.1z M40.8,117.1"/>
	<path class="st1" d="M46.1,119.4c-0.2,0.6-1,0.8-1.8,0.6c-0.8-0.2-1.3-0.9-1.2-1.5c0.2-0.6,1-0.8,1.8-0.6
		C45.7,118.2,46.3,118.8,46.1,119.4L46.1,119.4z M46.1,119.4"/>
	<path class="st1" d="M51.9,119.8c0,0.6-0.7,1.1-1.5,1.1c-0.9,0-1.5-0.5-1.6-1c0-0.6,0.7-1.1,1.5-1.1
		C51.2,118.8,51.9,119.2,51.9,119.8L51.9,119.8z M51.9,119.8"/>
	<path class="st1" d="M57.3,118.9c0.1,0.6-0.5,1.2-1.3,1.3c-0.8,0.2-1.6-0.2-1.7-0.8c-0.1-0.6,0.5-1.2,1.3-1.3
		C56.5,118,57.2,118.3,57.3,118.9L57.3,118.9z M57.3,118.9"/>
</g>
</svg>
