<?xml version="1.0" encoding="utf-8"?>
<!-- Generator: Adobe Illustrator 22.1.0, SVG Export Plug-In . SVG Version: 6.00 Build 0)  -->
<svg version="1.1" id="Capa_1" xmlns="http://www.w3.org/2000/svg" xmlns:xlink="http://www.w3.org/1999/xlink" x="0px" y="0px"
	 viewBox="0 0 225.5 326.1" style="enable-background:new 0 0 225.5 326.1;" xml:space="preserve">
<style type="text/css">
	.st0{fill:#EDB894;}
	.st1{fill:#F4C6A6;}
	.st2{opacity:0.52;fill:#6B4803;enable-background:new    ;}
	.st3{fill:#75574A;}
	.st4{fill:#84685A;}
	.st5{fill:#AA8979;}
	.st6{fill:#AF9485;}
	.st7{display:none;}
	.st8{display:inline;fill:#B59278;}
	.st9{display:inline;fill:#C1A185;}
	.st10{display:inline;fill:#F4C6A6;}
	.st11{display:inline;fill:#F9D3B9;}
	.st12{display:inline;fill:#FFFFFF;}
	.st13{display:inline;}
	.st14{fill:#00509F;}
	.st15{fill:#E79D33;}
	.st16{display:inline;fill:#06477C;}
	.st17{display:inline;fill:#E79D33;}
	.st18{display:inline;fill:#EAB60F;}
	.st19{display:inline;fill:#CE9B0D;}
	.st20{display:inline;fill:#F5BFD8;}
	.st21{display:inline;fill:#E8A7C5;}
	.st22{display:inline;fill:#960028;}
	.st23{display:inline;fill:#531D00;}
	.st24{display:inline;fill:#232326;}
	.st25{display:inline;fill:#39053A;}
	.st26{fill:#444042;}
	.st27{fill:#C8374C;}
	.st28{fill:none;stroke:#1E1E1E;stroke-linecap:round;stroke-miterlimit:10;}
	.st29{fill:#FFFFFF;}
	.st30{fill:#702E01;}
	.st31{display:inline;fill:#6B4803;}
	.st32{fill:#332C22;}
	.st33{display:inline;fill:#EAAF39;}
	.st34{display:inline;fill:#232222;}
	.st35{display:inline;fill:#412612;}
	.st36{display:none;fill:#FCDA15;}
	.st37{display:none;fill:#A0041E;}
	.st38{display:none;fill:#412612;}
	.st39{fill:#602904;}
	.st40{display:inline;fill:#602904;}
	.st41{display:none;fill:#2E2B33;}
	.st42{display:inline;fill:#2B2626;}
	.st43{display:inline;fill:#352714;}
	.st44{display:inline;fill:#211B13;}
	.st45{display:inline;fill:#CE8C06;}
	.st46{display:inline;fill:#EDA70C;}
	.st47{fill:#EDA70C;}
	.st48{fill:#E2E2E2;}
	.st49{fill:#8E5107;}
	.st50{fill:#AD7F5C;}
	.st51{fill:#159B4B;}
	.st52{fill:#3A3633;}
	.st53{fill:#211703;}
	.st54{fill:#1F8BC1;}
	.st55{fill:#CFA37C;}
	.st56{fill:#A7DD52;}
	.st57{fill:#2D2824;}
	.st58{fill:#6B4803;}
	.st59{fill:#895B12;}
	.st60{fill:#684609;}
	.st61{display:inline;fill:#692327;}
	.st62{fill:#D388C2;}
	.st63{fill:#C979BA;}
	.st64{fill:#74259E;}
	.st65{fill:#5C1A87;}
	.st66{fill:#AF412C;}
	.st67{fill:#A34228;}
	.st68{fill:#BA8888;}
	.st69{fill:#B27D7D;}
	.st70{fill:#A52B31;}
	.st71{fill:#BA3339;}
</style>
<g id="piel6_1_">
	<g id="piel6">
		<path class="st0" d="M189.5,250.5c-24.5-17.4-54.9-39.7-54.9-39.7c0-13.1,0-26.2,0-26.2l-20,0.1l-20-0.1c0,0,0,13.1,0,26.2
			c0,0-30.4,22.3-54.9,39.7l-3.4,60.7c0,0,29.8,6.8,77.3,12.6c0.3,0,1.4,0.1,1.6,0.1c47.8-5.8,77.7-12.6,77.7-12.6L189.5,250.5z"/>
		<path class="st1" d="M174.3,122.6c0.5-36.3-9-80.5-58.5-80.6l0,0h-0.1h-0.1l0,0c-49.7,0.1-59.1,44.9-58.5,81.3
			c-6.3-7.2-17.7-2.5-14.9,11.2c2.5,12.1,10.1,18.4,17,16.6c1.3,9.8,2.8,16.6,3.1,18.1c1.2,6.8,33.6,37.7,53,38.3l0,0
			c0.1,0,0.2,0,0.3,0c0.1,0,0.2,0,0.3,0l0,0c19.4-0.6,51.8-31.5,53-38.3c0.3-1.5,1.7-8.3,3.1-18c6.8,1.3,14.1-5,16.5-16.7
			C191.2,121.2,180.7,116.4,174.3,122.6z"/>
	</g>
	<g>
		<g>
			<ellipse class="st2" cx="76.6" cy="151.2" rx="1.7" ry="0.7"/>
			<ellipse class="st2" cx="83.3" cy="150.5" rx="1.7" ry="0.7"/>
			<ellipse class="st2" cx="89" cy="153.4" rx="1.7" ry="0.7"/>
			<ellipse class="st2" cx="81.6" cy="154.2" rx="1.7" ry="0.7"/>
		</g>
		<g>
			<ellipse class="st2" cx="142.7" cy="152" rx="1.7" ry="0.7"/>
			
				<ellipse transform="matrix(0.9931 -0.1175 0.1175 0.9931 -16.5815 18.7344)" class="st2" cx="150.6" cy="150" rx="1.7" ry="0.7"/>
			<ellipse class="st2" cx="156.5" cy="149.8" rx="1.7" ry="0.7"/>
			<ellipse class="st2" cx="151.3" cy="153.7" rx="1.7" ry="0.7"/>
		</g>
	</g>
</g>
<g id="piel5">
	<path class="st3" d="M189.5,250.5c-24.5-17.4-54.9-39.7-54.9-39.7c0-13.1,0-26.2,0-26.2l-20,0.1l-20-0.1c0,0,0,13.1,0,26.2
		c0,0-30.4,22.3-54.9,39.7l-3.4,60.7c0,0,29.8,6.8,77.3,12.6c0.3,0,1.4,0.1,1.6,0.1c47.8-5.8,77.7-12.6,77.7-12.6L189.5,250.5z"/>
	<path class="st4" d="M174.3,122.6c0.5-36.3-9-80.5-58.5-80.6l0,0h-0.1h-0.1l0,0c-49.7,0.1-59.1,44.9-58.5,81.3
		c-6.3-7.2-17.7-2.5-14.9,11.2c2.5,12.1,10.1,18.4,17,16.6c1.3,9.8,2.8,16.6,3.1,18.1c1.2,6.8,33.6,37.7,53,38.3l0,0
		c0.1,0,0.2,0,0.3,0c0.1,0,0.2,0,0.3,0l0,0c19.4-0.6,51.8-31.5,53-38.3c0.3-1.5,1.7-8.3,3.1-18c6.8,1.3,14.1-5,16.5-16.7
		C191.2,121.2,180.7,116.4,174.3,122.6z"/>
</g>
<g id="piel4">
	<path class="st5" d="M189.5,250.5c-24.5-17.4-54.9-39.7-54.9-39.7c0-13.1,0-26.2,0-26.2l-20,0.1l-20-0.1c0,0,0,13.1,0,26.2
		c0,0-30.4,22.3-54.9,39.7l-3.4,60.7c0,0,29.8,6.8,77.3,12.6c0.3,0,1.4,0.1,1.6,0.1c47.8-5.8,77.7-12.6,77.7-12.6L189.5,250.5z"/>
	<path class="st6" d="M174.3,122.6c0.5-36.3-9-80.5-58.5-80.6l0,0h-0.1h-0.1l0,0c-49.7,0.1-59.1,44.9-58.5,81.3
		c-6.3-7.2-17.7-2.5-14.9,11.2c2.5,12.1,10.1,18.4,17,16.6c1.3,9.8,2.8,16.6,3.1,18.1c1.2,6.8,33.6,37.7,53,38.3l0,0
		c0.1,0,0.2,0,0.3,0c0.1,0,0.2,0,0.3,0l0,0c19.4-0.6,51.8-31.5,53-38.3c0.3-1.5,1.7-8.3,3.1-18c6.8,1.3,14.1-5,16.5-16.7
		C191.2,121.2,180.7,116.4,174.3,122.6z"/>
</g>
<g id="piel3">
	<path class="st0" d="M189.5,250.5c-24.5-17.4-54.9-39.7-54.9-39.7c0-13.1,0-26.2,0-26.2l-20,0.1l-20-0.1c0,0,0,13.1,0,26.2
		c0,0-30.4,22.3-54.9,39.7l-3.4,60.7c0,0,29.8,6.8,77.3,12.6c0.3,0,1.4,0.1,1.6,0.1c47.8-5.8,77.7-12.6,77.7-12.6L189.5,250.5z"/>
	<path class="st1" d="M174.3,122.6c0.5-36.3-9-80.5-58.5-80.6l0,0h-0.1h-0.1l0,0c-49.7,0.1-59.1,44.9-58.5,81.3
		c-6.3-7.2-17.7-2.5-14.9,11.2c2.5,12.1,10.1,18.4,17,16.6c1.3,9.8,2.8,16.6,3.1,18.1c1.2,6.8,33.6,37.7,53,38.3l0,0
		c0.1,0,0.2,0,0.3,0c0.1,0,0.2,0,0.3,0l0,0c19.4-0.6,51.8-31.5,53-38.3c0.3-1.5,1.7-8.3,3.1-18c6.8,1.3,14.1-5,16.5-16.7
		C191.2,121.2,180.7,116.4,174.3,122.6z"/>
</g>
<g id="piel2" class="st7">
	<path class="st8" d="M189.5,250.5c-24.5-17.4-54.9-39.7-54.9-39.7c0-13.1,0-26.2,0-26.2l-20,0.1l-20-0.1c0,0,0,13.1,0,26.2
		c0,0-30.4,22.3-54.9,39.7l-3.4,60.7c0,0,29.8,6.8,77.3,12.6c0.3,0,1.4,0.1,1.6,0.1c47.8-5.8,77.7-12.6,77.7-12.6L189.5,250.5z"/>
	<path class="st9" d="M174.3,122.6c0.5-36.3-9-80.5-58.5-80.6l0,0h-0.1h-0.1l0,0c-49.7,0.1-59.1,44.9-58.5,81.3
		c-6.3-7.2-17.7-2.5-14.9,11.2c2.5,12.1,10.1,18.4,17,16.6c1.3,9.8,2.8,16.6,3.1,18.1c1.2,6.8,33.6,37.7,53,38.3l0,0
		c0.1,0,0.2,0,0.3,0c0.1,0,0.2,0,0.3,0l0,0c19.4-0.6,51.8-31.5,53-38.3c0.3-1.5,1.7-8.3,3.1-18c6.8,1.3,14.1-5,16.5-16.7
		C191.2,121.2,180.7,116.4,174.3,122.6z"/>
</g>
<g id="piel1" class="st7">
	<path class="st10" d="M189.3,250.5c-24.5-17.4-54.9-39.7-54.9-39.7c0-13.1,0-26.2,0-26.2l-20,0.1l-20-0.1c0,0,0,13.1,0,26.2
		c0,0-30.4,22.3-54.9,39.7L36,311.2c0,0,29.8,6.8,77.3,12.6c0.3,0,1.4,0.1,1.6,0.1c47.8-5.8,77.7-12.6,77.7-12.6L189.3,250.5z"/>
	<path class="st11" d="M174,122.6c0.5-36.3-9-80.5-58.5-80.6l0,0h-0.1h-0.1l0,0c-49.7,0.1-59.1,44.9-58.5,81.3
		c-6.3-7.2-17.7-2.5-14.9,11.2c2.5,12.1,10.1,18.4,17,16.6c1.3,9.8,2.8,16.6,3.1,18.1c1.2,6.8,33.6,37.7,53,38.3l0,0
		c0.1,0,0.2,0,0.3,0c0.1,0,0.2,0,0.3,0l0,0c19.4-0.6,51.8-31.5,53-38.3c0.3-1.5,1.7-8.3,3.1-18c6.8,1.3,14.1-5,16.5-16.7
		C191,121.2,180.4,116.4,174,122.6z"/>
</g>
<g id="ropa5" class="st7">
	<path class="st12" d="M190,250.1l-29.7-21.3c0,0-9.8,19.7-45.9,24.7c-36-5-45.9-24.7-45.9-24.7L39,250.1l-3.4,60.6
		c27.1,6.8,78.9,12.7,78.9,12.7s51.8-5.9,78.9-12.7L190,250.1z"/>
	<g class="st13">
		<path class="st14" d="M114.5,302.3l-30.9-83.8c0,0-27.5,17.5-44.7,31.6v61.4c0,0,31.9,8.3,75.5,11.9v-21.1H114.5z"/>
		<path class="st15" d="M108.2,285.2c0,0-17.4-47-19.9-57.3s6.3-17.5,6.3-17.5v-5.1c0,0-9,2.2-11.1,3.3S61,226.2,58,230
			s-2.5,7.5-2.5,7.5l37.5,34v49.7c1.4,0.2,2.8,0.3,4.2,0.5v-46.4L108.2,285.2z"/>
	</g>
	<g class="st13">
		<path class="st14" d="M114.5,302.3l30.9-83.8c0,0,27.5,17.5,44.7,31.6v61.4c0,0-31.9,8.3-75.5,11.9l-0.8-3.3L114.5,302.3z"/>
		<path class="st15" d="M171,230c-3-3.8-23.4-20.2-25.5-21.3s-11.1-3.3-11.1-3.3v5.1c0,0,8.8,7.2,6.3,17.5s-19.9,57.3-19.9,57.3
			l11.1-10v46.4c1.4-0.2,2.8-0.3,4.2-0.5v-49.7l37.5-33.9C173.5,237.5,174,233.9,171,230z"/>
	</g>
	<path class="st16" d="M190,250.1l-3.4,62.1c0,0,9.4-1.3,20.6-6.4C207.2,305.8,200.6,276.1,190,250.1z"/>
	<path class="st16" d="M39,250.1l3.3,62.1c0,0-9-1.3-20.2-6.4C22.1,305.8,28.4,276.1,39,250.1z"/>
	<path class="st17" d="M117.1,312c0.1,1-0.3,1.8-1,1.8h-3.2c-0.6,0-1.1-0.8-1-1.8l0.9-9.2c0-0.4,0.4-0.7,0.7-0.7h1.9
		c0.4,0,0.7,0.3,0.8,0.7L117.1,312z"/>
</g>
<g id="ropa6" class="st7">
	<path class="st18" d="M190.2,250.6l-50.7-36c0,0,0,23.3-24,24.7c-21.6,1.2-25.9-24.7-25.9-24.7l-50.9,36l-3.4,60.7
		c27.2,6.8,79.1,12.7,79.1,12.7s51.9-5.9,79.1-12.7L190.2,250.6z"/>
	<path class="st19" d="M190.2,250.6l-3.5,62.3c0,0,9.4-1.3,20.6-6.5C207.4,306.4,200.8,276.7,190.2,250.6z"/>
	<path class="st19" d="M38.8,250.6l3.3,62.3c0,0-9-1.3-20.3-6.4C21.8,306.4,28.2,276.7,38.8,250.6z"/>
</g>
<g id="ropa4" class="st7">
	<path class="st20" d="M190,250.6l-50.7-36c0,0,0,23.3-24,24.7c-21.6,1.2-25.9-24.7-25.9-24.7l-50.9,36l-3.4,60.7
		c27.2,6.8,79.1,12.7,79.1,12.7s51.9-5.9,79.1-12.7L190,250.6z"/>
	<path class="st21" d="M190,250.6l-3.5,62.3c0,0,9.4-1.3,20.6-6.5C207.1,306.4,200.5,276.7,190,250.6z"/>
	<path class="st21" d="M38.5,250.6l3.3,62.3c0,0-9-1.3-20.3-6.4C21.6,306.4,28,276.7,38.5,250.6z"/>
</g>
<g id="ropa3" class="st7">
	<path class="st22" d="M190,250.6l-50.7-36c0,0,0,23.3-24,24.7c-21.6,1.2-25.9-24.7-25.9-24.7l-50.9,36l-3.4,60.7
		c27.2,6.8,79.1,12.7,79.1,12.7s51.9-5.9,79.1-12.7L190,250.6z"/>
	<path class="st23" d="M190,250.6l-3.5,62.3c0,0,9.4-1.3,20.6-6.5C207.1,306.4,200.5,276.7,190,250.6z"/>
	<path class="st23" d="M38.5,250.6l3.3,62.3c0,0-9-1.3-20.3-6.4C21.6,306.4,28,276.7,38.5,250.6z"/>
</g>
<g id="ropa2" class="st7">
	<path class="st24" d="M190.2,250.3l-50.7-36c0,0,0,23.3-24,24.7c-21.6,1.2-25.9-24.7-25.9-24.7l-50.9,36L35.4,311
		c27.2,6.8,79.1,12.7,79.1,12.7s51.9-5.9,79.1-12.7L190.2,250.3z"/>
	<path class="st25" d="M190.2,250.3l-3.5,62.3c0,0,9.4-1.3,20.6-6.5C207.4,306.2,200.8,276.4,190.2,250.3z"/>
	<path class="st25" d="M38.8,250.3l3.3,62.3c0,0-9-1.3-20.3-6.4C21.8,306.2,28.2,276.4,38.8,250.3z"/>
</g>
<g id="ropa1_1_" class="st7">
	<g class="st13">
		<path class="st26" d="M190.2,251.3l-29.7-21.4c0,0-9.8,19.7-46,24.7c-36.1-5-46-24.7-46-24.7l-29.7,21.4L35.4,312
			c27.2,6.8,79.1,12.7,79.1,12.7s51.9-5.9,79.1-12.7L190.2,251.3z"/>
		<path class="st27" d="M190.2,251.3l-3.5,62.3c0,0,9.4-1.3,20.6-6.5C207.4,307.1,200.8,277.4,190.2,251.3z"/>
		<path class="st27" d="M38.5,251.3l3.5,62.3c0,0-9.4-1.3-20.6-6.5C21.3,307.1,28,277.4,38.5,251.3z"/>
	</g>
	<g class="st13">
		<g>
			<path class="st28" d="M93.7,207.5c0,0-3.8,64.9,20.7,85.2"/>
			<path class="st28" d="M135,207.5c0,0,3.8,64.9-20.7,85.2"/>
		</g>
		<g id="LDSmnm.tif_1_">
			<g>
				<path class="st29" d="M117.1,309.2c-0.4-3.1-0.9-4.5-1.3-7.6c0,0,0,0-0.1,0c-0.4,3.1-0.8,4.5-1.3,7.6c0,0,0,0-0.1,0
					c-0.4-3.1-0.9-4.5-1.3-7.6l0,0c-0.4,3.1-0.8,4.5-1.3,7.6l0,0c0-0.3-0.1-0.6-0.1-0.9c-0.4-2.9-0.8-4-1.2-6.9
					c-0.1-0.5-0.1-0.9-0.2-1.4c0-0.1-0.1-0.3-0.2-0.3c-2-1.9-2.5-4.8-1.4-7.3c1.3-2.8,4.3-4.1,7.2-3.4c2.6,0.6,4.6,2.9,4.8,5.6
					c0.1,2-0.5,3.7-2,5.1c-0.1,0.1-0.1,0.2-0.1,0.3c-0.2,1.2-0.3,2.4-0.5,3.5C117.8,306,117.4,306.7,117.1,309.2
					C117.1,309.1,117.1,309.2,117.1,309.2L117.1,309.2z M117.4,295.3c1.1,0,1.9-0.8,2-1.9c0-1.1-0.8-2-1.9-2s-1.9,0.8-2,1.9
					C115.5,294.4,116.3,295.2,117.4,295.3z M111.3,291.4c-1.1,0-1.9,0.9-1.9,2c0,1,0.9,1.9,1.9,1.9c1.1,0,1.9-0.9,1.9-1.9
					C113.2,292.3,112.3,291.4,111.3,291.4z M114.4,294.9c-0.8,0-1.5,0.6-1.5,1.4s0.6,1.5,1.5,1.5c0.8,0,1.5-0.6,1.5-1.4
					C115.8,295.6,115.2,295,114.4,294.9z"/>
				<path d="M117.4,295.3c-1.1,0-1.9-0.9-1.9-2s0.9-1.9,2-1.9s1.9,0.9,1.9,2C119.3,294.4,118.5,295.3,117.4,295.3z"/>
				<path d="M111.3,291.4c1.1,0,1.9,0.9,1.9,1.9c0,1.1-0.9,1.9-1.9,1.9s-1.9-0.9-1.9-1.9S110.2,291.4,111.3,291.4z"/>
				<path d="M114.4,294.9c0.8,0,1.5,0.7,1.4,1.5c0,0.8-0.7,1.4-1.5,1.4s-1.5-0.7-1.5-1.5C112.9,295.6,113.6,294.9,114.4,294.9z"/>
			</g>
		</g>
	</g>
</g>
<g id="cejas6" class="st7">
	<g class="st13">
		<path class="st30" d="M71,116.7c0,0,16.3-6.8,30.9,1.5c0,0,0.1-5.6-7.9-7.5C76.9,106.7,71,116.7,71,116.7z"/>
	</g>
	<g class="st13">
		<path class="st30" d="M159.8,116.7c0,0-16.3-6.8-30.9,1.5c0,0-0.1-5.6,7.9-7.5C153.8,106.7,159.8,116.7,159.8,116.7z"/>
	</g>
</g>
<g id="cejas5" class="st7">
	<path class="st31" d="M152.6,115.9c0,0-11.7-7.3-20.9-1.5C131.7,114.4,140.5,97.8,152.6,115.9z"/>
	<path class="st31" d="M78.1,114.7c0,0,11.7-7.3,20.9-1.5C99,113.2,90.2,96.6,78.1,114.7z"/>
</g>
<g id="cejas4" class="st7">
	<g class="st13">
		<path class="st32" d="M71,116.7c0,0,16.3-6.8,30.9,1.5c0,0,0.1-5.6-7.9-7.5C76.9,106.7,71,116.7,71,116.7z"/>
	</g>
	<g class="st13">
		<path class="st32" d="M159.8,116.7c0,0-16.3-6.8-30.9,1.5c0,0-0.1-5.6,7.9-7.5C153.8,106.7,159.8,116.7,159.8,116.7z"/>
	</g>
</g>
<g id="cejas3" class="st7">
	<path class="st33" d="M73.4,114.5c0,0,16.3-6.8,30.9,1.5c0,0-0.1-5-7.9-7.5S73.4,114.5,73.4,114.5z"/>
	<path class="st33" d="M157.6,114.5c0,0-16.3-6.8-30.9,1.5c0,0,0.1-5,7.9-7.5C142.5,106,157.6,114.5,157.6,114.5z"/>
</g>
<g id="cejas2" class="st7">
	<path class="st34" d="M73.4,114.5c0,0,16.3-6.8,30.9,1.5c0,0-0.1-5-7.9-7.5S73.4,114.5,73.4,114.5z"/>
	<path class="st34" d="M157.6,114.5c0,0-16.3-6.8-30.9,1.5c0,0,0.1-5,7.9-7.5C142.5,106,157.6,114.5,157.6,114.5z"/>
</g>
<g id="cejas1" class="st7">
	<path class="st35" d="M73.4,114.5c0,0,16.3-6.8,30.9,1.5c0,0-0.1-5-7.9-7.5S73.4,114.5,73.4,114.5z"/>
	<path class="st35" d="M157.6,114.5c0,0-16.3-6.8-30.9,1.5c0,0,0.1-5,7.9-7.5C142.5,106,157.6,114.5,157.6,114.5z"/>
</g>
<path id="cabello9" class="st7" d="M105,40.3c0,0-46.7-6-60.7,23.8c0.8-1.1,4.9-9.3,16.7-13.4c0,0-11.8,6.8-16.1,17.5
	c0,0-21.9,14.2-10.9,36.1c0,0-2.7-7.1,0.3-16.7c0,0-1.9,8.7,1.4,18.6c0,0-12,19.1,9.8,27.9c0,0-0.5,8.2,5.7,16.9
	c6.3,8.7,13.1,29.5,5.7,38.8c0,0,10.2-11.5,3.7-30.8c0,0,5.3,8.4,3.4,16.3c0,0,5.5-8.5-6-25.1c-11.5-16.7,1.4-31.2,8.7-33.3
	c0,0-6-3-9.8-9.3c0,0,22.4,18,44.5,23.5c0,0-20.5-7.1-28.7-18.3c0,0,13.7,14.5,36.3,15.8c0,0-26.2-16.4-30.6-39.1
	c0,0,16.9,22.4,42.1,26.5c0,0-17.2-6.3-26.5-16.9c0,0,23,17.8,46.4,17.1c0,0-14.4-8.6-20.7-16.3c0,0,21.2,18.9,41.8,21.2
	c0,0,0.1-20.9-12-41.1c0,0,12,16.1,13.9,37.2c0,0,20.2,9.3,13.4,25.1s-13.9,27.3-9,40.2c0,0-2-11.5,4.2-22.1c0,0-7.2,18.6,1.8,28.7
	c0,0-4.6-15.8,3.2-29.9c7.7-14.1,8.6-22,7.2-27.1c0,0,15.9-18,6.7-37.6c0,0,7.2,9.4,3.6,20.6c0,0,6.1-12.2-4.7-24.5
	c0,0-5.4-14.3-12.7-21.6c0,0,8.5,5.2,11.7,13.7c0,0-2.7-10.7-9.6-15c0,0,13.9-6,4.9-17.2c0,0,4.9,7.1-1.1,12c0,0,5.2-5.2-1.9-14.8
	c-7.1-9.6-15-0.3-15-0.3s-0.5-12.3-10.7-16.7c0,0,6.6,4.6,7.6,10.7c0,0-5.5-9.7-17.2-9c0,0-4.1-10.4-23.2-9.6c0,0,8.5-2.7,16.7,0.5
	c0,0-14.8-7.4-29.2,1.1C95.7,32.7,105,40.3,105,40.3z"/>
<path id="cabello8" class="st36" d="M105,40.3c0,0-46.7-6-60.7,23.8c0.8-1.1,4.9-9.3,16.7-13.4c0,0-11.8,6.8-16.1,17.5
	c0,0-21.9,14.2-10.9,36.1c0,0-2.7-7.1,0.3-16.7c0,0-1.9,8.7,1.4,18.6c0,0-12,19.1,9.8,27.9c0,0-0.5,8.2,5.7,16.9
	c6.3,8.7,13.1,29.5,5.7,38.8c0,0,10.2-11.5,3.7-30.8c0,0,5.3,8.4,3.4,16.3c0,0,5.5-8.5-6-25.1c-11.5-16.7,1.4-31.2,8.7-33.3
	c0,0-6-3-9.8-9.3c0,0,22.4,18,44.5,23.5c0,0-20.5-7.1-28.7-18.3c0,0,13.7,14.5,36.3,15.8c0,0-26.2-16.4-30.6-39.1
	c0,0,16.9,22.4,42.1,26.5c0,0-17.2-6.3-26.5-16.9c0,0,23,17.8,46.4,17.1c0,0-14.4-8.6-20.7-16.3c0,0,21.2,18.9,41.8,21.2
	c0,0,0.1-20.9-12-41.1c0,0,12,16.1,13.9,37.2c0,0,20.2,9.3,13.4,25.1s-13.9,27.3-9,40.2c0,0-2-11.5,4.2-22.1c0,0-7.2,18.6,1.8,28.7
	c0,0-4.6-15.8,3.2-29.9c7.7-14.1,8.6-22,7.2-27.1c0,0,15.9-18,6.7-37.6c0,0,7.2,9.4,3.6,20.6c0,0,6.1-12.2-4.7-24.5
	c0,0-5.4-14.3-12.7-21.6c0,0,8.5,5.2,11.7,13.7c0,0-2.7-10.7-9.6-15c0,0,13.9-6,4.9-17.2c0,0,4.9,7.1-1.1,12c0,0,5.2-5.2-1.9-14.8
	c-7.1-9.6-15-0.3-15-0.3s-0.5-12.3-10.7-16.7c0,0,6.6,4.6,7.6,10.7c0,0-5.5-9.7-17.2-9c0,0-4.1-10.4-23.2-9.6c0,0,8.5-2.7,16.7,0.5
	c0,0-14.8-7.4-29.2,1.1C95.7,32.7,105,40.3,105,40.3z"/>
<path id="cabello7" class="st37" d="M198.8,39.2c-25-28.6-46.2-8.8-45.4,15.3c-11.1-8.6-24.3-12.8-36.9-12.9l0,0H116h-0.1h-0.2h-0.1
	h-0.9l0,0c-12.7,0.2-25.9,4.5-37,13.3c1-24.2-20.2-44.4-45.4-15.6C8.2,66.8,29,93.9,55.5,88.7c-3.6,11.9-5.1,26.1-3.4,42.9
	c0.5,4.4,2.3,7.7,3.2,9.1c-2.4,25.2-5.6,42,2.1,55.7c-0.7-12.5,3.8-33.9,7.2-54.1s1.7-24.5,1.7-24.5c8.4-6.7,21.3-0.8,26.9,2.7
	c5.5,3.5,18.5,6.5,31.4,1.2c-0.5-2.5,1-21.7,1-21.7s2.6,18.5,2.4,21.2c13.2-0.8,31.7-7,34.8-3c4.6,17.2,4.8,37.9,4.8,37.9
	c0.2,8.2,1,31.7,4.6,35.7c1-13.5,1.7-35.7,2.2-53.9c0.5,1.5,1,2.7,1.8,3.5c0,0,3-3.8,3.7-9.8c1.6-16.8,0.2-31-3.4-42.8
	C202.4,93.6,222.8,66.6,198.8,39.2z"/>
<path id="cabello6" class="st38" d="M198.8,39.2c-25-28.6-46.2-8.8-45.4,15.3c-11.1-8.6-24.3-12.8-36.9-12.9l0,0H116h-0.1h-0.2h-0.1
	h-0.9l0,0c-12.7,0.2-25.9,4.5-37,13.3c1-24.2-20.2-44.4-45.4-15.6C8.2,66.8,29,93.9,55.5,88.7c-3.6,11.9-5.1,26.1-3.4,42.9
	c0.5,4.4,2.3,7.7,3.2,9.1c-2.4,25.2-5.6,42,2.1,55.7c-0.7-12.5,3.8-33.9,7.2-54.1s1.7-24.5,1.7-24.5c8.4-6.7,21.3-0.8,26.9,2.7
	c5.5,3.5,18.5,6.5,31.4,1.2c-0.5-2.5,1-21.7,1-21.7s2.6,18.5,2.4,21.2c13.2-0.8,31.7-7,34.8-3c4.6,17.2,4.8,37.9,4.8,37.9
	c0.2,8.2,1,31.7,4.6,35.7c1-13.5,1.7-35.7,2.2-53.9c0.5,1.5,1,2.7,1.8,3.5c0,0,3-3.8,3.7-9.8c1.6-16.8,0.2-31-3.4-42.8
	C202.4,93.6,222.8,66.6,198.8,39.2z"/>
<g id="cabello5" class="st7">
	<g class="st13">
		<g>
			<g>
				<path class="st30" d="M111.7,63.6c0,0,5.6,19.8-12.9,23c0,0,8.4-2.4,10.1-10.8c0,0-7.4,7.2-20.8,7.6
					c-13.3,0.4-24,10.1-19.5,17.4c4.4,7.3,8.3,16.4-4.3,22.7c0,0,6.3-4.5,5.9-8.4c0,0-1.4,3-8.7,8.4c-5.2,3.8-3.8,13.6-1.4,15.3
					c9.4,6.7,24.7,17.4,9.4,33.4c0,0,5.6-7.7,3.5-13.6c0,0-2.8,8.4-12.2,13.2c-9.4,4.9-7,18.8,8,22.3c0,0-5.6,1-12.2-3.8
					c0,0,2.6,6.5,15,9.7c12.5,3.2,10,15.1,0.8,18.5c-9.2,3.5-0.5,19.7,15,21.3c0,0-7.1,2.3-16.5-5.3c0,0,4.2,8,15.7,8.4
					c0,0,5.2,11.5-9.4,15.3S53.1,254,54.5,243c1.4-10.9-9.2-4.5-16.7-5.7c-7.5-1.3-22-5-15.2-16.9c0,0-7.8,7.2,0.5,15.6
					c0,0-14.6-8.7-2.1-21.2s6.6-18.7-2.6-22.1c-9.2-3.3-10.3-14.1-0.9-21.5c9.4-7.3,4.9-18.8-5.6-24.7c-10.4-5.9-13.2-31.2,3-38.2
					c0,0-11.4,1.3-13.1,13.9c0,0-1.4-14.3,16-18.5s19.2-16.4,16-26.5c-3.1-10.1-6.2-28.8,19.9-31.1s19.8-8.3,24.7-14.5
					c4.9-6.3,29.2-16.6,36.2,7c0,0-3.1-23.4-30.3-14.3c0,0,21.2-11.1,33.1,8c0,0,12.2-12.4,31-1.2c18.8,11.3,10.8,14.4,31,14.4
					S202,64,196.8,75.1c0,0,4.2-15.7-4.2-20.9c0,0,6.6,7,0.4,21.6c-6.3,14.6,12.1,29.8,19.8,30.8c7.7,0.9,16.7,25.3,3.8,38.2
					c0,0,9.1-15.7,2.1-23.3c0,0,2.1,18.1-9.8,27.9c-11.8,9.7-2.4,17.1,1.8,21.1s14.6,14.4,1,23.8c0,0,8-7.3,2.8-13.6
					c0,0,3.5,9.3-9.4,11.9c-12.9,2.7-17.6,14.4-3.3,20.6c0,0-10.3-0.5-11.4-11.6c0,0-3.8,11.1,13.9,14.3
					c17.8,3.1,6.6,28.5-11.5,20.9c-18.1-7.7-15.3,3.1-14.6,7c0.7,3.8-3.1,13.6-16.4,11.5c0,0,11.7-0.3,13.2-8.4
					c0,0-10.3,10.2-23.3,4.2c-13-6-16.4-15.7-7-22.6c0,0-9.2,4.3-7.7,10.4c0,0-1.7-11.5,12.9-15.7c14.6-4.2,21.9-14.7,10.9-23.4
					c-10.9-8.7-8.2-16.4-3-19.5c0,0-10.4,3.5-3.8,15c0,0-10.8-14.3,7.7-19.5s23.3-20.1,14.6-24.7c-8.7-4.6-14.6-10.4-6.6-21.9
					c0,0-9.4,6.6-4.2,18.1c0,0-9.3-9.3,5.2-23c6.3-5.9-1.3-34-18.8-39s-34.5-3.5-35.2-13.9c0,0-5.9,10.8,33.1,15.3
					C150.3,86.6,108.5,87.7,111.7,63.6z"/>
			</g>
		</g>
		<path class="st39" d="M70,228.7c-2.2-4.3-1.7-8.5,2.5-10.1c9.2-3.5,11.7-15.3-0.8-18.5s-15-9.7-15-9.7c6.6,4.9,12.2,3.8,12.2,3.8
			c-15-3.5-17.4-17.4-8-22.3c0.8-0.4,1.5-0.8,2.1-1.2c3.1,6,17.2,20,31.7,28.9c0,3.5,0,7.4,0,11.2C94.6,210.8,83.9,218.7,70,228.7z"
			/>
		<path class="st39" d="M134.6,210.8c0-3.4,0-6.8,0-9.9c5.9-3.4,11.8-7.7,17-12.1c0.7,3.7,2.9,6.5,2.9,6.5c-1.6-2.8-2.2-5.2-2.2-7.1
			c0.5-0.4,1-0.9,1.5-1.3c-0.4,3.6,1.4,8.1,7.5,12.9c10.7,8.5,4,18.8-10.1,23.1C141.4,215.8,134.6,210.8,134.6,210.8z"/>
	</g>
	<path class="st40" d="M165.8,174.5c1.8-2.3,3-4.2,3.2-5.4c0.3-1.5,1.7-8.3,3.1-18c1.5,0.3,3,0.2,4.5-0.3c0.1,0,0.1,0.1,0.2,0.1
		C184.8,155.3,181.2,168.5,165.8,174.5z"/>
</g>
<path id="cabello4" class="st41" d="M201.7,85.9c0-3.9-3.2-7.1-7.1-7.1c-0.3,0-0.6,0.1-0.9,0.1c4.7-2,7.9-6.7,7.9-12.2
	c0-3.8-1.6-7.1-4-9.5c-1-1-1.7-2.4-1.4-3.8c0.1-0.7,0.2-1.5,0.2-2.3c0-6.4-4.3-11.5-9.5-11.5c-0.8,0-1.6,0.2-2.3,0.4
	c-0.4-0.7-0.8-1.3-1.2-1.8c0.4-1.4,0.6-3,0.6-4.6c0-8.5-5.3-15.4-11.8-15.4c-0.3,0-0.6,0-1,0.1c-2.1,0.2-4.1-0.9-4.9-2.9
	c-2.2-5.6-7-9.4-12.7-9.4c-2.2,0-4.2,0.6-6,1.6c-1.2,0.6-2.5,0.7-3.7,0.1c-2-1-4.5-1.6-7.1-1.6c-2.1,0-4,0.4-5.8,1.1
	c-1.7,0.7-3.6,0.2-4.8-1.1c-1.7-1.8-3.9-3.3-6.3-4.2c-1-0.4-2.1-0.4-3.1,0c-2.5,0.9-4.6,2.4-6.3,4.2c-1.2,1.3-3.1,1.7-4.7,1.1
	c-1.8-0.7-3.7-1.1-5.9-1.1c-2.6,0-5,0.6-7,1.6c-1.2,0.6-2.6,0.6-3.8-0.1c-1.8-1-3.8-1.6-6-1.6c-5.6,0-10.5,3.8-12.6,9.3
	c-0.8,2-2.8,3.3-4.9,3c-0.3,0-0.6-0.1-0.9-0.1c-6.6,0-11.8,6.9-11.8,15.4c0,1.6,0.2,3.1,0.6,4.5c0,0,0,0,0,0.1
	c-0.4,0.5-0.8,1.1-1.2,1.8c-0.7-0.2-1.5-0.4-2.3-0.4c-5.3,0-9.5,5.2-9.5,11.5c0,0.8,0.1,1.6,0.2,2.3c0.2,1.4-0.4,2.7-1.4,3.7
	c-2.5,2.4-4.1,5.8-4.1,9.6c0,5.5,3.3,10.1,7.9,12.2c-0.3,0-0.6-0.1-0.9-0.1c-3.9,0-7.1,3.2-7.1,7.1c0,1.6,0.5,3,1.4,4.2
	c1.1,1.5,1.2,3.5,0.2,5c-1,1.4-1.5,3-1.5,4.7c0,2,0.7,3.8,2,5.3c1.1,1.4,1.7,3.3,0.9,4.9c-0.3,0.7-0.5,1.5-0.5,2.4
	c0,3.5,3.2,6.4,7.1,6.4c0.3,0,0.6-0.1,0.9-0.1c-0.5,1.1-0.9,2.3-0.9,3.6c0,5,4.7,9,10.5,9c0.3,0,0.6,0,0.8,0
	c0.2,1.8,0.3,3.5,0.8,4.7c2.1,5.3,3.1-2.9,3.1-2.9s0,0,0-0.1c0.2-1.5,2.6-16,5.7-20.7l0,0c18.1-23.9,46.2-35.9,70.6-41.8
	C146.4,68,157,73.3,161.1,83c5.5,12.9,9.7,27.5,9.7,30.7c0,5.8-2.7,22.9-2.7,22.9s0.1,0.1,0.2,0.1c0.7,0.5,3.4,1.9,5.3-1.2
	c1.4-0.6,2.7-1.5,3.6-2.6c0.9-1,2.1-1.6,3.4-1.4c0.4,0,0.8,0.1,1.1,0.1c5.8,0,10.5-4,10.5-9c0-1.3-0.3-2.5-0.9-3.6
	c0.3,0,0.6,0.1,0.9,0.1c3.9,0,7.1-2.8,7.1-6.4c0-0.8-0.2-1.6-0.5-2.4c-0.7-1.5-0.6-3.3,0.6-4.4c1.5-1.5,2.4-3.5,2.4-5.7
	c0-1.7-0.5-3.3-1.5-4.6c-1.1-1.6-1-3.6,0.1-5.2C201.2,88.8,201.7,87.4,201.7,85.9z"/>
<g id="cabello3" class="st7">
	<path class="st42" d="M194.6,69.1c-7.3-12.6-1-19.6-18.1-18.1s-23.7-9.6-23.7-9.6C136.1,12.2,100,18.5,100,18.5
		c12,0.4,25.3,9.3,25.3,9.3c-66-11.4-64.2,24.3-64.2,24.3c3.2-16.2,18.3-18.8,18.3-18.8c-10.1,3-30.2,27-43.6,32.5
		c-17.5,7.2-21.4,45.4-21.3,55.4c0.1,16.4,16.6,58.8,43.6,54.6c0,0-14,1.3-18.2-8.6c0,0,16.2,8,22.7,3.9c-2.9-6.2-14.6-24.6-5.9-38
		c12.3-18.9,65.8-57.6,65.8-57.6c-9.8,12.8,4.2-1.8,22.9-0.2c30.2,25.2,38.4,78.4,33.7,83.2c0,0-8.4,8.8-14,16.7
		c1.9-0.1,3.2-0.6,5.3,0c10.1,2.8,22.5,0.1,26.4-11.1c0,0-1.3,8.8-11.8,10.7c5.8-0.9,12.8-4.1,15-13.8
		C212.3,106.3,194.6,69.1,194.6,69.1z"/>
	<path class="st13" d="M58.9,151.3h-4.5c0,0,2.4,15.9,8.2,19.7L58.9,151.3z"/>
	<path class="st13" d="M180.3,149c0,0-4.8,3.6-8.6,2.4l-3.7,19.9l11.2-13C179.2,158.4,182.5,155.7,180.3,149z"/>
</g>
<g id="cabello2" class="st7">
	<path class="st43" d="M201.6,105.5c-2.5-51-40.9-82.8-86.3-82.6c-44.7,0.2-80.1,31-83.3,80.7c-0.7,6.8-0.8,11.5-0.8,11.5
		c-0.1,0-0.2,0.6-0.2,1.8c0.4,9.9-0.2,33.1-4,45.8s14.7,53.6,20.1,61.7c4.8,7-4.6,18.3-4.6,18.3s7.6-0.4,10.6-11.6
		c0,0,0-0.1,0.1-0.1c2.3,6.1,8.4,13,2.2,35.4c-2,7.1,8,23.4,8,23.4c1.9-2.6,4-13.3,6-25.3c2.9-2.8,9-9.4,8.7-15.7
		c6.2,18.7-8.7,27-8.7,27s7.2,0,12.9-6c5.7-6.1,16.2-16.4,6-40.3c-2.2-5.2-6.8-10.5-13.3-18.2s-15.3-32.7-16.4-44.2
		c-0.2-2-0.4-8.1-0.7-15.6l0,0c-0.1-3.8-0.3-7.9-0.4-12c1.3-3.9,2.9-10.6,4.4-22.5c5.1-39,7.8-45.3,16.8-53.1c9.7-8.5,12,0,23.5,7.5
		c13,8.5,19.3,4.3,33.4-6.8c21.6-17,25.6,35,35.6,61.9c0.3,0.8,0.5,1.5,0.8,2.2c0.4,4.7,0.7,9.8,0.7,13.3l0,0
		c-0.2,11.4,0.1,22-0.2,25.8c-1.1,11.5-9.7,35.3-16.2,43.1c-6.5,7.7-11.8,14.5-14.5,19.4c-6.1,11.2-4.7,17-4.5,20
		c1.5,20.9,11.4,23.6,11.4,23.6s-11.5-9.8,3.7-25c3.2-3.2,5.1-5.7,6.1-7.7c0.1,0.8,0.3,1.6,0.6,2.5c1.3,3.3,5.2,8,5.2,11.6
		c0,7.4-1.6,10.8-1.6,10.8s2.1-2.4,4.6-5.9c0,1,0,1.9,0,2.7c1.3,17.3,6.3,39.7,6.3,39.7s15.4-25.9,13-36.4
		c-1.2-5.2-1.9-9.7-2.1-13.6c9.6,4.2,20.7-3,20.7-3c-10.9,1.4-15.5-6.2-17.4-15.3c5.2-10.2,15-14.5,18.2-27.6
		C209.6,191.1,210,146.2,201.6,105.5z"/>
	<path class="st44" d="M171.6,151.4l-3.1,17.9c0,0-6.7,14.7-34.4,31.7v9.9l13.8,10.1c0,0,34.1-26.7,24.7-69.5
		C172.6,151.2,171.9,151.5,171.6,151.4z"/>
	<path class="st44" d="M57.9,151.5l0.9-0.1l3,17.6c0,0,2.8,7.5,13.7,16.8c0,0,11.8,10.4,18.6,14.2v11l-12,8.8
		C82.1,219.8,55.9,203.7,57.9,151.5z"/>
</g>
<g id="cabello1" class="st7">
	<path class="st45" d="M59.2,151.1c0,0,2.4,15.1,2.9,17s0.7,3,2.4,5.1s5.4,8.6,30.1,26.4v11.2l-50.4,36.5l6.3-66.6
		c0,0,3.4,4,11.4,6.7c0,0,2.2,0.7,5,1.1c0,0-17-4.2-13.2-30.8l1.1-6.6C54.7,151.1,56.8,151.7,59.2,151.1z"/>
	<path class="st46" d="M68.9,41.4c0,0,24.8,27.7,3.6,47.7c-10.9,10.3-17.1,31.9-12.2,41s-5.1,8.2-7.1,31.3s13.6,27.1,13.6,27.1
		s-25.5-2.2-25-32s-3.1-30.4-5.5-41.5C33.9,103.8,35.2,49.1,68.9,41.4z"/>
	<g class="st13">
		<path class="st47" d="M199.4,151.4c-10.9-16.9-3.2-39.3-5.7-54.9C188.6,64.9,154-12.8,68.9,41.4c0,0,6.3,45.1,51,55.1
			s44,18.7,47.3,48c1.5,13.4,12.2,22.5,7.1,31c-11.1,18.6-25,27.4-18.4,41.4c7.2,15.2,14.1,25.6,8.1,36.4
			c-5.3,9.7,5.7,15.3,6.8,21.7c0.2-4,1.1-12.3,5.4-15.5c5.8-4.4,21-15.9,10.3-38.1c-3.4-7,14.5-20.9,17.4-25.8
			C210,185.5,209.6,167,199.4,151.4z"/>
		<path class="st47" d="M170.7,277.3c0.2-0.8,0.2-1.5,0-2.3C170.7,276.4,170.7,277.3,170.7,277.3z"/>
	</g>
	<path class="st46" d="M84.7,192.4c0,0-14.3,18.1-5.5,33.4s3,19.6-4.1,29.8s4,12.3,4.1,16.8S76,283.3,74,283.6c0,0,1.2-7.2,0.2-10.2
		s-15.2-10-6.2-22.9s-10-7.1-9.7-27.4s0.2-29.8,12.5-42.5L84.7,192.4z"/>
	<path class="st45" d="M134.6,200.9v9.9l28.1,20.4c0,0-4.6-8.3-7.3-22.3c-1.8-9.5,12.3-22.2,12.3-22.2s16.6-15.5,3.4-29.5l-2.2,11.9
		C169,169.2,167,178.6,134.6,200.9z"/>
</g>
<g id="ojos8" class="st7">
	<g id="ojos6_1_" class="st13">
		<path d="M72.8,121.4"/>
		<g>
			<g>
				<path class="st29" d="M129.1,128.1c0,0-1.1,13.6,15,13.4c13.7-0.2,12.9-18,12.9-18S142.1,117.2,129.1,128.1z"/>
				<path class="st48" d="M156.8,127.1c0,0-12.7-5.4-27.5,3.9l-0.4-3c0,0,14.9-9.3,28.7-4.1L156.8,127.1z"/>
				
					<ellipse transform="matrix(1 -3.877448e-03 3.877448e-03 1 -0.5123 0.5543)" class="st49" cx="142.7" cy="132.4" rx="8.3" ry="9.4"/>
				
					<ellipse transform="matrix(0.9968 -8.049493e-02 8.049493e-02 0.9968 -9.8095 12.0787)" class="st29" cx="144.9" cy="127.7" rx="1.7" ry="2.1"/>
				<path d="M157.8,122.9c0.3-0.1,0.7,0,1.2-0.1s0.9-0.2,1.4-0.4c0.5-0.1,1-0.3,1.5-0.5h0.1c0,0,0.1,0.1,0,0.1c-0.3,0.4-0.7,0.7-1,1
					c-0.2,0.2-0.4,0.3-0.6,0.5c0.1,0,0.1,0,0.2,0l1.5-0.1l0,0h0.1c0.1,0,0.2,0.1,0.2,0.3c-0.2,0.5-0.4,0.8-0.7,1.2
					c-0.3,0.4-0.6,0.7-1,1.1l-0.1,0.1c0.2,0.4,0.3,0.9,0,1.4c-0.6,1.2-1.3,2.3-1.9,3.4c-0.7,1.1-1.4,2.2-2.2,3.3s-1.6,2.1-2.6,3.1
					c-0.5,0.5-1,0.9-1.6,1.3c-0.6,0.4-1.4,0.7-2.1,0.5c0.7,0,1.3-0.4,1.8-0.8c0.5-0.4,0.8-1,1.2-1.5c0.7-1.1,1.2-2.2,1.6-3.3
					c0.4-1.2,0.8-2.3,1.2-3.5c0.3-1.2,0.7-2.4,0.9-3.5c0-0.1,0.1-0.3,0.1-0.4s0.1-0.1,0.1-0.2c-2.4-1-13.9-4.9-27.9,2.7l-0.2-1.3
					C128.8,127.4,140.7,117.4,157.8,122.9z"/>
				<path class="st50" d="M130,124.7c0.1-0.2,0.4-0.4,0.6-0.5c0.2-0.1,0.5-0.3,0.7-0.4c0.5-0.3,1-0.5,1.5-0.7c0.9-0.6,1.9-1,2.9-1.5
					c2-0.9,4.1-1.5,6.2-1.9c2.1-0.4,4.3-0.5,6.5-0.4c1.1,0.1,2.2,0.2,3.2,0.4c1.1,0,2.2,0.2,3.3,0.3c-1-0.5-2.1-0.9-3.1-1.3
					c-1.1-0.2-2.2-0.3-3.3-0.4c-2.2-0.1-4.5,0-6.7,0.4s-4.4,1.1-6.4,2c-1,0.4-2,1-3,1.5c-0.4,0.4-0.9,0.7-1.3,1.1
					C130.7,123.8,130.2,124.2,130,124.7z"/>
			</g>
		</g>
		<g>
			<g>
				<path class="st29" d="M102.9,128.1c0,0,1.1,13.6-15,13.4c-13.7-0.2-12.9-18-12.9-18S89.9,117.2,102.9,128.1z"/>
				<path class="st48" d="M75.1,127.4c0,0,12.7-5.4,27.5,3.9l0.4-3c0,0-14.9-9.3-28.7-4.1L75.1,127.4z"/>
				
					<ellipse transform="matrix(3.877448e-03 -1 1 3.877448e-03 -43.3526 221.185)" class="st49" cx="89.3" cy="132.4" rx="9.4" ry="8.3"/>
				
					<ellipse transform="matrix(8.049493e-02 -0.9968 0.9968 8.049493e-02 -47.1718 204.2127)" class="st29" cx="87.1" cy="127.7" rx="2.1" ry="1.7"/>
				<path d="M74.2,122.9c-0.3-0.1-0.7,0-1.2-0.1s-0.9-0.2-1.4-0.4c-0.5-0.1-1-0.3-1.5-0.5H70c0,0-0.1,0.1,0,0.1c0.3,0.4,0.7,0.7,1,1
					c0.2,0.2,0.4,0.3,0.6,0.5c-0.1,0-0.1,0-0.2,0l-1.5-0.1l0,0h-0.1c-0.1,0-0.2,0.1-0.2,0.3c0.2,0.5,0.4,0.8,0.7,1.2
					c0.3,0.4,0.6,0.7,1,1.1l0.1,0.1c-0.2,0.4-0.3,0.9,0,1.4c0.6,1.2,1.3,2.3,1.9,3.4c0.7,1.1,1.4,2.2,2.2,3.3
					c0.8,1.1,1.6,2.1,2.6,3.1c0.5,0.5,1,0.9,1.6,1.3c0.6,0.4,1.4,0.7,2.1,0.5c-0.7,0-1.3-0.4-1.8-0.8c-0.5-0.4-0.8-1-1.2-1.5
					c-0.7-1.1-1.2-2.2-1.6-3.3c-0.4-1.2-0.8-2.3-1.2-3.5c-0.3-1.2-0.7-2.4-0.9-3.5c0-0.1-0.1-0.3-0.1-0.4s-0.1-0.1-0.1-0.2
					c2.4-1,13.9-4.9,27.9,2.7l0.2-1.3C103.2,127.4,91.3,117.4,74.2,122.9z"/>
				<path class="st50" d="M102,124.7c-0.1-0.2-0.4-0.4-0.6-0.5s-0.5-0.3-0.7-0.4c-0.5-0.3-1-0.5-1.5-0.7c-0.9-0.6-1.9-1-2.9-1.5
					c-2-0.9-4.1-1.5-6.2-1.9s-4.3-0.5-6.5-0.4c-1.1,0.1-2.2,0.2-3.2,0.4c-1.1,0-2.2,0.2-3.3,0.3c1-0.5,2.1-0.9,3.1-1.3
					c1.1-0.2,2.2-0.3,3.3-0.4c2.2-0.1,4.5,0,6.7,0.4s4.4,1.1,6.4,2c1,0.4,2,1,3,1.5c0.4,0.4,0.9,0.7,1.3,1.1
					C101.3,123.8,101.8,124.2,102,124.7z"/>
			</g>
		</g>
		<g>
			<path d="M157.4,137.3c-0.5-0.1-0.9-0.2-1.4-0.2s-0.9,0.1-1.4,0.2c-0.4,0.1-0.8,0.4-1.3,0.5c-0.4,0.1-0.9,0.3-1.4,0.3h-0.1l0,0
				c0.2-0.5,0.6-0.9,1.1-1.2c0.4-0.3,1-0.3,1.5-0.4C155.5,136.4,156.5,136.6,157.4,137.3C157.4,137.2,157.4,137.2,157.4,137.3
				L157.4,137.3z"/>
		</g>
		<g>
			<path d="M153.4,137.2c-0.6,0.8-1.2,1.4-2,2.1c-0.8,0.5-1.6,1-2.5,1.4c-1.7,0.8-3.6,1.4-5.5,1.6c-1.9,0.2-3.9,0-5.7-0.7
				c-0.4-0.2-0.9-0.3-1.3-0.5l-1.3-0.7c-0.4-0.3-0.7-0.7-1-1s-0.6-0.7-0.9-1.1c0.9,0.4,1.6,0.9,2.5,1.2l1.2,0.7
				c0.4,0.2,0.8,0.3,1.2,0.5c1.7,0.6,3.5,0.8,5.3,0.6s3.5-0.7,5.2-1.5c0.8-0.4,1.6-0.8,2.4-1.3C151.7,138.1,152.6,137.7,153.4,137.2
				z"/>
		</g>
	</g>
	<g class="st13">
		<g>
			<path d="M148,152c-13.1,0-23.7-6.1-23.7-18.1c0-13.5,13.5-15,23.7-15s23.7,1.6,23.7,15C171.7,145.9,161.1,152,148,152z
				 M148,121.6c-14.8,0-21.1,3.7-21.1,12.4c0,10.5,9.5,15.5,21.1,15.5s21.1-4.9,21.1-15.5C169.1,125.3,162.8,121.6,148,121.6z"/>
		</g>
		<path d="M161.3,120.5c3.3,0.8,9.3,1,11,1s2.6,0.2,2.6,1s0,3.3,0,3.8s-0.1,1-1,1c-0.9,0.1-1.4,0.5-1.4,2.5s-0.3,6.8-1.8,10.2
			c0,0,0.4-10.1-2.2-13.5C165.2,122.2,161.3,120.5,161.3,120.5z"/>
		<g>
			<path d="M59.9,134c0-13.5,13.5-15,23.7-15s23.7,1.6,23.7,15c0,11.9-10.6,18.1-23.7,18.1C70.5,152,59.9,145.9,59.9,134z M62.5,134
				c0,10.5,9.4,15.5,21.1,15.5c11.6,0,21.1-4.9,21.1-15.5c0-8.7-6.3-12.4-21.1-12.4S62.5,125.3,62.5,134z"/>
		</g>
		<path d="M70.2,120.5c-3.3,0.8-9.3,1-11,1s-2.6,0.2-2.6,1s0,3.3,0,3.8s0.1,1,1,1c0.9,0.1,1.4,0.5,1.4,2.5s0.3,6.8,1.8,10.2
			c0,0-0.4-10.1,2.2-13.5C66.3,122.2,70.2,120.5,70.2,120.5z"/>
		<path d="M121.5,128.1c-0.8,0-3.9,0-5.7,0c-1.9,0-5,0-5.7,0c-0.8,0-4-0.6-4.9-1.8l2,9.5c1.5-3.1,6.2-4,8.7-4s7.1,0.9,8.6,4l2-9.5
			C125.5,127.5,122.3,128.1,121.5,128.1z"/>
	</g>
</g>
<g id="ojos7" class="st7">
	<path class="st13" d="M72.8,121.4"/>
	<g class="st13">
		<g>
			<path class="st29" d="M129.1,128.1c0,0-1.1,13.6,15,13.4c13.7-0.2,12.9-18,12.9-18S142.1,117.2,129.1,128.1z"/>
			<path class="st48" d="M156.8,127.1c0,0-12.7-5.4-27.5,3.9l-0.4-3c0,0,14.9-9.3,28.7-4.1L156.8,127.1z"/>
			
				<ellipse transform="matrix(1 -3.877448e-03 3.877448e-03 1 -0.5123 0.5543)" class="st51" cx="142.7" cy="132.4" rx="8.3" ry="9.4"/>
			
				<ellipse transform="matrix(0.9968 -8.049493e-02 8.049493e-02 0.9968 -9.8095 12.0787)" class="st29" cx="144.9" cy="127.7" rx="1.7" ry="2.1"/>
			<path d="M157.8,122.9c0.3-0.1,0.7,0,1.2-0.1s0.9-0.2,1.4-0.4c0.5-0.1,1-0.3,1.5-0.5h0.1c0,0,0.1,0.1,0,0.1c-0.3,0.4-0.7,0.7-1,1
				c-0.2,0.2-0.4,0.3-0.6,0.5c0.1,0,0.1,0,0.2,0l1.5-0.1l0,0h0.1c0.1,0,0.2,0.1,0.2,0.3c-0.2,0.5-0.4,0.8-0.7,1.2
				c-0.3,0.4-0.6,0.7-1,1.1l-0.1,0.1c0.2,0.4,0.3,0.9,0,1.4c-0.6,1.2-1.3,2.3-1.9,3.4c-0.7,1.1-1.4,2.2-2.2,3.3s-1.6,2.1-2.6,3.1
				c-0.5,0.5-1,0.9-1.6,1.3c-0.6,0.4-1.4,0.7-2.1,0.5c0.7,0,1.3-0.4,1.8-0.8c0.5-0.4,0.8-1,1.2-1.5c0.7-1.1,1.2-2.2,1.6-3.3
				c0.4-1.2,0.8-2.3,1.2-3.5c0.3-1.2,0.7-2.4,0.9-3.5c0-0.1,0.1-0.3,0.1-0.4s0.1-0.1,0.1-0.2c-2.4-1-13.9-4.9-27.9,2.7l-0.2-1.3
				C128.8,127.4,140.7,117.4,157.8,122.9z"/>
			<path class="st50" d="M130,124.7c0.1-0.2,0.4-0.4,0.6-0.5c0.2-0.1,0.5-0.3,0.7-0.4c0.5-0.3,1-0.5,1.5-0.7c0.9-0.6,1.9-1,2.9-1.5
				c2-0.9,4.1-1.5,6.2-1.9c2.1-0.4,4.3-0.5,6.5-0.4c1.1,0.1,2.2,0.2,3.2,0.4c1.1,0,2.2,0.2,3.3,0.3c-1-0.5-2.1-0.9-3.1-1.3
				c-1.1-0.2-2.2-0.3-3.3-0.4c-2.2-0.1-4.5,0-6.7,0.4s-4.4,1.1-6.4,2c-1,0.4-2,1-3,1.5c-0.4,0.4-0.9,0.7-1.3,1.1
				C130.7,123.8,130.2,124.2,130,124.7z"/>
		</g>
	</g>
	<g class="st13">
		<g>
			<path class="st29" d="M102.9,128.1c0,0,1.1,13.6-15,13.4c-13.7-0.2-12.9-18-12.9-18S89.9,117.2,102.9,128.1z"/>
			<path class="st48" d="M75.1,127.4c0,0,12.7-5.4,27.5,3.9l0.4-3c0,0-14.9-9.3-28.7-4.1L75.1,127.4z"/>
			
				<ellipse transform="matrix(3.877448e-03 -1 1 3.877448e-03 -43.3526 221.185)" class="st51" cx="89.3" cy="132.4" rx="9.4" ry="8.3"/>
			
				<ellipse transform="matrix(8.049493e-02 -0.9968 0.9968 8.049493e-02 -47.1718 204.2127)" class="st29" cx="87.1" cy="127.7" rx="2.1" ry="1.7"/>
			<path d="M74.2,122.9c-0.3-0.1-0.7,0-1.2-0.1s-0.9-0.2-1.4-0.4c-0.5-0.1-1-0.3-1.5-0.5H70c0,0-0.1,0.1,0,0.1c0.3,0.4,0.7,0.7,1,1
				c0.2,0.2,0.4,0.3,0.6,0.5c-0.1,0-0.1,0-0.2,0l-1.5-0.1l0,0h-0.1c-0.1,0-0.2,0.1-0.2,0.3c0.2,0.5,0.4,0.8,0.7,1.2
				c0.3,0.4,0.6,0.7,1,1.1l0.1,0.1c-0.2,0.4-0.3,0.9,0,1.4c0.6,1.2,1.3,2.3,1.9,3.4c0.7,1.1,1.4,2.2,2.2,3.3
				c0.8,1.1,1.6,2.1,2.6,3.1c0.5,0.5,1,0.9,1.6,1.3c0.6,0.4,1.4,0.7,2.1,0.5c-0.7,0-1.3-0.4-1.8-0.8c-0.5-0.4-0.8-1-1.2-1.5
				c-0.7-1.1-1.2-2.2-1.6-3.3c-0.4-1.2-0.8-2.3-1.2-3.5c-0.3-1.2-0.7-2.4-0.9-3.5c0-0.1-0.1-0.3-0.1-0.4s-0.1-0.1-0.1-0.2
				c2.4-1,13.9-4.9,27.9,2.7l0.2-1.3C103.2,127.4,91.3,117.4,74.2,122.9z"/>
			<path class="st50" d="M102,124.7c-0.1-0.2-0.4-0.4-0.6-0.5s-0.5-0.3-0.7-0.4c-0.5-0.3-1-0.5-1.5-0.7c-0.9-0.6-1.9-1-2.9-1.5
				c-2-0.9-4.1-1.5-6.2-1.9s-4.3-0.5-6.5-0.4c-1.1,0.1-2.2,0.2-3.2,0.4c-1.1,0-2.2,0.2-3.3,0.3c1-0.5,2.1-0.9,3.1-1.3
				c1.1-0.2,2.2-0.3,3.3-0.4c2.2-0.1,4.5,0,6.7,0.4s4.4,1.1,6.4,2c1,0.4,2,1,3,1.5c0.4,0.4,0.9,0.7,1.3,1.1
				C101.3,123.8,101.8,124.2,102,124.7z"/>
		</g>
	</g>
	<g class="st13">
		<path d="M157.4,137.3c-0.5-0.1-0.9-0.2-1.4-0.2s-0.9,0.1-1.4,0.2c-0.4,0.1-0.8,0.4-1.3,0.5c-0.4,0.1-0.9,0.3-1.4,0.3h-0.1l0,0
			c0.2-0.5,0.6-0.9,1.1-1.2c0.4-0.3,1-0.3,1.5-0.4C155.5,136.4,156.5,136.6,157.4,137.3C157.4,137.2,157.4,137.2,157.4,137.3
			L157.4,137.3z"/>
	</g>
	<g class="st13">
		<path d="M153.4,137.2c-0.6,0.8-1.2,1.4-2,2.1c-0.8,0.5-1.6,1-2.5,1.4c-1.7,0.8-3.6,1.4-5.5,1.6c-1.9,0.2-3.9,0-5.7-0.7
			c-0.4-0.2-0.9-0.3-1.3-0.5l-1.3-0.7c-0.4-0.3-0.7-0.7-1-1s-0.6-0.7-0.9-1.1c0.9,0.4,1.6,0.9,2.5,1.2l1.2,0.7
			c0.4,0.2,0.8,0.3,1.2,0.5c1.7,0.6,3.5,0.8,5.3,0.6s3.5-0.7,5.2-1.5c0.8-0.4,1.6-0.8,2.4-1.3C151.7,138.1,152.6,137.7,153.4,137.2z
			"/>
	</g>
</g>
<g id="ojos6" class="st7">
	<path class="st13" d="M72.8,121.4"/>
	<g class="st13">
		<g>
			<path class="st29" d="M129.1,128.1c0,0-1.1,13.6,15,13.4c13.7-0.2,12.9-18,12.9-18S142.1,117.2,129.1,128.1z"/>
			<path class="st48" d="M156.8,127.1c0,0-12.7-5.4-27.5,3.9l-0.4-3c0,0,14.9-9.3,28.7-4.1L156.8,127.1z"/>
			
				<ellipse transform="matrix(1 -3.877448e-03 3.877448e-03 1 -0.5123 0.5543)" class="st49" cx="142.7" cy="132.4" rx="8.3" ry="9.4"/>
			
				<ellipse transform="matrix(0.9968 -8.049493e-02 8.049493e-02 0.9968 -9.8095 12.0787)" class="st29" cx="144.9" cy="127.7" rx="1.7" ry="2.1"/>
			<path d="M157.8,122.9c0.3-0.1,0.7,0,1.2-0.1s0.9-0.2,1.4-0.4c0.5-0.1,1-0.3,1.5-0.5h0.1c0,0,0.1,0.1,0,0.1c-0.3,0.4-0.7,0.7-1,1
				c-0.2,0.2-0.4,0.3-0.6,0.5c0.1,0,0.1,0,0.2,0l1.5-0.1l0,0h0.1c0.1,0,0.2,0.1,0.2,0.3c-0.2,0.5-0.4,0.8-0.7,1.2
				c-0.3,0.4-0.6,0.7-1,1.1l-0.1,0.1c0.2,0.4,0.3,0.9,0,1.4c-0.6,1.2-1.3,2.3-1.9,3.4c-0.7,1.1-1.4,2.2-2.2,3.3s-1.6,2.1-2.6,3.1
				c-0.5,0.5-1,0.9-1.6,1.3c-0.6,0.4-1.4,0.7-2.1,0.5c0.7,0,1.3-0.4,1.8-0.8c0.5-0.4,0.8-1,1.2-1.5c0.7-1.1,1.2-2.2,1.6-3.3
				c0.4-1.2,0.8-2.3,1.2-3.5c0.3-1.2,0.7-2.4,0.9-3.5c0-0.1,0.1-0.3,0.1-0.4s0.1-0.1,0.1-0.2c-2.4-1-13.9-4.9-27.9,2.7l-0.2-1.3
				C128.8,127.4,140.7,117.4,157.8,122.9z"/>
			<path class="st52" d="M130,124.7c0.1-0.2,0.4-0.4,0.6-0.5c0.2-0.1,0.5-0.3,0.7-0.4c0.5-0.3,1-0.5,1.5-0.7c0.9-0.6,1.9-1,2.9-1.5
				c2-0.9,4.1-1.5,6.2-1.9c2.1-0.4,4.3-0.5,6.5-0.4c1.1,0.1,2.2,0.2,3.2,0.4c1.1,0,2.2,0.2,3.3,0.3c-1-0.5-2.1-0.9-3.1-1.3
				c-1.1-0.2-2.2-0.3-3.3-0.4c-2.2-0.1-4.5,0-6.7,0.4s-4.4,1.1-6.4,2c-1,0.4-2,1-3,1.5c-0.4,0.4-0.9,0.7-1.3,1.1
				C130.7,123.8,130.2,124.2,130,124.7z"/>
		</g>
	</g>
	<g class="st13">
		<g>
			<path class="st29" d="M102.9,128.1c0,0,1.1,13.6-15,13.4c-13.7-0.2-12.9-18-12.9-18S89.9,117.2,102.9,128.1z"/>
			<path class="st48" d="M75.1,127.4c0,0,12.7-5.4,27.5,3.9l0.4-3c0,0-14.9-9.3-28.7-4.1L75.1,127.4z"/>
			
				<ellipse transform="matrix(3.877448e-03 -1 1 3.877448e-03 -43.3526 221.185)" class="st49" cx="89.3" cy="132.4" rx="9.4" ry="8.3"/>
			
				<ellipse transform="matrix(8.049493e-02 -0.9968 0.9968 8.049493e-02 -47.1718 204.2127)" class="st29" cx="87.1" cy="127.7" rx="2.1" ry="1.7"/>
			<path d="M74.2,122.9c-0.3-0.1-0.7,0-1.2-0.1s-0.9-0.2-1.4-0.4c-0.5-0.1-1-0.3-1.5-0.5H70c0,0-0.1,0.1,0,0.1c0.3,0.4,0.7,0.7,1,1
				c0.2,0.2,0.4,0.3,0.6,0.5c-0.1,0-0.1,0-0.2,0l-1.5-0.1l0,0h-0.1c-0.1,0-0.2,0.1-0.2,0.3c0.2,0.5,0.4,0.8,0.7,1.2
				c0.3,0.4,0.6,0.7,1,1.1l0.1,0.1c-0.2,0.4-0.3,0.9,0,1.4c0.6,1.2,1.3,2.3,1.9,3.4c0.7,1.1,1.4,2.2,2.2,3.3
				c0.8,1.1,1.6,2.1,2.6,3.1c0.5,0.5,1,0.9,1.6,1.3c0.6,0.4,1.4,0.7,2.1,0.5c-0.7,0-1.3-0.4-1.8-0.8c-0.5-0.4-0.8-1-1.2-1.5
				c-0.7-1.1-1.2-2.2-1.6-3.3c-0.4-1.2-0.8-2.3-1.2-3.5c-0.3-1.2-0.7-2.4-0.9-3.5c0-0.1-0.1-0.3-0.1-0.4s-0.1-0.1-0.1-0.2
				c2.4-1,13.9-4.9,27.9,2.7l0.2-1.3C103.2,127.4,91.3,117.4,74.2,122.9z"/>
			<path class="st52" d="M102,124.7c-0.1-0.2-0.4-0.4-0.6-0.5s-0.5-0.3-0.7-0.4c-0.5-0.3-1-0.5-1.5-0.7c-0.9-0.6-1.9-1-2.9-1.5
				c-2-0.9-4.1-1.5-6.2-1.9s-4.3-0.5-6.5-0.4c-1.1,0.1-2.2,0.2-3.2,0.4c-1.1,0-2.2,0.2-3.3,0.3c1-0.5,2.1-0.9,3.1-1.3
				c1.1-0.2,2.2-0.3,3.3-0.4c2.2-0.1,4.5,0,6.7,0.4s4.4,1.1,6.4,2c1,0.4,2,1,3,1.5c0.4,0.4,0.9,0.7,1.3,1.1
				C101.3,123.8,101.8,124.2,102,124.7z"/>
		</g>
	</g>
	<g class="st13">
		<path d="M157.4,137.3c-0.5-0.1-0.9-0.2-1.4-0.2s-0.9,0.1-1.4,0.2c-0.4,0.1-0.8,0.4-1.3,0.5c-0.4,0.1-0.9,0.3-1.4,0.3h-0.1l0,0
			c0.2-0.5,0.6-0.9,1.1-1.2c0.4-0.3,1-0.3,1.5-0.4C155.5,136.4,156.5,136.6,157.4,137.3C157.4,137.2,157.4,137.2,157.4,137.3
			L157.4,137.3z"/>
	</g>
	<g class="st13">
		<path d="M153.4,137.2c-0.6,0.8-1.2,1.4-2,2.1c-0.8,0.5-1.6,1-2.5,1.4c-1.7,0.8-3.6,1.4-5.5,1.6c-1.9,0.2-3.9,0-5.7-0.7
			c-0.4-0.2-0.9-0.3-1.3-0.5l-1.3-0.7c-0.4-0.3-0.7-0.7-1-1s-0.6-0.7-0.9-1.1c0.9,0.4,1.6,0.9,2.5,1.2l1.2,0.7
			c0.4,0.2,0.8,0.3,1.2,0.5c1.7,0.6,3.5,0.8,5.3,0.6s3.5-0.7,5.2-1.5c0.8-0.4,1.6-0.8,2.4-1.3C151.7,138.1,152.6,137.7,153.4,137.2z
			"/>
	</g>
</g>
<g id="ojos5" class="st7">
	<path class="st13" d="M72.8,121.4"/>
	<g class="st13">
		<g>
			<path class="st29" d="M129.1,128.1c0,0-1.1,13.6,15,13.4c13.7-0.2,12.9-18,12.9-18S142.1,117.2,129.1,128.1z"/>
			<path class="st48" d="M156.8,127.1c0,0-12.7-5.4-27.5,3.9l-0.4-3c0,0,14.9-9.3,28.7-4.1L156.8,127.1z"/>
			<ellipse transform="matrix(1 -3.877448e-03 3.877448e-03 1 -0.5123 0.5543)" cx="142.7" cy="132.4" rx="8.3" ry="9.4"/>
			
				<ellipse transform="matrix(0.9968 -8.049493e-02 8.049493e-02 0.9968 -9.8095 12.0787)" class="st29" cx="144.9" cy="127.7" rx="1.7" ry="2.1"/>
			<path d="M157.8,122.9c0.3-0.1,0.7,0,1.2-0.1s0.9-0.2,1.4-0.4c0.5-0.1,1-0.3,1.5-0.5h0.1c0,0,0.1,0.1,0,0.1c-0.3,0.4-0.7,0.7-1,1
				c-0.2,0.2-0.4,0.3-0.6,0.5c0.1,0,0.1,0,0.2,0l1.5-0.1l0,0h0.1c0.1,0,0.2,0.1,0.2,0.3c-0.2,0.5-0.4,0.8-0.7,1.2
				c-0.3,0.4-0.6,0.7-1,1.1l-0.1,0.1c0.2,0.4,0.3,0.9,0,1.4c-0.6,1.2-1.3,2.3-1.9,3.4c-0.7,1.1-1.4,2.2-2.2,3.3s-1.6,2.1-2.6,3.1
				c-0.5,0.5-1,0.9-1.6,1.3c-0.6,0.4-1.4,0.7-2.1,0.5c0.7,0,1.3-0.4,1.8-0.8c0.5-0.4,0.8-1,1.2-1.5c0.7-1.1,1.2-2.2,1.6-3.3
				c0.4-1.2,0.8-2.3,1.2-3.5c0.3-1.2,0.7-2.4,0.9-3.5c0-0.1,0.1-0.3,0.1-0.4s0.1-0.1,0.1-0.2c-2.4-1-13.9-4.9-27.9,2.7l-0.2-1.3
				C128.8,127.4,140.7,117.4,157.8,122.9z"/>
			<path class="st53" d="M130,124.7c0.1-0.2,0.4-0.4,0.6-0.5c0.2-0.1,0.5-0.3,0.7-0.4c0.5-0.3,1-0.5,1.5-0.7c0.9-0.6,1.9-1,2.9-1.5
				c2-0.9,4.1-1.5,6.2-1.9c2.1-0.4,4.3-0.5,6.5-0.4c1.1,0.1,2.2,0.2,3.2,0.4c1.1,0,2.2,0.2,3.3,0.3c-1-0.5-2.1-0.9-3.1-1.3
				c-1.1-0.2-2.2-0.3-3.3-0.4c-2.2-0.1-4.5,0-6.7,0.4s-4.4,1.1-6.4,2c-1,0.4-2,1-3,1.5c-0.4,0.4-0.9,0.7-1.3,1.1
				C130.7,123.8,130.2,124.2,130,124.7z"/>
		</g>
	</g>
	<g class="st13">
		<g>
			<path class="st29" d="M102.9,128.1c0,0,1.1,13.6-15,13.4c-13.7-0.2-12.9-18-12.9-18S89.9,117.2,102.9,128.1z"/>
			<path class="st48" d="M75.1,127.4c0,0,12.7-5.4,27.5,3.9l0.4-3c0,0-14.9-9.3-28.7-4.1L75.1,127.4z"/>
			<ellipse transform="matrix(3.877448e-03 -1 1 3.877448e-03 -43.3526 221.185)" cx="89.3" cy="132.4" rx="9.4" ry="8.3"/>
			
				<ellipse transform="matrix(8.049493e-02 -0.9968 0.9968 8.049493e-02 -47.1718 204.2127)" class="st29" cx="87.1" cy="127.7" rx="2.1" ry="1.7"/>
			<path d="M74.2,122.9c-0.3-0.1-0.7,0-1.2-0.1s-0.9-0.2-1.4-0.4c-0.5-0.1-1-0.3-1.5-0.5H70c0,0-0.1,0.1,0,0.1c0.3,0.4,0.7,0.7,1,1
				c0.2,0.2,0.4,0.3,0.6,0.5c-0.1,0-0.1,0-0.2,0l-1.5-0.1l0,0h-0.1c-0.1,0-0.2,0.1-0.2,0.3c0.2,0.5,0.4,0.8,0.7,1.2
				c0.3,0.4,0.6,0.7,1,1.1l0.1,0.1c-0.2,0.4-0.3,0.9,0,1.4c0.6,1.2,1.3,2.3,1.9,3.4c0.7,1.1,1.4,2.2,2.2,3.3
				c0.8,1.1,1.6,2.1,2.6,3.1c0.5,0.5,1,0.9,1.6,1.3c0.6,0.4,1.4,0.7,2.1,0.5c-0.7,0-1.3-0.4-1.8-0.8c-0.5-0.4-0.8-1-1.2-1.5
				c-0.7-1.1-1.2-2.2-1.6-3.3c-0.4-1.2-0.8-2.3-1.2-3.5c-0.3-1.2-0.7-2.4-0.9-3.5c0-0.1-0.1-0.3-0.1-0.4s-0.1-0.1-0.1-0.2
				c2.4-1,13.9-4.9,27.9,2.7l0.2-1.3C103.2,127.4,91.3,117.4,74.2,122.9z"/>
			<path class="st53" d="M102,124.7c-0.1-0.2-0.4-0.4-0.6-0.5s-0.5-0.3-0.7-0.4c-0.5-0.3-1-0.5-1.5-0.7c-0.9-0.6-1.9-1-2.9-1.5
				c-2-0.9-4.1-1.5-6.2-1.9s-4.3-0.5-6.5-0.4c-1.1,0.1-2.2,0.2-3.2,0.4c-1.1,0-2.2,0.2-3.3,0.3c1-0.5,2.1-0.9,3.1-1.3
				c1.1-0.2,2.2-0.3,3.3-0.4c2.2-0.1,4.5,0,6.7,0.4s4.4,1.1,6.4,2c1,0.4,2,1,3,1.5c0.4,0.4,0.9,0.7,1.3,1.1
				C101.3,123.8,101.8,124.2,102,124.7z"/>
		</g>
	</g>
	<g class="st13">
		<path d="M157.4,137.3c-0.5-0.1-0.9-0.2-1.4-0.2s-0.9,0.1-1.4,0.2c-0.4,0.1-0.8,0.4-1.3,0.5c-0.4,0.1-0.9,0.3-1.4,0.3h-0.1l0,0
			c0.2-0.5,0.6-0.9,1.1-1.2c0.4-0.3,1-0.3,1.5-0.4C155.5,136.4,156.5,136.6,157.4,137.3C157.4,137.2,157.4,137.2,157.4,137.3
			L157.4,137.3z"/>
	</g>
	<g class="st13">
		<path d="M153.4,137.2c-0.6,0.8-1.2,1.4-2,2.1c-0.8,0.5-1.6,1-2.5,1.4c-1.7,0.8-3.6,1.4-5.5,1.6c-1.9,0.2-3.9,0-5.7-0.7
			c-0.4-0.2-0.9-0.3-1.3-0.5l-1.3-0.7c-0.4-0.3-0.7-0.7-1-1s-0.6-0.7-0.9-1.1c0.9,0.4,1.6,0.9,2.5,1.2l1.2,0.7
			c0.4,0.2,0.8,0.3,1.2,0.5c1.7,0.6,3.5,0.8,5.3,0.6s3.5-0.7,5.2-1.5c0.8-0.4,1.6-0.8,2.4-1.3C151.7,138.1,152.6,137.7,153.4,137.2z
			"/>
	</g>
</g>
<g id="ojos4" class="st7">
	<g class="st13">
		<g>
			<path class="st29" d="M129.5,128.5c0,0-1.1,15.2,15,14.9c13.7-0.2,12.9-20.1,12.9-20.1S142.5,116.3,129.5,128.5z"/>
			<path class="st48" d="M156.6,127.8c0,0-12.5-5.4-26.9,3.9l-0.4-3c0,0,14.6-9.3,28.1-4.1L156.6,127.8z"/>
			
				<ellipse transform="matrix(1 -3.877393e-03 3.877393e-03 1 -0.5154 0.5559)" class="st54" cx="143.1" cy="133.2" rx="8.3" ry="10.5"/>
			
				<ellipse transform="matrix(0.9968 -8.049493e-02 8.049493e-02 0.9968 -9.9611 12.1168)" class="st29" cx="145.3" cy="129.6" rx="1.7" ry="2.1"/>
			<path d="M157.9,121.1c0.3-0.2,0.7-0.1,1.2-0.2c0.4-0.1,0.9-0.3,1.4-0.5s0.9-0.4,1.4-0.6h0.1c0,0,0.1,0.1,0,0.1
				c-0.3,0.5-0.6,0.9-1,1.3c-0.2,0.2-0.4,0.4-0.6,0.6c0.1,0,0.1,0,0.2,0l1.5-0.2l0,0h0.1c0.1,0,0.2,0.2,0.2,0.3
				c-0.1,0.5-0.4,1-0.6,1.5c-0.3,0.5-0.6,0.9-0.9,1.3l-0.1,0.1c0.3,0.5,0.3,1.1,0.1,1.7c-0.5,1.5-1.1,2.8-1.7,4.2
				c-0.6,1.4-1.3,2.7-2,4s-1.5,2.6-2.4,3.8c-0.5,0.6-1,1.2-1.6,1.7s-1.3,0.9-2.1,0.8c0.7-0.1,1.3-0.6,1.7-1.1
				c0.4-0.6,0.8-1.2,1.1-1.8c0.6-1.3,1-2.7,1.4-4.1c0.4-1.4,0.7-2.8,1-4.2s0.5-2.9,0.7-4.2c0-0.1,0.1-0.3,0.1-0.4s0.1-0.2,0.1-0.2
				c-2.5-1-14.2-4.8-27.7,5.2l-0.3-1.5C129.2,128.5,140.4,115.8,157.9,121.1z"/>
			<path class="st55" d="M130.3,123.8c0.1-0.3,0.4-0.4,0.6-0.6c0.2-0.2,0.5-0.3,0.7-0.4c0.5-0.3,1-0.5,1.4-0.8
				c0.9-0.6,1.8-1.1,2.8-1.6c1.9-1,4-1.7,6.1-2.2s4.3-0.7,6.5-0.7c1.1,0,2.2,0.1,3.2,0.2c1.1,0,2.2,0.1,3.3,0.1
				c-1-0.5-2.1-0.8-3.2-1.1c-1.1-0.2-2.2-0.2-3.4-0.2c-2.3,0-4.5,0.2-6.7,0.7s-4.3,1.3-6.3,2.3c-1,0.5-2,1.1-2.9,1.7
				c-0.4,0.4-0.8,0.8-1.2,1.2C130.9,122.8,130.4,123.2,130.3,123.8z"/>
		</g>
		<g>
			<path class="st29" d="M101.3,129c0,0,1.1,15.2-15,14.9c-13.7-0.2-12.9-20.1-12.9-20.1S88.2,116.8,101.3,129z"/>
			<path class="st48" d="M74.1,128.3c0,0,12.5-5.4,26.9,3.9l0.4-3c0,0-14.6-9.3-28.1-4.1L74.1,128.3z"/>
			
				<ellipse transform="matrix(3.877393e-03 -1 1 3.877393e-03 -46.5051 220.8401)" class="st54" cx="87.6" cy="133.8" rx="10.5" ry="8.3"/>
			
				<ellipse transform="matrix(8.049493e-02 -0.9968 0.9968 8.049493e-02 -51.2093 204.8664)" class="st29" cx="85.4" cy="130.2" rx="2.1" ry="1.7"/>
			<path d="M72.8,121.6c-0.3-0.2-0.7-0.1-1.2-0.2c-0.4-0.1-0.9-0.3-1.4-0.5s-0.9-0.4-1.4-0.6h-0.1c0,0-0.1,0.1,0,0.1
				c0.3,0.5,0.6,0.9,1,1.3c0.2,0.2,0.4,0.4,0.6,0.6c-0.1,0-0.1,0-0.2,0l-1.5-0.2l0,0h-0.1c-0.1,0-0.2,0.2-0.2,0.3
				c0.1,0.5,0.4,1,0.6,1.5c0.3,0.5,0.6,0.9,0.9,1.3l0.1,0.1c-0.3,0.5-0.3,1.1-0.1,1.7c0.5,1.5,1.1,2.8,1.7,4.2c0.6,1.4,1.3,2.7,2,4
				s1.5,2.6,2.4,3.8c0.5,0.6,1,1.2,1.6,1.7s1.3,0.9,2.1,0.8c-0.7-0.1-1.3-0.6-1.7-1.1c-0.4-0.6-0.8-1.2-1.1-1.8
				c-0.6-1.3-1-2.7-1.4-4.1c-0.4-1.4-0.7-2.8-1-4.2s-0.5-2.9-0.7-4.2c0-0.1-0.1-0.3-0.1-0.4s-0.1-0.2-0.1-0.2
				c2.5-1,14.2-4.8,27.7,5.2l0.3-1.5C101.5,129,90.3,116.4,72.8,121.6z"/>
			<path class="st55" d="M100.4,124.3c-0.1-0.3-0.4-0.4-0.6-0.6s-0.5-0.3-0.7-0.4c-0.5-0.3-1-0.5-1.4-0.8c-0.9-0.6-1.8-1.1-2.8-1.6
				c-1.9-1-4-1.7-6.1-2.2s-4.3-0.7-6.5-0.7c-1.1,0-2.2,0.1-3.2,0.2c-1.1,0-2.2,0.1-3.3,0.1c1-0.5,2.1-0.8,3.2-1.1
				c1.1-0.2,2.2-0.2,3.4-0.2c2.3,0,4.5,0.2,6.7,0.7s4.3,1.3,6.3,2.3c1,0.5,2,1.1,2.9,1.7c0.4,0.4,0.8,0.8,1.2,1.2
				C99.9,123.4,100.3,123.8,100.4,124.3z"/>
		</g>
	</g>
	<g class="st13">
		<path d="M157.8,139.2c-0.5-0.1-0.9-0.2-1.4-0.2s-0.9,0.1-1.4,0.2c-0.4,0.1-0.8,0.4-1.3,0.5c-0.4,0.1-0.9,0.3-1.4,0.3h-0.1l0,0
			c0.2-0.5,0.6-0.9,1.1-1.2c0.4-0.3,1-0.3,1.5-0.4C155.9,138.4,156.9,138.6,157.8,139.2C157.8,139.1,157.8,139.2,157.8,139.2
			L157.8,139.2z"/>
	</g>
	<g class="st13">
		<path d="M153.8,139.1c-0.6,0.8-1.2,1.4-2,2.1c-0.8,0.5-1.6,1-2.5,1.4c-1.7,0.8-3.6,1.4-5.5,1.6c-1.9,0.2-3.9,0-5.7-0.7
			c-0.4-0.2-0.9-0.3-1.3-0.5l-1.3-0.7c-0.4-0.3-0.7-0.7-1-1s-0.6-0.7-0.9-1.1c0.9,0.4,1.6,0.9,2.5,1.2l1.2,0.7
			c0.4,0.2,0.8,0.3,1.2,0.5c1.7,0.6,3.5,0.8,5.3,0.6s3.5-0.7,5.2-1.5c0.8-0.4,1.6-0.8,2.4-1.3C152.1,140,153,139.6,153.8,139.1z"/>
	</g>
	<g class="st13">
		<path d="M76.8,139.3c0.8,0.5,1.7,0.9,2.5,1.2c0.8,0.5,1.6,0.9,2.4,1.3c1.6,0.8,3.4,1.3,5.2,1.5c1.8,0.2,3.6,0,5.3-0.6
			c0.4-0.2,0.8-0.3,1.2-0.5l1.2-0.7c0.9-0.3,1.6-0.8,2.5-1.2c-0.3,0.4-0.6,0.7-0.9,1.1c-0.3,0.3-0.6,0.7-1,1l-1.3,0.7
			c-0.4,0.2-0.9,0.4-1.3,0.5c-1.8,0.6-3.8,0.9-5.7,0.7c-1.9-0.2-3.8-0.8-5.5-1.6c-0.9-0.4-1.7-0.9-2.5-1.4
			C78.1,140.8,77.4,140.1,76.8,139.3z"/>
	</g>
</g>
<g id="ojos3" class="st7">
	<g class="st13">
		<g>
			<path class="st29" d="M129.5,128.5c0,0-1.1,15.2,15,14.9c13.7-0.2,12.9-20.1,12.9-20.1S142.5,116.3,129.5,128.5z"/>
			<path class="st48" d="M156.6,127.8c0,0-12.5-5.4-26.9,3.9l-0.4-3c0,0,14.6-9.3,28.1-4.1L156.6,127.8z"/>
			
				<ellipse transform="matrix(1 -3.877393e-03 3.877393e-03 1 -0.5154 0.5559)" class="st56" cx="143.1" cy="133.2" rx="8.3" ry="10.5"/>
			
				<ellipse transform="matrix(0.9968 -8.049493e-02 8.049493e-02 0.9968 -9.9611 12.1168)" class="st29" cx="145.3" cy="129.6" rx="1.7" ry="2.1"/>
			<path d="M157.9,121.1c0.3-0.2,0.7-0.1,1.2-0.2c0.4-0.1,0.9-0.3,1.4-0.5s0.9-0.4,1.4-0.6h0.1c0,0,0.1,0.1,0,0.1
				c-0.3,0.5-0.6,0.9-1,1.3c-0.2,0.2-0.4,0.4-0.6,0.6c0.1,0,0.1,0,0.2,0l1.5-0.2l0,0h0.1c0.1,0,0.2,0.2,0.2,0.3
				c-0.1,0.5-0.4,1-0.6,1.5c-0.3,0.5-0.6,0.9-0.9,1.3l-0.1,0.1c0.3,0.5,0.3,1.1,0.1,1.7c-0.5,1.5-1.1,2.8-1.7,4.2
				c-0.6,1.4-1.3,2.7-2,4s-1.5,2.6-2.4,3.8c-0.5,0.6-1,1.2-1.6,1.7s-1.3,0.9-2.1,0.8c0.7-0.1,1.3-0.6,1.7-1.1
				c0.4-0.6,0.8-1.2,1.1-1.8c0.6-1.3,1-2.7,1.4-4.1c0.4-1.4,0.7-2.8,1-4.2s0.5-2.9,0.7-4.2c0-0.1,0.1-0.3,0.1-0.4s0.1-0.2,0.1-0.2
				c-2.5-1-14.2-4.8-27.7,5.2l-0.3-1.5C129.2,128.5,140.4,115.8,157.9,121.1z"/>
			<path class="st57" d="M130.3,123.8c0.1-0.3,0.4-0.4,0.6-0.6c0.2-0.2,0.5-0.3,0.7-0.4c0.5-0.3,1-0.5,1.4-0.8
				c0.9-0.6,1.8-1.1,2.8-1.6c1.9-1,4-1.7,6.1-2.2s4.3-0.7,6.5-0.7c1.1,0,2.2,0.1,3.2,0.2c1.1,0,2.2,0.1,3.3,0.1
				c-1-0.5-2.1-0.8-3.2-1.1c-1.1-0.2-2.2-0.2-3.4-0.2c-2.3,0-4.5,0.2-6.7,0.7s-4.3,1.3-6.3,2.3c-1,0.5-2,1.1-2.9,1.7
				c-0.4,0.4-0.8,0.8-1.2,1.2C130.9,122.8,130.4,123.2,130.3,123.8z"/>
		</g>
		<g>
			<path class="st29" d="M101.3,129c0,0,1.1,15.2-15,14.9c-13.7-0.2-12.9-20.1-12.9-20.1S88.2,116.8,101.3,129z"/>
			<path class="st48" d="M74.1,128.3c0,0,12.5-5.4,26.9,3.9l0.4-3c0,0-14.6-9.3-28.1-4.1L74.1,128.3z"/>
			
				<ellipse transform="matrix(3.877393e-03 -1 1 3.877393e-03 -46.5051 220.8401)" class="st56" cx="87.6" cy="133.8" rx="10.5" ry="8.3"/>
			
				<ellipse transform="matrix(8.049493e-02 -0.9968 0.9968 8.049493e-02 -51.2093 204.8664)" class="st29" cx="85.4" cy="130.2" rx="2.1" ry="1.7"/>
			<path d="M72.8,121.6c-0.3-0.2-0.7-0.1-1.2-0.2c-0.4-0.1-0.9-0.3-1.4-0.5s-0.9-0.4-1.4-0.6h-0.1c0,0-0.1,0.1,0,0.1
				c0.3,0.5,0.6,0.9,1,1.3c0.2,0.2,0.4,0.4,0.6,0.6c-0.1,0-0.1,0-0.2,0l-1.5-0.2l0,0h-0.1c-0.1,0-0.2,0.2-0.2,0.3
				c0.1,0.5,0.4,1,0.6,1.5c0.3,0.5,0.6,0.9,0.9,1.3l0.1,0.1c-0.3,0.5-0.3,1.1-0.1,1.7c0.5,1.5,1.1,2.8,1.7,4.2c0.6,1.4,1.3,2.7,2,4
				s1.5,2.6,2.4,3.8c0.5,0.6,1,1.2,1.6,1.7s1.3,0.9,2.1,0.8c-0.7-0.1-1.3-0.6-1.7-1.1c-0.4-0.6-0.8-1.2-1.1-1.8
				c-0.6-1.3-1-2.7-1.4-4.1c-0.4-1.4-0.7-2.8-1-4.2s-0.5-2.9-0.7-4.2c0-0.1-0.1-0.3-0.1-0.4s-0.1-0.2-0.1-0.2
				c2.5-1,14.2-4.8,27.7,5.2l0.3-1.5C101.5,129,90.3,116.4,72.8,121.6z"/>
			<path class="st57" d="M100.4,124.3c-0.1-0.3-0.4-0.4-0.6-0.6s-0.5-0.3-0.7-0.4c-0.5-0.3-1-0.5-1.4-0.8c-0.9-0.6-1.8-1.1-2.8-1.6
				c-1.9-1-4-1.7-6.1-2.2s-4.3-0.7-6.5-0.7c-1.1,0-2.2,0.1-3.2,0.2c-1.1,0-2.2,0.1-3.3,0.1c1-0.5,2.1-0.8,3.2-1.1
				c1.1-0.2,2.2-0.2,3.4-0.2c2.3,0,4.5,0.2,6.7,0.7s4.3,1.3,6.3,2.3c1,0.5,2,1.1,2.9,1.7c0.4,0.4,0.8,0.8,1.2,1.2
				C99.9,123.4,100.3,123.8,100.4,124.3z"/>
		</g>
	</g>
	<g class="st13">
		<path d="M157.8,139.2c-0.5-0.1-0.9-0.2-1.4-0.2s-0.9,0.1-1.4,0.2c-0.4,0.1-0.8,0.4-1.3,0.5c-0.4,0.1-0.9,0.3-1.4,0.3h-0.1l0,0
			c0.2-0.5,0.6-0.9,1.1-1.2c0.4-0.3,1-0.3,1.5-0.4C155.9,138.4,156.9,138.6,157.8,139.2C157.8,139.1,157.8,139.2,157.8,139.2
			L157.8,139.2z"/>
	</g>
	<g class="st13">
		<path d="M153.8,139.1c-0.6,0.8-1.2,1.4-2,2.1c-0.8,0.5-1.6,1-2.5,1.4c-1.7,0.8-3.6,1.4-5.5,1.6c-1.9,0.2-3.9,0-5.7-0.7
			c-0.4-0.2-0.9-0.3-1.3-0.5l-1.3-0.7c-0.4-0.3-0.7-0.7-1-1s-0.6-0.7-0.9-1.1c0.9,0.4,1.6,0.9,2.5,1.2l1.2,0.7
			c0.4,0.2,0.8,0.3,1.2,0.5c1.7,0.6,3.5,0.8,5.3,0.6s3.5-0.7,5.2-1.5c0.8-0.4,1.6-0.8,2.4-1.3C152.1,140,153,139.6,153.8,139.1z"/>
	</g>
	<g class="st13">
		<path d="M76.8,139.3c0.8,0.5,1.7,0.9,2.5,1.2c0.8,0.5,1.6,0.9,2.4,1.3c1.6,0.8,3.4,1.3,5.2,1.5c1.8,0.2,3.6,0,5.3-0.6
			c0.4-0.2,0.8-0.3,1.2-0.5l1.2-0.7c0.9-0.3,1.6-0.8,2.5-1.2c-0.3,0.4-0.6,0.7-0.9,1.1c-0.3,0.3-0.6,0.7-1,1l-1.3,0.7
			c-0.4,0.2-0.9,0.4-1.3,0.5c-1.8,0.6-3.8,0.9-5.7,0.7c-1.9-0.2-3.8-0.8-5.5-1.6c-0.9-0.4-1.7-0.9-2.5-1.4
			C78.1,140.8,77.4,140.1,76.8,139.3z"/>
	</g>
</g>
<g id="ojos2" class="st7">
	<g id="ojos1_1_" class="st13">
		<g>
			<g>
				<path class="st29" d="M129.5,128.5c0,0-1.1,15.2,15,14.9c13.7-0.2,12.9-20.1,12.9-20.1S142.5,116.3,129.5,128.5z"/>
				<path class="st48" d="M156.6,127.8c0,0-12.5-5.4-26.9,3.9l-0.4-3c0,0,14.6-9.3,28.1-4.1L156.6,127.8z"/>
				
					<ellipse transform="matrix(1 -3.877393e-03 3.877393e-03 1 -0.5154 0.5559)" class="st56" cx="143.1" cy="133.2" rx="8.3" ry="10.5"/>
				
					<ellipse transform="matrix(0.9968 -8.049493e-02 8.049493e-02 0.9968 -9.9611 12.1168)" class="st29" cx="145.3" cy="129.6" rx="1.7" ry="2.1"/>
				<path d="M157.9,121.1c0.3-0.2,0.7-0.1,1.2-0.2c0.4-0.1,0.9-0.3,1.4-0.5s0.9-0.4,1.4-0.6h0.1c0,0,0.1,0.1,0,0.1
					c-0.3,0.5-0.6,0.9-1,1.3c-0.2,0.2-0.4,0.4-0.6,0.6c0.1,0,0.1,0,0.2,0l1.5-0.2l0,0h0.1c0.1,0,0.2,0.2,0.2,0.3
					c-0.1,0.5-0.4,1-0.6,1.5c-0.3,0.5-0.6,0.9-0.9,1.3l-0.1,0.1c0.3,0.5,0.3,1.1,0.1,1.7c-0.5,1.5-1.1,2.8-1.7,4.2
					c-0.6,1.4-1.3,2.7-2,4s-1.5,2.6-2.4,3.8c-0.5,0.6-1,1.2-1.6,1.7s-1.3,0.9-2.1,0.8c0.7-0.1,1.3-0.6,1.7-1.1
					c0.4-0.6,0.8-1.2,1.1-1.8c0.6-1.3,1-2.7,1.4-4.1c0.4-1.4,0.7-2.8,1-4.2s0.5-2.9,0.7-4.2c0-0.1,0.1-0.3,0.1-0.4s0.1-0.2,0.1-0.2
					c-2.5-1-14.2-4.8-27.7,5.2l-0.3-1.5C129.2,128.5,140.4,115.8,157.9,121.1z"/>
			</g>
			<g>
				<path class="st29" d="M101.3,129c0,0,1.1,15.2-15,14.9c-13.7-0.2-12.9-20.1-12.9-20.1S88.2,116.8,101.3,129z"/>
				<path class="st48" d="M74.1,128.3c0,0,12.5-5.4,26.9,3.9l0.4-3c0,0-14.6-9.3-28.1-4.1L74.1,128.3z"/>
				
					<ellipse transform="matrix(3.877393e-03 -1 1 3.877393e-03 -46.5051 220.8401)" class="st56" cx="87.6" cy="133.8" rx="10.5" ry="8.3"/>
				
					<ellipse transform="matrix(8.049493e-02 -0.9968 0.9968 8.049493e-02 -51.2093 204.8664)" class="st29" cx="85.4" cy="130.2" rx="2.1" ry="1.7"/>
				<path d="M72.8,121.6c-0.3-0.2-0.7-0.1-1.2-0.2c-0.4-0.1-0.9-0.3-1.4-0.5s-0.9-0.4-1.4-0.6h-0.1c0,0-0.1,0.1,0,0.1
					c0.3,0.5,0.6,0.9,1,1.3c0.2,0.2,0.4,0.4,0.6,0.6c-0.1,0-0.1,0-0.2,0l-1.5-0.2l0,0h-0.1c-0.1,0-0.2,0.2-0.2,0.3
					c0.1,0.5,0.4,1,0.6,1.5c0.3,0.5,0.6,0.9,0.9,1.3l0.1,0.1c-0.3,0.5-0.3,1.1-0.1,1.7c0.5,1.5,1.1,2.8,1.7,4.2c0.6,1.4,1.3,2.7,2,4
					s1.5,2.6,2.4,3.8c0.5,0.6,1,1.2,1.6,1.7s1.3,0.9,2.1,0.8c-0.7-0.1-1.3-0.6-1.7-1.1c-0.4-0.6-0.8-1.2-1.1-1.8
					c-0.6-1.3-1-2.7-1.4-4.1c-0.4-1.4-0.7-2.8-1-4.2s-0.5-2.9-0.7-4.2c0-0.1-0.1-0.3-0.1-0.4s-0.1-0.2-0.1-0.2
					c2.5-1,14.2-4.8,27.7,5.2l0.3-1.5C101.5,129,90.3,116.4,72.8,121.6z"/>
			</g>
		</g>
		<g>
			<path d="M157.8,139.2c-0.5-0.1-0.9-0.2-1.4-0.2s-0.9,0.1-1.4,0.2c-0.4,0.1-0.8,0.4-1.3,0.5c-0.4,0.1-0.9,0.3-1.4,0.3h-0.1l0,0
				c0.2-0.5,0.6-0.9,1.1-1.2c0.4-0.3,1-0.3,1.5-0.4C155.9,138.4,156.9,138.6,157.8,139.2C157.8,139.1,157.8,139.2,157.8,139.2
				L157.8,139.2z"/>
		</g>
		<g>
			<path d="M153.8,139.1c-0.6,0.8-1.2,1.4-2,2.1c-0.8,0.5-1.6,1-2.5,1.4c-1.7,0.8-3.6,1.4-5.5,1.6c-1.9,0.2-3.9,0-5.7-0.7
				c-0.4-0.2-0.9-0.3-1.3-0.5l-1.3-0.7c-0.4-0.3-0.7-0.7-1-1s-0.6-0.7-0.9-1.1c0.9,0.4,1.6,0.9,2.5,1.2l1.2,0.7
				c0.4,0.2,0.8,0.3,1.2,0.5c1.7,0.6,3.5,0.8,5.3,0.6s3.5-0.7,5.2-1.5c0.8-0.4,1.6-0.8,2.4-1.3C152.1,140,153,139.6,153.8,139.1z"/>
		</g>
		<g>
			<path d="M76.8,139.3c0.8,0.5,1.7,0.9,2.5,1.2c0.8,0.5,1.6,0.9,2.4,1.3c1.6,0.8,3.4,1.3,5.2,1.5c1.8,0.2,3.6,0,5.3-0.6
				c0.4-0.2,0.8-0.3,1.2-0.5l1.2-0.7c0.9-0.3,1.6-0.8,2.5-1.2c-0.3,0.4-0.6,0.7-0.9,1.1c-0.3,0.3-0.6,0.7-1,1l-1.3,0.7
				c-0.4,0.2-0.9,0.4-1.3,0.5c-1.8,0.6-3.8,0.9-5.7,0.7c-1.9-0.2-3.8-0.8-5.5-1.6c-0.9-0.4-1.7-0.9-2.5-1.4
				C78.1,140.8,77.4,140.1,76.8,139.3z"/>
		</g>
	</g>
	<g class="st13">
		<g>
			<path d="M145.6,153.8c-13.1,0-23.7-6.1-23.7-18.1c0-13.5,13.5-15,23.7-15s23.7,1.6,23.7,15C169.3,147.7,158.6,153.8,145.6,153.8z
				 M145.6,123.3c-14.8,0-21.1,3.7-21.1,12.4c0,10.5,9.5,15.5,21.1,15.5s21.1-4.9,21.1-15.5C166.7,127,160.4,123.3,145.6,123.3z"/>
		</g>
		<path d="M158.9,122.3c3.3,0.8,9.3,1,11,1s2.6,0.2,2.6,1s0,3.3,0,3.8s-0.1,1-1,1c-0.9,0.1-1.4,0.5-1.4,2.5s-0.3,6.8-1.8,10.2
			c0,0,0.4-10.1-2.2-13.5C162.8,124,158.9,122.3,158.9,122.3z"/>
		<g>
			<path d="M57.5,135.7c0-13.5,13.5-15,23.7-15s23.7,1.6,23.7,15c0,11.9-10.6,18.1-23.7,18.1S57.5,147.7,57.5,135.7z M60.1,135.7
				c0,10.5,9.4,15.5,21.1,15.5c11.6,0,21.1-4.9,21.1-15.5c0-8.7-6.3-12.4-21.1-12.4C66.4,123.3,60.1,127,60.1,135.7z"/>
		</g>
		<path d="M67.8,122.3c-3.3,0.8-9.3,1-11,1s-2.6,0.2-2.6,1s0,3.3,0,3.8s0.1,1,1,1c0.9,0.1,1.4,0.5,1.4,2.5s0.3,6.8,1.8,10.2
			c0,0-0.4-10.1,2.2-13.5C63.9,124,67.8,122.3,67.8,122.3z"/>
		<path d="M119.1,129.9c-0.8,0-3.9,0-5.7,0c-1.9,0-5,0-5.7,0c-0.8,0-4-0.6-4.9-1.8l2,9.5c1.5-3.1,6.2-4,8.7-4s7.1,0.9,8.6,4l2-9.5
			C123.1,129.2,119.9,129.9,119.1,129.9z"/>
	</g>
</g>
<g id="ojos1" class="st7">
	<g class="st13">
		<g>
			<path class="st29" d="M129.5,128.5c0,0-1.1,15.2,15,14.9c13.7-0.2,12.9-20.1,12.9-20.1S142.5,116.3,129.5,128.5z"/>
			<path class="st48" d="M156.6,127.8c0,0-12.5-5.4-26.9,3.9l-0.4-3c0,0,14.6-9.3,28.1-4.1L156.6,127.8z"/>
			
				<ellipse transform="matrix(1 -3.877393e-03 3.877393e-03 1 -0.5154 0.5559)" class="st58" cx="143.1" cy="133.2" rx="8.3" ry="10.5"/>
			
				<ellipse transform="matrix(0.9968 -8.049493e-02 8.049493e-02 0.9968 -9.9611 12.1168)" class="st29" cx="145.3" cy="129.6" rx="1.7" ry="2.1"/>
			<path d="M157.9,121.1c0.3-0.2,0.7-0.1,1.2-0.2c0.4-0.1,0.9-0.3,1.4-0.5s0.9-0.4,1.4-0.6h0.1c0,0,0.1,0.1,0,0.1
				c-0.3,0.5-0.6,0.9-1,1.3c-0.2,0.2-0.4,0.4-0.6,0.6c0.1,0,0.1,0,0.2,0l1.5-0.2l0,0h0.1c0.1,0,0.2,0.2,0.2,0.3
				c-0.1,0.5-0.4,1-0.6,1.5c-0.3,0.5-0.6,0.9-0.9,1.3l-0.1,0.1c0.3,0.5,0.3,1.1,0.1,1.7c-0.5,1.5-1.1,2.8-1.7,4.2
				c-0.6,1.4-1.3,2.7-2,4s-1.5,2.6-2.4,3.8c-0.5,0.6-1,1.2-1.6,1.7s-1.3,0.9-2.1,0.8c0.7-0.1,1.3-0.6,1.7-1.1
				c0.4-0.6,0.8-1.2,1.1-1.8c0.6-1.3,1-2.7,1.4-4.1c0.4-1.4,0.7-2.8,1-4.2s0.5-2.9,0.7-4.2c0-0.1,0.1-0.3,0.1-0.4s0.1-0.2,0.1-0.2
				c-2.5-1-14.2-4.8-27.7,5.2l-0.3-1.5C129.2,128.5,140.4,115.8,157.9,121.1z"/>
			<path class="st55" d="M130.3,123.8c0.1-0.3,0.4-0.4,0.6-0.6c0.2-0.2,0.5-0.3,0.7-0.4c0.5-0.3,1-0.5,1.4-0.8
				c0.9-0.6,1.8-1.1,2.8-1.6c1.9-1,4-1.7,6.1-2.2s4.3-0.7,6.5-0.7c1.1,0,2.2,0.1,3.2,0.2c1.1,0,2.2,0.1,3.3,0.1
				c-1-0.5-2.1-0.8-3.2-1.1c-1.1-0.2-2.2-0.2-3.4-0.2c-2.3,0-4.5,0.2-6.7,0.7s-4.3,1.3-6.3,2.3c-1,0.5-2,1.1-2.9,1.7
				c-0.4,0.4-0.8,0.8-1.2,1.2C130.9,122.8,130.4,123.2,130.3,123.8z"/>
		</g>
		<g>
			<path class="st29" d="M101.3,129c0,0,1.1,15.2-15,14.9c-13.7-0.2-12.9-20.1-12.9-20.1S88.2,116.8,101.3,129z"/>
			<path class="st48" d="M74.1,128.3c0,0,12.5-5.4,26.9,3.9l0.4-3c0,0-14.6-9.3-28.1-4.1L74.1,128.3z"/>
			
				<ellipse transform="matrix(3.877393e-03 -1 1 3.877393e-03 -46.5051 220.8401)" class="st58" cx="87.6" cy="133.8" rx="10.5" ry="8.3"/>
			
				<ellipse transform="matrix(8.049493e-02 -0.9968 0.9968 8.049493e-02 -51.2093 204.8664)" class="st29" cx="85.4" cy="130.2" rx="2.1" ry="1.7"/>
			<path d="M72.8,121.6c-0.3-0.2-0.7-0.1-1.2-0.2c-0.4-0.1-0.9-0.3-1.4-0.5s-0.9-0.4-1.4-0.6h-0.1c0,0-0.1,0.1,0,0.1
				c0.3,0.5,0.6,0.9,1,1.3c0.2,0.2,0.4,0.4,0.6,0.6c-0.1,0-0.1,0-0.2,0l-1.5-0.2l0,0h-0.1c-0.1,0-0.2,0.2-0.2,0.3
				c0.1,0.5,0.4,1,0.6,1.5c0.3,0.5,0.6,0.9,0.9,1.3l0.1,0.1c-0.3,0.5-0.3,1.1-0.1,1.7c0.5,1.5,1.1,2.8,1.7,4.2c0.6,1.4,1.3,2.7,2,4
				s1.5,2.6,2.4,3.8c0.5,0.6,1,1.2,1.6,1.7s1.3,0.9,2.1,0.8c-0.7-0.1-1.3-0.6-1.7-1.1c-0.4-0.6-0.8-1.2-1.1-1.8
				c-0.6-1.3-1-2.7-1.4-4.1c-0.4-1.4-0.7-2.8-1-4.2s-0.5-2.9-0.7-4.2c0-0.1-0.1-0.3-0.1-0.4s-0.1-0.2-0.1-0.2
				c2.5-1,14.2-4.8,27.7,5.2l0.3-1.5C101.5,129,90.3,116.4,72.8,121.6z"/>
			<path class="st55" d="M100.4,124.3c-0.1-0.3-0.4-0.4-0.6-0.6s-0.5-0.3-0.7-0.4c-0.5-0.3-1-0.5-1.4-0.8c-0.9-0.6-1.8-1.1-2.8-1.6
				c-1.9-1-4-1.7-6.1-2.2s-4.3-0.7-6.5-0.7c-1.1,0-2.2,0.1-3.2,0.2c-1.1,0-2.2,0.1-3.3,0.1c1-0.5,2.1-0.8,3.2-1.1
				c1.1-0.2,2.2-0.2,3.4-0.2c2.3,0,4.5,0.2,6.7,0.7s4.3,1.3,6.3,2.3c1,0.5,2,1.1,2.9,1.7c0.4,0.4,0.8,0.8,1.2,1.2
				C99.9,123.4,100.3,123.8,100.4,124.3z"/>
		</g>
	</g>
	<g class="st13">
		<path d="M157.8,139.2c-0.5-0.1-0.9-0.2-1.4-0.2s-0.9,0.1-1.4,0.2c-0.4,0.1-0.8,0.4-1.3,0.5c-0.4,0.1-0.9,0.3-1.4,0.3h-0.1l0,0
			c0.2-0.5,0.6-0.9,1.1-1.2c0.4-0.3,1-0.3,1.5-0.4C155.9,138.4,156.9,138.6,157.8,139.2C157.8,139.1,157.8,139.2,157.8,139.2
			L157.8,139.2z"/>
	</g>
	<g class="st13">
		<path d="M153.8,139.1c-0.6,0.8-1.2,1.4-2,2.1c-0.8,0.5-1.6,1-2.5,1.4c-1.7,0.8-3.6,1.4-5.5,1.6c-1.9,0.2-3.9,0-5.7-0.7
			c-0.4-0.2-0.9-0.3-1.3-0.5l-1.3-0.7c-0.4-0.3-0.7-0.7-1-1s-0.6-0.7-0.9-1.1c0.9,0.4,1.6,0.9,2.5,1.2l1.2,0.7
			c0.4,0.2,0.8,0.3,1.2,0.5c1.7,0.6,3.5,0.8,5.3,0.6s3.5-0.7,5.2-1.5c0.8-0.4,1.6-0.8,2.4-1.3C152.1,140,153,139.6,153.8,139.1z"/>
	</g>
	<g class="st13">
		<path d="M76.8,139.3c0.8,0.5,1.7,0.9,2.5,1.2c0.8,0.5,1.6,0.9,2.4,1.3c1.6,0.8,3.4,1.3,5.2,1.5c1.8,0.2,3.6,0,5.3-0.6
			c0.4-0.2,0.8-0.3,1.2-0.5l1.2-0.7c0.9-0.3,1.6-0.8,2.5-1.2c-0.3,0.4-0.6,0.7-0.9,1.1c-0.3,0.3-0.6,0.7-1,1l-1.3,0.7
			c-0.4,0.2-0.9,0.4-1.3,0.5c-1.8,0.6-3.8,0.9-5.7,0.7c-1.9-0.2-3.8-0.8-5.5-1.6c-0.9-0.4-1.7-0.9-2.5-1.4
			C78.1,140.8,77.4,140.1,76.8,139.3z"/>
	</g>
</g>
<g id="boca6" class="st7">
	<g class="st13">
		<path class="st59" d="M115.3,183.6c1.2,0,10.5-0.3,14.4-2.7c-2.5,0.8-11.4-7.2-14.4-1.8c-3-5.4-11.9,2.5-14.4,1.8
			C104.8,183.2,114.1,183.5,115.3,183.6L115.3,183.6C115.2,183.6,115.3,183.6,115.3,183.6L115.3,183.6L115.3,183.6z"/>
		<path class="st60" d="M115.3,183.1c-4.9,0-12.2-1-16.5-3.3c9.4,9.7,12.5,10.4,16.5,10.4s7.1-0.8,16.5-10.4
			C127.5,182.1,120.2,183.1,115.3,183.1z"/>
	</g>
	<g class="st13">
		<g>
			<g>
				<g>
					<path class="st50" d="M105.8,162.6c0.1-0.2,1.2,0.2,3.1,0.8s4.5,1.4,7.4,1.4c2.9-0.1,5.5-0.9,7.4-1.4c1.9-0.6,3-1,3.1-0.8
						s-0.9,0.9-2.8,1.7c-1.8,0.8-4.5,1.8-7.7,1.9c-3.2-0.1-5.9-1.1-7.7-1.9C106.8,163.4,105.8,162.7,105.8,162.6z"/>
				</g>
			</g>
		</g>
	</g>
	<path class="st61" d="M94,200.7"/>
</g>
<g id="boca5" class="st7">
	<g class="st13">
		<g>
			<g>
				<g>
					<path class="st50" d="M105.4,162.6c0.1-0.2,1.2,0.2,3.1,0.8s4.5,1.4,7.4,1.4c2.9-0.1,5.5-0.9,7.4-1.4c1.9-0.6,3-1,3.1-0.8
						s-0.9,0.9-2.8,1.7c-1.8,0.8-4.5,1.8-7.7,1.9c-3.2-0.1-5.9-1.1-7.7-1.9C106.3,163.4,105.3,162.7,105.4,162.6z"/>
				</g>
			</g>
		</g>
	</g>
	<g class="st13">
		<path class="st62" d="M115.9,183.6c1.2,0,10.5-0.3,14.4-2.7c-3.9-2.8-11.4-7.2-14.4-1.8c-8.6-6.8-11.9,2.5-14.4,1.8
			C105.4,183.2,114.7,183.5,115.9,183.6L115.9,183.6C115.8,183.6,115.8,183.6,115.9,183.6C115.8,183.6,115.9,183.6,115.9,183.6
			L115.9,183.6z"/>
		<path class="st63" d="M115.8,183.1c-4.9,0-12.2-1-16.5-3.3c9.4,9.7,12.5,10.4,16.5,10.4s7.1-0.8,16.5-10.4
			C128,182.1,120.8,183.1,115.8,183.1z"/>
	</g>
	<path class="st61" d="M93.5,200.7"/>
</g>
<g id="boca4" class="st7">
	<g class="st13">
		<g>
			<g>
				<g>
					<path class="st50" d="M105.4,162.6c0.1-0.2,1.2,0.2,3.1,0.8s4.5,1.4,7.4,1.4c2.9-0.1,5.5-0.9,7.4-1.4c1.9-0.6,3-1,3.1-0.8
						s-0.9,0.9-2.8,1.7c-1.8,0.8-4.5,1.8-7.7,1.9c-3.2-0.1-5.9-1.1-7.7-1.9C106.3,163.4,105.3,162.7,105.4,162.6z"/>
				</g>
			</g>
		</g>
	</g>
	<g class="st13">
		<path class="st64" d="M115.9,183.6c1.2,0,10.5-0.3,14.4-2.7c-3.9-2.8-11.4-7.2-14.4-1.8c-8.6-6.8-11.9,2.5-14.4,1.8
			C105.4,183.2,114.7,183.5,115.9,183.6L115.9,183.6C115.8,183.6,115.8,183.6,115.9,183.6C115.8,183.6,115.9,183.6,115.9,183.6
			L115.9,183.6z"/>
		<path class="st65" d="M115.8,183.1c-4.9,0-12.2-1-16.5-3.3c9.4,9.7,12.5,10.4,16.5,10.4s7.1-0.8,16.5-10.4
			C128,182.1,120.8,183.1,115.8,183.1z"/>
	</g>
	<path class="st61" d="M93.5,200.7"/>
</g>
<g id="boca3" class="st7">
	<g class="st13">
		<g>
			<g>
				<g>
					<path class="st50" d="M105.4,162.6c0.1-0.2,1.2,0.2,3.1,0.8s4.5,1.4,7.4,1.4c2.9-0.1,5.5-0.9,7.4-1.4c1.9-0.6,3-1,3.1-0.8
						s-0.9,0.9-2.8,1.7c-1.8,0.8-4.5,1.8-7.7,1.9c-3.2-0.1-5.9-1.1-7.7-1.9C106.3,163.4,105.3,162.7,105.4,162.6z"/>
				</g>
			</g>
		</g>
	</g>
	<g class="st13">
		<path class="st66" d="M115.9,183.6c1.2,0,10.5-0.3,14.4-2.7c-3.9-2.8-11.4-7.2-14.4-1.8c-8.6-6.8-11.9,2.5-14.4,1.8
			C105.4,183.2,114.7,183.5,115.9,183.6L115.9,183.6C115.8,183.6,115.8,183.6,115.9,183.6C115.8,183.6,115.9,183.6,115.9,183.6
			L115.9,183.6z"/>
		<path class="st67" d="M115.8,183.1c-4.9,0-12.2-1-16.5-3.3c9.4,9.7,12.5,10.4,16.5,10.4s7.1-0.8,16.5-10.4
			C128,182.1,120.8,183.1,115.8,183.1z"/>
	</g>
	<path class="st61" d="M93.5,200.7"/>
</g>
<g id="boca2" class="st7">
	<g class="st13">
		<g>
			<g>
				<g>
					<path class="st50" d="M105.4,162.6c0.1-0.2,1.2,0.2,3.1,0.8s4.5,1.4,7.4,1.4c2.9-0.1,5.5-0.9,7.4-1.4c1.9-0.6,3-1,3.1-0.8
						s-0.9,0.9-2.8,1.7c-1.8,0.8-4.5,1.8-7.7,1.9c-3.2-0.1-5.9-1.1-7.7-1.9C106.3,163.4,105.3,162.7,105.4,162.6z"/>
				</g>
			</g>
		</g>
	</g>
	<g class="st13">
		<path class="st68" d="M115.9,183.6c1.2,0,10.5-0.3,14.4-2.7c-3.9-2.8-11.4-7.2-14.4-1.8c-8.6-6.8-11.9,2.5-14.4,1.8
			C105.4,183.2,114.7,183.5,115.9,183.6L115.9,183.6C115.8,183.6,115.8,183.6,115.9,183.6C115.8,183.6,115.9,183.6,115.9,183.6
			L115.9,183.6z"/>
		<path class="st69" d="M115.8,183.1c-4.9,0-12.2-1-16.5-3.3c9.4,9.7,12.5,10.4,16.5,10.4s7.1-0.8,16.5-10.4
			C128,182.1,120.8,183.1,115.8,183.1z"/>
	</g>
	<path class="st61" d="M93.5,200.7"/>
</g>
<g id="boca1" class="st7">
	<g class="st13">
		<path class="st70" d="M115.3,183.6c1.2,0,10.5-0.3,14.4-2.7c-2.5,0.8-11.4-7.2-14.4-1.8c-3-5.4-11.9,2.5-14.4,1.8
			C104.8,183.2,114.1,183.5,115.3,183.6L115.3,183.6C115.2,183.6,115.3,183.6,115.3,183.6L115.3,183.6L115.3,183.6z"/>
		<path class="st71" d="M115.3,183.1c-4.9,0-12.2-1-16.5-3.3c9.4,9.7,12.5,10.4,16.5,10.4s7.1-0.8,16.5-10.4
			C127.5,182.1,120.2,183.1,115.3,183.1z"/>
	</g>
	<g class="st13">
		<g>
			<g>
				<g>
					<path class="st50" d="M105.8,162.6c0.1-0.2,1.2,0.2,3.1,0.8s4.5,1.4,7.4,1.4c2.9-0.1,5.5-0.9,7.4-1.4c1.9-0.6,3-1,3.1-0.8
						s-0.9,0.9-2.8,1.7c-1.8,0.8-4.5,1.8-7.7,1.9c-3.2-0.1-5.9-1.1-7.7-1.9C106.8,163.4,105.8,162.7,105.8,162.6z"/>
				</g>
			</g>
		</g>
	</g>
	<path class="st61" d="M94,200.7"/>
</g>
</svg>
