<?xml version="1.0" encoding="utf-8"?>
<!-- Generator: Adobe Illustrator 22.1.0, SVG Export Plug-In . SVG Version: 6.00 Build 0)  -->
<svg version="1.1" id="Capa_1" xmlns="http://www.w3.org/2000/svg" xmlns:xlink="http://www.w3.org/1999/xlink" x="0px" y="0px"
	 viewBox="0 0 200 114" style="enable-background:new 0 0 200 114;" xml:space="preserve">
<style type="text/css">
	.st0{fill:url(#SVGID_1_);}
	.st1{opacity:0.4;fill:#C75958;}
	.st2{fill:url(#SVGID_2_);}
	.st3{fill:url(#SVGID_3_);}
	.st4{fill:#FE8CAB;}
	.st5{fill:#BF6980;}
	.st6{fill:#CD853C;}
	.st7{fill:#261B14;}
	.st8{fill:url(#SVGID_4_);}
	.st9{fill:url(#SVGID_5_);}
	.st10{opacity:0.2;fill:#C75958;}
	.st11{fill:#643C2C;}
	.st12{fill:#1B1211;}
	.st13{fill:#83584D;}
	.st14{fill:none;stroke:#1B1211;stroke-width:0.566;stroke-linecap:round;stroke-miterlimit:10;}
	.st15{fill:#6B191B;}
	.st16{opacity:0.6;fill:#C75C73;}
	.st17{fill:url(#SVGID_6_);}
	.st18{fill:url(#SVGID_7_);}
	.st19{fill:#14303F;}
	.st20{fill:#191D21;}
	.st21{fill:#B0AFAF;}
	.st22{opacity:0.6;fill:#737574;}
	.st23{opacity:0.4;fill:#FFFFFF;}
	.st24{fill:#E2E2E2;}
	.st25{opacity:0.3;fill:#0A1261;}
	.st26{fill:#FFFFFF;}
	.st27{fill:#47494D;}
	.st28{fill:#353739;}
	.st29{opacity:0.2;fill:#FFFFFF;}
	.st30{fill:#384F5C;}
	.st31{fill:#27414E;}
	.st32{fill:#0F2B3B;}
	.st33{fill:#272E30;}
	.st34{fill:#0D1718;}
	.st35{fill:#494B61;}
	.st36{fill:none;stroke:#171B1C;stroke-width:0.6115;stroke-miterlimit:10;}
	.st37{fill:#ECEDEF;}
	.st38{fill:#C2C3C8;}
	.st39{fill:#ADACB2;}
	.st40{fill:#8A8A86;}
	.st41{fill:#1E203B;}
</style>
<g>
	<g>
		<g>
			
				<linearGradient id="SVGID_1_" gradientUnits="userSpaceOnUse" x1="-3489.5535" y1="2710.1641" x2="-3493.3296" y2="2722.1787" gradientTransform="matrix(-2.080807e-02 -0.9998 0.9998 -2.080807e-02 -2641.0886 -3383.2771)">
				<stop  offset="0" style="stop-color:#E4B8A1"/>
				<stop  offset="1" style="stop-color:#D99A8D"/>
			</linearGradient>
			<path class="st0" d="M151.5,52.1c-10.1-2.4-14-5.8-14.1-5.9l-1,0.6l-1.1,0.4c0.2,0.4,4.8,4.1,16,6.4c0.5,0.4,1.3,0.6,2.2,0.5
				c1.3-0.2,2.3-0.9,2.2-1.6c-0.1-0.7-1.2-1.2-2.6-1.1C152.5,51.6,151.9,51.8,151.5,52.1z"/>
			<path class="st1" d="M137.4,46.3l-1,0.6l-0.4,0.2l-0.5,0.5c0.1,0,0.1,0.1,0.2,0.2c0,0,0,0,0,0c0,0,0.1,0.1,0.1,0.1c0,0,0,0,0,0
				c0,0,0.1,0.1,0.1,0.1c0,0,0,0,0,0c0,0,0.1,0.1,0.1,0.1c0,0,0,0,0,0c0.7,0.5,1.7,1.1,3.3,1.8c1.1-0.2,2.3-0.5,3.2-0.7
				C139,47.6,137.5,46.3,137.4,46.3z"/>
		</g>
		<g>
			<g>
				<g>
					
						<linearGradient id="SVGID_2_" gradientUnits="userSpaceOnUse" x1="135.2727" y1="93.2491" x2="135.7271" y2="117.1033" gradientTransform="matrix(0.9832 -0.1825 0.1825 0.9832 -18.9699 -21.1495)">
						<stop  offset="0" style="stop-color:#E4B8A1"/>
						<stop  offset="1" style="stop-color:#D99A8D"/>
					</linearGradient>
					<path class="st2" d="M141.2,66.7c0.4-0.8,0.6-1.6,0.4-2.4l-2.9-15.9c-0.4-2.4-3.3-3.9-6.4-3.3l-2.1,0.4c-3.1,0.6-5.3,3-4.8,5.4
						l2.9,15.9c0.2,0.8,0.6,1.6,1.3,2.1L141.2,66.7z"/>
					<path class="st1" d="M126.4,57c0.8-1.7,1-7.4,1-7.4l-2,2.1L126.4,57z"/>
					
						<linearGradient id="SVGID_3_" gradientUnits="userSpaceOnUse" x1="135.4562" y1="93.6931" x2="135.5414" y2="89.1792" gradientTransform="matrix(0.9832 -0.1825 0.1825 0.9832 -18.9699 -21.1495)">
						<stop  offset="0" style="stop-color:#E4B8A1"/>
						<stop  offset="1" style="stop-color:#D99A8D"/>
					</linearGradient>
					<path class="st3" d="M132.3,42.2l0.5,2.9c0,0-1,2.6-3.2,0.6l-0.5-2.9L132.3,42.2z"/>
					<path class="st1" d="M132.6,43.8c-1,0.4-2.2,0.9-3.1,1.4l-0.4-2.3l3.2-0.6L132.6,43.8z"/>
				</g>
				<path class="st4" d="M142.9,66.4c-2.1-6.1-3.4-13.5-3.4-13.5c-3-0.6-4.1-7.7-4.1-7.7l-1-0.2c-2.3,5.8-6.1,1-6.1,1l-0.9,0.5
					c1.1,5.3-1.4,8.7-1.4,8.7c1,6.1,1.2,10.7,1,14.1L142.9,66.4z"/>
				<path class="st5" d="M129.2,68.9c-0.1-0.2-0.2-0.4-0.2-0.6c6.9-0.4,12.2-2.8,13.4-3.5c-0.2-0.6-0.4-1.3-0.6-1.9l-13.5,2.5
					c-0.4-2.8-0.2-6.3,0.5-10.8c0-0.2,0.1-0.3,0.1-0.5c2.7,2.9,7.1,6.5,12.4,7.2c-0.3-1.2-0.6-2.4-0.8-3.4l-7-2.9l-4.5-3.6
					c-0.2-2-0.7-3.9-1.2-5.1l-0.3,0.1c0.3,1.5,0.4,2.8,0.2,4c0,0.2,0,0.3-0.1,0.5c0,0,0,0.1,0,0.1c0,0.1,0,0.2-0.1,0.3
					c0,0,0,0.1,0,0.1c-0.1,0.3-0.1,0.6-0.2,0.8c-0.5,1.9-1.3,2.9-1.3,2.9c0.7,4.2,1,7.6,1,10.5c0,0.2,0,0.5,0,0.7c0,0,0,0,0,0.1
					c0,0.2,0,0.4,0,0.6c0,0,0,0.1,0,0.1c0,0.2,0,0.4,0,0.5c0,0,0,0.1,0,0.1c0,0.2,0,0.4,0,0.6c0,0.3,0,0.7,0,1L129.2,68.9z"/>
				<path class="st6" d="M142.3,64.5c-0.4-1.1-0.5-1.6-0.8-2.7l0,0c-7.1,3-14.4,2.7-14.4,2.7l0,0c0.1,1.2,0.1,1.9,0.1,2.9
					C135,67.6,140.2,65.4,142.3,64.5z"/>
			</g>
			<g>
				<path class="st7" d="M128.8,41l0.7,3.3l-7.1,2.1l-10.9,2.3c-2.3,0.4-4.5-1.6-5.1-3.8c0,0-4.7-19.5-4.8-19.8
					c-0.8-3.6-0.3-20,22.5-23.2"/>
				<g>
					
						<linearGradient id="SVGID_4_" gradientUnits="userSpaceOnUse" x1="150.2581" y1="62.8185" x2="153.3451" y2="82.5717" gradientTransform="matrix(0.9458 -0.1756 0.1825 0.9832 -31.5774 -18.8094)">
						<stop  offset="0" style="stop-color:#E4B8A1"/>
						<stop  offset="1" style="stop-color:#D99A8D"/>
					</linearGradient>
					<path class="st8" d="M109.5,30.3c1.7,9,10.3,14.9,19.2,13.2s14.9-10.3,13.2-19.2c-1.7-9-10.3-14.9-19.2-13.2
						C113.7,12.8,107.8,21.4,109.5,30.3z"/>
					<g>
						
							<linearGradient id="SVGID_5_" gradientUnits="userSpaceOnUse" x1="-7096.96" y1="-225.1864" x2="-7096.9907" y2="-217.7436" gradientTransform="matrix(-0.9606 0.2778 0.2778 0.9606 -6613.0776 2206.3879)">
							<stop  offset="0" style="stop-color:#E4B8A1"/>
							<stop  offset="1" style="stop-color:#D99A8D"/>
						</linearGradient>
						<path class="st9" d="M140,23.2c0.6,2.1,2.3,3.5,3.7,3.1c1.4-0.4,2.1-2.5,1.5-4.6c-0.6-2.1-2.3-3.5-3.7-3.1
							C140.1,19,139.4,21.1,140,23.2z"/>
						<g>
							<path class="st10" d="M143.9,19.3c-0.7-0.7-1.6-1-2.4-0.7c-1.4,0.4-2.1,2.5-1.5,4.6c0.6,2.1,2.3,3.5,3.7,3.1
								c0.1,0,0.1,0,0.2-0.1c-0.9-0.2-3.8-1.2-2.8-3.9C141.7,20.5,143.9,21.5,143.9,19.3z"/>
							<g>
								<g>
									<path class="st11" d="M143.9,21.4c0,0-0.1-0.1-0.3-0.3c-0.2-0.2-0.4-0.5-0.8-0.7c-0.2-0.1-0.4-0.2-0.6-0.2
										c-0.2,0-0.4,0.1-0.5,0.3c-0.1,0.2-0.2,0.5-0.3,0.7l0,0.2c0,0.1,0,0.1,0,0.2c0,0.1,0,0.3,0,0.4c0,0.6,0.2,1.1,0.5,1.6
										c0.1,0.2,0.3,0.5,0.5,0.6c0.1,0.1,0.1,0.2,0.2,0.3c0.1,0.1,0.2,0.1,0.3,0.2c0.2,0.1,0.4,0.1,0.5,0c0.1-0.1,0.2-0.2,0.3-0.3
										c0.1-0.1,0.1-0.2,0.1-0.3c0-0.1,0-0.1,0-0.1c0,0,0,0.2-0.1,0.4c-0.1,0.1-0.1,0.3-0.3,0.4c-0.2,0.1-0.4,0.2-0.7,0.1
										c-0.1,0-0.2-0.1-0.4-0.2c-0.1-0.1-0.2-0.2-0.3-0.3c-0.2-0.2-0.4-0.4-0.5-0.7c-0.2-0.3-0.3-0.5-0.4-0.8
										c-0.1-0.3-0.2-0.6-0.2-0.9c0-0.2,0-0.3,0-0.5c0-0.1,0-0.2,0-0.3l0.1-0.2c0.1-0.3,0.2-0.6,0.4-0.9c0.2-0.3,0.5-0.4,0.8-0.4
										c0.3,0,0.5,0.2,0.7,0.3c0.4,0.3,0.6,0.6,0.7,0.9C143.8,21.2,143.9,21.4,143.9,21.4z"/>
								</g>
							</g>
							<g>
								<g>
									<path class="st11" d="M142.7,21.9c0,0-0.1-0.1-0.3-0.3c-0.1-0.1-0.2-0.2-0.3-0.2c-0.1,0-0.1-0.1-0.2-0.1
										c-0.1,0-0.1,0-0.2,0c-0.1,0-0.1,0-0.2,0.1c0,0.1-0.1,0.1-0.1,0.1c0,0.1-0.1,0.1-0.1,0.2c0,0.1,0,0.1-0.1,0.2
										c0,0.1,0,0.2-0.1,0.3c0,0.1,0,0.1,0,0.1l-0.3-0.1c0,0,0,0,0-0.1c0-0.1,0.1-0.2,0.1-0.3c0-0.1,0.1-0.1,0.1-0.2
										c0-0.1,0.1-0.1,0.1-0.2c0-0.1,0.1-0.1,0.2-0.2c0.1,0,0.2-0.1,0.3-0.1c0.1,0,0.2,0,0.3,0c0.1,0,0.1,0.1,0.2,0.1
										c0.1,0.1,0.2,0.2,0.3,0.3C142.6,21.8,142.7,21.9,142.7,21.9z"/>
								</g>
							</g>
						</g>
					</g>
					<path class="st12" d="M139.6,20.3c0,0,4.3,11.6,8.2,9.8c0,0-4.8-1.6-7-10.9L139.6,20.3z"/>
					<g>
						<path class="st12" d="M123.1,31.8L123.1,31.8l-1,0.2c0,0.2,0.1,0.3,0.2,0.4l0.9-0.5C123.1,31.9,123.1,31.8,123.1,31.8z"/>
					</g>
					<g>
						<path class="st12" d="M122.9,31.1L122.9,31.1l-1-0.1c0,0.2,0,0.3,0,0.5l1-0.2C122.9,31.2,122.9,31.1,122.9,31.1z"/>
					</g>
					<path class="st10" d="M108.6,29.5c-0.6-2.1-0.6-4.2,0-6.1l19.9-11.4c4.2-0.7,8.4,1.2,10.7,4.7l1.9,5.4c0,0-9.2,4.8-13.5-3.6
						C127.6,18.5,125.6,39.6,108.6,29.5z"/>
					<g>
						<g>
							<path class="st13" d="M128.9,29.6c0.1,0.2,0.3,0.4,0.4,0.6l0-0.1c0,0,0.1,0,0.1,0c0,0,0.1,0,0.1,0c0.1,0,0.2,0,0.3,0
								c0.1,0,0.2-0.1,0.3-0.1c0.1,0,0.2-0.1,0.3-0.1l0,0c0.1,0,0.2,0,0.3,0.1c0,0,0,0.1,0,0.1c-0.1,0.3-0.2,0.6-0.4,0.8
								c-0.1,0.1-0.2,0.3-0.3,0.4c-0.1,0.1-0.2,0.2-0.4,0.3c0-0.1,0.1-0.1,0.1-0.2c0-0.1,0.1-0.1,0.1-0.2c0.1-0.1,0.1-0.3,0.2-0.4
								c0.1-0.3,0.2-0.5,0.2-0.8l0.3,0.2c-0.1,0.1-0.2,0.1-0.3,0.1c-0.1,0-0.2,0.1-0.4,0.1c-0.1,0-0.3,0-0.4,0c-0.1,0-0.1,0-0.2-0.1
								c-0.1,0-0.1-0.1-0.2-0.1l0,0c0,0,0,0,0,0C128.9,30.1,128.9,29.8,128.9,29.6z"/>
						</g>
					</g>
					<g>
						<path class="st14" d="M125.4,31.1c-0.2-0.7-1-1-1.6-0.8c-0.7,0.2-1,1-0.8,1.6"/>
					</g>
					<path class="st12" d="M133.9,25.3c0,0-1.6-0.3-3.4,1.1C130.4,26.4,131.5,24.2,133.9,25.3z"/>
					<path class="st12" d="M121.6,29.6c0,0,1-1.2,3.4-1.3C125,28.3,122.7,27.3,121.6,29.6z"/>
					<path class="st15" d="M127.9,33.8c0.5,1.4,1.9,2.2,3.2,1.8c1.3-0.4,1.9-2,1.4-3.4L127.9,33.8z"/>
					<path class="st16" d="M118.3,37.2c0.5,1.5,2.2,2.3,3.6,1.7c1.5-0.5,2.3-2.2,1.7-3.6c-0.5-1.5-2.2-2.3-3.6-1.7
						C118.5,34.1,117.8,35.7,118.3,37.2z"/>
					<path class="st16" d="M135,31.3c0.5,1.5,2.2,2.3,3.6,1.7c1.5-0.5,2.3-2.2,1.7-3.6c-0.5-1.5-2.2-2.3-3.6-1.7
						C135.3,28.2,134.5,29.9,135,31.3z"/>
					<g>
						
							<linearGradient id="SVGID_6_" gradientUnits="userSpaceOnUse" x1="-438.5076" y1="1209.3578" x2="-438.5421" y2="1217.7761" gradientTransform="matrix(0.844 -0.5363 0.5363 0.844 -171.2997 -1225.1461)">
							<stop  offset="0" style="stop-color:#E4B8A1"/>
							<stop  offset="1" style="stop-color:#D99A8D"/>
						</linearGradient>
						<path class="st17" d="M112.3,33.1c1.3,2.1,1.2,4.5-0.2,5.4c-1.4,0.9-3.7,0-5-2.1c-1.3-2.1-1.2-4.5,0.2-5.4
							C108.8,30,111,31,112.3,33.1z"/>
						<g>
							<path class="st10" d="M106.2,33.5c0-1.1,0.4-2,1.1-2.5c1.4-0.9,3.7,0,5,2.1c1.3,2.1,1.2,4.5-0.2,5.4c-0.1,0-0.1,0.1-0.2,0.1
								c0.5-1,1.8-4.2-1.2-5.3C108.8,32.5,108,35.1,106.2,33.5z"/>
							<g>
								<g>
									<path class="st11" d="M107.9,35c0,0-0.1-0.2-0.2-0.4c-0.1-0.3-0.2-0.7-0.2-1.3c0-0.3,0.1-0.6,0.3-0.9
										c0.2-0.3,0.6-0.4,1-0.4c0.4,0,0.7,0.2,1,0.3l0.2,0.1c0.1,0.1,0.2,0.1,0.2,0.2c0.1,0.1,0.3,0.2,0.4,0.4
										c0.3,0.3,0.5,0.6,0.6,0.9c0.2,0.3,0.3,0.6,0.4,1c0.1,0.3,0.1,0.6,0.2,1c0,0.1,0,0.3,0,0.5c0,0.2-0.1,0.3-0.1,0.4
										c-0.1,0.3-0.4,0.5-0.6,0.5c-0.2,0-0.4,0-0.6,0c-0.3-0.1-0.4-0.2-0.4-0.2c0,0,0,0,0.1,0c0.1,0,0.2,0.1,0.3,0.1
										c0.1,0,0.3,0,0.5,0c0.2-0.1,0.3-0.2,0.4-0.4c0-0.1,0.1-0.2,0.1-0.4c0-0.1,0-0.2,0-0.4c0-0.3-0.1-0.6-0.2-0.9
										c-0.2-0.6-0.5-1.2-1-1.6c-0.1-0.1-0.2-0.2-0.4-0.3c-0.1-0.1-0.2-0.2-0.4-0.3c-0.3-0.2-0.6-0.3-0.8-0.3
										c-0.3,0-0.5,0-0.7,0.2c-0.2,0.2-0.3,0.4-0.3,0.7c-0.1,0.5,0,0.9,0,1.2C107.9,34.9,107.9,35,107.9,35z"/>
								</g>
							</g>
							<g>
								<g>
									<path class="st11" d="M109.2,34.5c0,0-0.1-0.2-0.1-0.4c0-0.1,0-0.3,0-0.5c0-0.1,0-0.2,0-0.3c0-0.1,0.1-0.2,0.1-0.3
										c0.1-0.1,0.2-0.1,0.3-0.2c0.1,0,0.2,0,0.3,0c0.1,0,0.2,0,0.3,0c0.1,0,0.2,0,0.2,0.1c0.1,0,0.2,0.1,0.3,0.1
										c0.1,0,0.1,0,0.1,0l-0.2,0.3c0,0,0,0-0.1-0.1c-0.1,0-0.2-0.1-0.3-0.1c-0.1,0-0.1,0-0.2-0.1c-0.1,0-0.1,0-0.2,0
										c-0.1,0-0.1,0-0.2,0c-0.1,0-0.1,0-0.2,0.1c-0.1,0-0.1,0.1-0.1,0.2c0,0.1-0.1,0.1-0.1,0.2c0,0.2,0,0.3,0,0.4
										C109.2,34.3,109.2,34.5,109.2,34.5z"/>
								</g>
							</g>
						</g>
					</g>
				</g>
				<g>
					<path class="st12" d="M134.1,27.9L134.1,27.9l0.9-0.5c0.1,0.1,0.1,0.3,0.1,0.4l-1,0.2C134.2,28,134.2,27.9,134.1,27.9z"/>
				</g>
				<g>
					<path class="st12" d="M133.7,27.3L133.7,27.3l0.7-0.7c0.1,0.1,0.2,0.2,0.3,0.4l-0.9,0.5C133.8,27.4,133.7,27.4,133.7,27.3z"/>
				</g>
				<g>
					<path class="st14" d="M131.8,28.8c-0.2-0.7,0.1-1.4,0.8-1.6c0.7-0.2,1.4,0.1,1.6,0.8"/>
				</g>
				<path class="st7" d="M109.1,30.6c0,0,19.5,5.7,17.1-17.9c0,0,4.7,13,15.3,9.2c0,0-1.8-21.9-19.2-18.9
					C122.2,3.1,95.8,9.3,109.1,30.6z"/>
				<path class="st12" d="M109.1,30.6c0,0,19.5,5.7,17.1-17.9c0,0,4.7,13,15.3,9.2c0,0-0.1-1.1-0.4-2.8c-8,2.4-16-10.9-16-10.9
					c1.8,19.4-12.5,19.3-18,18.6C107.6,28.1,108.2,29.3,109.1,30.6z"/>
				<path class="st12" d="M109.4,29.8c0,0,3.7,14.7,9,13.5c0,0-4.7,0.1-7.1-13.9L109.4,29.8z"/>
			</g>
		</g>
		<g>
			
				<linearGradient id="SVGID_7_" gradientUnits="userSpaceOnUse" x1="-2627.3201" y1="2714.6294" x2="-2631.0962" y2="2726.6443" gradientTransform="matrix(0.1683 -0.9858 0.9858 0.1683 -2103.0237 -2994.1033)">
				<stop  offset="0" style="stop-color:#E4B8A1"/>
				<stop  offset="1" style="stop-color:#D99A8D"/>
			</linearGradient>
			<path class="st18" d="M140.4,57.7c-9.5-4.3-12.7-8.4-12.7-8.4l-1.1,0.4l-1.2,0.2c0.2,0.5,4,4.9,14.5,9.3c0.4,0.5,1.2,0.8,2.1,0.9
				c1.3,0.1,2.4-0.4,2.5-1.2c0.1-0.7-1-1.4-2.3-1.5C141.5,57.3,140.8,57.4,140.4,57.7z"/>
		</g>
	</g>
	<g>
		<polygon class="st19" points="154.6,105 159.9,83.8 153.2,86.3 153.2,102.6 		"/>
		<polygon class="st19" points="151.7,105.8 138.7,90.7 143.4,89.1 152.6,104.9 		"/>
		<g>
			<path class="st20" d="M195.7,59.2c0.8,4.4-2.3,8.7-7,9.5c-4.7,0.9-9.1-2-10-6.4c-0.8-4.4,2.3-8.7,7-9.5
				C190.5,51.9,194.9,54.8,195.7,59.2z"/>
			<g>
				<g>
					<path class="st21" d="M173.8,48.2c0.2,1-0.5,2-1.5,2.2c-1,0.2-2-0.5-2.2-1.5c-0.2-1,0.5-2,1.5-2.2
						C172.6,46.5,173.6,47.2,173.8,48.2z"/>
					<path class="st22" d="M170.1,48.9c0.2,1,1.2,1.7,2.2,1.5c0.6-0.1,1.1-0.5,1.3-1c-0.7,0.1-1.7,0.2-2-0.6
						c-0.4-0.7-0.9-1.1-1.3-1.2C170.1,48,170,48.4,170.1,48.9z"/>
					<path class="st23" d="M170.9,47.1c0,0,2.7-1,2.6,1.9C173.5,48.9,173,47.3,170.9,47.1z"/>
				</g>
				<g>
					<path class="st21" d="M179.6,79.8c0.2,1-0.5,2-1.5,2.2c-1,0.2-2-0.5-2.2-1.5c-0.2-1,0.5-2,1.5-2.2
						C178.5,78.1,179.5,78.7,179.6,79.8z"/>
					<path class="st22" d="M175.9,80.5c0.2,1,1.2,1.7,2.2,1.5c0.6-0.1,1.1-0.5,1.3-1c-0.7,0.1-1.7,0.2-2-0.6
						c-0.4-0.7-0.9-1.1-1.3-1.2C175.9,79.5,175.8,80,175.9,80.5z"/>
					<path class="st23" d="M176.8,78.7c0,0,2.7-1,2.6,1.9C179.4,80.5,178.9,78.9,176.8,78.7z"/>
				</g>
				<g>
					<g>
						<path class="st24" d="M174.8,50c0,0,3.5-0.7,10.4,0l4.3,23.2c0,0-4.5,2.5-9.8,3.4L174.8,50z"/>
						<polygon class="st25" points="175.9,54.7 185.3,54.7 187.7,67.7 178.8,71.4 						"/>
						<path class="st19" d="M187,64.6l-9.2,1.7l1.9,10.3c4.1-0.8,7.8-2.4,9.2-3.1L187,64.6z"/>
						<path class="st26" d="M176.8,50l0.7,3.7l7.6-0.3l-0.5-2.9C184.5,50.5,182.3,50.1,176.8,50z"/>
					</g>
					<path class="st24" d="M164.7,48.1c0,0,4.5-0.9,13.5,0l5.5,29.8c0,0-5.8,3.2-12.6,4.4L164.7,48.1z"/>
					<polygon class="st25" points="166.1,54.2 178.2,54.3 181.3,70.9 169.8,75.8 					"/>
					<path class="st19" d="M180.5,67l-11.8,2.2l2.5,13.2c5.3-1,10-3.1,11.8-4L180.5,67z"/>
					<g>
						<path class="st27" d="M119.1,62.9c0,0-3.1-5.1-3.4-10.3c0,0,3-6,7.5,0.8c0,0,8.3,6.2,9.7,12.2
							C132.9,65.5,121.4,65.8,119.1,62.9z"/>
						<path class="st28" d="M132.2,63.5c-4.5,0.8-10-4.1-10-4.1c-2.4-1-4.8-5.1-6-7.6c-0.3,0.4-0.5,0.7-0.5,0.7
							c0.3,5.2,3.4,10.3,3.4,10.3c2.3,2.9,13.8,2.6,13.8,2.6C132.7,64.8,132.5,64.1,132.2,63.5z"/>
						<path class="st29" d="M117.2,51.6c0,0,2.5-2.7,5.4,2.5c0,0,3.6,0.7,6,4.7c0,0-2-2.8-7.2-4.1C121.5,54.8,120.3,51.7,117.2,51.6
							z"/>
					</g>
					<path class="st30" d="M145.5,48.6c0,7.2-5.1,13.5-12.4,14.9c-7.4,1.4-14.5-2.8-17-9.6c-8.6,1.7-17.4,3.6-26.1,5.6
						c0.1,7-4.9,13.2-12,14.5c-6.6,1.2-13-2.2-15.8-8C37.6,71.8,19,76.8,19,76.8c-3.6,1.2-8.9,3.3-9.3,6.2c-0.6,3.9,8,9.1,40.7,14.1
						c57,8.6,123-13.7,123-13.7l-6.9-37.2C160.6,46.5,153.5,47.4,145.5,48.6z"/>
					<g>
						<path class="st27" d="M64.3,73.1c0,0-3.1-5.1-3.4-10.3c0,0,3-6,7.5,0.8c0,0,8.3,6.2,9.7,12.2C78,75.7,66.6,76,64.3,73.1z"/>
						<path class="st28" d="M77.3,73.7c-4.5,0.8-10-4.1-10-4.1c-2.4-1-4.8-5.1-6-7.6c-0.3,0.4-0.5,0.7-0.5,0.7
							c0.3,5.2,3.4,10.3,3.4,10.3C66.6,76,78,75.7,78,75.7C77.9,75,77.6,74.3,77.3,73.7z"/>
						<path class="st29" d="M62.4,61.8c0,0,2.5-2.7,5.4,2.5c0,0,3.6,0.7,6,4.7c0,0-2-2.8-7.2-4.1C66.7,64.9,65.4,61.9,62.4,61.8z"/>
					</g>
					<path class="st31" d="M76.4,83.9c-31.5-5.7-54.4-4.6-65.2-3.3c-0.9,0.7-1.4,1.5-1.6,2.4c-0.6,3.9,8,9.1,40.7,14.1
						c57,8.6,123-13.7,123-13.7l-2.2-12C152.5,77.8,110.3,90.1,76.4,83.9z"/>
					<path class="st19" d="M9.9,84.7c1.9,3.6,12.2,8.1,40.3,12.4c57,8.6,123-13.7,123-13.7l-1-5.3C86,107,22.6,88.9,9.9,84.7z"/>
					<path class="st30" d="M13.6,79.9L4.1,54.2c0,0,5.8-5.4,13-1.8l23.1,21.7L13.6,79.9z"/>
					<path class="st31" d="M37.7,71.7l-22.9-2.4L5.3,53.4c-0.7,0.5-1.2,0.9-1.2,0.9l9.4,25.6l26.7-5.8L37.7,71.7z"/>
					<path class="st32" d="M11.3,94.7l0.1,0.8c0,0,21.4-0.8,27.5-10.7l-0.3-1.4C38.7,83.3,22.8,91.8,11.3,94.7z"/>
					<path class="st30" d="M15.9,87.2l22.7-3.9c0,0-4.2,7.2-21.2,10.2l-6.2,1.2L15.9,87.2z"/>
					<path class="st33" d="M89.9,59.4c0.1,7-4.9,13.2-12,14.5c-6.6,1.2-13-2.2-15.8-8c-3.7-1.9-5.6,1.4-5.6,1.4
						C67,81.9,79.7,77.5,79.7,77.5c16.6-5.8,12.6-18.6,12.6-18.6l0,0C92.3,58.9,90.9,58.1,89.9,59.4z"/>
					<path class="st34" d="M58.6,65.5c-1.4,0.5-2.2,1.8-2.2,1.8C67,81.9,79.7,77.5,79.7,77.5c7.7-2.7,11-7,12.3-10.7
						C74.8,86,62.1,70.6,58.6,65.5z"/>
					<path class="st29" d="M12.4,52.1c0,0,3.5-1.3,19.6,16.5C32,68.5,16.3,59.6,12.4,52.1z"/>
					<path class="st29" d="M72.7,80c0,0-13.7-3.5-17.7-10.7l-11.2,2.1l10-0.5C53.8,70.9,57.3,80.1,72.7,80z"/>
					<path class="st28" d="M147.8,48.3c1.5,15.5-13.3,18.6-13.3,18.6c-16.7,2.7-21.4-7.6-22.6-12.2c0,0,1.8-3.1,4.2-0.9
						c2.5,6.8,9.6,11,17,9.6c7.3-1.4,12.4-7.7,12.4-14.9C145.5,48.6,146.6,47.3,147.8,48.3z"/>
					<path class="st34" d="M144,61.3c-2.5,1.1-5.1,2.6-5.1,2.6c-16.7,7.7-23.7-7.4-25.1-10.7c-1.1,0.3-1.9,1.6-1.9,1.6
						c1.2,4.5,5.9,14.9,22.6,12.2C134.5,66.9,140,65.7,144,61.3z"/>
					<g>
						<path class="st30" d="M92.9,85.1c0,0,29.6-11.9,68.3-12.7c0,0,9.1,6.2-31.1,13.4C130.1,85.9,83.7,92.6,92.9,85.1z"/>
						<path class="st29" d="M96.3,84.5c0,0,57.5-12,62.9-9.5C159.2,75,152.8,69.4,96.3,84.5z"/>
					</g>
					<path class="st26" d="M167.3,48.2l0.9,4.7l9.7-0.4l-0.7-3.7C177.2,48.9,174.4,48.3,167.3,48.2z"/>
				</g>
				<g>
					<path class="st21" d="M175.2,55.6c0.2,1-0.5,2-1.5,2.2c-1,0.2-2-0.5-2.2-1.5c-0.2-1,0.5-2,1.5-2.2
						C174,53.9,175,54.6,175.2,55.6z"/>
					<path class="st22" d="M171.4,56.3c0.2,1,1.2,1.7,2.2,1.5c0.6-0.1,1.1-0.5,1.3-1c-0.7,0.1-1.7,0.2-2-0.6
						c-0.4-0.7-0.9-1.1-1.3-1.2C171.4,55.4,171.3,55.8,171.4,56.3z"/>
					<path class="st23" d="M172.3,54.5c0,0,2.7-1,2.6,1.9C174.9,56.4,174.4,54.7,172.3,54.5z"/>
				</g>
				<g>
					<path class="st21" d="M176.7,64c0.2,1-0.5,2-1.5,2.2c-1,0.2-2-0.5-2.2-1.5c-0.2-1,0.5-2,1.5-2.2C175.5,62.3,176.5,63,176.7,64z
						"/>
					<path class="st22" d="M173,64.7c0.2,1,1.2,1.7,2.2,1.5c0.6-0.1,1.1-0.5,1.3-1c-0.7,0.1-1.7,0.2-2-0.6c-0.4-0.7-0.9-1.1-1.3-1.2
						C173,63.8,172.9,64.2,173,64.7z"/>
					<path class="st23" d="M173.9,62.9c0,0,2.7-1,2.6,1.9C176.5,64.7,176,63.1,173.9,62.9z"/>
				</g>
				<g>
					<path class="st21" d="M178.6,74.2c0.2,1-0.5,2-1.5,2.2c-1,0.2-2-0.5-2.2-1.5c-0.2-1,0.5-2,1.5-2.2
						C177.4,72.5,178.4,73.2,178.6,74.2z"/>
					<path class="st22" d="M174.9,74.9c0.2,1,1.2,1.7,2.2,1.5c0.6-0.1,1.1-0.5,1.3-1c-0.7,0.1-1.7,0.2-2-0.6
						c-0.4-0.7-0.9-1.1-1.3-1.2C174.9,74,174.8,74.4,174.9,74.9z"/>
					<path class="st23" d="M175.7,73.1c0,0,2.7-1,2.6,1.9C178.4,75,177.9,73.3,175.7,73.1z"/>
				</g>
			</g>
			<g>
				<path class="st20" d="M183.4,29.1c0,0,0.3,1,0.8,2.8c0.5,1.8,1.2,4.3,1.9,7.3c0.4,1.5,0.8,3.2,1.2,4.9c0.4,1.7,0.8,3.6,1.2,5.5
					c0.8,3.8,1.6,7.9,2.4,12c0.4,2,0.8,4.1,1.1,6.1c0.4,2,0.7,4,1,5.9c0.3,1.9,0.6,3.8,0.8,5.6c0.3,1.8,0.5,3.5,0.7,5
					c0.4,3.1,0.7,5.7,0.9,7.5c0.2,1.8,0.2,2.9,0.2,2.9s-0.3-1-0.8-2.8c-0.5-1.8-1.2-4.3-1.9-7.3c-0.4-1.5-0.8-3.2-1.2-4.9
					c-0.4-1.7-0.8-3.6-1.2-5.5c-0.4-1.9-0.8-3.9-1.2-5.9c-0.4-2-0.8-4.1-1.2-6.1c-0.8-4.1-1.5-8.2-2.1-12.1
					c-0.3-1.9-0.6-3.8-0.8-5.6c-0.3-1.8-0.5-3.5-0.7-5c-0.4-3.1-0.7-5.7-0.9-7.5C183.5,30.2,183.4,29.1,183.4,29.1z"/>
			</g>
		</g>
		<g>
			<path class="st35" d="M159.9,103.3c0.8,4.1-1.9,8-6,8.8c-4.1,0.8-8-1.9-8.8-6c-0.8-4.1,1.9-8,6-8.8
				C155.2,96.5,159.2,99.2,159.9,103.3z"/>
			<path class="st36" d="M157.2,103.8c0.5,2.6-1.2,5.1-3.8,5.6c-2.6,0.5-5.1-1.2-5.6-3.8c-0.5-2.6,1.2-5.1,3.8-5.6
				C154.3,99.5,156.7,101.2,157.2,103.8z"/>
			<path class="st37" d="M156.4,104c0.4,2.2-1,4.2-3.2,4.6c-2.2,0.4-4.2-1-4.6-3.2c-0.4-2.2,1-4.2,3.2-4.6
				C154,100.4,156,101.8,156.4,104z"/>
			<path class="st38" d="M155.3,104.2c0.3,1.5-0.7,3-2.3,3.3c-1.5,0.3-3-0.7-3.3-2.3c-0.3-1.5,0.7-3,2.3-3.3
				C153.5,101.6,155,102.6,155.3,104.2z"/>
			<path class="st39" d="M154.8,104.3c0.2,1.2-0.6,2.4-1.8,2.7c-1.2,0.2-2.4-0.6-2.7-1.8c-0.2-1.2,0.6-2.4,1.8-2.7
				C153.4,102.2,154.5,103,154.8,104.3z"/>
			<path class="st40" d="M154.8,104.3c0.2,1.2-0.6,2.4-1.8,2.7c-1.2,0.2-2.4-0.6-2.7-1.8L154.8,104.3z"/>
			<path class="st41" d="M159.9,103.3c-0.1-0.4-0.2-0.7-0.3-1.1c0.2,2.4-0.2,6.6-3.5,7.8c0,0-5.1,3.1-8.7-1.2
				c-1.1-1.3-1.8-2.4-2.4-2.9c0,0,0,0.1,0,0.1c0.8,4.1,4.7,6.8,8.8,6C158,111.4,160.7,107.4,159.9,103.3z"/>
			<path class="st26" d="M151.2,103.2c0,0,2-1.4,3.2,0.7C154.4,103.9,153.3,102.7,151.2,103.2z"/>
			<path class="st29" d="M152.2,97.7c0,0,5.3,0.2,6.5,4.9C158.7,102.5,156.1,99.2,152.2,97.7z"/>
		</g>
	</g>
</g>
</svg>
