<?xml version="1.0" encoding="utf-8"?>
<!-- Generator: Adobe Illustrator 22.1.0, SVG Export Plug-In . SVG Version: 6.00 Build 0)  -->
<svg version="1.1" id="Capa_1" xmlns="http://www.w3.org/2000/svg" xmlns:xlink="http://www.w3.org/1999/xlink" x="0px" y="0px"
	 viewBox="0 0 500 469" style="enable-background:new 0 0 500 469;" xml:space="preserve">
<style type="text/css">
	.st0{fill:#00CBCA;}
	.st1{fill:#CADC62;}
	.st2{opacity:0.2;}
	.st3{opacity:0.65;fill:#3AB5B6;}
	.st4{opacity:0.2;fill:#008A89;}
	.st5{fill:#FFFFFF;}
	.st6{opacity:0.2;fill:#FFFFFF;}
	.st7{fill:#DFE0DE;}
	.st8{fill:none;stroke:#DFE0DE;stroke-width:7;stroke-linecap:round;stroke-linejoin:round;stroke-miterlimit:10;}
	.st9{fill:none;stroke:#DFE0DE;stroke-width:5;stroke-linecap:round;stroke-linejoin:round;stroke-miterlimit:10;}
	.st10{fill:none;stroke:#DFE0DE;stroke-width:8;stroke-linecap:round;stroke-linejoin:round;stroke-miterlimit:10;}
</style>
<g>
	<g>
		
			<ellipse transform="matrix(0.7071 -0.7071 0.7071 0.7071 -97.2035 249.8656)" class="st0" cx="253" cy="242.3" rx="194.2" ry="194.2"/>
		<g>
			<path class="st1" d="M260.3,435.4c1.6,1.3,4,1.1,6.1,0.7c4-0.6,8.1-1.3,12.1-1.9c1-0.2,2.1-0.4,2.9-1c-7,1-14.1,1.7-21.4,1.9
				C260.1,435.3,260.2,435.4,260.3,435.4z"/>
			<path class="st1" d="M414.5,135.8c-1-1.3-2-2.5-3-3.7c3.1,4.6,6.1,9.3,8.9,14.2C418.8,142.6,417,139,414.5,135.8z"/>
			<path class="st1" d="M356.6,78.6c2.5,2.1,5.6,3.3,8.6,4.7c-3.6-2.6-7.4-5-11.2-7.4C354.8,76.9,355.6,77.8,356.6,78.6z"/>
			<path class="st1" d="M201.7,191.2c0.2-0.1,0.4-0.1,0.6-0.2C202.1,191,201.9,191,201.7,191.2z"/>
			<path class="st1" d="M390.4,105.4c0.8,0.6,1.6,1.1,2.4,1.6c-4.8-5-10-9.8-15.3-14.2C381.6,97.2,385.5,102,390.4,105.4z"/>
			<path class="st1" d="M413.3,132.1c-3.1-4.5-6.3-8.8-9.8-13c0.2,0.3,0.3,0.6,0.5,0.8C406.6,124.3,410,128.2,413.3,132.1z"/>
			<path class="st1" d="M202.3,191c0.2,0,0.4,0.1,0.6,0.2c0.1-0.1,0.2-0.3,0.3-0.4C202.9,190.8,202.6,190.9,202.3,191z"/>
			<path class="st1" d="M283.3,430.7c0.5-0.5,1.2-0.7,1.9-1c3.4-1.4,6-4.4,7-7.9c0.2-0.9,0.4-1.8,0.8-2.5c1.7-2.8,6.5-1.9,8.5-4.5
				c0.7-0.9,1-2.1,1.7-3c0.8-1,2-1.6,2.8-2.6c1.4-1.8,1.1-4.4,1.4-6.7c0.7-5.1,4.8-9.1,6-14.1c0.2-0.8,0.3-1.7,0.7-2.5
				c0.4-0.8,1.1-1.5,1.7-2.2c2.7-2.9,6-7.3,6-11.3c0-0.7,0-1.4,0-2.1c-1.3-1.5-4.1-0.3-5.6-1.6c-0.8-0.7-1-1.9-1.8-2.6
				c-0.6-0.6-1.4-0.8-2.2-1c-3.5-0.8-7.2-1.7-10.6-0.4c-0.9,0.3-1.8,0.8-2.8,0.9c-1.1,0-2.1-0.5-3.1-1c-3.8-1.7-8.4-1.9-12.3-0.4
				c-1.3,0.5-2.5,1.1-3.9,1.3c-1.4,0.2-2.9-0.2-3.6-1.4c-1.2-2.1,1-4.4,2.9-5.8c-0.3-1-0.7-2-1-3c-2.5-0.8-3.6-3.7-5.3-5.7
				c-2.6-3.1-7.2-4.5-11.1-3.3c-1.4,0.4-2.7,1.1-4.1,1c-1.9-0.1-3.3-1.6-4.7-2.8c-3.3-2.7-7.7-4.2-12-4.1c-0.3-3.6-0.5-7.1-0.4-10.7
				c-1.9-1.3-3.5,2.2-5.8,2.6c-1.2,0.2-2.4-0.5-3.6-1.1c-2.4-1.1-5.7-1.1-7.4,1c-0.5,0.7-0.9,1.5-1.6,2c-2,1.4-4.2-1.6-5.4-3.7
				c-0.7,1-1.1,2.2-0.9,3.4c-0.6-0.3-1.3-0.4-2-0.3c0-1.4-0.1-2.9-0.7-4.2c-0.7-1.3-2.1-2.2-3.5-1.8c0.4,3,0.2,6.1-0.6,9
				c-1.3,0.5-2.6-0.9-2.8-2.3c-0.2-1.4,0.3-2.7,0.3-4.1c0-1.4-0.6-3-1.9-3.3c-0.2,3.5-3.5,5.9-6.4,8c-2.8,2.1-5.6,5.6-4.1,8.8
				c-1.5-2.8-5.5-2.9-8.7-2.7c-3,0.3-5.9,0.5-8.9,0.8c-0.2-2.9-2.3-5.5-4.6-7.3c-0.8-0.6-1.7-1.2-2.1-2.1c-0.7-1.4-0.1-3,0.2-4.5
				c0.5-3.1-0.5-6.4-2.6-8.7c-0.4-0.4-0.9-0.9-1.4-1.1c-1.6-0.6-3.3,0.6-4.7,1.5c-1.4,0.9-3.7,1.6-4.7,0.2c-0.3-0.4-0.4-0.9-0.6-1.4
				c-1.3-5.1-2.5-10.3-2.1-15.5c0.1-1.4,0.4-2.9,0.1-4.2c-0.4-2-2.1-3.8-4.1-4.3c-2-0.5-4.3,0.2-5.6,1.8c-2.2,2.6-1.5,6.4-1.3,9.7
				c0.1,1.4,0.1,2.9-0.9,3.8c-1.3,1.3-3.7,0.8-5.1-0.5c-1.4-1.3-2.1-3.1-3.2-4.6c-1.5-2.1-3.8-3.7-6.3-4.4c-0.4-2.5-1-4.4-2.1-6.7
				c-3.1-5.9-2.2-13-1.2-19.6c0.3-1.8,0.5-3.7,1.4-5.4c1.6-3.2,5.3-5.2,8.8-4.8c1.7,0.2,3.3,0.9,5,1.2c1.7,0.3,3.6,0.2,4.8-1
				c1.2-1.2,1.3-3.6-0.3-4.3c2.4-1.5,5.5-3,7.8-1.4c1.9,1.3,2.3,4.1,4.2,5.4c1.3,0.9,3.1,0.8,4.3,1.8c0.8,0.6,1.3,1.6,1.8,2.6
				c1,2,1.9,4.1,2.9,6.1c0.8,1.7,1.7,3.5,3.3,4.5c1.6,1,4.1,0.8,4.9-0.9c0.7-1.5-0.2-3.3-1.4-4.6c-1.1-1.3-2.5-2.5-2.8-4.2
				c-0.2-1,0.1-2.1-0.2-3c-0.5-1.5-2.1-2.2-3-3.5c-1.5-2.5,0.5-5.6,2.4-7.8c1.9-2.2,3.9-5.3,2.4-7.8c2.1-0.1,4-1.6,5-3.5
				c1.1-1.8,1.5-4,1.9-6.1c0.8-4.4,1.6-9.2-0.5-13.1c-0.5-0.9-1.2-2.2-0.4-2.9c0.3-0.3,0.8-0.4,1.3-0.5c4.2-1,7.4-5.4,6.9-9.8
				c1.6-0.8,2.8-2.2,3.4-3.9c0.9,0.4,1.9,0.7,2.8,1.1c2.1,0,2.7-2.9,2.3-4.9c-0.4-2-0.8-4.6,0.9-5.8c0.7-0.4,1.5-0.5,2.2-0.7
				c2.6-0.8,5.4-3.3,7-5.6c-0.2-0.1-0.4-0.2-0.6-0.2c-0.2,0.1-0.4,0.1-0.6,0.2c0.2-0.1,0.4-0.2,0.6-0.2c0.3-0.1,0.6-0.2,0.9-0.3
				c-0.1,0.1-0.2,0.3-0.3,0.4c0.6,0.4,1.1,1.3,1.2,2.1c0.1,1.3,0.1,2.9,1.2,3.4c1,0.4,2-0.3,2.7-1.1c3-3.1,5-7.3,8.7-9.5
				c1.1-0.6,2.3-1,3-2c1-1.2,0.9-3.2-0.2-4.3c-1.1-1.1-3.1-1.3-4.3-0.3c0.2,1,0.2,2.2-0.3,3.1c-0.5,0.9-1.9,1.4-2.7,0.7
				c-1.4-1.9-4.3-2.4-6.2-1.2c-1.3-2.1-0.5-4.8,0.6-6.9c0.7-1.3,1.6-2.6,3-3.2c1-0.5,2.2-0.5,3.3-0.9c1-0.5,1.9-1.7,1.4-2.7
				c-2.3-1.5-5,1-7.6,1.7c-0.9,0.2-1.8,0.3-2.7,0.5c-3.6,0.9-5.4,4.8-6.7,8.3c-1.3,0.8-3.1-0.3-3.5-1.7c-0.4-1.5,0.3-3,1.3-4.2
				c1-1.2,2.2-2,3.3-3.2c0.8-0.8,1.4-1.8,2.4-2.4c3.5-2.4,9.3,0.7,12.1-2.5c0.6-0.6,0.9-1.5,1.6-2c1-0.8,2.5-0.6,3.8-0.9
				c1.3-0.2,2.8-1.4,2.3-2.6c1.4-0.6,3-0.3,4.5-0.5c1.5-0.2,3.2-1,3.3-2.6c0.1-1.9-2.3-3-2.9-4.9c-0.3-0.7-0.2-1.5-0.5-2.3
				c-0.5-1.5-2.2-2.2-3.6-3.1c-4.1-2.4-6.5-6.8-8.7-11c-0.9-1.7-1.8-3.5-2.2-5.4c-0.4-2-0.5-4.7-2.4-5.3c-1.5-0.4-3,0.8-3.8,2.1
				c-0.8,1.3-1.4,2.9-2.7,3.8c-1.2,0.8-2.7,0.8-4.1,0.8c-2.2-2.8,0.3-7.7,3.8-7.7c0.9-1-0.3-2.5-1.6-2.9c-1.3-0.3-2.7-0.1-3.9-0.7
				c-0.7-0.4-1.3-1.2-2-1.6c-2.3-1.4-5.2,0.9-7.9,0.8c-1-0.1-2.1-0.5-3.1-0.2c-1.4,0.4-1.9,2.1-1.9,3.5c0,1.4,0.5,2.9,0.2,4.3
				c-0.3,1.8-1.6,3.3-2,5.1c-0.4,1.8,0.9,4.3,2.7,3.7c0,4.4-0.5,9.5-4.2,11.7c-1.2,0.7-2.8,1.1-3.6,2.3c-2.3,3.2,3.5,7.8,1.3,11.2
				c-0.5,0.8-1.5,1.4-2.5,1.5c-2.8,0.4-5.7-2.5-5.2-5.3c0.3-1.6,1.4-3,1.8-4.6c0.5-2.7-1.9-5.7-4.7-5.6c-0.1-3.6-3.6-6.6-7.1-6.3
				c-1.3,0.1-2.9,0.5-3.7-0.5c-0.4-0.6-0.4-1.4-0.4-2.1c0.1-1.7,0.2-3.4,0.3-5.1c0.1-1.8,0.2-3.8,1.3-5.3c0.6-0.8,1.5-1.4,2.2-2
				c2.8-2.4,5.5-6.3,9.2-5.6c-0.6-2.2-0.5-4.8,1.2-6.4c1.7-1.6,5-1.1,5.5,1.1c0.1,0.6,0.1,1.2,0.5,1.6c0.3,0.4,0.9,0.4,1.4,0.4
				c2.2,0,4.5-0.7,6.2-2.2c1.6-1.5,2.5-4,1.8-6.1c-0.4-1.2-1.3-2.3-1.7-3.5c-0.3-1.1,0.2-1.7,1.2-2c0,0,0,0,0,0
				c-0.1-0.3,0.3-0.6,0.5-0.7c1.7-1,3.6-1.7,5.6-2c-1.2-4,3.1-8.5,7.2-7.4c-1.3,3.6,1.9,8.4-1,10.9c-1.3,1.1-3.1,1.1-4.7,1.6
				c-1.6,0.6-2.9,2.6-1.8,3.8c3.3,0.7,6.3,2.4,8.6,4.8c1.4,1.5,2.7,3.3,4.5,4.3c1.8,1,4.2,0.9,6-0.1c-0.6-1.8-1.3-3.7-1.9-5.5
				c-0.8,0-1.6-0.1-2.3-0.1c-0.9-0.6-1-2.2,0-2.9c0.9-0.6,2.4-0.1,2.7,1c0.8,0.2,1.6,0,2.2-0.6c0.2-1.4,0.5-2.8,0.7-4.2
				c-0.9-0.2-1.7-0.5-2.6-0.7c0-0.8,0-1.6,0-2.3c1.1,0.2,2.1,0.4,3.2,0.6c0.5,1.6,2,2.9,3.6,3.1c0.3-2.7-1.5-5.1,0.9-8.1
				c1.1-1.4-0.8-1.3-2.1-2.6c-3-0.1-4.8-2.2-7.7-1.2c2.1-3.6,4.1-8.7,1.1-11.7c-1,0.4-2-0.6-2.1-1.7c0-1,0.6-2,1.2-2.8
				c-0.7-1.4-2.6-1.7-4.2-1.8c-5.4-0.2-10.8-0.3-16.2-0.4c1.9-1.5-0.2-4.9-2.6-4.9c-2.4,0-4.3,1.9-5.8,3.7c-0.7,0.8-1.4,1.8-1.1,2.9
				c-1.5-0.7-3.2,0.8-3.9,2.4c-0.7,1.5-1.3,3.4-2.8,4.1c-0.9,0.4-2,0.4-2.7,0.9c-1,0.8-1,2.2-1.2,3.5c-0.2,1.2-1.1,2.7-2.4,2.4
				c-1.8-1.8-2.5-4.7-1.7-7.1c-1.5-0.5-3-1-4.5-1.5c0.1-2,2.2-3.2,3.9-4.3c1.7-1.1,3.3-3.2,2.2-4.9c-0.8-0.3-1.7-0.7-2.5-1
				c-21.6,12.1-40.6,28.1-56.1,47.2c-0.7,1-1.5,2-2.2,3c4.8-1.1,9-4.8,10.5-9.5c2-0.1,3.2,2.6,2.5,4.5c-0.6,1.9-2.3,3.3-3.6,4.8
				c-1.5,1.7-2.6,3.8-3.6,5.8c-0.9,1.8-1.8,3.5-2.8,5.3c-1.8,3.4-1.2,6.7-3,10.1c-2.8,5.4-8,10.9-10.8,16.3
				c-0.7,1.3-0.8,2.5-1.3,3.9c-0.7,2.1-0.1,4.4-0.1,6.7c0,2.2-1,4.8-3.2,5.3c-2.4,4.6-2,10.6-3.3,15.7c-1,4-3.6,7-4.6,11
				c-1.2,4.8-2.4,9.7-2,14.5c0.1,1.3,0.4,2.7,1,3.8c0.6,1.1,1.4,2,2.1,3.1c1.9,3.2,2.2,8.2-0.3,11c-0.8,3.8-0.1,8,1.9,11.4
				c0.9,1.5,2,2.9,2.7,4.5c0.8,1.7,1.1,3.7,1.3,5.6c0.4,4,0.4,8,0.2,11.9c-0.1,2.1-0.3,4.3,0.9,6c0.9,1.2,2.4,1.9,2.9,3.3
				c0.4,1,0.3,2.2,0.9,3c0.8,1.1,2.4,1.1,3.5,1.9c1.1,0.7,1.6,2.1,2.4,3.2c0.8,1.1,2.2,2.1,3.4,1.5c-2.9-6.5-5.7-13.1-8.3-19.8
				c-0.4-1-0.8-2.1-0.9-3.1c-0.1-1.2,0.3-2.3,0.2-3.5c-0.1-4.1-4.7-7.6-3.3-11.5c2.5,0.2,4.3,2.4,5,4.8c0.7,2.4,0.6,4.9,1,7.3
				c0.4,2.2,1.1,4.2,1.9,6.3c0.5,1.3,1,2.7,1.5,4c2.2,5.8,6.1,11.4,6.9,17.5c0.5,3.7,2.1,7.2,4.7,9.9c1.8,1.9,4.2,3.6,5.2,6
				c0.5,1.2,0.6,2.5,1.1,3.7c1.1,2.6,3.7,4.1,6.2,5.5c1.4,0.8,2.8,1.6,4.2,2.3c3.3,1.8,6.8,3.7,10.5,3.2c1.1-0.2,2.3-0.6,3.4-0.4
				c1.1,0.1,3.1-0.3,3,0.8c0.7,0.3,1.3,0.9,1.8,1.5c3.9,4.1,9.1,6.8,14.6,7.8c2,1,3.6,2.6,4.6,4.6c0.6,1.1,1,2.4,2,3.1
				c0.5,0.3,1.2,0.5,1.7,0.8c1.3,0.8,1.8,2.4,2.6,3.7c0.8,1.3,1.6,1.3,2.8,0.3c-0.7,0.1,4.2,3.8,4.9,6c1.4-1.7,4.6-1.3,5.5,0.7
				c0.2,0.5,0.4,1,0.7,1.5c0.6,1,1.8,1.5,3,1.3c1.1-0.3,2-1.3,2.1-2.5c0-0.3,0-0.7,0.2-1c0.1-0.2,0.4-0.4,0.7-0.4
				c1.4-0.4,2.7,0.9,3.4,2.2c0.7,1.3,1.2,2.8,2.5,3.5c0.4,0.2,0.9,0.3,1.3,0.6c1.4,1.1,0.4,3.3,0.7,5.1c0.3,1.6,1.7,2.8,2.2,4.3
				c1,3.8-4.7,7.4-4.8,11.3c-0.1,4.5,6.9,6.4,7.3,10.8c0.1,1.5-0.4,3.2,0.7,4.3c0.7,0.7,1.9,0.7,2.9,0.9c1.7,0.3,3.2,1.4,4.6,2.6
				c3.3,2.8,6.2,6.1,8.6,9.7c0.5,0.7,1,1.5,1.7,2.1c0.8,0.6,1.8,0.9,2.8,1.1c3.8,1,7.7,2,11.5,3c0.8,0.2,1.6,0.4,2.2,0.8
				c1.7,1.1,2.4,3.3,4.1,4.4c1,0.6,2.3,0.7,3.4,1.3c2.4,1.2,3.2,4.2,4.3,6.7c1.4,3.3,3.7,6.4,7.1,7.4c0.9,0.3,1.8,0.4,2.6,0.9
				c1.7,1,2.1,3.3,3.5,4.7c7.2-0.2,14.4-0.9,21.4-1.9c0.1-0.1,0.3-0.2,0.4-0.3C282.4,432.3,282.7,431.3,283.3,430.7z"/>
			<path class="st1" d="M183,102.7c-0.2,0-0.3,0.1-0.5,0.1C182.6,103.1,183.1,102.9,183,102.7z"/>
			<path class="st1" d="M234.8,171.4c-0.6-0.2-1.2-0.3-1.5-0.8c-0.2-0.3-0.1-0.8-0.1-1.2c0.1-0.9,0.2-1.8,0.3-2.6
				c0-0.2,0.1-0.5,0-0.7c-0.3-0.7-1.3-0.4-2.1-0.3c-1,0.1-1.9-0.6-2.5-1.4s-0.8-1.8-1.1-2.8c-0.4-0.3-1.1-0.2-1.5,0.2
				s-0.6,0.9-0.8,1.4c-0.6,1.9-1.2,3.7-1.9,5.6c-2.1,1.4-2.8,4.5-1.6,6.7c0.8,1.3,3.2,1,3.6-0.5c1-0.5,2.2-0.5,3.1,0
				c1.6,2.6,5,4,8,3.3c0.5-0.1,1-0.3,1.4-0.7c0.6-0.7,0.6-1.7,0.3-2.6C237.9,173.3,236.5,171.9,234.8,171.4z"/>
			<path class="st1" d="M253.1,75c-1.2-0.7-2.9-0.6-3.9,0.5c-0.4-0.9-0.7-1.8-1.1-2.7c-0.9-0.1-1.7-0.2-2.6-0.4
				c-0.8-6.1-6.7-11-12.9-10.7c-1.6,0.1-3.2,0.5-4.7-0.1c-1.5-0.5-2.7-2.4-1.7-3.7c2.3-1.8,5.6-0.9,8.5-0.1c4.2,1.2,8.5,2,12.9,2.2
				c1.4,0.1,2.8,0.1,4.1-0.4c1.3-0.5,2.3-1.8,2.3-3.2c-7.9-1.3-15.9-1.7-23.8-1.5c-0.6-1.7-2.7-2.5-4.5-2.3c-1.8,0.2-3.4,1.2-5,2.1
				c-1.5,0.9-2.9,1.8-4.4,2.7c-2.5,1.5-5,3-7.6,4.4c-4.9,2.4-10.2,4.1-15.7,3.9c-0.9,2.2-2.8,3.9-5,4.5c0,1.5,1.8,2.3,3.3,2.1
				c1.5-0.2,2.9-1,4.4-1c2.3,0,4.3,1.6,6.5,1.7c2.6,0.1,4.7-1.9,6.9-3.3c2.2-1.4,5.5-2.1,7,0c1,1.3,0.7,3.1,1,4.7
				c0.2,1.6,1.5,3.4,3.1,2.9c-0.6,2.5-0.7,5.2-0.2,7.7c1.1,0,2.1,0,3.2,0c1,2.4,1,5.3,0.1,7.7c0.6-0.4,1.4,0.2,1.5,0.9
				c0.2,0.7-0.1,1.3-0.2,2c-1,4.5,2.3,8.7,5.3,12.2c0.9,1,1.9,2.1,3.1,2.8c0.7,0.4,1.5,0.6,2.1,1.1c1.2,0.8,1.8,2.2,2.6,3.3
				c2,2.6,5.4,4.1,8.6,3.7c1.3-4,0.2-8.4-0.3-12.6c-0.5-4.2-0.3-9.1,3-11.9c0.4-0.3,0.9-0.7,1-1.2c0.3-0.8-0.1-1.7-0.2-2.5
				c-0.1-2.7,3.7-3.5,5.4-5.6c1.6-1.8,1.4-4.6,0.5-6.8C255.1,76.9,254.3,75.7,253.1,75z"/>
			<path class="st1" d="M301.7,88.5c-0.5-0.9-1.5-1.5-2.5-1.6c-0.6-0.1-1.1,0-1.6-0.3c-0.9-0.4-1.4-1.7-2.4-1.8
				c-0.4,0-1-0.2-0.8-0.5c-0.9,0-1.8,0-2.8,0c-0.9,0.8,0,2.6-1,3.3c-0.3,0.2-0.6,0.2-0.9,0.2c-0.9,0-1.7-0.4-2.5-0.4
				c-1.6,0-3,1.5-2.9,3.1c1.1,0,2.3,0,3.4-0.1c0.4,0,0.9,0,1.1,0.4c0.1,0.2,0,0.5,0,0.7c0,0.7,0.5,1.4,1.1,1.7
				c0.6,0.4,1.3,0.5,2.1,0.6c-0.3,0.3-0.2,0.9,0.1,1.2c0.3,0.3,0.7,0.5,1.2,0.6c0.6,0.2,1.2,0.4,1.9,0.6c0.6,0.2,1.3,0.4,1.9,0.3
				c0.8-0.2,1.5-0.9,2.2-1.2c1.1-0.4,2.3-0.1,3.4,0c0.5,0,1,0,1.5-0.3c1-0.5,1.3-1.9,0.7-2.8C303.1,91.6,301.9,90.1,301.7,88.5z"/>
			<path class="st1" d="M292.2,57.8c-1.8-0.4-3.7,0.7-4.4,2.3c2.2,0.9,4.5,1.3,6.9,1.1c0.5,2,0.9,4,1,6.1c4.8-0.3,9.6-0.3,14.3-0.2
				c-0.9,0.5-0.9,1.9-0.4,2.8c0.5,0.9,1.4,1.5,2.2,2.2c1.5,1.4,2.6,3.3,2.9,5.3c2.8-2.6,8.2-0.9,9.1,2.8c0.2,0.6,0.2,1.3,0.6,1.8
				c0.6,0.8,1.9,0.8,2.6,1.4c0.6,0.5,0.8,1.4,1.1,2.2c1,2.7,4.3,4.2,7,3.3c0.7-0.2,1.3-0.6,2-0.5c1.2,0.1,1.8,1.3,2.5,2.3
				c1.7,2.4,4.5,3.8,7.2,5.1c0.7,0.3,1.5,0.7,2.2,0.6c0.8-0.1,1.5-0.8,1.3-1.6c-0.2-0.5-0.7-0.9-1-1.4c-0.5-1,0.7-2.3,1.9-2.1
				c1.1,0.2,1.8,1.5,1.8,2.6c0,1.1-0.6,2.2-1.3,3.1c1.9,0.9,3.9,1.9,5,3.7c0.4,0.7,0.6,1.4,1.1,2.1c1.8,2.4,6.4,2,7.5,4.9
				c0.4,1.1,0.1,2.4,0.1,3.6c0,1.8,0.8,3.4,1.6,5c0.3,0.7,0.7,1.3,1.3,1.7c1,0.5,2.4-0.1,3.3,0.5c1,0.6,1,2,0.6,3.1
				c-0.4,1.1-1,2.2-0.9,3.3c0.1,0.9,0.7,1.7,0.8,2.6c0.5,2.7-2.9,4.8-3.1,7.6c-0.1,1.8,1.2,3.5,2.9,4.2c1.7,0.7,3.6,0.5,5.4,0
				c0.5-0.2,1.1-0.3,1.6-0.2c1.9,0.5,0.7,3.5,1.6,5.3c0.5,1,1.7,1.5,2.6,2.3c1.8,1.6,1.7,4.8-0.1,6.3c-1.4,1.2-3.3,1.4-4.9,2.3
				c-1.6,0.9-2.6,3.3-1.2,4.4c-0.3,1.8,1.8,2.8,2.4,4.5c0.3,0.8,0,1.8,0.4,2.6c0.7,1.7,3.5,1.7,4.3,3.3c0.5,1.1,0.1,2.5,0.9,3.4
				c0.6,0.6,1.5,0.7,2.1,1.2c1.5,1.2,0.3,3.6,0.3,5.6c-0.1,3.1,3.5,5.3,6.6,5c2.9-0.3,5.6-2.2,7.3-4.5c0.7-1,1.4-2.2,1.4-3.4
				c0-1.3-0.7-2.6-1.9-2.9c0.3-1.5,0.7-3,1-4.5c-2.8-1.7-4.4-5.1-3.9-8.4c0.2-1.2,0.6-2.4,0.4-3.6c-0.1-0.4-0.3-0.8-0.5-1.2
				c-1-1.9-2.7-3.7-2.3-5.8c0.4-2.1,2.7-3.5,2.8-5.7c0-0.6-0.1-1.2,0.2-1.6c0.7-1.2,2.5-0.2,3.1,1c0.6,1.2,0.9,2.8,2.2,3.2
				c0.8,0.2,1.8-0.2,2.6,0.2c0.5,0.2,0.8,0.7,1.2,1c0.5,0.5,1.2,0.9,1.8,1.4c2.6,1.9,4.4,4.7,5.2,7.8c0.1,0.5,0.2,1,0.6,1.4
				c1,0.9,2.6-0.7,2.3-2c-0.2-1.3-1.4-2.3-2.1-3.4c-0.4-0.6-0.6-1.5-0.1-1.9c0.4-0.3,1-0.2,1.4,0c1.5,0.8,1.9,2.7,2.5,4.2
				c0.6,1.6,2.1,3.2,3.7,2.7c1.8-0.6,1.7-3.2,1.2-5c-0.7-2.6-1.5-5.1-2.4-7.5c-2.8-4.9-5.7-9.6-8.9-14.2c-3.3-3.9-6.7-7.8-9.3-12.2
				c-0.2-0.3-0.3-0.6-0.5-0.8c-3.4-4.2-7-8.2-10.7-12.1c-0.8-0.5-1.6-1-2.4-1.6c-4.9-3.5-8.8-8.3-12.9-12.6c-4-3.3-8.1-6.5-12.3-9.5
				c-3-1.4-6.1-2.6-8.6-4.7c-1-0.8-1.8-1.7-2.6-2.6c-16-9.7-33.5-17.2-52.1-22c-0.8,0.7-1.6,1.6-2.7,1.9
				C297.1,56.5,293.1,55.8,292.2,57.8z"/>
			<path class="st1" d="M364.5,119.2c-0.7-0.7-1.4-1.4-2-2.2c-1.6-1.7-3.6-3.5-5.9-3c-2.6-2.7-5.2-5.4-7.8-8.1
				c-0.4-0.4-0.8-0.8-1.3-1.1c-0.7-0.5-1.6-0.7-2.3-1.3c-0.7-0.5-1.1-1.6-0.5-2.3c-1.1,0.2-2.3-0.5-2.7-1.6
				c-2.2-0.6-4.8,0.1-6.4,1.7c0.5-0.2,0.8,0.6,0.5,1.1s-0.8,0.6-1.2,1c-0.9,1-0.2,2.7,1,3.3c1.2,0.6,2.7,0.3,4,0
				c-0.5,2.1,3,2.9,3.8,4.9c0.2,0.5,0.2,1,0.2,1.6c0.1,3.5,0.2,7,0.3,10.6c2-0.9,4.5-0.3,6.2,1.1c1.6,1.5,2.4,3.8,2.4,6
				c1.3,0.9,2.8-0.7,3.5-2c0.7-1.3,2-3,3.4-2.3c0.4,1.1,0.9,2.3,1.9,3c1.9,1.4,5,0.1,5.8-2.2c0.8-2.3-0.1-4.8-1.6-6.7
				C365.5,120.2,365,119.7,364.5,119.2z"/>
			<path class="st1" d="M435.6,175.4c-0.5-0.8-1.1-1.6-1.7-2.4c-2.5-0.7-5.4,1.9-4.9,4.5c0.3,1.3,1.2,2.5,1.4,3.8
				c0.2,1.4-1.3,3-2.4,2.1c-1.2-2-3.2-3.6-5.4-4.4c-0.3-0.1-0.7-0.2-0.9-0.4c-0.4-0.3-0.5-0.9-0.6-1.4c-0.7-3.3-1.9-6.6-3.5-9.6
				c-0.7-1.4-1.9-3-3.5-2.9c0.1,1.6-0.6,3.2-1.8,4.3c-0.7,0.6-1.5,1-2.3,1.5c-2.1,1.5-3.4,4.2-3.1,6.8c0.1,0.9,0.3,1.7,0.3,2.6
				c-0.1,2.5-2.8,4.5-5.2,3.9c0.6,1.5-2,2.2-2.9,3.5c-0.9,1.3,0,3.4-0.9,4.7c-0.4,0.6-1,0.9-1.1,1.6c-0.2,0.9,0.6,1.6,1,2.4
				c1,2.4-1.9,5-1.2,7.4c0.2,0.9,0.9,1.6,1.1,2.5c0.3,1.2-0.2,2.6,0.1,3.8c0.2,0.8,0.7,1.5,1.1,2.2c0.3,0.8,0.4,1.8-0.3,2.3
				c1.3,1.2,2.6,3.2,1.5,4.6c-0.7,0.8-1.9,1-2.3,1.9c-0.2,0.5,0,1-0.1,1.5c-0.1,0.9-0.9,1.5-1.4,2.2c-1.7,2.5-0.1,5.9-0.3,8.9
				c-0.2,3.7-3.3,7.2-2.4,10.9c2,0.5,2,3.3,1.7,5.3c-0.4,2.5-0.6,5.2,0.5,7.4c0.7,1.5,2,3,1.6,4.5c-0.3,0.9-1.1,1.7-1,2.6
				c0.1,0.7,0.6,1.3,0.9,2c0.6,1.4-0.2,2.9-0.7,4.4c-0.5,1.4-0.7,3.3,0.5,4.2c2.8,1.9,0.3,7.3-1.4,10.2c-0.4,0.7-0.9,1.4-0.9,2.3
				c0.1,1,0.9,1.7,1.7,2.2c1.5,1.1,3.3,2.3,3.6,4.2c0.3,1.6-0.5,3.5,0.6,4.6c0.9,0.9,2.6,0.6,3.3,1.6c0.4,0.6,0.4,1.4,0.4,2.1
				c0.2,1.9,1.2,3.5,2.3,5c1.2,1.7,2.5,3.3,3.9,4.8c1,1.1,2.2,2.2,3.6,2.3c2.7,0.2,4.4-2.8,5.3-5.4c0.5-1.4,1-2.7,1.5-4.1
				c0.2-0.6,0.4-1.2,0.9-1.6c0.4-0.3,0.9-0.5,1.4-0.7c1.2-0.6,2-1.7,3-2.7c1-0.9,2.4-1.7,3.6-1.1c1.7,0.9,1.4,3.4,0.8,5.2
				c-1.3,3.9-2.6,7.8-3.9,11.7c-1,0.5-1.2,1.9-0.9,2.9c0.3,1,0.8,2.1,0.5,3.1c-0.2,0.5-0.5,1-0.8,1.5c-0.3,0.6-0.6,1.2-0.8,1.9
				c-0.6,1.5-1.3,3-1.9,4.5c-0.5,1.2-1.1,2.4-1.6,3.6c-1.1,2.5-2.2,5-3.5,7.4c-1.8,3.3-3.8,6.4-6.2,9.4c-1.1,1.4-2.3,2.7-3.4,4.2
				c-2.2,3.1-3.6,6.5-4.9,10.1c27.3-33.4,43.7-76,43.7-122.5C447.2,218.3,443.1,196.1,435.6,175.4z"/>
			<path class="st1" d="M174.6,272.7c0.7,0.9-0.3,2.4,0.6,3.1c0.2,0.1,0.5,0.2,0.7,0.2c0.9,0.1,1.8,0.1,2.7,0c0.4-0.4,0.6-1,0.5-1.5
				c-0.1-0.3-0.3-0.6-0.5-0.9c-0.4-0.6-0.9-1.2-1.5-1.8c-0.5-0.5-1.1-1-1.8-1c-0.7,0-1.4,0.8-1,1.4
				C174.3,272.5,174.5,272.6,174.6,272.7z"/>
			<path class="st1" d="M178,281.6c-0.1-0.2-0.2-0.4-0.3-0.6c-0.4-0.6-1.1-0.9-1.8-0.7c-0.7,0.2-1.2,0.8-1.2,1.5
				c-0.2,0.2-0.1,0.5,0.2,0.7c0.2,0.1,0.5,0.2,0.8,0.3c0.8,0.4,0.6,1.7,1.2,2.4c0.6,0.7,2,0.5,2.4-0.4c0.5-0.8,0.1-2-0.6-2.6
				C178.5,282,178.2,281.8,178,281.6z"/>
			<path class="st1" d="M203.8,299.2c-0.9-0.2-1.8-0.1-2.7-0.3c-1.1-0.3-2.1-1.3-3.3-1.4c-1.6-0.2-2.9,1.3-4.5,1.3
				c-2.1,0-3.4-2.4-5.5-2.6c-0.6-0.1-1.2,0-1.7-0.3c-0.6-0.4-0.7-1.1-1.2-1.6c-1.3-1.4-4,0.2-5.7-0.7c-0.9-0.5-1.3-1.5-1.8-2.3
				c-1.6-2.8-4.8-4.4-7.9-4.6c-3.2-0.3-6.3,0.6-9.2,2c-0.9,0.4-1.8,0.9-2.4,1.8c-0.5,0.8-0.5,2.1,0.3,2.7c1.1,0.8,2.5,0,3.7-0.5
				c2.9-1,6,0.1,8.8,1.3c1.3,0.5,2.5,1,3.8,1.6c1.6,0.7,3.6,2.1,3,3.8c1-0.3,2,0.1,2.7,0.9c0.3,0.4,0.5,1,0.9,1.3
				c1.2,1.1,3.1-0.1,4.5-0.8c2.5-1.2,5.7-1,8,0.7c0.5,0.3,0.9,0.7,0.9,1.3c0.1,1.7-3.5,2.3-2.8,3.9c1.8-0.9,3.9,0,5.7,0.8
				c1.8,0.8,4.1,1.4,5.7,0.2c0.5-0.4,0.8-0.9,1.3-1.3c1-0.8,2.5-0.8,3.7-1.3c1.2-0.5,2.3-2.1,1.4-3.1
				C207.6,302.7,205.9,299.8,203.8,299.2z"/>
			<path class="st1" d="M184.8,306.3c-1.4-0.1-2.8-0.3-4.3-0.4c0,0.7-1,0.9-1.4,1.5c-0.3,0.5-0.3,1.2,0,1.7c0.9,1.8,3.4,2.2,5.3,1.7
				c1-1,1.3-2.6,0.7-3.8C184.9,306.9,184.7,306.5,184.8,306.3z"/>
			<path class="st1" d="M217.9,304.6c-1.1-0.7-2.4-1-3.6-1c-0.7,0.9,0.1,2.2,1.1,2.5c0.2,0,0.5,0.2,0.5,0.4c0.6,0.1,1.3,0.3,1.8,0.1
				c0.6-0.2,1-0.9,0.7-1.5C218.3,304.9,218.1,304.7,217.9,304.6z"/>
			<path class="st1" d="M227.5,303.1c-0.6,0-1.4,0-1.7,0.6c-0.4,0.8,0.8,1.8,0.5,2.7c1.3,0,2.7-0.8,3.1-2.1
				C228.6,304.3,227.8,303.8,227.5,303.1z"/>
			<path class="st1" d="M232.7,309.3c-0.4,0.2-0.7,0.4-1.1,0.6c-0.5,0.7,0.4,1.7,1.3,1.9c0.5,0.1,0.7-0.7,0.5-1.1
				C233.1,310.2,232.6,309.8,232.7,309.3z"/>
			<path class="st1" d="M234.8,315.3c0,0.7,0,1.5-0.1,2.2c0.8,0,1.7-0.3,2.4-0.7C236.2,316.6,235.3,316.1,234.8,315.3z"/>
			<path class="st1" d="M234.5,320.8c-0.3,0.4,0.2,1,0.7,0.9c0,0.5,0,0.9,0,1.4c0.2,0.1,0.5,0.2,0.7,0.3c0.4-0.9,0.5-2,0.2-3
				C235.6,320.4,235,320.5,234.5,320.8z"/>
			<path class="st1" d="M239.8,324.1c0,0.8,0.7,1.6,1.5,1.4c0-1,0-1.9,0.1-2.9C240.6,322.6,239.8,323.3,239.8,324.1z"/>
		</g>
		<g class="st2">
			<path class="st0" d="M168.1,369.5c-2-1.8-4.4-3.1-6.6-4.5c-4.4-2.9-8.3-6.4-11.9-10.1c-2.5-2.6-4.9-5.4-7.3-8.1
				c-2.9-3.4-6.3-6.8-10.6-8.1c-6.2-1.8-12.7,2.2-11.7,9c0.8,5.1,6.7,10.4,10,14.1c10.7,12,23.6,22.4,36.8,31.5
				c2.1,1.4,4.7,2.9,7,1.9c3.3-1.4,2.9-6.1,2-9.6C174.3,379.8,172.6,373.6,168.1,369.5z"/>
			<path class="st0" d="M388.3,328.5c-0.6-4.1-1.8-8.1-3.9-11.8c-4.1-7.4-10.5-12.9-11-21.8c-0.2-4.8,0.7-9.7,1.1-14.5
				c1-10,0.1-20.2-2.6-29.8c-2.1-7.4-5.2-15.1-3.1-22.5c2-7,8.3-12.5,8.5-19.8c0.1-7.8-6.6-13.2-10.7-19c-4.3-6-7.2-14-9.4-21
				c-1.5-4.7-4.1-9.6-8.7-11.3c-5.9-2.1-13.8,1.5-18-3.2c-3-3.3-1.7-8.4-0.8-12.8c0.8-4,1-8.2,0.8-12.3c-0.1-1.8-0.4-3.6-1.4-5.1
				c-3.1-4.5-10-2.4-15.3-1.1c-7.3,1.7-15.3,0.4-21.8-3.4c-5.1-3-10.8-7.9-16.3-5.4c-4.4,2-5.6,7.5-6.4,12.3
				c-0.8,4.7-2.5,10.3-7.2,11.6c-1.7,0.5-3.7,0.3-5.3,1c-2.4,1.1-3.6,3.9-3.6,6.6c0,2.6,1,5.2,1.9,7.7c3.6,10.5,7.6,29.6,1.2,39.6
				c-5.8,9.2-17.6,12.1-27.5,16.7c-11.5,5.3-21.6,13.9-28.7,24.4c-4.4,6.5-7.8,14.2-6.4,21.9c1,5.5,4.4,10.3,7.9,14.6
				c2.4,2.9,5.9,6,9.4,4.7c4.4-1.6,4.3-8.5,8.3-11c3.8-2.4,8.8,0.6,11.6,4.1c2.8,3.5,5,8,9.2,9.7c4.6,1.9,9.7-0.4,14.5-1.9
				c4.7-1.5,10.9-2,13.8,2.1c2.7,3.8,0.8,9.2,1.5,13.8c1.9,12.9,22.5,7.8,20.6,22.8c-0.5,3.8-2.8,7.2-2.8,11
				c0,6.5,6.7,11.2,13.1,12.5c6.4,1.3,13.1,0.5,19.4,2.3c10.5,3,17.6,12.6,22.4,22.4c1.7,3.5,3.2,7.2,6.3,9.6
				c3.7,3,9.1,3.4,13.6,1.9s8.4-4.6,11.7-8c6.4-6.5,11.4-14.4,13.6-23.2C388.6,338.3,389,333.3,388.3,328.5z"/>
		</g>
		<path class="st3" d="M367.3,85.6c0.8,0.6,1.7,1.2,2.5,1.9C369,86.8,368.2,86.2,367.3,85.6z"/>
		<path class="st4" d="M341.7,69.5c35.9,35.2,58.2,84.3,58.2,138.6c0,107.2-86.9,194.2-194.2,194.2c-31.9,0-62.1-7.7-88.7-21.4
			c35,34.3,83,55.5,135.9,55.5c107.2,0,194.2-86.9,194.2-194.2C447.2,167,404.4,101.7,341.7,69.5z"/>
		<g class="st2">
			<g>
				<path class="st5" d="M287.9,376.4c-6.9,0.9-14.1-1.5-19-6.3c-5.1-4.9-8.4-12.4-15.3-14c-2.8-0.6-5.7-0.1-8.5-0.9
					c-5.2-1.5-8-7.1-12.7-9.7c-4.4-2.4-9.7-2-14.7-1.5c-5.9,0.6-9,2.7-10.7,8.5c-0.4,1.4-0.7,2.8-0.3,4.2c0.3,1.1,1,2,1.5,3.1
					c1.8,3.5,1.7,7.7,0.9,11.6c-0.4,1.8-0.9,3.6-0.7,5.5c0.3,3.5,3.6,5.9,6.5,7.2c9.2,3.9,19.5,5.6,27.2,12c2.5,2,4.6,4.5,6.6,7
					c3.4,4.3,6.4,8.9,9.1,13.6c1.7,3,3.7,6.5,7.1,7.1c2.8,0.5,5.6-1.3,7.3-3.6c1.7-2.3,2.8-5,4.3-7.4c3.7-6.1,9.9-10,15.7-14.3
					c5.7-4.2,11.4-9.4,13-16.4c0.2-1,0.4-2.1,0.1-3.2c-0.6-2.3-3.1-3.6-5.4-4C295.8,374.3,291.9,375.9,287.9,376.4z"/>
				<path class="st5" d="M431.6,194.5c-5.5,2.2-9.9-7.6-15.7-6.3c-3.7,0.8-4.8,5.4-5.1,9.2c-0.5,9,0,18-1.6,26.9
					c-0.8,4.3-2.2,8.6-2.5,13c-0.5,6.8,1.5,13.5,2.6,20.3c1.1,6.7,1.5,13.4,0.4,20c-0.6,3.6,0.3,11.9,5.2,12.5
					c4.6,0.6,9.5-5.2,14.1-5.9c1.6-0.2,3.4-0.1,4.8-0.9c1.5-0.9,2.2-2.7,2.6-4.4c1.9-7,1.9-14.3,2-21.6c0.1-8,0.1-15.9,0.2-23.9
					c0.1-12.7,0.2-25.7-3.3-37.9c-0.2-0.5-0.3-1.1-0.8-1.4C433.5,193.5,432.5,194.1,431.6,194.5z"/>
				<path class="st5" d="M378.6,126.9c0.1,0.3,0.2,0.6,0.3,0.9c1.1,2.6,4.3,6,6.9,7.3c3,1.5,6.8,0.2,9.8-0.7
					c1.2-0.3,8.9-1.2,9.2-1.6c1.4-1.7,0.9-4.3-0.4-6c-1.3-1.7-3.3-2.8-5.1-4c-14-9.2-21.7-25.8-35.5-35.3c-1.7-1.2-3.5-2.3-5.4-3.4
					c-11.2-6.6-22.7-13.4-35.6-15.1c1.2,2.4,3.8,3.7,6.3,4.8c4.3,1.9,8.6,3.9,12.9,5.8c3.1,1.4,6.2,2.8,8.9,4.7
					c5.9,4.1,9.8,10.3,13.8,16.3c2.4,3.6,4.9,7.2,8.2,9.9c1.3,1.1,2.7,2.1,3.6,3.5C379.2,117.9,377.4,122.8,378.6,126.9z"/>
			</g>
			<path class="st5" d="M245.6,81.1c-0.3-0.6-0.8-1.1-1.3-1.5c-0.5-0.4-1-0.7-1.5-1c-0.4-0.2-0.8-0.4-1.1-0.6
				c-0.5-0.4-0.9-1-1.2-1.7c-1.5-2.8-3.2-5.7-5.8-7.4c-2.7-1.7-6.6-1.9-8.8,0.4c-1.4,1.6-1.7,3.9-1.3,5.9c0.4,2.1,1.5,3.9,2.5,5.7
				c0.3,0.5,0.6,1.1,0.9,1.6c1.1,2,2.3,4,2.7,6.2c0.3,1.6,0.3,3.3,0.4,5c0.2,2.1,0.8,4.1,1.4,6.1c0.2,0.7,0.4,1.5,0.9,2.1
				s1.4,0.9,2.1,0.5c1.7-4.9,4.3-9.6,7.5-13.7c0.9-1.2,1.9-2.3,2.5-3.6C246.2,84,246.3,82.4,245.6,81.1z"/>
			<path class="st5" d="M165.3,100.4c0.1,0.9,0.5,1.9,1.3,2.4c0.3,0.2,0.7,0.3,0.9,0.7c2.8-0.2,5.2-2,7.1-4c1.9-2,3.6-4.3,5.7-6
				c3.6-3,8.3-4.2,12.8-5.4c1.3-0.7,0.7-2.8-0.6-3.5c-1.3-0.7-2.8-0.6-4.2-0.9c-1.6-0.4-2.9-1.4-4.5-1.7c-2-0.4-4.1,0.3-5.7,1.4
				c-1.7,1.1-3,2.7-4.4,4.2c-1.7,1.9-3.3,3.8-5,5.7C166.9,95.3,165,97.7,165.3,100.4z"/>
			<path class="st5" d="M147,150.7c-1.4-2.7-2.8-5.5-3.4-8.5c-1-5.6,1.1-11.3,4-16.1c2.9-4.9,6.6-9.2,9.2-14.3
				c0.9-1.8,1.7-3.6,1.8-5.6c0.2-4-2.4-7.5-4.8-10.6c-1.9-2.5-4.8-5.3-7.8-4.1c-1.2,0.5-2.1,1.5-3,2.4c-5.4,5.5-13.7,7.6-18.4,13.7
				c-5.9,7.5-4.4,18.3-7.1,27.5c-2.7,9.2-9.6,16.6-12.6,25.7c-2.5,7.6-2.2,15.9-4,23.7c-2.6,11.1-9.5,21.4-8.7,32.8
				c0.6,8.6,5.6,16.1,8.7,24.1c3.5,9.1,4.7,18.9,5.3,28.7c0.2,2.8,2,6.7,4.5,5.4c0.6-0.3,1-0.9,1.3-1.4c4.9-8,1.9-20.1,9.1-26.1
				c8.7-7.2,22.6,1.8,32.8-3.1c4.7-2.3,7.6-7.1,10.1-11.7c3.9-7,7.9-14,11.8-21.1c2.2-4,4.5-8,5.5-12.5c2-8.9-1.2-19,3.2-27
				c3.6-6.5,11.2-9.8,15.1-16c2-3.2,2.8-7.7,0.2-10.5c-2.1-2.3-5.8-2.6-8.6-1.4c-2.9,1.2-5.1,3.5-7.1,5.9c-3.1,3.7-5.8,7.7-8.2,11.8
				c-1.9,3.3-3.6,6.8-6.6,9.3c-2.9,2.4-7.5,3.4-10.5,1.1c-1.4-1.1-2.3-2.7-3.1-4.3C153,162.5,150,156.6,147,150.7z"/>
		</g>
		
			<ellipse transform="matrix(0.9729 -0.2313 0.2313 0.9729 -34.1521 60.4065)" class="st6" cx="240.5" cy="175.8" rx="127" ry="112.4"/>
		
			<ellipse transform="matrix(0.9729 -0.2313 0.2313 0.9729 -25.1114 50.6209)" class="st6" cx="203.3" cy="132.4" rx="64.4" ry="47.3"/>
	</g>
	<g>
		<circle class="st5" cx="420.3" cy="59.7" r="16.1"/>
		<path class="st7" d="M435.1,53.2c0,6.4-3.3,12.9-8.6,16.8c-4.9,3.7-10.2,4.2-15.3,3c2.6,1.8,5.8,2.9,9.2,2.9
			c8.9,0,16.1-7.2,16.1-16.1C436.5,57.4,436,55.2,435.1,53.2z"/>
		<path class="st7" d="M418.5,59.7c0,2.7-2.2,4.8-4.8,4.8c-2.7,0-4.8-2.2-4.8-4.8c0-2.7,2.2-4.8,4.8-4.8
			C416.3,54.9,418.5,57.1,418.5,59.7z"/>
		<circle class="st7" cx="424.3" cy="51.9" r="2.6"/>
		<path class="st7" d="M415.6,50.4c0,0.8-0.7,1.5-1.5,1.5c-0.8,0-1.5-0.7-1.5-1.5s0.7-1.5,1.5-1.5C414.9,48.9,415.6,49.6,415.6,50.4
			z"/>
		<circle class="st7" cx="425.8" cy="68" r="1.5"/>
	</g>
	<g>
		<path class="st5" d="M370.3,46c1.1-2.1-1.1-5.4-4.8-7.3c-0.1,0-0.1-0.1-0.2-0.1c0.3-2.4-1.6-5.2-4.8-6.9c-3.5-1.8-7.2-1.5-8.8,0.5
			c-3.7-1.1-7.3,0-8.2,2.5c-1,2.7,1.4,6.1,5.3,7.6c0.3,0.1,0.7,0.2,1,0.3c0.4,1.9,2.3,4,4.9,5.4c3.8,1.9,7.8,1.7,8.9-0.6
			c0,0,0-0.1,0.1-0.1C366.7,48.1,369.4,47.7,370.3,46z"/>
		<path class="st8" d="M344.3,35.6c0,0,0,5.3,4.4,6.2h2.3c0,0,0,7,9.7,6.2l3.5-1.2c0,0,2.9,0.6,4.7-0.6"/>
	</g>
	<g>
		<path class="st5" d="M369.1,432.8c1,1.8,4.4,1.7,7.6-0.1c0.1,0,0.1-0.1,0.2-0.1c1.6,1.3,4.5,1.2,7.2-0.3c2.9-1.7,4.5-4.5,3.8-6.6
			c2.5-2.2,3.4-5.3,2-7.1c-1.5-2-5.1-1.9-8,0.3c-0.2,0.2-0.5,0.4-0.7,0.6c-1.6-0.6-4-0.2-6.2,1.1c-3.2,1.8-4.8,4.9-3.7,6.8
			c0,0,0,0.1,0.1,0.1C369.2,429.2,368.3,431.4,369.1,432.8z"/>
		<path class="st8" d="M388.7,418.8c0,0-3.8-2.5-6.5,0.3l-1.1,1.7c0,0-5.1-3.3-9,4.1l-0.8,3.1c0,0-1.8,1.9-1.8,3.7"/>
	</g>
	<g>
		<path class="st5" d="M121.8,430.7c-1.5,1.9,0.1,5.5,3.4,8.1c0.1,0,0.1,0.1,0.2,0.1c-0.7,2.3,0.7,5.4,3.5,7.6
			c3.1,2.4,6.8,2.8,8.7,1.1c3.4,1.7,7.1,1.4,8.5-0.9c1.5-2.5-0.2-6.3-3.9-8.4c-0.3-0.2-0.6-0.4-0.9-0.5c-0.1-2-1.5-4.4-3.8-6.2
			c-3.3-2.6-7.3-3-8.9-1c0,0-0.1,0.1-0.1,0.1C125.7,429.2,122.9,429.1,121.8,430.7z"/>
		<path class="st8" d="M145.4,445.6c0,0,1-5.2-3.2-6.9l-2.3-0.4c0,0,1.3-6.9-8.4-7.8l-3.7,0.5c0,0-2.8-1.1-4.7-0.3"/>
	</g>
	<g>
		<path class="st5" d="M474.8,282.9c2.7,1.5,7.1-1.3,9.7-6.2c0-0.1,0.1-0.2,0.1-0.2c3.1,0.4,6.8-2,9.1-6.2c2.4-4.5,2.1-9.4-0.5-11.5
			c1.5-4.8,0.2-9.5-3.1-10.8c-3.5-1.4-8,1.7-10,6.8c-0.2,0.4-0.3,0.9-0.4,1.3c-2.5,0.5-5.3,2.9-7.1,6.3c-2.6,4.9-2.3,10.1,0.7,11.7
			c0.1,0,0.1,0.1,0.2,0.1C472.1,278.2,472.6,281.7,474.8,282.9z"/>
		<path class="st8" d="M488.8,249.1c0,0-6.9-0.1-8.1,5.6l0,3.1c0,0-9.2-0.1-8.2,12.5l1.5,4.6c0,0-0.8,3.8,0.7,6.1"/>
	</g>
	<g>
		<path class="st5" d="M466.9,169.5c2.2-0.9,2.7-4.8,1.2-8.7c0-0.1-0.1-0.1-0.1-0.2c1.8-1.6,2.2-5,0.9-8.3c-1.4-3.6-4.4-5.9-6.9-5.4
			c-2.1-3.2-5.4-4.8-7.8-3.5c-2.5,1.4-3,5.5-1,9.2c0.2,0.3,0.4,0.6,0.5,0.9c-0.9,1.7-0.9,4.5,0.2,7.3c1.6,3.9,4.7,6.4,7.1,5.4
			c0,0,0.1,0,0.1-0.1C462.8,168.8,465.1,170.2,466.9,169.5z"/>
		<path class="st8" d="M454.2,144.6c0,0-3.5,4-0.8,7.5l1.8,1.5c0,0-4.6,5.3,3.2,11l3.4,1.4c0,0,1.8,2.4,3.9,2.7"/>
	</g>
	<g>
		<path class="st5" d="M433.3,376.3c2.2,1,5.3-1.4,7-5.3c0-0.1,0.1-0.1,0.1-0.2c2.4,0.2,5.1-1.9,6.6-5.2c1.6-3.6,1.1-7.3-1-8.7
			c0.9-3.8-0.4-7.3-3-8.1c-2.8-0.9-6,1.7-7.3,5.8c-0.1,0.3-0.2,0.7-0.3,1c-1.9,0.6-3.9,2.5-5.1,5.2c-1.7,3.9-1.2,7.8,1.2,8.9
			c0,0,0.1,0,0.1,0.1C431,372.8,431.6,375.5,433.3,376.3z"/>
		<path class="st8" d="M442.1,349.8c0,0-5.3,0.3-5.9,4.8l0.1,2.3c0,0-7,0.4-5.6,10l1.4,3.4c0,0-0.4,3,0.9,4.7"/>
	</g>
	<g>
		<path class="st5" d="M28.4,333.6c-1.9,1.4-1.5,5.3,1,8.7c0,0.1,0.1,0.1,0.1,0.2c-1.3,2-0.9,5.4,1.2,8.3c2.3,3.2,5.7,4.6,8,3.6
			c2.8,2.6,6.4,3.4,8.4,1.5c2.1-1.9,1.6-6.1-1.3-9.2c-0.2-0.3-0.5-0.5-0.7-0.7c0.5-1.9-0.2-4.6-1.9-7c-2.5-3.4-6.2-5-8.2-3.5
			c0,0-0.1,0.1-0.1,0.1C32.6,333.3,29.9,332.5,28.4,333.6z"/>
		<path class="st8" d="M46.8,354.7c0,0,2.4-4.7-1.1-7.5l-2.1-1.1c0,0,3.2-6.3-5.8-9.9l-3.7-0.6c0,0-2.3-1.9-4.4-1.6"/>
	</g>
	<g>
		<path class="st5" d="M284.6,11.5c0-2.4-3.5-4.3-7.7-4.2c-0.1,0-0.1,0-0.2,0c-0.8-2.2-3.9-3.8-7.5-3.8c-3.9,0-7.1,2-7.5,4.5
			c-3.8,0.8-6.4,3.4-6.1,6c0.4,2.9,4.1,4.7,8.3,4.2c0.4,0,0.7-0.1,1-0.2c1.3,1.5,3.9,2.5,6.9,2.4c4.2-0.1,7.6-2.2,7.6-4.7
			c0,0,0-0.1,0-0.1C282.4,15.1,284.6,13.4,284.6,11.5z"/>
		<path class="st8" d="M256.7,14.2c0,0,1.5,4.7,8.2,2.9c0,0,5.9,7,13.5-0.6c0,0,6.1-1.7,4.8-6"/>
	</g>
	<g>
		<path class="st5" d="M177.6,27.3c-0.1,0-0.2,0-0.3,0.1c-1.1-1.2-2.8-1.7-4.4-1.3c-1.7,0.5-2.9,1.9-3.1,3.5c-0.3,0-0.5,0.1-0.8,0.1
			c-1.8,0.5-2.9,2-2.5,3.4c0.4,1.4,2.1,2.1,3.9,1.6c0.5-0.1,1-0.4,1.4-0.7c1,0.6,2.3,0.8,3.5,0.5c1.2-0.3,2.1-1.1,2.7-2.1
			c0.3,0,0.5-0.1,0.8-0.1c2.1-0.5,3.6-2.1,3.3-3.5C181.7,27.4,179.7,26.7,177.6,27.3z"/>
		<path class="st9" d="M166.8,33.2c0,0,0.8,2.8,5.1,1.1c0,0,3.6,1.2,5.6-1.8c0,0,3.6-0.4,4.1-3"/>
	</g>
	<g>
		<path class="st5" d="M464.6,300.7c0.1-0.1,0.1-0.1,0.2-0.2c1.5,0.4,3.3,0,4.4-1.2c1.2-1.3,1.5-3.1,0.9-4.6
			c0.2-0.2,0.4-0.3,0.6-0.5c1.3-1.3,1.4-3.2,0.4-4.2c-1.1-1-2.9-0.7-4.2,0.7c-0.4,0.4-0.6,0.8-0.8,1.3c-1.2,0-2.4,0.5-3.3,1.4
			c-0.8,0.9-1.2,2.1-1.2,3.2c-0.2,0.2-0.4,0.4-0.6,0.6c-1.5,1.6-2,3.7-1,4.7C461,302.7,463.1,302.3,464.6,300.7z"/>
		<path class="st9" d="M470.7,290c0,0-2.1-1.9-4.9,1.8c0,0-3.7,0.9-3.9,4.4c0,0-2.9,2.2-2,4.7"/>
	</g>
	<g>
		<path class="st5" d="M220,462.9c0.1,0,0.2,0,0.3,0c0.7,1.5,2.1,2.5,3.8,2.6c1.7,0.1,3.3-0.9,4-2.4c0.3,0.1,0.5,0.1,0.8,0.1
			c1.8,0.1,3.4-1.1,3.4-2.5c0.1-1.4-1.4-2.7-3.2-2.7c-0.5,0-1.1,0.1-1.5,0.2c-0.8-0.9-1.9-1.5-3.2-1.5c-1.2,0-2.4,0.4-3.2,1.2
			c-0.3-0.1-0.5-0.1-0.8-0.1c-2.2-0.1-4.1,0.9-4.2,2.3C216.1,461.5,217.8,462.8,220,462.9z"/>
		<path class="st9" d="M232,460.5c0,0,0.1-2.9-4.6-2.6c0,0-3.1-2.3-5.9,0c0,0-3.5-0.7-4.8,1.6"/>
	</g>
	<g>
		<path class="st5" d="M48.8,375.1c0.1,0.1,0.2,0.1,0.3,0.2c-0.1,1.9,0.9,3.8,2.7,4.8c1.8,1,4,0.8,5.6-0.3c0.2,0.2,0.5,0.4,0.8,0.5
			c1.9,1.1,4.1,0.7,5-0.8c0.8-1.5,0-3.6-1.9-4.7c-0.6-0.3-1.2-0.5-1.7-0.6c-0.3-1.4-1.2-2.6-2.5-3.4c-1.3-0.7-2.7-0.8-4-0.5
			c-0.3-0.2-0.5-0.4-0.8-0.6c-2.2-1.3-4.8-1.3-5.7,0.1C45.5,371.5,46.6,373.7,48.8,375.1z"/>
		<path class="st9" d="M62.9,379.2c0,0,1.7-3-3.4-5.2c0,0-2-4.1-6.2-3.3c0,0-3.3-2.7-6-0.9"/>
	</g>
	<g>
		<path class="st5" d="M78.4,70.2C77.1,71,76,72,75.2,73.3c-2.6-0.1-5.4,0.7-7.6,2.7c-2.4,2.1-3.8,4.9-3.9,7.6
			c-1.2,0.5-2.5,1.2-3.5,2.2c-3.9,3.6-4.7,9-1.8,12.2c2.8,3.1,7.5,2.5,11.4-1c2.3,2.6,8.1,2.2,12.1-1.2c2.9-2.4,4.4-5.6,4.3-8.2
			c0.7-0.2,1.4-0.5,2-0.9c4.6-2.7,6.2-8.5,3.5-13.1S83,67.5,78.4,70.2z"/>
		<path class="st10" d="M58.4,96.1c0,0,3.1,6.4,10.3,1.1c0.4-0.3,1-0.6,1.4-0.3c3.2,2.3,13.9,2.2,14.8-9.7c1.4-0.3,11.4-3,4.6-14.3"
			/>
	</g>
	<g>
		<path class="st5" d="M329.3,461.9c1.5-0.4,2.9-1.1,4-2c2.4,0.9,5.3,0.8,8.1-0.4c2.9-1.3,5-3.6,5.9-6.2c1.3-0.1,2.7-0.5,4-1.1
			c4.8-2.3,7.1-7.3,5.2-11.2c-1.8-3.8-6.4-4.5-11.2-2.3c-1.5-3.1-7.1-4.4-11.9-2.3c-3.4,1.5-5.8,4.1-6.4,6.6c-0.7,0-1.5,0.1-2.2,0.3
			c-5.2,1.2-8.3,6.4-7.1,11.6C319,460,324.2,463.2,329.3,461.9z"/>
		<path class="st10" d="M355.8,442.9c0,0-1.1-7.1-9.6-4c-0.5,0.2-1.1,0.3-1.4-0.1c-2.4-3.1-12.7-6.1-16.9,5.1
			c-1.5-0.1-11.8-0.4-8.5,12.4"/>
	</g>
	<g>
		<path class="st5" d="M10.2,201.6c-0.6,1.4-0.8,3-0.7,4.4c-2.2,1.4-3.8,3.8-4.5,6.7c-0.7,3.1,0,6.2,1.5,8.4
			c-0.7,1.1-1.2,2.5-1.5,3.9c-0.9,5.2,1.7,10.1,5.9,10.8c4.1,0.8,7.4-2.5,8.5-7.6c3.4,0.7,7.8-3.1,8.9-8.2c0.8-3.7,0.1-7.1-1.5-9.1
			c0.4-0.6,0.8-1.2,1.1-1.9c2.1-4.9-0.2-10.5-5.1-12.6S12.2,196.7,10.2,201.6z"/>
		<path class="st10" d="M9.9,234.3c0,0,6.4,3.3,8.9-5.4c0.1-0.5,0.4-1.1,1-1.1c3.9-0.1,12.4-6.6,5.9-16.7c1-1.1,7.3-9.3-5-14.2"/>
	</g>
</g>
</svg>
